<?xml version="1.0" ?><svg height="2644.0px" viewBox="0 0 168.0 2644.0" width="168.0px" xmlns="http://www.w3.org/2000/svg" xmlns:xlink="http://www.w3.org/1999/xlink">
<g transform="translate(20, 0)"><g transform="translate(-0.0, -0.0)">
<defs>
<g id="uid_928">
<path d=" M 416.5 318.9 L 480.5 350.9 544.5 318.9 480.5 286.9 416.5 318.9 Z" fill="#A4DF57" stroke="none"/>
</g>

<g id="uid_929">
<path d=" M 416.45 318.9 L 416.45 382.9 480.45 414.9 480.45 350.9 416.45 318.9 Z" fill="#F9EF49" stroke="none"/>
</g>

<g id="uid_930">
<path d=" M 544.5 382.9 L 544.5 318.9 480.5 350.9 480.5 414.9 544.5 382.9 Z" fill="#D7E13D" stroke="none"/>
</g>
</defs>

<g transform="matrix( 1, 0, 0, 1, -416.45,-286.75) ">
<use xlink:href="#uid_928"/>
</g>

<g transform="matrix( 1, 0, 0, 1, -416.45,-286.75) ">
<use xlink:href="#uid_929"/>
</g>

<g transform="matrix( 1, 0, 0, 1, -416.45,-286.75) ">
<use xlink:href="#uid_930"/>
</g>
</g></g><g transform="translate(20, 148.0)"><g transform="translate(-0.0, -0.0)">
<defs>
<g id="uid_931">
<path d=" M 609.35 351.1 L 545.35 383.1 609.35 415.1 673.3 383.1 609.35 351.1 Z" fill="#98C64E" stroke="none"/>
</g>

<g id="uid_932">
<path d=" M 609.3 479.1 L 609.3 415.1 545.3 383.1 545.3 447.1 609.3 479.1 Z" fill="#98C64E" stroke="none"/>
</g>

<g id="uid_933">
<path d=" M 673.3 447.1 L 673.3 383.1 609.35 415.1 609.35 479.1 673.3 447.1 Z" fill="#D7E13D" stroke="none"/>
</g>

<g id="uid_934">
<path d=" M 673.3 447.1 L 673.3 418.1 609.35 450.1 609.35 479.1 673.3 447.1 Z" fill="#A4DF57" stroke="none"/>
</g>
</defs>

<g transform="matrix( 1, 0, 0, 1, -545.3,-351.1) ">
<use xlink:href="#uid_931"/>
</g>

<g transform="matrix( 1, 0, 0, 1, -545.3,-351.1) ">
<use xlink:href="#uid_932"/>
</g>

<g transform="matrix( 1, 0, 0, 1, -545.3,-351.1) ">
<use xlink:href="#uid_933"/>
</g>

<g transform="matrix( 1, 0, 0, 1, -545.3,-351.1) ">
<use xlink:href="#uid_934"/>
</g>
</g></g><g transform="translate(20, 296.0)"><g transform="translate(-0.0, -0.0)">
<defs>
<g id="uid_935">
<path d=" M 543.65 511.4 L 607.65 479.4 543.65 447.4 479.65 479.4 543.65 511.4 Z" fill="#98C64E" stroke="none"/>
</g>

<g id="uid_936">
<path d=" M 543.6 575.45 L 543.6 511.4 479.6 479.4 479.6 543.45 543.6 575.45 Z" fill="#009444" stroke="none"/>
</g>

<g id="uid_937">
<path d=" M 543.65 511.4 L 543.65 575.4 607.65 543.45 607.65 479.4 543.65 511.4 Z" fill="#98C64E" stroke="none"/>
</g>
</defs>

<g transform="matrix( 0.99725341796875, 0, 0, 0.998443603515625, 0.15,0.15) ">
<g transform="matrix( 1, 0, 0, 1, -479.6,-447.4) ">
<use xlink:href="#uid_935"/>
</g>

<g transform="matrix( 1, 0, 0, 1, -479.6,-447.4) ">
<use xlink:href="#uid_936"/>
</g>

<g transform="matrix( 1, 0, 0, 1, -479.6,-447.4) ">
<use xlink:href="#uid_937"/>
</g>
</g>

<g transform="matrix( 0.99725341796875, 0, 0, 0.998443603515625, 89.4,41.95) "/>

<g transform="matrix( 0.99725341796875, 0, 0, 0.998443603515625, 89.3,42.1) "/>

<g transform="matrix( 0.99725341796875, 0, 0, 0.998443603515625, 89.05,42) "/>
</g></g><g transform="translate(20, 444.0)"><g transform="translate(-0.0, -0.0)">
<defs>
<g id="uid_938">
<path d=" M 479.6 414.95 L 415.6 446.95 479.6 478.95 543.6 446.95 479.6 414.95 Z" fill="#D7E13D" stroke="none"/>
</g>

<g id="uid_939">
<path d=" M 0 32 L 0 96 64 128 64 64 0 32 Z" fill="#98C443" stroke="none"/>
</g>

<g id="uid_940">
<path d=" M 543.6 510.95 L 543.6 446.95 479.6 478.95 479.6 542.95 543.6 510.95 Z" fill="#D7E13D" stroke="none"/>
</g>
</defs>

<g transform="matrix( 0.998443603515625, 0, 0, 0.999603271484375, 0.1,0) ">
<g transform="matrix( 1, 0, 0, 1, -415.6,-414.95) ">
<use xlink:href="#uid_938"/>
</g>

<g transform="matrix( 1, 0, 0, 1, 0,0) ">
<use xlink:href="#uid_939"/>
</g>

<g transform="matrix( 1, 0, 0, 1, -415.6,-414.95) ">
<use xlink:href="#uid_940"/>
</g>
</g>

<g transform="matrix( 0.998443603515625, 0, 0, 0.999603271484375, 24.65,138.5) "/>

<g transform="matrix( 0.998443603515625, 0, 0, 0.999603271484375, 62.85,128.55) "/>
</g></g><g transform="translate(20, 592.0)"><g transform="translate(-0.0, -0.0)">
<defs>
<g id="uid_941">
<path d=" M 415.65 446.9 L 479.65 414.9 415.65 382.95 351.65 414.9 415.65 446.9 Z" fill="#A4DF57" stroke="none"/>
</g>

<g id="uid_942">
<path d=" M 351.6 414.9 L 351.6 478.95 415.6 510.95 415.6 446.9 351.6 414.9 Z" fill="#009444" stroke="none"/>
</g>

<g id="uid_943">
<path d=" M 479.65 414.9 L 415.65 446.9 415.65 510.95 479.65 478.95 479.65 414.9 Z" fill="#A4DF57" stroke="none"/>
</g>
</defs>

<g transform="matrix( 0.9988250732421875, 0, 0, 0.998046875, 0.05,0.15) ">
<g transform="matrix( 1, 0, 0, 1, -351.6,-382.95) ">
<use xlink:href="#uid_941"/>
</g>

<g transform="matrix( 1, 0, 0, 1, -351.6,-382.95) ">
<use xlink:href="#uid_942"/>
</g>

<g transform="matrix( 1, 0, 0, 1, -351.6,-382.95) ">
<use xlink:href="#uid_943"/>
</g>
</g>

<g transform="matrix( 0.9988250732421875, 0, 0, 0.998046875, -39.1,106.15) "/>

<g transform="matrix( 0.9988250732421875, 0, 0, 0.998046875, 89.2,41.95) "/>
</g></g><g transform="translate(20, 740.0)"><g transform="translate(-0.0, -0.0)">
<defs>
<g id="uid_944">
<path d=" M 479.6 350.3 L 415.65 382.25 479.6 414.25 543.6 382.25 479.6 350.3 Z" fill="#D7E13D" stroke="none"/>
</g>

<g id="uid_945">
<path d=" M 415.6 446.3 L 479.6 478.3 479.6 414.25 415.6 382.25 415.6 446.3 Z" fill="#98C64E" stroke="none"/>
</g>

<g id="uid_946">
<path d=" M 479.6 408.25 L 479.6 472.3 543.6 440.3 543.6 376.25 479.6 408.25 Z" fill="#98C443" stroke="none"/>
</g>
</defs>

<g transform="matrix( 0.998443603515625, 0, 0, 1, 0.05,0) ">
<g transform="matrix( 1, 0, 0, 1, -415.6,-350.3) ">
<use xlink:href="#uid_944"/>
</g>

<g transform="matrix( 1, 0, 0, 1, -415.6,-350.3) ">
<use xlink:href="#uid_945"/>
</g>

<g transform="matrix( 1, 0, 0, 1, -415.6,-344.3) ">
<use xlink:href="#uid_946"/>
</g>
</g>

<g transform="matrix( 0.998443603515625, 0, 0, 1, 25.55,74.3) "/>
</g></g><g transform="translate(20, 888.0)"><g transform="translate(-0.0, -0.0)">
<style type="text/css">.cl5 {
    fill: #36A3D9
    }
.cl6 {
    fill: #186EA8
    }</style>
<g transform="matrix( 1, 0, 0, 1, -280.1,-279.75) ">
	<g>
		<g id="uid_948">
			<path class="cl5" d="M344.1,343.8l64-32l-64-32l-64,32L344.1,343.8z"/>
		</g>
	</g>
</g>
<g transform="matrix( 1, 0, 0, 1, -280.1,-279.75) ">
	<g>
		<g id="uid_949">
			<path class="cl6" d="M344.1,387.8v-44l-64-32v44L344.1,387.8z"/>
		</g>
	</g>
</g>
<g transform="matrix( 1, 0, 0, 1, -280.1,-279.75) ">
	<g>
		<g id="uid_950">
			<path class="cl5" d="M408.1,311.8l-64,32v44l64-32V311.8z"/>
		</g>
	</g>
</g>
</g></g><g transform="translate(20, 1016.0)"><g transform="translate(-0.0, -0.0)">
<defs>
<g id="uid_951">
<path d=" M 457.1 318.15 L 393.1 350.15 457.1 382.1 521.1 350.15 457.1 318.15 Z" fill="#A4DF57" stroke="none"/>
</g>

<g id="uid_952">
<path d=" M 457.05 382.1 L 393.05 350.1 393.05 414.15 457.05 446.15 457.05 382.1 Z" fill="#98C64E" stroke="none"/>
</g>

<g id="uid_953">
<path d=" M 521.1 350.15 L 457.1 382.1 457.1 446.15 521.1 414.15 521.1 350.15 Z" fill="#01954A" stroke="none"/>
</g>
</defs>

<g transform="matrix( 1, 0, 0, 1, -393,-318.15) ">
<use xlink:href="#uid_951"/>
</g>

<g transform="matrix( 1, 0, 0, 1, -393,-318.15) ">
<use xlink:href="#uid_952"/>
</g>

<g transform="matrix( 1, 0, 0, 1, -393,-318.15) ">
<use xlink:href="#uid_953"/>
</g>
</g></g><g transform="translate(20, 1164.0)"><g transform="translate(-0.0, -0.0)">
<defs>
<g id="uid_954">
<path d=" M 521.3 414 L 585.3 446 649.3 414 585.3 382 521.3 414 Z" fill="#A4DF57" stroke="none"/>
</g>

<g id="uid_955">
<path d=" M 521.25 413.95 L 521.25 478 585.25 510 585.25 445.95 521.25 413.95 Z" fill="#01954A" stroke="none"/>
</g>

<g id="uid_956">
<path d=" M 649.3 478 L 649.3 414 585.3 446 585.3 510 649.3 478 Z" fill="#98C64E" stroke="none"/>
</g>
</defs>

<g transform="matrix( 1, 0, 0, 1, -521.25,-382) ">
<use xlink:href="#uid_954"/>
</g>

<g transform="matrix( 1, 0, 0, 1, -521.25,-382) ">
<use xlink:href="#uid_955"/>
</g>

<g transform="matrix( 1, 0, 0, 1, -521.25,-382) ">
<use xlink:href="#uid_956"/>
</g>

<g transform="matrix( 1, 0, 0, 1, -39.2,106.25) "/>

<g transform="matrix( 1, 0, 0, 1, -38.95,106.25) "/>
</g></g><g transform="translate(20, 1312.0)"><g transform="translate(-0.0, -0.0)">
<defs>
<g id="uid_957">
<path d=" M 329.1 445.95 L 393.1 413.95 329.1 381.95 265.1 413.95 329.1 445.95 Z" fill="#98C64E" stroke="none"/>
</g>

<g id="uid_958">
<path d=" M 265.05 413.95 L 265.05 478 329.05 510 329.05 445.95 265.05 413.95 Z" fill="#01954A" stroke="none"/>
</g>

<g id="uid_959">
<path d=" M 393.1 478 L 393.1 413.95 329.1 445.95 329.1 509.95 393.1 478 Z" fill="#A4DF57" stroke="none"/>
</g>
</defs>

<g transform="matrix( 1, 0, 0, 1, -265.05,-381.95) ">
<use xlink:href="#uid_957"/>
</g>

<g transform="matrix( 1, 0, 0, 1, -265.05,-381.95) ">
<use xlink:href="#uid_958"/>
</g>

<g transform="matrix( 1, 0, 0, 1, -265.05,-381.95) ">
<use xlink:href="#uid_959"/>
</g>

<g transform="matrix( 1, 0, 0, 1, -39.3,106.25) "/>

<g transform="matrix( 1, 0, 0, 1, 89.25,41.95) "/>
</g></g><g transform="translate(20, 1460.0)"><g transform="translate(-0.0, -0.0)">
<defs>
<g id="uid_960">
<path d=" M 392.95 350.1 L 328.95 382.1 392.95 414.1 456.9 382.1 392.95 350.1 Z" fill="#D7E13D" stroke="none"/>
</g>

<g id="uid_961">
<path d=" M 392.9 478.1 L 392.9 414.1 328.9 382.1 328.9 446.1 392.9 478.1 Z" fill="#01954A" stroke="none"/>
</g>

<g id="uid_962">
<path d=" M 392.95 414.1 L 392.95 478.1 456.9 446.1 456.9 382.1 392.95 414.1 Z" fill="#186EA8" stroke="none"/>
</g>
</defs>

<g transform="matrix( 1, 0, 0, 1, -328.9,-350.1) ">
<use xlink:href="#uid_960"/>
</g>

<g transform="matrix( 1, 0, 0, 1, -328.9,-350.1) ">
<use xlink:href="#uid_961"/>
</g>

<g transform="matrix( 1, 0, 0, 1, -328.9,-350.1) ">
<use xlink:href="#uid_962"/>
</g>

<g transform="matrix( 1, 0, 0, 1, 25.8,74.1) "/>
</g></g><g transform="translate(20, 1608.0)"><g transform="translate(-0.0, -0.0)">
<defs>
<g id="uid_963">
<path d=" M 329.05 318.15 L 393.05 350.15 457.05 318.15 393.05 286.15 329.05 318.15 Z" fill="#D7E13D" stroke="none"/>
</g>

<g id="uid_964">
<path d=" M 393 350.15 L 329 318.15 329 382.15 393 414.15 393 350.15 Z" fill="#01954A" stroke="none"/>
</g>

<g id="uid_965">
<path d=" M 457.05 382.15 L 457.05 318.15 393.05 350.15 393.05 414.15 457.05 382.15 Z" fill="#01954A" stroke="none"/>
</g>
</defs>

<g transform="matrix( 1, 0, 0, 1, -329,-286.15) ">
<use xlink:href="#uid_963"/>
</g>

<g transform="matrix( 1, 0, 0, 1, -329,-286.15) ">
<use xlink:href="#uid_964"/>
</g>

<g transform="matrix( 1, 0, 0, 1, -329,-286.15) ">
<use xlink:href="#uid_965"/>
</g>

<g transform="matrix( 1, 0, 0, 1, 24.55,138.4) "/>

<g transform="matrix( 1, 0, 0, 1, 62.8,128.45) "/>
</g></g><g transform="translate(20, 1756.0)"><g transform="translate(-0.0, -0.0)">
<defs>
<g id="uid_966">
<path d=" M 329.05 253.45 L 393.05 285.45 457.05 253.45 393.05 221.5 329.05 253.45 Z" fill="#D7E13D" stroke="none"/>
</g>

<g id="uid_967">
<path d=" M 393.05 285.45 L 329.05 253.45 329.05 317.5 393.05 349.5 393.05 285.45 Z" fill="#98C64E" stroke="none"/>
</g>

<g id="uid_968">
<path d=" M 457.05 317.5 L 457.05 253.45 393.05 285.45 393.05 349.5 457.05 317.5 Z" fill="#186EA8" stroke="none"/>
</g>
</defs>

<g transform="matrix( 1, 0, 0, 1, -329.05,-221.5) ">
<use xlink:href="#uid_966"/>
</g>

<g transform="matrix( 1, 0, 0, 1, -329.05,-221.5) ">
<use xlink:href="#uid_967"/>
</g>

<g transform="matrix( 1, 0, 0, 1, -329.05,-221.5) ">
<use xlink:href="#uid_968"/>
</g>

<g transform="matrix( 1, 0, 0, 1, 25.85,74.1) "/>
</g></g><g transform="translate(20, 1904.0)"><g transform="translate(-0.0, -0.0)">
<defs>
<g id="uid_969">
<path d=" M 393.1 221.75 L 457.05 253.75 521.05 221.75 457.05 189.75 393.1 221.75 Z" fill="#A4DF57" stroke="none"/>
</g>

<g id="uid_970">
<path d=" M 393.05 221.75 L 393.05 285.75 457.05 317.75 457.05 253.75 393.05 221.75 Z" fill="#F9EF49" stroke="none"/>
</g>

<g id="uid_971">
<path d=" M 457.05 253.75 L 457.05 317.75 521.05 285.75 521.05 221.75 457.05 253.75 Z" fill="#D7E13D" stroke="none"/>
</g>
</defs>

<g transform="matrix( 1, 0, 0, 1, -393.05,-189.75) ">
<use xlink:href="#uid_969"/>
</g>

<g transform="matrix( 1, 0, 0, 1, -393.05,-189.75) ">
<use xlink:href="#uid_970"/>
</g>

<g transform="matrix( 1, 0, 0, 1, -393.05,-189.75) ">
<use xlink:href="#uid_971"/>
</g>

<g transform="matrix( 1, 0, 0, 1, 89.4,42.1) "/>

<g transform="matrix( 1, 0, 0, 1, 89.3,42.25) "/>

<g transform="matrix( 1, 0, 0, 1, 89.05,42.15) "/>
</g></g><g transform="translate(20, 2052.0)"><g transform="translate(-0.0, -0.0)">
<defs>
<g id="uid_972">
<path d=" M 585.4 254.15 L 521.4 222.15 457.4 254.15 521.4 286.15 585.4 254.15 Z" fill="#D7E13D" stroke="none"/>
</g>

<g id="uid_973">
<path d=" M 457.4 254.15 L 457.4 318.15 521.4 350.15 521.4 286.15 457.4 254.15 Z" fill="#156B7E" stroke="none"/>
</g>

<g id="uid_974">
<path d=" M 585.4 318.15 L 585.4 254.15 521.4 286.15 521.4 350.15 585.4 318.15 Z" fill="#A4DF57" stroke="none"/>
</g>
</defs>

<g transform="matrix( 1, 0, 0, 1, -457.4,-222.15) ">
<use xlink:href="#uid_972"/>
</g>

<g transform="matrix( 1, 0, 0, 1, -457.4,-222.15) ">
<use xlink:href="#uid_973"/>
</g>

<g transform="matrix( 1, 0, 0, 1, -457.4,-222.15) ">
<use xlink:href="#uid_974"/>
</g>

<g transform="matrix( 1, 0, 0, 1, 24.35,138.25) "/>
</g></g><g transform="translate(20, 2200.0)"><g transform="translate(-0.0, -0.0)">
<defs>
<g id="uid_975">
<path d=" M 417.05 383.45 L 481 351.45 417.05 319.45 353.05 351.45 417.05 383.45 Z" fill="#A4DF57" stroke="none"/>
</g>

<g id="uid_976">
<path d=" M 417 383.45 L 353 351.45 353 415.5 417 447.5 417 383.45 Z" fill="#F9EF49" stroke="none"/>
</g>

<g id="uid_977">
<path d=" M 481 351.45 L 417.05 383.45 417.05 447.45 481 415.5 481 351.45 Z" fill="#D7E13D" stroke="none"/>
</g>

<g id="uid_978">
<path d=" M 353.1 351.2 L 353.1 382.75 417.1 414.75 417.1 383.2 353.1 351.2 Z" fill="#98C64E" stroke="none"/>
</g>
</defs>

<g transform="matrix( 1, 0, 0, 1, 0,0) ">
<g transform="matrix( 1, 0, 0, 1, -353,-319.45) ">
<use xlink:href="#uid_975"/>
</g>

<g transform="matrix( 1, 0, 0, 1, -353,-319.45) ">
<use xlink:href="#uid_976"/>
</g>

<g transform="matrix( 1, 0, 0, 1, -353,-319.45) ">
<use xlink:href="#uid_977"/>
</g>

<g transform="matrix( 1, 0, 0, 1, -353,-319.45) ">
<use xlink:href="#uid_978"/>
</g>
</g>
</g></g><g transform="translate(20, 2348.0)"><g transform="translate(-0.0, -0.0)">
<defs>
<g id="uid_979">
<path d=" M 481.05 351.45 L 417.05 383.45 481.05 415.45 545.05 383.45 481.05 351.45 Z" fill="#D7E13D" stroke="none"/>
</g>

<g id="uid_980">
<path d=" M 417.05 447.5 L 481.05 479.5 481.05 415.45 417.05 383.45 417.05 447.5 Z" fill="#01954A" stroke="none"/>
</g>

<g id="uid_981">
<path d=" M 481.05 415.45 L 481.05 479.45 545.05 447.45 545.05 383.45 481.05 415.45 Z" fill="#A4DF57" stroke="none"/>
</g>
</defs>

<g transform="matrix( 1, 0, 0, 1, 0,0) ">
<g transform="matrix( 1, 0, 0, 1, -417.05,-351.45) ">
<use xlink:href="#uid_979"/>
</g>

<g transform="matrix( 1, 0, 0, 1, -417.05,-351.45) ">
<use xlink:href="#uid_980"/>
</g>

<g transform="matrix( 1, 0, 0, 1, -417.05,-351.45) ">
<use xlink:href="#uid_981"/>
</g>
</g>
</g></g><g transform="translate(20, 2496.0)"><g transform="translate(-0.0, -0.0)">
<defs>
<g id="uid_982">
<path d=" M 545.05 448.15 L 609.05 416.15 545.05 384.15 481.1 416.15 545.05 448.15 Z" fill="#98C64E" stroke="none"/>
</g>

<g id="uid_983">
<path d=" M 545.05 512.15 L 545.05 448.15 481.05 416.15 481.05 480.15 545.05 512.15 Z" fill="#98C64E" stroke="none"/>
</g>

<g id="uid_984">
<path d=" M 609.05 480.15 L 609.05 416.15 545.05 448.15 545.05 512.15 609.05 480.15 Z" fill="#D7E13D" stroke="none"/>
</g>
</defs>

<g transform="matrix( 1, 0, 0, 1, 0,0) ">
<g transform="matrix( 1, 0, 0, 1, -481.05,-384.15) ">
<use xlink:href="#uid_982"/>
</g>

<g transform="matrix( 1, 0, 0, 1, -481.05,-384.15) ">
<use xlink:href="#uid_983"/>
</g>

<g transform="matrix( 1, 0, 0, 1, -481.05,-384.15) ">
<use xlink:href="#uid_984"/>
</g>
</g>
</g></g></svg>