<?xml version="1.0" ?><svg height="5917.0px" viewBox="0 0 177.9 5917.0" width="177.9px" xmlns="http://www.w3.org/2000/svg" xmlns:xlink="http://www.w3.org/1999/xlink">
<g transform="translate(20, 5581.0)"><g transform="translate(-0.0, -0.0)">
<defs>
<g id="uid_425">
<path d=" M 411.25 228.75 Q 410.35 228.75 409.7 229.4 409.1 230 409.05 230.9 L 409.05 236.3 Q 409.05 237 409.4 237.6 409.6 237.85 410.2 238.45 L 412.45 240.65 Q 413.55 241.65 413.55 242.8 L 413.55 249.3 Q 413.55 250.35 412.45 251.45 L 410.2 253.6 Q 409.05 254.75 409.05 255.75 L 409.05 261.2 Q 409.1 262.1 409.7 262.75 410.35 263.35 411.25 263.35 L 428.75 263.35 Q 436 263.35 441.1 258.3 446.25 253.2 446.25 246.05 446.25 238.9 441.1 233.8 436 228.75 428.75 228.75 L 411.25 228.75 Z" fill="#B24546" stroke="none"/>
</g>

<g id="uid_426">
<path d=" M 411.25 227.2 Q 410.35 227.2 409.7 227.85 409.1 228.45 409.05 229.35 L 409.05 234.75 Q 409.05 235.8 410.2 236.95 L 412.45 239.1 Q 413 239.65 413.2 239.95 413.55 240.5 413.55 241.25 L 413.55 247.75 Q 413.55 248.8 412.45 249.9 L 410.2 252.05 Q 409.05 253.2 409.05 254.25 L 409.05 259.65 Q 409.1 260.55 409.7 261.2 410.35 261.8 411.25 261.8 L 428.75 261.8 Q 436 261.8 441.1 256.75 446.25 251.65 446.25 244.5 446.25 237.35 441.1 232.25 436 227.2 428.75 227.2 L 411.25 227.2 Z" fill="#D34F50" stroke="none"/>
</g>
</defs>

<g transform="matrix( 1, 0, 0, 1, -406.9,-227) ">
<use xlink:href="#uid_425"/>
</g>

<g transform="matrix( 1, 0, 0, 1, -406.9,-227) ">
<use xlink:href="#uid_426"/>
</g>
</g></g><g transform="translate(20, 5637.0)"><g transform="translate(-0.0, -0.0)">
<defs>
<g id="uid_427">
<path d=" M 230.1 228.55 L 212.6 228.55 Q 205.35 228.55 200.25 233.6 195.1 238.7 195.1 245.85 195.1 253 200.25 258.1 205.35 263.15 212.6 263.15 L 230.1 263.15 Q 231 263.15 231.65 262.55 232.3 261.9 232.3 261 L 232.3 255.6 Q 232.3 254.5 233.4 253.4 L 235.55 251.25 Q 236.65 250.15 236.65 249.1 L 236.65 242.6 Q 236.65 241.45 235.55 240.45 L 233.4 238.25 Q 232.3 237.25 232.3 236.1 L 232.3 230.7 Q 232.3 229.8 231.65 229.2 231 228.55 230.1 228.55 Z" fill="#0A77B0" stroke="none"/>
</g>

<g id="uid_428">
<path d=" M 230.1 227 L 212.6 227 Q 205.35 227 200.25 232.05 195.1 237.15 195.1 244.3 195.1 251.45 200.25 256.55 205.35 261.6 212.6 261.6 L 230.1 261.6 Q 231 261.6 231.65 261 232.3 260.35 232.3 259.45 L 232.3 254.05 Q 232.3 252.9 233.4 251.9 L 235.55 249.7 Q 236.1 249.15 236.3 248.85 236.65 248.3 236.65 247.55 L 236.65 241.05 Q 236.65 240 235.55 238.9 L 233.4 236.75 Q 232.3 235.65 232.3 234.55 L 232.3 229.15 Q 232.3 228.25 231.65 227.65 231 227 230.1 227 Z" fill="#23A0F3" stroke="none"/>
</g>
</defs>

<g transform="matrix( 1, 0, 0, 1, -195.1,-227) ">
<use xlink:href="#uid_427"/>
</g>

<g transform="matrix( 1, 0, 0, 1, -195.1,-227) ">
<use xlink:href="#uid_428"/>
</g>
</g></g><g transform="translate(20, 5693.0)"><g transform="translate(-0.0, -0.0)">
<defs>
<g id="uid_429">
<path d=" M 326.1 228.55 Q 325.15 228.55 324.5 229.2 323.85 229.8 323.85 230.7 L 323.85 236.1 Q 323.85 237.25 324.95 238.25 L 327.2 240.45 Q 327.8 241.05 328 241.3 328.35 241.9 328.35 242.6 L 328.35 249.1 Q 328.35 250.1 327.2 251.25 L 324.95 253.4 Q 323.85 254.5 323.85 255.55 L 323.85 261 Q 323.85 261.9 324.5 262.55 325.15 263.15 326.1 263.15 L 357.55 263.15 Q 358.45 263.15 359.15 262.55 359.8 261.9 359.8 261 L 359.8 255.55 Q 359.8 254.5 360.9 253.4 L 363.15 251.25 Q 364.25 250.15 364.25 249.1 L 364.25 242.6 Q 364.25 241.85 363.9 241.3 363.7 241 363.15 240.45 L 360.9 238.25 Q 359.8 237.25 359.8 236.1 L 359.8 230.7 Q 359.8 229.8 359.15 229.2 358.45 228.55 357.55 228.55 L 326.1 228.55 Z" fill="#0A77B0" stroke="none"/>
</g>

<g id="uid_430">
<path d=" M 326.1 227 Q 325.15 227 324.5 227.65 323.85 228.25 323.85 229.15 L 323.85 234.55 Q 323.85 235.65 324.95 236.75 L 327.2 238.9 Q 328.35 240.05 328.35 241.05 L 328.35 247.55 Q 328.35 248.25 328 248.85 327.8 249.1 327.2 249.7 L 324.95 251.85 Q 323.85 252.95 323.85 254.05 L 323.85 259.45 Q 323.85 260.35 324.5 261 325.15 261.6 326.1 261.6 L 357.55 261.6 Q 358.45 261.6 359.15 261 359.8 260.35 359.8 259.45 L 359.8 254.05 Q 359.8 252.95 360.9 251.85 L 363.15 249.7 Q 363.7 249.15 363.9 248.85 364.25 248.3 364.25 247.55 L 364.25 241.05 Q 364.25 240 363.15 238.9 L 360.9 236.75 Q 359.8 235.65 359.8 234.55 L 359.8 229.15 Q 359.8 228.25 359.15 227.65 358.45 227 357.55 227 L 326.1 227 Z" fill="#23A0F3" stroke="none"/>
</g>
</defs>

<g transform="matrix( 1, 0, 0, 1, -323.3,-227) ">
<use xlink:href="#uid_429"/>
</g>

<g transform="matrix( 1, 0, 0, 1, -323.3,-227) ">
<use xlink:href="#uid_430"/>
</g>
</g></g><g transform="translate(20, 5749.0)"><g transform="translate(-0.0, -0.0)">
<defs>
<g id="uid_431">
<path d=" M 406.5 241.3 Q 406.3 241.05 405.7 240.45 L 403.45 238.25 Q 402.35 237.25 402.35 236.1 L 402.35 230.7 Q 402.35 229.8 401.7 229.2 401.05 228.55 400.1 228.55 L 368.65 228.55 Q 367.7 228.55 367.05 229.2 366.4 229.8 366.4 230.7 L 366.4 236.1 Q 366.4 237.25 367.5 238.25 L 369.75 240.45 Q 370.9 241.5 370.9 242.6 L 370.9 249.1 Q 370.9 250.2 369.75 251.25 L 367.5 253.4 Q 366.4 254.5 366.4 255.55 L 366.4 261 Q 366.4 261.9 367.05 262.55 367.7 263.15 368.65 263.15 L 400.1 263.15 Q 401.05 263.15 401.7 262.55 402.35 261.9 402.35 261 L 402.35 255.55 Q 402.35 254.5 403.45 253.4 L 405.7 251.25 Q 406.85 250.1 406.85 249.1 L 406.85 242.6 Q 406.85 241.9 406.5 241.3 Z" fill="#2F7F71" stroke="none"/>
</g>

<g id="uid_432">
<path d=" M 406.85 241.05 Q 406.85 240.05 405.7 238.9 L 403.45 236.75 Q 402.35 235.65 402.35 234.55 L 402.35 229.15 Q 402.35 228.25 401.7 227.65 401.05 227 400.1 227 L 368.65 227 Q 367.7 227 367.05 227.65 366.4 228.25 366.4 229.15 L 366.4 234.55 Q 366.4 235.65 367.5 236.75 L 369.75 238.9 Q 370.9 239.95 370.9 241.05 L 370.9 247.55 Q 370.9 248.65 369.75 249.7 L 367.5 251.85 Q 366.4 252.95 366.4 254.05 L 366.4 259.45 Q 366.4 260.35 367.05 261 367.7 261.6 368.65 261.6 L 400.1 261.6 Q 401.05 261.6 401.7 261 402.35 260.35 402.35 259.45 L 402.35 254.05 Q 402.35 252.95 403.45 251.85 L 405.7 249.7 Q 406.3 249.1 406.5 248.85 406.85 248.25 406.85 247.55 L 406.85 241.05 Z" fill="#13A795" stroke="none"/>
</g>
</defs>

<g transform="matrix( 1, 0, 0, 1, -365.85,-227) ">
<use xlink:href="#uid_431"/>
</g>

<g transform="matrix( 1, 0, 0, 1, -365.85,-227) ">
<use xlink:href="#uid_432"/>
</g>
</g></g><g transform="translate(20, 5805.0)"><g transform="translate(-0.0, -0.0)">
<defs>
<g id="uid_433">
<path d=" M 273.95 229.2 Q 273.3 228.55 272.35 228.55 L 240.9 228.55 Q 239.95 228.55 239.3 229.2 238.65 229.8 238.65 230.7 L 238.65 236.1 Q 238.65 237.3 239.8 238.25 L 242.05 240.45 Q 242.6 241 242.8 241.3 243.15 241.85 243.15 242.6 L 243.15 249.1 Q 243.15 250.15 242.05 251.25 L 239.8 253.4 Q 238.65 254.45 238.65 255.55 L 238.65 261 Q 238.65 261.9 239.3 262.55 239.95 263.15 240.9 263.15 L 272.35 263.15 Q 273.3 263.15 273.95 262.55 274.6 261.9 274.6 261 L 274.6 255.55 Q 274.6 254.45 275.75 253.4 L 278 251.25 Q 279.1 250.15 279.1 249.1 L 279.1 242.6 Q 279.1 241.85 278.75 241.3 278.55 241 278 240.45 L 275.75 238.25 Q 274.6 237.3 274.6 236.1 L 274.6 230.7 Q 274.6 229.8 273.95 229.2 Z" fill="#B24546" stroke="none"/>
</g>

<g id="uid_434">
<path d=" M 273.95 227.65 Q 273.3 227 272.35 227 L 240.9 227 Q 239.95 227 239.3 227.65 238.65 228.25 238.65 229.15 L 238.65 234.55 Q 238.65 235.7 239.8 236.75 L 242.05 238.9 Q 243.15 240 243.15 241.05 L 243.15 247.55 Q 243.15 248.3 242.8 248.85 242.6 249.15 242.05 249.7 L 239.8 251.85 Q 238.65 252.9 238.65 254.05 L 238.65 259.45 Q 238.65 260.35 239.3 261 239.95 261.6 240.9 261.6 L 272.35 261.6 Q 273.3 261.6 273.95 261 274.6 260.35 274.6 259.45 L 274.6 254.05 Q 274.6 252.9 275.75 251.85 L 278 249.7 Q 278.55 249.15 278.75 248.85 279.1 248.3 279.1 247.55 L 279.1 241.05 Q 279.1 240 278 238.9 L 275.75 236.75 Q 274.6 235.7 274.6 234.55 L 274.6 229.15 Q 274.6 228.25 273.95 227.65 Z" fill="#D34F50" stroke="none"/>
</g>
</defs>

<g transform="matrix( 1, 0, 0, 1, -238.1,-227) ">
<use xlink:href="#uid_433"/>
</g>

<g transform="matrix( 1, 0, 0, 1, -238.1,-227) ">
<use xlink:href="#uid_434"/>
</g>
</g></g><g transform="translate(20, 5861.0)"><g transform="translate(-0.0, -0.0)">
<defs>
<g id="uid_435">
<path d=" M 284.7 240.45 Q 285.3 241.05 285.5 241.3 285.85 241.9 285.85 242.6 L 285.85 249.1 Q 285.85 250.1 284.7 251.25 L 282.45 253.4 Q 281.35 254.5 281.35 255.55 L 281.35 261 Q 281.35 261.9 282 262.55 282.65 263.15 283.6 263.15 L 315.05 263.15 Q 315.95 263.15 316.65 262.55 317.3 261.9 317.3 261 L 317.3 255.55 Q 317.3 254.5 318.4 253.4 L 320.65 251.25 Q 321.75 250.15 321.75 249.1 L 321.75 242.6 Q 321.75 241.55 320.65 240.45 L 318.4 238.25 Q 317.3 237.25 317.3 236.1 L 317.3 230.7 Q 317.3 229.8 316.65 229.2 315.95 228.55 315.05 228.55 L 283.6 228.55 Q 282.65 228.55 282 229.2 281.35 229.8 281.35 230.7 L 281.35 236.1 Q 281.35 237.25 282.45 238.25 L 284.7 240.45 Z" fill="#AB5F0E" stroke="none"/>
</g>

<g id="uid_436">
<path d=" M 315.05 227 L 283.6 227 Q 282.65 227 282 227.65 281.35 228.25 281.35 229.15 L 281.35 234.55 Q 281.35 235.65 282.45 236.75 L 284.7 238.9 Q 285.85 240.05 285.85 241.05 L 285.85 247.55 Q 285.85 248.25 285.5 248.85 285.3 249.1 284.7 249.7 L 282.45 251.85 Q 281.35 252.95 281.35 254.05 L 281.35 259.45 Q 281.35 260.35 282 261 282.65 261.6 283.6 261.6 L 315.05 261.6 Q 315.95 261.6 316.65 261 317.3 260.35 317.3 259.45 L 317.3 254.05 Q 317.3 252.95 318.4 251.85 L 320.65 249.7 Q 321.2 249.15 321.4 248.85 321.75 248.3 321.75 247.55 L 321.75 241.05 Q 321.75 240 320.65 238.9 L 318.4 236.75 Q 317.3 235.65 317.3 234.55 L 317.3 229.15 Q 317.3 228.25 316.65 227.65 315.95 227 315.05 227 Z" fill="#F7952A" stroke="none"/>
</g>
</defs>

<g transform="matrix( 1, 0, 0, 1, -280.8,-227) ">
<use xlink:href="#uid_435"/>
</g>

<g transform="matrix( 1, 0, 0, 1, -280.8,-227) ">
<use xlink:href="#uid_436"/>
</g>
</g></g></svg>