<?xml version="1.0" ?><svg height="10933.0px" viewBox="0 0 193.0 10933.0" width="193.0px" xmlns="http://www.w3.org/2000/svg" xmlns:xlink="http://www.w3.org/1999/xlink">
<g transform="translate(20, 2198.0)"><g transform="translate(-0.0, -0.0)">
<defs>
<g id="uid_382">
<path d=" M 222.4 476.45 L 286.35 444.45 222.4 412.45 158.4 444.45 222.4 476.45 Z" fill="#98C64E" stroke="none"/>
</g>

<g id="uid_383">
<path d=" M 222.35 508 L 222.35 476.45 158.35 444.45 158.35 476 222.35 508 Z" fill="#01954A" stroke="none"/>
</g>

<g id="uid_384">
<path d=" M 286.4 476 L 286.4 444.45 222.4 476.45 222.4 508 286.4 476 Z" fill="#D7E13D" stroke="none"/>
</g>

<g id="uid_385">
<path d=" M 229 416.8 Q 229 416.1 227.95 415.6 226.9 415.05 225.45 415.05 224 415 222.95 415.55 221.9 416.05 221.9 416.75 221.9 417.45 222.95 417.95 224 418.5 225.45 418.5 226.9 418.5 227.95 418 229 417.5 229 416.8 Z" fill="#98C64E" stroke="none"/>
</g>

<g id="uid_386">
<path d=" M 170 395.55 L 169.55 394.65 167 395.9 167 444.3 168 444.3 168 396.5 170 395.55 Z" fill="#58595B" stroke="none"/>
</g>

<g id="uid_387">
<path d=" M 180.05 391.25 L 181.6 383.3 173.55 385.9 172.75 393.45 180.05 391.25 Z" fill="#186EA8" stroke="none"/>
</g>

<g id="uid_388">
<path d=" M 177.05 387.3 L 178.1 392.45 Q 178.2 392.5 180.05 391.25 L 181.6 383.3 179.65 384.55 177.05 387.3 Z" fill="#98C64E" stroke="none"/>
</g>

<g id="uid_389">
<path d=" M 171.55 387.2 L 176.75 387.75 179.5 384.6 181.5 383.35 173.55 385.9 171.55 387.2 Z" fill="#D7E13D" stroke="none"/>
</g>

<g id="uid_390">
<path d=" M 178.1 392.45 L 179.65 384.55 171.6 387.1 170.8 394.65 178.1 392.45 Z" fill="#186EA8" stroke="none"/>
</g>

<g id="uid_391">
<path d=" M 159.55 394.3 L 152.4 395.25 159.3 403.45 166.4 402.55 159.55 394.3 Z" fill="#186EA8" stroke="none"/>
</g>

<g id="uid_392">
<path d=" M 159.55 394.3 L 156.85 395.35 164.7 403.25 166.4 402.55 159.55 394.3 Z" fill="#98C64E" stroke="none"/>
</g>

<g id="uid_393">
<path d=" M 157.9 395.05 L 159.55 394.3 152.4 395.25 150.75 395.9 154.55 397.55 157.9 395.05 Z" fill="#D7E13D" stroke="none"/>
</g>

<g id="uid_394">
<path d=" M 157.9 395.05 L 150.75 395.9 157.7 404.25 164.7 403.25 157.9 395.05 Z" fill="#186EA8" stroke="none"/>
</g>

<g id="uid_395">
<path d=" M 284.2 415.85 L 291.7 416.95 299.25 408.4 291.65 407.25 284.2 415.85 Z" fill="#186EA8" stroke="none"/>
</g>

<g id="uid_396">
<path d=" M 285.95 416.65 L 294.55 408.4 291.65 407.25 284.2 415.85 285.95 416.65 Z" fill="#186EA8" stroke="none"/>
</g>

<g id="uid_397">
<path d=" M 296.95 410.8 L 301 409.15 299.25 408.4 291.65 407.25 293.4 408.05 296.95 410.8 Z" fill="#D7E13D" stroke="none"/>
</g>

<g id="uid_398">
<path d=" M 285.95 416.65 L 293.4 417.85 301 409.15 293.4 408.05 285.95 416.65 Z" fill="#D7E13D" stroke="none"/>
</g>

<g id="uid_399">
<path d=" M 264.3 425.45 L 271.9 426.6 279.45 417.95 271.85 416.8 264.3 425.45 Z" fill="#186EA8" stroke="none"/>
</g>

<g id="uid_400">
<path d=" M 266.1 426.3 L 274.75 417.95 271.85 416.8 264.3 425.45 266.1 426.3 Z" fill="#186EA8" stroke="none"/>
</g>

<g id="uid_401">
<path d=" M 277.15 420.35 L 281.25 418.7 279.45 417.95 271.85 416.8 273.6 417.6 277.15 420.35 Z" fill="#D7E13D" stroke="none"/>
</g>

<g id="uid_402">
<path d=" M 266.1 426.3 L 273.6 427.5 281.25 418.7 273.6 417.6 266.1 426.3 Z" fill="#D7E13D" stroke="none"/>
</g>

<g id="uid_403">
<path d=" M 283.4 443.35 L 283.4 415.2 279.4 409.65 278.65 410.35 282.4 415.55 282.4 443.35 283.4 443.35 Z" fill="#125C68" stroke="none"/>
</g>

<g id="uid_404">
<path d=" M 271.8 409.8 L 278.9 408.85 272 400.7 264.9 401.65 271.8 409.8 Z" fill="#186EA8" stroke="none"/>
</g>

<g id="uid_405">
<path d=" M 269.3 401.75 L 277.2 409.6 278.9 408.85 272 400.7 269.3 401.75 Z" fill="#D7E13D" stroke="none"/>
</g>

<g id="uid_406">
<path d=" M 263.2 402.3 L 267 403.9 270.35 401.4 272 400.7 264.9 401.65 263.2 402.3 Z" fill="#D7E13D" stroke="none"/>
</g>

<g id="uid_407">
<path d=" M 270.2 410.6 L 277.2 409.6 270.35 401.4 263.2 402.3 270.2 410.6 Z" fill="#186EA8" stroke="none"/>
</g>

<g id="uid_408">
<path d=" M 228.8 463.95 Q 230.55 463.05 230.4 461.85 230.35 460.75 228.8 460 227.25 459.3 225.15 459.35 223.3 459.45 222.15 460 220.65 459.2 218.45 459.2 216.35 459.25 214.9 460.05 213.45 460.8 213.5 461.9 213.6 462.9 214.8 463.6 213.05 464.5 213.2 465.7 213.3 466.8 214.8 467.55 216.35 468.3 218.45 468.2 220.15 468.2 221.45 467.55 223.1 468.4 225.15 468.35 227.2 468.3 228.7 467.55 230.15 466.75 230.1 465.65 230 464.65 228.8 463.95 Z" fill="#D7E13D" stroke="none"/>
</g>

<g id="uid_409">
<path d=" M 225.9 463.55 Q 225.75 462.65 224.45 462.05 223.1 461.45 221.35 461.5 219.6 461.55 218.45 462.2 217.3 462.85 217.4 463.7 217.5 464.6 218.85 465.2 220.2 465.85 221.95 465.8 223.7 465.75 224.85 465.1 226 464.45 225.9 463.55 Z" fill="#FFA2DA" stroke="none"/>
</g>

<g id="uid_410">
<path d=" M 930.65 586.15 Q 921.9 585.9 915.65 588.35 909.4 590.8 909.3 594.55 909.2 598.25 915.3 601.1 921.4 603.9 930.15 604.15 938.85 604.4 945.1 601.95 951.35 599.45 951.45 595.75 951.55 592.05 945.5 589.25 939.4 586.4 930.65 586.15 Z" fill="#23A0F3" stroke="none"/>
</g>

<g id="uid_411">
<path d=" M 904.8 590.8 L 859.5 591.2 859.6 595 Q 859.55 599.45 866.2 602.8 872.9 606.2 882.2 606.25 891.45 606.35 898.2 603 904.85 599.75 904.9 595.35 L 904.8 590.8 Z" fill="#01954A" stroke="none"/>
</g>

<g id="uid_412">
<path d=" M 882.25 580.25 Q 873 580.2 866.2 583.5 859.55 586.75 859.5 591.15 859.5 595.55 866.1 598.9 872.85 602.3 882.1 602.35 891.35 602.45 898.1 599.15 904.75 595.9 904.8 591.5 904.85 587.05 898.25 583.7 891.55 580.35 882.25 580.25 Z" fill="#D7E13D" stroke="none"/>
</g>

<g id="uid_413">
<path d=" M 882.35 582.75 Q 875.15 582.7 869.15 585.2 863.1 587.75 863.05 591.05 863.05 594.35 869.05 596.95 874.95 599.55 882.25 599.6 889.5 599.65 895.5 597.1 901.55 594.55 901.55 591.3 901.6 588 895.55 585.4 889.6 582.8 882.35 582.75 Z" fill="#98C64E" stroke="none"/>
</g>

<g id="uid_414">
<path d=" M 870.75 588.35 Q 865.3 590.25 863.65 592.95 865.3 595.65 870.7 597.6 876.15 599.55 882.25 599.6 888.4 599.65 893.85 597.75 899.3 595.85 901 593.15 899.3 590.4 893.9 588.5 888.45 586.55 882.35 586.5 876.25 586.45 870.75 588.35 Z" fill="#23A0F3" stroke="none"/>
</g>

<g id="uid_415">
<path d=" M 882.1 552.5 L 889.95 548.55 882.1 544.65 874.2 548.55 882.1 552.5 Z" fill="#F7952A" stroke="none"/>
</g>

<g id="uid_416">
<path d=" M 884.55 592.95 L 884.55 576.8 879.2 576.8 879.2 592.9 Q 879.2 593.45 880 593.8 880.75 594.2 881.85 594.2 882.95 594.25 883.75 593.85 884.55 593.5 884.55 592.95 Z" fill="#01954A" stroke="none"/>
</g>

<g id="uid_417">
<path d=" M 884.55 576.85 Q 884.55 576.3 883.75 575.95 883 575.55 881.9 575.55 880.8 575.55 880 575.95 879.2 576.3 879.2 576.8 879.2 577.3 880 577.7 880.75 578.1 881.85 578.15 882.95 578.15 883.75 577.75 884.55 577.4 884.55 576.85 Z" fill="#98C64E" stroke="none"/>
</g>

<g id="uid_418">
<path d=" M 882 580.8 Q 882.5 580.8 882.5 580.3 L 882.45 572.3 Q 882.45 571.8 881.95 571.8 881.45 571.8 881.45 572.3 L 881.5 580.3 Q 881.5 580.8 882 580.8 Z" fill="#156B7E" stroke="none"/>
</g>

<g id="uid_419">
<path d=" M 874.2 548.55 L 879.3 573.5 882.1 574.9 882.1 552.5 874.2 548.55 Z" fill="#CE7923" stroke="none"/>
</g>

<g id="uid_420">
<path d=" M 77.25 84.5 L 64.35 91 64.35 127.9 68.85 125.75 77.25 84.5 Z" fill="#F7952A" stroke="none"/>
</g>

<g id="uid_421">
<path d=" M 882.85 556.65 L 888 554.15 888.15 553.45 882.9 556 882.85 556.65 Z" fill="#CE7923" stroke="none"/>
</g>

<g id="uid_422">
<path d=" M 882.45 562.95 L 887.1 560.7 887.25 560 882.55 562.35 882.45 562.95 Z" fill="#CE7923" stroke="none"/>
</g>

<g id="uid_423">
<path d=" M 876.95 560.5 L 881.6 562.75 881.5 562.15 876.8 559.8 876.95 560.5 Z" fill="#F7952A" stroke="none"/>
</g>

<g id="uid_424">
<path d=" M 878.75 568.8 L 881.6 570.2 881.55 569.6 878.6 568.1 878.75 568.8 Z" fill="#F7952A" stroke="none"/>
</g>

<g id="uid_425">
<path d=" M 875.8 553.8 L 881.2 556.5 881.15 555.85 875.65 553.1 875.8 553.8 Z" fill="#F7952A" stroke="none"/>
</g>

<g id="uid_426">
<path d=" M 882.3 570.3 L 885.65 568.6 885.85 567.95 882.35 569.65 882.3 570.3 Z" fill="#CE7923" stroke="none"/>
</g>
</defs>

<g transform="matrix( 1, 0, 0, 1, 0,0) ">
<g transform="matrix( 1, 0, 0, 1, -150.75,-351.05) ">
<use xlink:href="#uid_382"/>
</g>

<g transform="matrix( 1, 0, 0, 1, -150.75,-351.05) ">
<use xlink:href="#uid_383"/>
</g>

<g transform="matrix( 1, 0, 0, 1, -150.75,-351.05) ">
<use xlink:href="#uid_384"/>
</g>

<g transform="matrix( 1, 0, 0, 1, -150.75,-351.05) ">
<use xlink:href="#uid_385"/>
</g>

<g transform="matrix( 1, 0, 0, 1, -150.75,-351.05) ">
<use xlink:href="#uid_386"/>
</g>

<g transform="matrix( 1, 0, 0, 1, -150.75,-351.05) ">
<use xlink:href="#uid_387"/>
</g>

<g transform="matrix( 1, 0, 0, 1, -150.75,-351.05) ">
<use xlink:href="#uid_388"/>
</g>

<g transform="matrix( 1, 0, 0, 1, -150.75,-351.05) ">
<use xlink:href="#uid_389"/>
</g>

<g transform="matrix( 1, 0, 0, 1, -150.75,-351.05) ">
<use xlink:href="#uid_390"/>
</g>

<g transform="matrix( 1, 0, 0, 1, -150.75,-351.05) ">
<use xlink:href="#uid_391"/>
</g>

<g transform="matrix( 1, 0, 0, 1, -150.75,-351.05) ">
<use xlink:href="#uid_392"/>
</g>

<g transform="matrix( 1, 0, 0, 1, -150.75,-351.05) ">
<use xlink:href="#uid_393"/>
</g>

<g transform="matrix( 1, 0, 0, 1, -150.75,-351.05) ">
<use xlink:href="#uid_394"/>
</g>

<g transform="matrix( 1, 0, 0, 1, -150.75,-351.05) ">
<use xlink:href="#uid_395"/>
</g>

<g transform="matrix( 1, 0, 0, 1, -150.75,-351.05) ">
<use xlink:href="#uid_396"/>
</g>

<g transform="matrix( 1, 0, 0, 1, -150.75,-351.05) ">
<use xlink:href="#uid_397"/>
</g>

<g transform="matrix( 1, 0, 0, 1, -150.75,-351.05) ">
<use xlink:href="#uid_398"/>
</g>

<g transform="matrix( 1, 0, 0, 1, -150.75,-351.05) ">
<use xlink:href="#uid_399"/>
</g>

<g transform="matrix( 1, 0, 0, 1, -150.75,-351.05) ">
<use xlink:href="#uid_400"/>
</g>

<g transform="matrix( 1, 0, 0, 1, -150.75,-351.05) ">
<use xlink:href="#uid_401"/>
</g>

<g transform="matrix( 1, 0, 0, 1, -150.75,-351.05) ">
<use xlink:href="#uid_402"/>
</g>

<g transform="matrix( 1, 0, 0, 1, -150.75,-351.05) ">
<use xlink:href="#uid_403"/>
</g>

<g transform="matrix( 1, 0, 0, 1, -150.75,-351.05) ">
<use xlink:href="#uid_404"/>
</g>

<g transform="matrix( 1, 0, 0, 1, -150.75,-351.05) ">
<use xlink:href="#uid_405"/>
</g>

<g transform="matrix( 1, 0, 0, 1, -150.75,-351.05) ">
<use xlink:href="#uid_406"/>
</g>

<g transform="matrix( 1, 0, 0, 1, -150.75,-351.05) ">
<use xlink:href="#uid_407"/>
</g>

<g transform="matrix( 1, 0, 0, 1, -151,-347.3) ">
<use xlink:href="#uid_408"/>
</g>

<g transform="matrix( 1, 0, 0, 1, -151,-347.3) ">
<use xlink:href="#uid_409"/>
</g>

<g transform="matrix( 1.6988525390625, -0.009368896484375, 0.0093231201171875, 1.6937255859375, -1523.7,-909.1) ">
<use xlink:href="#uid_410"/>
</g>

<g transform="matrix( 1.6476898193359375, 0, 0, 1.6476898193359375, -1382.45,-890.9) ">
<use xlink:href="#uid_411"/>
</g>

<g transform="matrix( 1.6476898193359375, 0, 0, 1.6476898193359375, -1382.45,-890.9) ">
<use xlink:href="#uid_412"/>
</g>

<g transform="matrix( 1.6476898193359375, 0, 0, 1.6476898193359375, -1382.45,-890.9) ">
<use xlink:href="#uid_413"/>
</g>

<g transform="matrix( 1.6476898193359375, 0, 0, 1.6476898193359375, -1382.45,-890.9) ">
<use xlink:href="#uid_414"/>
</g>

<g transform="matrix( 1.6476898193359375, 0, 0, 1.6476898193359375, -1382.45,-897.4) ">
<use xlink:href="#uid_415"/>
</g>

<g transform="matrix( 1.6476898193359375, 0, 0, 1.6476898193359375, -1382.45,-890.9) ">
<use xlink:href="#uid_416"/>
</g>

<g transform="matrix( 1.6476898193359375, 0, 0, 1.6476898193359375, -1382.45,-890.9) ">
<use xlink:href="#uid_417"/>
</g>

<g transform="matrix( 1.6476898193359375, 0, 0, 1.6476898193359375, -1382.45,-896.85) ">
<use xlink:href="#uid_418"/>
</g>

<g transform="matrix( 1.6476898193359375, 0, 0, 1.6476898193359375, -1382.45,-897.4) ">
<use xlink:href="#uid_419"/>
</g>

<g transform="matrix( 1, 0, 0, 1, 6.65,-78.05) ">
<use xlink:href="#uid_420"/>
</g>

<g transform="matrix( 1.6476898193359375, 0, 0, 1.6476898193359375, -1382.45,-897.4) ">
<use xlink:href="#uid_421"/>
</g>

<g transform="matrix( 1.6476898193359375, 0, 0, 1.6476898193359375, -1382.45,-897.4) ">
<use xlink:href="#uid_422"/>
</g>

<g transform="matrix( 1.6476898193359375, 0, 0, 1.6476898193359375, -1382.45,-897.4) ">
<use xlink:href="#uid_423"/>
</g>

<g transform="matrix( 1.6476898193359375, 0, 0, 1.6476898193359375, -1382.45,-897.4) ">
<use xlink:href="#uid_424"/>
</g>

<g transform="matrix( 1.6476898193359375, 0, 0, 1.6476898193359375, -1382.45,-897.4) ">
<use xlink:href="#uid_425"/>
</g>

<g transform="matrix( 1.6476898193359375, 0, 0, 1.6476898193359375, -1382.45,-897.4) ">
<use xlink:href="#uid_426"/>
</g>
</g>
</g></g><g transform="translate(20, 2374.0)"><g transform="translate(-0.0, -0.0)">
<defs>
<g id="uid_427">
<path d=" M 673.4 254.45 L 737.35 222.45 673.4 190.45 609.4 222.45 673.4 254.45 Z" fill="#98C64E" stroke="none"/>
</g>

<g id="uid_428">
<path d=" M 673.35 286 L 673.35 254.45 609.35 222.45 609.35 254 673.35 286 Z" fill="#01954A" stroke="none"/>
</g>

<g id="uid_429">
<path d=" M 737.4 254 L 737.4 222.45 673.4 254.45 673.4 286 737.4 254 Z" fill="#D7E13D" stroke="none"/>
</g>

<g id="uid_430">
<path d=" M 640.25 191.4 L 632.65 190.25 625.2 198.85 632.7 199.95 640.25 191.4 Z" fill="#186EA8" stroke="none"/>
</g>

<g id="uid_431">
<path d=" M 635.55 191.4 L 632.65 190.25 625.2 198.85 626.95 199.65 635.55 191.4 Z" fill="#186EA8" stroke="none"/>
</g>

<g id="uid_432">
<path d=" M 637.95 193.8 L 642 192.15 640.25 191.4 632.65 190.25 634.4 191.05 637.95 193.8 Z" fill="#D7E13D" stroke="none"/>
</g>

<g id="uid_433">
<path d=" M 642 192.15 L 634.4 191.05 626.95 199.65 634.4 200.85 642 192.15 Z" fill="#F9EF49" stroke="none"/>
</g>

<g id="uid_434">
<path d=" M 612.9 209.6 L 620.45 200.95 612.85 199.8 605.3 208.45 612.9 209.6 Z" fill="#186EA8" stroke="none"/>
</g>

<g id="uid_435">
<path d=" M 615.75 200.95 L 612.85 199.8 605.3 208.45 607.1 209.3 615.75 200.95 Z" fill="#186EA8" stroke="none"/>
</g>

<g id="uid_436">
<path d=" M 618.15 203.35 L 622.25 201.7 620.45 200.95 612.85 199.8 614.6 200.6 618.15 203.35 Z" fill="#D7E13D" stroke="none"/>
</g>

<g id="uid_437">
<path d=" M 614.6 210.5 L 622.25 201.7 614.6 200.6 607.1 209.3 614.6 210.5 Z" fill="#98C64E" stroke="none"/>
</g>

<g id="uid_438">
<path d=" M 624.4 197.2 L 620.4 192.65 619.65 193.35 623.4 197.55 623.4 222.35 624.4 222.35 624.4 197.2 Z" fill="#125C68" stroke="none"/>
</g>

<g id="uid_439">
<path d=" M 612.8 192.8 L 619.9 191.85 613 183.7 605.9 184.65 612.8 192.8 Z" fill="#186EA8" stroke="none"/>
</g>

<g id="uid_440">
<path d=" M 610.3 184.75 L 618.2 192.6 619.9 191.85 613 183.7 610.3 184.75 Z" fill="#98C64E" stroke="none"/>
</g>

<g id="uid_441">
<path d=" M 605.9 184.65 L 604.2 185.3 608 186.9 611.35 184.4 613 183.7 605.9 184.65 Z" fill="#D7E13D" stroke="none"/>
</g>

<g id="uid_442">
<path d=" M 611.2 193.6 L 618.2 192.6 611.35 184.4 604.2 185.3 611.2 193.6 Z" fill="#186EA8" stroke="none"/>
</g>

<g id="uid_443">
<path d=" M 229 416.8 Q 229 416.1 227.95 415.6 226.9 415.05 225.45 415.05 224 415 222.95 415.55 221.9 416.05 221.9 416.75 221.9 417.45 222.95 417.95 224 418.5 225.45 418.5 226.9 418.5 227.95 418 229 417.5 229 416.8 Z" fill="#98C64E" stroke="none"/>
</g>

<g id="uid_444">
<path d=" M 930.65 586.15 Q 921.9 585.9 915.65 588.35 909.4 590.8 909.3 594.55 909.2 598.25 915.3 601.1 921.4 603.9 930.15 604.15 938.85 604.4 945.1 601.95 951.35 599.45 951.45 595.75 951.55 592.05 945.5 589.25 939.4 586.4 930.65 586.15 Z" fill="#23A0F3" stroke="none"/>
</g>

<g id="uid_445">
<path d=" M 904.8 590.8 L 859.5 591.2 859.6 595 Q 859.55 599.45 866.2 602.8 872.9 606.2 882.2 606.25 891.45 606.35 898.2 603 904.85 599.75 904.9 595.35 L 904.8 590.8 Z" fill="#01954A" stroke="none"/>
</g>

<g id="uid_446">
<path d=" M 882.25 580.25 Q 873 580.2 866.2 583.5 859.55 586.75 859.5 591.15 859.5 595.55 866.1 598.9 872.85 602.3 882.1 602.35 891.35 602.45 898.1 599.15 904.75 595.9 904.8 591.5 904.85 587.05 898.25 583.7 891.55 580.35 882.25 580.25 Z" fill="#D7E13D" stroke="none"/>
</g>

<g id="uid_447">
<path d=" M 882.35 582.75 Q 875.15 582.7 869.15 585.2 863.1 587.75 863.05 591.05 863.05 594.35 869.05 596.95 874.95 599.55 882.25 599.6 889.5 599.65 895.5 597.1 901.55 594.55 901.55 591.3 901.6 588 895.55 585.4 889.6 582.8 882.35 582.75 Z" fill="#98C64E" stroke="none"/>
</g>

<g id="uid_448">
<path d=" M 870.75 588.35 Q 865.3 590.25 863.65 592.95 865.3 595.65 870.7 597.6 876.15 599.55 882.25 599.6 888.4 599.65 893.85 597.75 899.3 595.85 901 593.15 899.3 590.4 893.9 588.5 888.45 586.55 882.35 586.5 876.25 586.45 870.75 588.35 Z" fill="#23A0F3" stroke="none"/>
</g>

<g id="uid_449">
<path d=" M 882.1 552.5 L 889.95 548.55 882.1 544.65 874.2 548.55 882.1 552.5 Z" fill="#F7952A" stroke="none"/>
</g>

<g id="uid_450">
<path d=" M 884.55 592.95 L 884.55 576.8 879.2 576.8 879.2 592.9 Q 879.2 593.45 880 593.8 880.75 594.2 881.85 594.2 882.95 594.25 883.75 593.85 884.55 593.5 884.55 592.95 Z" fill="#01954A" stroke="none"/>
</g>

<g id="uid_451">
<path d=" M 884.55 576.85 Q 884.55 576.3 883.75 575.95 883 575.55 881.9 575.55 880.8 575.55 880 575.95 879.2 576.3 879.2 576.8 879.2 577.3 880 577.7 880.75 578.1 881.85 578.15 882.95 578.15 883.75 577.75 884.55 577.4 884.55 576.85 Z" fill="#98C64E" stroke="none"/>
</g>

<g id="uid_452">
<path d=" M 882 580.8 Q 882.5 580.8 882.5 580.3 L 882.45 572.3 Q 882.45 571.8 881.95 571.8 881.45 571.8 881.45 572.3 L 881.5 580.3 Q 881.5 580.8 882 580.8 Z" fill="#156B7E" stroke="none"/>
</g>

<g id="uid_453">
<path d=" M 874.2 548.55 L 879.3 573.5 882.1 574.9 882.1 552.5 874.2 548.55 Z" fill="#CE7923" stroke="none"/>
</g>

<g id="uid_454">
<path d=" M 77.25 84.5 L 64.35 91 64.35 127.9 68.85 125.75 77.25 84.5 Z" fill="#F7952A" stroke="none"/>
</g>

<g id="uid_455">
<path d=" M 882.85 556.65 L 888 554.15 888.15 553.45 882.9 556 882.85 556.65 Z" fill="#CE7923" stroke="none"/>
</g>

<g id="uid_456">
<path d=" M 882.45 562.95 L 887.1 560.7 887.25 560 882.55 562.35 882.45 562.95 Z" fill="#CE7923" stroke="none"/>
</g>

<g id="uid_457">
<path d=" M 876.95 560.5 L 881.6 562.75 881.5 562.15 876.8 559.8 876.95 560.5 Z" fill="#F7952A" stroke="none"/>
</g>

<g id="uid_458">
<path d=" M 878.75 568.8 L 881.6 570.2 881.55 569.6 878.6 568.1 878.75 568.8 Z" fill="#F7952A" stroke="none"/>
</g>

<g id="uid_459">
<path d=" M 875.8 553.8 L 881.2 556.5 881.15 555.85 875.65 553.1 875.8 553.8 Z" fill="#F7952A" stroke="none"/>
</g>

<g id="uid_460">
<path d=" M 882.3 570.3 L 885.65 568.6 885.85 567.95 882.35 569.65 882.3 570.3 Z" fill="#CE7923" stroke="none"/>
</g>
</defs>

<g transform="matrix( 1, 0, 0, 1, 0,50.55) ">
<g transform="matrix( 1, 0, 0, 1, -604.2,-183.7) ">
<use xlink:href="#uid_427"/>
</g>

<g transform="matrix( 1, 0, 0, 1, -604.2,-183.7) ">
<use xlink:href="#uid_428"/>
</g>

<g transform="matrix( 1, 0, 0, 1, -604.2,-183.7) ">
<use xlink:href="#uid_429"/>
</g>

<g transform="matrix( 1, 0, 0, 1, -604.2,-183.7) ">
<use xlink:href="#uid_430"/>
</g>

<g transform="matrix( 1, 0, 0, 1, -604.2,-183.7) ">
<use xlink:href="#uid_431"/>
</g>

<g transform="matrix( 1, 0, 0, 1, -604.2,-183.7) ">
<use xlink:href="#uid_432"/>
</g>

<g transform="matrix( 1, 0, 0, 1, -604.2,-183.7) ">
<use xlink:href="#uid_433"/>
</g>

<g transform="matrix( 1, 0, 0, 1, -604.2,-183.7) ">
<use xlink:href="#uid_434"/>
</g>

<g transform="matrix( 1, 0, 0, 1, -604.2,-183.7) ">
<use xlink:href="#uid_435"/>
</g>

<g transform="matrix( 1, 0, 0, 1, -604.2,-183.7) ">
<use xlink:href="#uid_436"/>
</g>

<g transform="matrix( 1, 0, 0, 1, -604.2,-183.7) ">
<use xlink:href="#uid_437"/>
</g>

<g transform="matrix( 1, 0, 0, 1, -604.2,-183.7) ">
<use xlink:href="#uid_438"/>
</g>

<g transform="matrix( 1, 0, 0, 1, -604.2,-183.7) ">
<use xlink:href="#uid_439"/>
</g>

<g transform="matrix( 1, 0, 0, 1, -604.2,-183.7) ">
<use xlink:href="#uid_440"/>
</g>

<g transform="matrix( 1, 0, 0, 1, -604.2,-183.7) ">
<use xlink:href="#uid_441"/>
</g>

<g transform="matrix( 1, 0, 0, 1, -604.2,-183.7) ">
<use xlink:href="#uid_442"/>
</g>

<g transform="matrix( 1, 0, 0, 1, -150.75,-401.6) ">
<use xlink:href="#uid_443"/>
</g>

<g transform="matrix( 1.6988525390625, -0.009368896484375, 0.0093231201171875, 1.6937255859375, -1523.7,-959.65) ">
<use xlink:href="#uid_444"/>
</g>

<g transform="matrix( 1.6476898193359375, 0, 0, 1.6476898193359375, -1382.45,-941.45) ">
<use xlink:href="#uid_445"/>
</g>

<g transform="matrix( 1.6476898193359375, 0, 0, 1.6476898193359375, -1382.45,-941.45) ">
<use xlink:href="#uid_446"/>
</g>

<g transform="matrix( 1.6476898193359375, 0, 0, 1.6476898193359375, -1382.45,-941.45) ">
<use xlink:href="#uid_447"/>
</g>

<g transform="matrix( 1.6476898193359375, 0, 0, 1.6476898193359375, -1382.45,-941.45) ">
<use xlink:href="#uid_448"/>
</g>

<g transform="matrix( 1.6476898193359375, 0, 0, 1.6476898193359375, -1382.45,-947.95) ">
<use xlink:href="#uid_449"/>
</g>

<g transform="matrix( 1.6476898193359375, 0, 0, 1.6476898193359375, -1382.45,-941.45) ">
<use xlink:href="#uid_450"/>
</g>

<g transform="matrix( 1.6476898193359375, 0, 0, 1.6476898193359375, -1382.45,-941.45) ">
<use xlink:href="#uid_451"/>
</g>

<g transform="matrix( 1.6476898193359375, 0, 0, 1.6476898193359375, -1382.45,-947.4) ">
<use xlink:href="#uid_452"/>
</g>

<g transform="matrix( 1.6476898193359375, 0, 0, 1.6476898193359375, -1382.45,-947.95) ">
<use xlink:href="#uid_453"/>
</g>

<g transform="matrix( 1, 0, 0, 1, 6.65,-128.6) ">
<use xlink:href="#uid_454"/>
</g>

<g transform="matrix( 1.6476898193359375, 0, 0, 1.6476898193359375, -1382.45,-947.95) ">
<use xlink:href="#uid_455"/>
</g>

<g transform="matrix( 1.6476898193359375, 0, 0, 1.6476898193359375, -1382.45,-947.95) ">
<use xlink:href="#uid_456"/>
</g>

<g transform="matrix( 1.6476898193359375, 0, 0, 1.6476898193359375, -1382.45,-947.95) ">
<use xlink:href="#uid_457"/>
</g>

<g transform="matrix( 1.6476898193359375, 0, 0, 1.6476898193359375, -1382.45,-947.95) ">
<use xlink:href="#uid_458"/>
</g>

<g transform="matrix( 1.6476898193359375, 0, 0, 1.6476898193359375, -1382.45,-947.95) ">
<use xlink:href="#uid_459"/>
</g>

<g transform="matrix( 1.6476898193359375, 0, 0, 1.6476898193359375, -1382.45,-947.95) ">
<use xlink:href="#uid_460"/>
</g>
</g>
</g></g></svg>