<?xml version="1.0" ?><svg height="10933.0px" viewBox="0 0 193.0 10933.0" width="193.0px" xmlns="http://www.w3.org/2000/svg" xmlns:xlink="http://www.w3.org/1999/xlink"><g transform="translate(20, 20)"><g transform="translate(-0.0, -0.0)">
<defs>
<g id="uid_0">
<path d=" M 497.9 133.55 L 519.95 122.55 497.9 111.5 475.8 122.55 497.9 133.55 Z" fill="#B0F7ED" stroke="none"/>
</g>

<g id="uid_1">
<path d=" M 497.9 155.55 L 497.9 133.5 475.8 122.55 475.8 144.55 497.9 155.55 Z" fill="#5FD4C8" stroke="none"/>
</g>

<g id="uid_2">
<path d=" M 519.95 122.55 L 497.9 133.5 497.9 155.55 519.95 144.55 519.95 122.55 Z" fill="#B0F7ED" stroke="none"/>
</g>

<g id="uid_3">
<path d=" M 515 96.55 L 498 88.05 481 96.55 498 105.05 515 96.55 Z" fill="#B0F7ED" stroke="none"/>
</g>

<g id="uid_4">
<path d=" M 498 122 L 498 104.95 481 96.55 480.95 113.45 498 122 Z" fill="#5FD4C8" stroke="none"/>
</g>

<g id="uid_5">
<path d=" M 498 104.95 L 498 122 515 113.45 515 96.55 498 104.95 Z" fill="#B0F7ED" stroke="none"/>
</g>

<g id="uid_6">
<path d=" M 521 129.35 L 504 137.85 521 146.35 538 137.85 521 129.35 Z" fill="#B0F7ED" stroke="none"/>
</g>

<g id="uid_7">
<path d=" M 521 146.3 L 504 137.85 504 154.8 521 163.3 521 146.3 Z" fill="#5FD4C8" stroke="none"/>
</g>

<g id="uid_8">
<path d=" M 538 137.85 L 521 146.3 521 163.3 538 154.8 538 137.85 Z" fill="#B0F7ED" stroke="none"/>
</g>

<g id="uid_9">
<path d=" M 535.95 161.6 L 547.2 155.95 535.95 150.35 524.7 155.95 535.95 161.6 Z" fill="#B0F7ED" stroke="none"/>
</g>

<g id="uid_10">
<path d=" M 524.7 155.95 L 524.7 167.2 535.95 172.8 535.95 161.55 524.7 155.95 Z" fill="#5FD4C8" stroke="none"/>
</g>

<g id="uid_11">
<path d=" M 547.2 155.95 L 535.95 161.55 535.95 172.8 547.2 167.2 547.2 155.95 Z" fill="#B0F7ED" stroke="none"/>
</g>

<g id="uid_12">
<path d=" M 459.55 120.7 L 469.2 115.9 459.55 111.1 449.95 115.9 459.55 120.7 Z" fill="#B0F7ED" stroke="none"/>
</g>

<g id="uid_13">
<path d=" M 459.55 120.65 L 449.95 115.9 449.95 125.45 459.55 130.25 459.55 120.65 Z" fill="#5FD4C8" stroke="none"/>
</g>

<g id="uid_14">
<path d=" M 469.2 115.9 L 459.55 120.65 459.55 130.25 469.2 125.45 469.2 115.9 Z" fill="#B0F7ED" stroke="none"/>
</g>
</defs>

<g transform="matrix( 1, 0, 0, 1, 0,0) ">
<g transform="matrix( 1, 0, 0, 1, -449.95,-88.05) ">
<use xlink:href="#uid_0"/>
</g>

<g transform="matrix( 1, 0, 0, 1, -449.95,-88.05) ">
<use xlink:href="#uid_1"/>
</g>

<g transform="matrix( 1, 0, 0, 1, -449.95,-88.05) ">
<use xlink:href="#uid_2"/>
</g>

<g transform="matrix( 1, 0, 0, 1, -449.95,-88.05) ">
<use xlink:href="#uid_3"/>
</g>

<g transform="matrix( 1, 0, 0, 1, -449.95,-88.05) ">
<use xlink:href="#uid_4"/>
</g>

<g transform="matrix( 1, 0, 0, 1, -449.95,-88.05) ">
<use xlink:href="#uid_5"/>
</g>

<g transform="matrix( 1, 0, 0, 1, -449.95,-88.05) ">
<use xlink:href="#uid_6"/>
</g>

<g transform="matrix( 1, 0, 0, 1, -449.95,-88.05) ">
<use xlink:href="#uid_7"/>
</g>

<g transform="matrix( 1, 0, 0, 1, -449.95,-88.05) ">
<use xlink:href="#uid_8"/>
</g>

<g transform="matrix( 1, 0, 0, 1, -449.95,-88.05) ">
<use xlink:href="#uid_9"/>
</g>

<g transform="matrix( 1, 0, 0, 1, -449.95,-88.05) ">
<use xlink:href="#uid_10"/>
</g>

<g transform="matrix( 1, 0, 0, 1, -449.95,-88.05) ">
<use xlink:href="#uid_11"/>
</g>

<g transform="matrix( 1, 0, 0, 1, -449.95,-88.05) ">
<use xlink:href="#uid_12"/>
</g>

<g transform="matrix( 1, 0, 0, 1, -449.95,-88.05) ">
<use xlink:href="#uid_13"/>
</g>

<g transform="matrix( 1, 0, 0, 1, -449.95,-88.05) ">
<use xlink:href="#uid_14"/>
</g>
</g>
</g></g><g transform="translate(20, 124.0)"><g transform="translate(-0.0, -0.0)">
<defs>
<g id="uid_15">
<path d=" M 805.75 168.75 L 796.2 173.5 805.75 178.3 815.3 173.5 805.75 168.75 Z" fill="#B0F7ED" stroke="none"/>
</g>

<g id="uid_16">
<path d=" M 805.75 178.25 L 796.2 173.5 796.2 183.05 805.75 187.85 805.75 178.25 Z" fill="#5FD4C8" stroke="none"/>
</g>

<g id="uid_17">
<path d=" M 815.3 183.05 L 815.3 173.5 805.75 178.25 805.75 187.85 815.3 183.05 Z" fill="#B0F7ED" stroke="none"/>
</g>

<g id="uid_18">
<path d=" M 821.2 181.3 L 838.2 172.8 821.2 164.3 804.2 172.8 821.2 181.3 Z" fill="#B0F7ED" stroke="none"/>
</g>

<g id="uid_19">
<path d=" M 804.2 172.8 L 804.2 189.75 821.2 198.25 821.2 181.25 804.2 172.8 Z" fill="#5FD4C8" stroke="none"/>
</g>

<g id="uid_20">
<path d=" M 838.2 172.8 L 821.2 181.25 821.2 198.25 838.2 189.75 838.2 172.8 Z" fill="#B0F7ED" stroke="none"/>
</g>

<g id="uid_21">
<path d=" M 834.55 187.75 L 844.1 183 834.55 178.2 825 183 834.55 187.75 Z" fill="#B0F7ED" stroke="none"/>
</g>

<g id="uid_22">
<path d=" M 834.55 187.7 L 825 183 824.95 192.5 834.55 197.3 834.55 187.7 Z" fill="#5FD4C8" stroke="none"/>
</g>

<g id="uid_23">
<path d=" M 844.1 183 L 834.55 187.7 834.55 197.3 844.1 192.5 844.1 183 Z" fill="#B0F7ED" stroke="none"/>
</g>
</defs>

<g transform="matrix( 1, 0, 0, 1, -796.2,-164.3) ">
<use xlink:href="#uid_15"/>
</g>

<g transform="matrix( 1, 0, 0, 1, -796.2,-164.3) ">
<use xlink:href="#uid_16"/>
</g>

<g transform="matrix( 1, 0, 0, 1, -796.2,-164.3) ">
<use xlink:href="#uid_17"/>
</g>

<g transform="matrix( 1, 0, 0, 1, -796.2,-164.3) ">
<use xlink:href="#uid_18"/>
</g>

<g transform="matrix( 1, 0, 0, 1, -796.2,-164.3) ">
<use xlink:href="#uid_19"/>
</g>

<g transform="matrix( 1, 0, 0, 1, -796.2,-164.3) ">
<use xlink:href="#uid_20"/>
</g>

<g transform="matrix( 1, 0, 0, 1, -796.2,-164.3) ">
<use xlink:href="#uid_21"/>
</g>

<g transform="matrix( 1, 0, 0, 1, -796.2,-164.3) ">
<use xlink:href="#uid_22"/>
</g>

<g transform="matrix( 1, 0, 0, 1, -796.2,-164.3) ">
<use xlink:href="#uid_23"/>
</g>
</g></g><g transform="translate(20, 177.0)"><g transform="translate(-0.0, -0.0)">
<defs>
<g id="uid_24">
<path d=" M 114.9 500.65 L 96.1 509.95 106.6 515.2 125.4 505.9 114.9 500.65 Z" fill="#B0F7ED" stroke="none"/>
</g>

<g id="uid_25">
<path d=" M 106.6 515.2 L 96.1 509.95 96.1 520.45 106.6 525.7 106.6 515.2 Z" fill="#5FD4C8" stroke="none"/>
</g>

<g id="uid_26">
<path d=" M 125.4 516.4 L 125.4 505.9 106.6 515.2 106.6 525.7 125.4 516.4 Z" fill="#B0F7ED" stroke="none"/>
</g>

<g id="uid_27">
<path d=" M 119 510.85 L 112.85 513.95 118.95 517 125.1 513.95 119 510.85 Z" fill="#B0F7ED" stroke="none"/>
</g>

<g id="uid_28">
<path d=" M 119 517 L 112.85 513.95 112.85 520.05 118.95 523.1 119 517 Z" fill="#5FD4C8" stroke="none"/>
</g>

<g id="uid_29">
<path d=" M 125.1 520.05 L 125.1 513.95 119 517 118.95 523.1 125.1 520.05 Z" fill="#B0F7ED" stroke="none"/>
</g>

<g id="uid_30">
<path d=" M 109.6 503.85 L 115.75 500.75 109.6 497.7 103.45 500.75 109.6 503.85 Z" fill="#B0F7ED" stroke="none"/>
</g>

<g id="uid_31">
<path d=" M 109.6 503.8 L 103.45 500.75 103.45 506.9 109.6 509.95 109.6 503.8 Z" fill="#5FD4C8" stroke="none"/>
</g>

<g id="uid_32">
<path d=" M 115.75 500.75 L 109.6 503.8 109.6 509.95 115.75 506.9 115.75 500.75 Z" fill="#B0F7ED" stroke="none"/>
</g>

<g id="uid_33">
<path d=" M 95.1 522.35 L 101.25 519.3 95.1 516.25 88.95 519.3 95.1 522.35 Z" fill="#B0F7ED" stroke="none"/>
</g>

<g id="uid_34">
<path d=" M 95.1 522.35 L 88.95 519.3 88.95 525.4 95.1 528.5 95.1 522.35 Z" fill="#5FD4C8" stroke="none"/>
</g>

<g id="uid_35">
<path d=" M 101.25 519.3 L 95.1 522.35 95.1 528.5 101.25 525.4 101.25 519.3 Z" fill="#B0F7ED" stroke="none"/>
</g>

<g id="uid_36">
<path d=" M 84.3 528.35 L 88.35 526.35 84.35 524.3 80.3 526.25 84.3 528.35 Z" fill="#B0F7ED" stroke="none"/>
</g>

<g id="uid_37">
<path d=" M 80.3 526.25 L 80.25 530.3 84.25 532.35 84.3 528.3 80.3 526.25 Z" fill="#5FD4C8" stroke="none"/>
</g>

<g id="uid_38">
<path d=" M 88.35 526.35 L 84.3 528.3 84.25 532.35 88.3 530.4 88.35 526.35 Z" fill="#B0F7ED" stroke="none"/>
</g>

<g id="uid_39">
<path d=" M 133.75 505.3 L 137.8 503.3 133.8 501.25 129.75 503.25 133.75 505.3 Z" fill="#B0F7ED" stroke="none"/>
</g>

<g id="uid_40">
<path d=" M 133.75 505.3 L 129.75 503.25 129.7 507.25 133.7 509.3 133.75 505.3 Z" fill="#5FD4C8" stroke="none"/>
</g>

<g id="uid_41">
<path d=" M 137.8 503.3 L 133.75 505.3 133.7 509.3 137.8 507.35 137.8 503.3 Z" fill="#B0F7ED" stroke="none"/>
</g>
</defs>

<g transform="matrix( 1, 0, 0, 1, -80.25,-497.7) ">
<use xlink:href="#uid_24"/>
</g>

<g transform="matrix( 1, 0, 0, 1, -80.25,-497.7) ">
<use xlink:href="#uid_25"/>
</g>

<g transform="matrix( 1, 0, 0, 1, -80.25,-497.7) ">
<use xlink:href="#uid_26"/>
</g>

<g transform="matrix( 1, 0, 0, 1, -80.25,-497.7) ">
<use xlink:href="#uid_27"/>
</g>

<g transform="matrix( 1, 0, 0, 1, -80.25,-497.7) ">
<use xlink:href="#uid_28"/>
</g>

<g transform="matrix( 1, 0, 0, 1, -80.25,-497.7) ">
<use xlink:href="#uid_29"/>
</g>

<g transform="matrix( 1, 0, 0, 1, -80.25,-497.7) ">
<use xlink:href="#uid_30"/>
</g>

<g transform="matrix( 1, 0, 0, 1, -80.25,-497.7) ">
<use xlink:href="#uid_31"/>
</g>

<g transform="matrix( 1, 0, 0, 1, -80.25,-497.7) ">
<use xlink:href="#uid_32"/>
</g>

<g transform="matrix( 1, 0, 0, 1, -80.25,-497.7) ">
<use xlink:href="#uid_33"/>
</g>

<g transform="matrix( 1, 0, 0, 1, -80.25,-497.7) ">
<use xlink:href="#uid_34"/>
</g>

<g transform="matrix( 1, 0, 0, 1, -80.25,-497.7) ">
<use xlink:href="#uid_35"/>
</g>

<g transform="matrix( 1, 0, 0, 1, -80.25,-497.7) ">
<use xlink:href="#uid_36"/>
</g>

<g transform="matrix( 1, 0, 0, 1, -80.25,-497.7) ">
<use xlink:href="#uid_37"/>
</g>

<g transform="matrix( 1, 0, 0, 1, -80.25,-497.7) ">
<use xlink:href="#uid_38"/>
</g>

<g transform="matrix( 1, 0, 0, 1, -80.25,-497.7) ">
<use xlink:href="#uid_39"/>
</g>

<g transform="matrix( 1, 0, 0, 1, -80.25,-497.7) ">
<use xlink:href="#uid_40"/>
</g>

<g transform="matrix( 1, 0, 0, 1, -80.25,-497.7) ">
<use xlink:href="#uid_41"/>
</g>
</g></g><g transform="translate(20, 231.0)"><g transform="translate(-0.0, -0.0)">
<defs>
<g id="uid_42">
<path d=" M 788.35 374.7 L 762.6 387.6 788.35 400.45 814.05 387.6 788.35 374.7 Z" fill="#B0F7ED" stroke="none"/>
</g>

<g id="uid_43">
<path d=" M 788.35 426.1 L 788.35 400.35 762.6 387.6 762.6 413.2 788.35 426.1 Z" fill="#5FD4C8" stroke="none"/>
</g>

<g id="uid_44">
<path d=" M 788.35 400.35 L 788.35 426.1 814.05 413.2 814.05 387.6 788.35 400.35 Z" fill="#B0F7ED" stroke="none"/>
</g>

<g id="uid_45">
<path d=" M 754.3 402.95 L 768.95 410.3 783.6 402.95 768.95 395.6 754.3 402.95 Z" fill="#B0F7ED" stroke="none"/>
</g>

<g id="uid_46">
<path d=" M 768.95 410.25 L 754.3 402.95 754.3 417.6 768.95 424.9 768.95 410.25 Z" fill="#5FD4C8" stroke="none"/>
</g>

<g id="uid_47">
<path d=" M 783.6 417.6 L 783.6 402.95 768.95 410.25 768.95 424.9 783.6 417.6 Z" fill="#B0F7ED" stroke="none"/>
</g>

<g id="uid_48">
<path d=" M 808.95 396.1 L 794.3 403.45 808.95 410.8 823.6 403.45 808.95 396.1 Z" fill="#B0F7ED" stroke="none"/>
</g>

<g id="uid_49">
<path d=" M 808.95 410.75 L 794.3 403.45 794.3 418.1 808.95 425.4 808.95 410.75 Z" fill="#5FD4C8" stroke="none"/>
</g>

<g id="uid_50">
<path d=" M 823.6 418.1 L 823.6 403.45 808.95 410.75 808.95 425.4 823.6 418.1 Z" fill="#B0F7ED" stroke="none"/>
</g>

<g id="uid_51">
<path d=" M 834.55 429.15 L 844.85 424 834.55 418.85 824.3 424 834.55 429.15 Z" fill="#B0F7ED" stroke="none"/>
</g>

<g id="uid_52">
<path d=" M 834.55 429.1 L 824.3 424 824.3 434.25 834.55 439.4 834.55 429.1 Z" fill="#5FD4C8" stroke="none"/>
</g>

<g id="uid_53">
<path d=" M 844.85 424 L 834.55 429.1 834.55 439.4 844.85 434.25 844.85 424 Z" fill="#B0F7ED" stroke="none"/>
</g>

<g id="uid_54">
<path d=" M 790.35 378.3 L 800.65 373.15 790.35 368 780.05 373.15 790.35 378.3 Z" fill="#B0F7ED" stroke="none"/>
</g>

<g id="uid_55">
<path d=" M 790.35 378.25 L 780.05 373.15 780.05 383.4 790.35 388.55 790.35 378.25 Z" fill="#5FD4C8" stroke="none"/>
</g>

<g id="uid_56">
<path d=" M 800.65 373.15 L 790.35 378.25 790.35 388.55 800.65 383.4 800.65 373.15 Z" fill="#B0F7ED" stroke="none"/>
</g>

<g id="uid_57">
<path d=" M 739.35 424.3 L 749.65 419.15 739.35 414 729.05 419.15 739.35 424.3 Z" fill="#B0F7ED" stroke="none"/>
</g>

<g id="uid_58">
<path d=" M 739.35 424.25 L 729.05 419.15 729.05 429.4 739.35 434.55 739.35 424.25 Z" fill="#5FD4C8" stroke="none"/>
</g>

<g id="uid_59">
<path d=" M 749.65 419.15 L 739.35 424.25 739.35 434.55 749.65 429.4 749.65 419.15 Z" fill="#B0F7ED" stroke="none"/>
</g>
</defs>

<g transform="matrix( 1, 0, 0, 1, 0,0) ">
<g transform="matrix( 1, 0, 0, 1, -729.05,-368) ">
<use xlink:href="#uid_42"/>
</g>

<g transform="matrix( 1, 0, 0, 1, -729.05,-368) ">
<use xlink:href="#uid_43"/>
</g>

<g transform="matrix( 1, 0, 0, 1, -729.05,-368) ">
<use xlink:href="#uid_44"/>
</g>

<g transform="matrix( 1, 0, 0, 1, -729.05,-368) ">
<use xlink:href="#uid_45"/>
</g>

<g transform="matrix( 1, 0, 0, 1, -729.05,-368) ">
<use xlink:href="#uid_46"/>
</g>

<g transform="matrix( 1, 0, 0, 1, -729.05,-368) ">
<use xlink:href="#uid_47"/>
</g>

<g transform="matrix( 1, 0, 0, 1, -729.05,-368) ">
<use xlink:href="#uid_48"/>
</g>

<g transform="matrix( 1, 0, 0, 1, -729.05,-368) ">
<use xlink:href="#uid_49"/>
</g>

<g transform="matrix( 1, 0, 0, 1, -729.05,-368) ">
<use xlink:href="#uid_50"/>
</g>

<g transform="matrix( 1, 0, 0, 1, -729.05,-368) ">
<use xlink:href="#uid_51"/>
</g>

<g transform="matrix( 1, 0, 0, 1, -729.05,-368) ">
<use xlink:href="#uid_52"/>
</g>

<g transform="matrix( 1, 0, 0, 1, -729.05,-368) ">
<use xlink:href="#uid_53"/>
</g>

<g transform="matrix( 1, 0, 0, 1, -729.05,-368) ">
<use xlink:href="#uid_54"/>
</g>

<g transform="matrix( 1, 0, 0, 1, -729.05,-368) ">
<use xlink:href="#uid_55"/>
</g>

<g transform="matrix( 1, 0, 0, 1, -729.05,-368) ">
<use xlink:href="#uid_56"/>
</g>

<g transform="matrix( 1, 0, 0, 1, -729.05,-368) ">
<use xlink:href="#uid_57"/>
</g>

<g transform="matrix( 1, 0, 0, 1, -729.05,-368) ">
<use xlink:href="#uid_58"/>
</g>

<g transform="matrix( 1, 0, 0, 1, -729.05,-368) ">
<use xlink:href="#uid_59"/>
</g>
</g>
</g></g></svg>