<?xml version="1.0" ?><svg height="10933.0px" viewBox="0 0 193.0 10933.0" width="193.0px" xmlns="http://www.w3.org/2000/svg" xmlns:xlink="http://www.w3.org/1999/xlink">
<g transform="translate(20, 2546.0)"><g transform="translate(-0.0, -0.0)">
<defs>
<g id="uid_461">
<path d=" M 25.4 11.45 L 25.4 11.4 Q 27.8 10.4 27.7 9.05 27.8 7.8 25.8 6.85 L 25.8 7.95 Q 26.65 8.45 26.7 9.05 26.6 9.8 25 10.5 23.15 11.25 20.9 11.25 18.65 11.2 16.8 10.45 15.2 9.75 15.15 9 L 15.15 8.95 Q 15.2 8.4 16.05 7.9 L 16.05 6.8 Q 14.1 7.7 14.15 8.95 14 10.35 16.4 11.35 L 16.4 11.4 Q 18.45 12.2 20.9 12.25 23.35 12.25 25.4 11.45 Z" fill="#1A76B5" stroke="none"/>
</g>
</defs>

<g transform="matrix( 1, 0, 0, 1, 1,0.85) ">
<g transform="matrix( 1, 0, 0, 1, 0,0) ">
<use xlink:href="#uid_461"/>
</g>
</g>
</g></g><g transform="translate(20, 2586.0)"><g transform="translate(-0.0, -0.0)">
<defs>
<g id="uid_462">
<path d=" M 25.8 7.1 Q 25.9 7.1 25.95 7.15 27.95 8.05 28.05 9.05 27.95 10.05 25.95 10.9 23.65 11.85 20.9 11.85 18.15 11.8 15.9 10.85 13.85 9.95 13.8 9 L 13.8 8.95 Q 13.9 7.95 15.95 7.15 L 15.95 7.1 Q 16 7.1 16.05 7.05 L 16.05 6 Q 15.8 6.1 15.55 6.2 12.75 7.35 12.8 8.95 12.65 10.55 15.5 11.75 17.95 12.8 20.9 12.85 23.85 12.85 26.35 11.8 29.15 10.65 29.05 9.05 29.15 7.45 26.35 6.25 26.1 6.15 25.8 6.05 L 25.8 7.1 Z" fill="#1A76B5" stroke="none"/>
</g>
</defs>

<g transform="matrix( 1, 0, 0, 1, 1,0.85) ">
<g transform="matrix( 1, 0, 0, 1, 0,0) ">
<use xlink:href="#uid_462"/>
</g>
</g>
</g></g><g transform="translate(20, 2626.0)"><g transform="translate(-0.0, -0.0)">
<defs>
<g id="uid_463">
<path d=" M 33.1 9.1 L 33.1 9.05 Q 33.2 6.75 29.15 5 27.55 4.3 25.8 3.9 L 25.8 4.95 Q 27.35 5.3 28.75 5.9 32.05 7.35 32.1 9.05 32 10.75 28.7 12.15 25.2 13.65 20.9 13.6 16.6 13.55 13.1 12.05 9.8 10.6 9.75 8.95 L 9.75 8.9 Q 9.85 7.2 13.15 5.8 14.55 5.2 16.05 4.85 L 16.05 3.85 Q 14.35 4.2 12.75 4.9 8.65 6.6 8.75 8.9 8.6 11.2 12.7 12.95 16.4 14.55 20.9 14.6 25.4 14.65 29.1 13.05 33.15 11.35 33.1 9.1 Z" fill="#1A76B5" stroke="none"/>
</g>
</defs>

<g transform="matrix( 1, 0, 0, 1, 1,0.85) ">
<g transform="matrix( 1, 0, 0, 1, 0,0) ">
<use xlink:href="#uid_463"/>
</g>
</g>
</g></g><g transform="translate(20, 2666.0)"><g transform="translate(-0.0, -0.0)">
<defs>
<g id="uid_464">
<path d=" M 25.8 4.15 Q 27.95 4.6 29.85 5.45 33.7 7.1 33.75 9.05 33.65 11.05 29.8 12.65 25.8 14.35 20.9 14.3 16 14.25 12 12.55 8.2 10.85 8.15 8.9 8.25 6.9 12.05 5.3 13.95 4.5 16.05 4.1 L 16.05 3.1 Q 13.75 3.5 11.65 4.4 7.05 6.3 7.15 8.9 7 11.45 11.6 13.45 15.8 15.25 20.9 15.3 26 15.35 30.2 13.55 34.85 11.65 34.75 9.05 34.9 6.5 30.25 4.55 28.15 3.6 25.8 3.15 L 25.8 4.15 Z" fill="#1A76B5" stroke="none"/>
</g>
</defs>

<g transform="matrix( 1, 0, 0, 1, 1,0.85) ">
<g transform="matrix( 1, 0, 0, 1, 0,0) ">
<use xlink:href="#uid_464"/>
</g>
</g>
</g></g><g transform="translate(20, 2706.0)"><g transform="translate(-0.0, -0.0)">
<defs>
<g id="uid_465">
<path d=" M 36.15 9.1 Q 36.3 6.3 31.25 4.1 28.7 3 25.8 2.5 L 25.8 3.5 Q 28.45 4 30.85 5 35.1 6.9 35.15 9.1 35.05 11.3 30.75 13.1 26.35 15 20.9 14.95 15.45 14.9 11.05 13 6.8 11.1 6.75 8.9 6.85 6.65 11.1 4.85 13.45 3.85 16.05 3.45 L 16.05 2.45 Q 13.2 2.9 10.7 3.95 5.65 6.05 5.75 8.9 5.6 11.7 10.65 13.9 15.25 15.9 20.9 15.95 26.55 16 31.15 14 36.25 11.9 36.15 9.1 Z" fill="#1A76B5" stroke="none"/>
</g>
</defs>

<g transform="matrix( 1, 0, 0, 1, 1,0.85) ">
<g transform="matrix( 1, 0, 0, 1, 0,0) ">
<use xlink:href="#uid_465"/>
</g>
</g>
</g></g><g transform="translate(20, 2746.0)"><g transform="translate(-0.0, -0.0)">
<defs>
<g id="uid_466">
<path d=" M 37.4 9.1 Q 37.55 6.1 32.1 3.75 29.15 2.45 25.8 1.9 L 25.8 2.9 Q 28.95 3.45 31.7 4.65 36.35 6.7 36.4 9.1 36.3 11.55 31.6 13.5 26.8 15.55 20.9 15.5 15 15.45 10.2 13.35 5.55 11.3 5.5 8.85 5.6 6.45 10.25 4.5 12.95 3.35 16.05 2.85 L 16.05 1.85 Q 12.75 2.35 9.85 3.6 4.4 5.85 4.5 8.85 4.35 11.9 9.8 14.25 14.8 16.45 20.9 16.5 27 16.55 32 14.4 37.5 12.15 37.4 9.1 Z" fill="#1A76B5" stroke="none"/>
</g>
</defs>

<g transform="matrix( 1, 0, 0, 1, 1,0.85) ">
<g transform="matrix( 1, 0, 0, 1, 0,0) ">
<use xlink:href="#uid_466"/>
</g>
</g>
</g></g><g transform="translate(20, 2786.0)"><g transform="translate(-0.0, -0.0)">
<defs>
<g id="uid_467">
<path d=" M 38.45 9.1 Q 38.6 5.9 32.8 3.45 29.55 2 25.8 1.45 L 25.8 2.45 Q 29.3 3 32.4 4.35 37.4 6.5 37.45 9.1 37.35 11.7 32.35 13.8 27.2 16.05 20.9 15.95 14.6 15.9 9.45 13.65 4.5 11.5 4.45 8.85 4.55 6.25 9.55 4.25 L 9.55 4.2 Q 12.6 2.9 16.05 2.4 L 16.05 1.4 Q 12.4 1.9 9.15 3.3 3.35 5.65 3.45 8.85 3.3 12.1 9.05 14.55 14.4 16.9 20.9 16.95 27.4 17.05 32.75 14.7 38.55 12.3 38.45 9.1 Z" fill="#1A76B5" stroke="none"/>
</g>
</defs>

<g transform="matrix( 1, 0, 0, 1, 1,0.85) ">
<g transform="matrix( 1, 0, 0, 1, 0,0) ">
<use xlink:href="#uid_467"/>
</g>
</g>
</g></g><g transform="translate(20, 2826.0)"><g transform="translate(-0.0, -0.0)">
<defs>
<g id="uid_468">
<path d=" M 39.3 9.15 Q 39.45 5.8 33.4 3.2 29.85 1.65 25.8 1.05 L 25.8 2.05 Q 29.65 2.65 33 4.1 38.25 6.4 38.3 9.15 38.2 11.85 32.9 14.1 27.55 16.4 20.9 16.35 14.25 16.3 8.9 13.95 3.65 11.65 3.6 8.85 3.7 6.1 9 3.9 12.3 2.5 16.05 2 L 16.05 1 Q 12.05 1.5 8.6 3 2.5 5.5 2.6 8.85 2.45 12.25 8.5 14.85 14.05 17.3 20.9 17.35 27.75 17.4 33.3 15 39.4 12.45 39.3 9.15 Z" fill="#1A76B5" stroke="none"/>
</g>
</defs>

<g transform="matrix( 1, 0, 0, 1, 1,0.85) ">
<g transform="matrix( 1, 0, 0, 1, 0,0) ">
<use xlink:href="#uid_468"/>
</g>
</g>
</g></g><g transform="translate(20, 2866.0)"><g transform="translate(-0.0, -0.0)">
<defs>
<g id="uid_469">
<path d=" M 40 9.15 Q 40.15 5.7 33.85 3 30.1 1.35 25.8 0.75 L 25.8 1.75 Q 29.85 2.35 33.45 3.9 38.95 6.3 39 9.15 38.9 12 33.35 14.3 27.8 16.7 20.9 16.6 14 16.55 8.45 14.15 3 11.75 2.95 8.85 3.05 6 8.55 3.7 12.05 2.2 16.05 1.7 L 16.05 0.7 Q 11.8 1.2 8.15 2.8 1.85 5.4 1.95 8.85 1.8 12.35 8.05 15.05 13.8 17.55 20.9 17.6 28 17.7 33.75 15.2 40.1 12.6 40 9.15 Z" fill="#1A76B5" stroke="none"/>
</g>
</defs>

<g transform="matrix( 1, 0, 0, 1, 1,0.85) ">
<g transform="matrix( 1, 0, 0, 1, 0,0) ">
<use xlink:href="#uid_469"/>
</g>
</g>
</g></g><g transform="translate(20, 2906.0)"><g transform="translate(-0.0, -0.0)">
<defs>
<g id="uid_470">
<path d=" M 40.45 9.15 Q 40.6 5.6 34.2 2.85 30.3 1.15 25.8 0.55 L 25.8 1.55 Q 30.05 2.15 33.8 3.75 39.4 6.2 39.45 9.15 39.35 12.1 33.7 14.45 27.95 16.95 20.9 16.85 13.85 16.8 8.1 14.3 2.55 11.85 2.5 8.85 2.6 5.9 8.2 3.55 11.85 2 16.05 1.5 L 16.05 0.45 Q 11.65 1 7.8 2.65 1.4 5.3 1.5 8.85 1.35 12.45 7.7 15.2 13.65 17.8 20.9 17.85 28.15 17.95 34.1 15.35 40.55 12.7 40.45 9.15 Z" fill="#1A76B5" stroke="none"/>
</g>
</defs>

<g transform="matrix( 1, 0, 0, 1, 1,0.85) ">
<g transform="matrix( 1, 0, 0, 1, 0,0) ">
<use xlink:href="#uid_470"/>
</g>
</g>
</g></g><g transform="translate(20, 2946.0)"><g transform="translate(-0.0, -0.0)">
<defs>
<g id="uid_471">
<path d=" M 33.9 14.5 Q 28.05 17.05 20.9 16.95 13.75 16.9 7.9 14.35 2.25 11.9 2.2 8.85 2.3 5.85 8 3.55 L 8 3.5 Q 11.75 1.9 16.05 1.35 L 16.05 0.35 Q 11.55 0.9 7.6 2.6 1.1 5.25 1.2 8.85 1.05 12.5 7.5 15.25 13.55 17.9 20.9 17.95 28.25 18.05 34.3 15.4 L 34.3 15.45 Q 40.85 12.75 40.75 9.15 40.9 5.55 34.4 2.8 30.4 1.05 25.8 0.45 L 25.8 1.45 Q 30.15 2.05 34 3.7 39.7 6.15 39.75 9.15 39.65 12.15 33.9 14.5 Z" fill="#1A76B5" stroke="none"/>
</g>
</defs>

<g transform="matrix( 1, 0, 0, 1, 1,0.85) ">
<g transform="matrix( 1, 0, 0, 1, 0,0) ">
<use xlink:href="#uid_471"/>
</g>
</g>
</g></g><g transform="translate(20, 2986.0)"><g transform="translate(-0.0, -0.0)">
<defs>
<g id="uid_472">
<path d=" M 34.35 15.45 L 34.35 15.5 Q 40.95 12.75 40.85 9.15 41 5.55 34.45 2.75 30.45 1 25.8 0.4 L 25.8 1.4 Q 30.2 2 34.05 3.65 39.8 6.15 39.85 9.15 39.75 12.15 33.95 14.55 28.1 17.1 20.9 17 13.7 16.95 7.85 14.4 2.15 11.9 2.1 8.85 2.2 5.85 7.95 3.45 11.7 1.85 16.05 1.3 L 16.05 0.3 Q 11.5 0.85 7.55 2.55 1 5.25 1.1 8.85 0.95 12.5 7.45 15.3 13.5 17.95 20.9 18 28.3 18.1 34.35 15.45 Z" fill="#1A76B5" stroke="none"/>
</g>
</defs>

<g transform="matrix( 1, 0, 0, 1, 1,0.85) ">
<g transform="matrix( 1, 0, 0, 1, 0,0) ">
<use xlink:href="#uid_472"/>
</g>
</g>
</g></g><g transform="translate(20, 3026.0)"><g transform="translate(-0.0, -0.0)">
<defs>
<g id="uid_473">
<path d=" M 34.15 14.65 Q 28.2 17.25 20.9 17.15 13.65 17.1 7.75 14.5 1.9 12 1.85 8.85 1.95 5.8 7.85 3.4 11.65 1.7 16.05 1.2 L 16.05 0.25 Q 11.45 0.8 7.5 2.55 0.85 5.3 0.95 8.85 0.8 12.5 7.4 15.35 L 7.4 15.3 Q 13.45 18 20.9 18.05 28.4 18.15 34.5 15.45 L 34.5 15.5 Q 41.1 12.8 41 9.15 41.15 5.6 34.6 2.75 30.5 0.95 25.8 0.35 L 25.8 1.25 Q 30.3 1.9 34.25 3.6 40.05 6.1 40.1 9.15 40 12.2 34.15 14.65 Z" fill="#1A76B5" stroke="none"/>
</g>
</defs>

<g transform="matrix( 1, 0, 0, 1, 1,0.85) ">
<g transform="matrix( 1, 0, 0, 1, 0,0) ">
<use xlink:href="#uid_473"/>
</g>
</g>
</g></g><g transform="translate(20, 3066.0)"><g transform="translate(-0.0, -0.0)">
<defs>
<g id="uid_474">
<path d=" M 34.3 14.8 Q 28.25 17.4 20.9 17.3 13.55 17.25 7.55 14.65 1.65 12 1.65 8.85 1.7 5.75 7.65 3.3 11.55 1.6 16.05 1.05 L 16.05 0.25 Q 11.4 0.8 7.35 2.55 0.8 5.25 0.85 8.85 0.75 12.5 7.25 15.4 13.35 18.05 20.9 18.1 28.45 18.2 34.6 15.55 41.2 12.8 41.15 9.15 41.25 5.55 34.7 2.75 30.55 0.95 25.8 0.35 L 25.8 1.15 Q 30.4 1.75 34.4 3.5 40.35 6.05 40.35 9.15 40.3 12.3 34.3 14.8 Z" fill="#1A76B5" stroke="none"/>
</g>
</defs>

<g transform="matrix( 1, 0, 0, 1, 1,0.85) ">
<g transform="matrix( 1, 0, 0, 1, 0,0) ">
<use xlink:href="#uid_474"/>
</g>
</g>
</g></g><g transform="translate(20, 3106.0)"><g transform="translate(-0.0, -0.0)">
<defs>
<g id="uid_475">
<path d=" M 20.9 18.1 Q 28.5 18.2 34.7 15.5 41.35 12.75 41.3 9.15 41.4 5.6 34.8 2.75 30.6 0.95 25.8 0.3 L 25.8 1 Q 30.5 1.6 34.55 3.35 40.6 6 40.65 9.15 40.55 12.35 34.45 14.9 28.4 17.5 20.9 17.45 13.45 17.35 7.45 14.75 1.4 12.1 1.4 8.85 1.45 5.7 7.55 3.15 11.5 1.45 16.05 0.9 L 16.05 0.25 Q 11.35 0.8 7.3 2.55 0.65 5.3 0.75 8.85 0.6 12.5 7.2 15.35 13.35 18.05 20.9 18.1 Z" fill="#1A76B5" stroke="none"/>
</g>
</defs>

<g transform="matrix( 1, 0, 0, 1, 1,0.85) ">
<g transform="matrix( 1, 0, 0, 1, 0,0) ">
<use xlink:href="#uid_475"/>
</g>
</g>
</g></g><g transform="translate(20, 3146.0)"><g transform="translate(-0.0, -0.0)">
<defs>
<g id="uid_476">
<path d=" M 20.95 18.15 Q 28.55 18.2 34.8 15.55 41.45 12.75 41.45 9.2 41.5 5.6 34.9 2.75 30.65 0.9 25.8 0.3 L 25.8 0.85 Q 30.55 1.45 34.7 3.25 40.9 5.9 40.9 9.2 40.85 12.45 34.6 15.05 28.45 17.7 20.95 17.6 13.4 17.55 7.25 14.85 1.1 12.2 1.15 8.9 1.15 5.6 7.35 3.05 11.4 1.3 16.05 0.8 L 16.05 0.25 Q 11.3 0.8 7.15 2.55 0.55 5.3 0.6 8.9 0.5 12.5 7.05 15.35 13.3 18.05 20.95 18.15 Z" fill="#1A76B5" stroke="none"/>
</g>
</defs>

<g transform="matrix( 1, 0, 0, 1, 1,0.85) ">
<g transform="matrix( 1, 0, 0, 1, 0,0) ">
<use xlink:href="#uid_476"/>
</g>
</g>
</g></g><g transform="translate(20, 3186.0)"><g transform="translate(-0.0, -0.0)">
<defs>
<g id="uid_477">
<path d=" M 20.95 18.2 Q 28.65 18.25 34.95 15.55 41.55 12.8 41.55 9.2 41.6 5.6 35.05 2.7 30.75 0.9 25.8 0.25 L 25.8 0.7 Q 30.65 1.3 34.85 3.1 41.1 5.9 41.1 9.2 41.05 12.5 34.8 15.15 L 34.75 15.15 Q 28.55 17.85 20.95 17.75 13.3 17.7 7.15 14.95 0.85 12.2 0.9 8.9 0.9 5.6 7.25 2.9 11.3 1.15 16.05 0.65 L 16.05 0.2 Q 11.2 0.7 7.05 2.5 0.4 5.3 0.45 8.9 0.35 12.5 6.95 15.35 13.2 18.1 20.95 18.2 Z" fill="#1A76B5" stroke="none"/>
</g>
</defs>

<g transform="matrix( 1, 0, 0, 1, 1,0.85) ">
<g transform="matrix( 1, 0, 0, 1, 0,0) ">
<use xlink:href="#uid_477"/>
</g>
</g>
</g></g><g transform="translate(20, 3226.0)"><g transform="translate(-0.0, -0.0)">
<defs>
<g id="uid_478">
<path d=" M 20.95 18.25 Q 28.7 18.3 35.1 15.55 41.7 12.8 41.7 9.2 41.75 5.6 35.2 2.7 30.8 0.85 25.8 0.2 L 25.8 0.55 Q 30.7 1.15 35.05 3 41.35 5.8 41.35 9.2 41.3 12.6 34.95 15.25 28.6 18 20.95 17.9 13.25 17.85 7 15.1 0.65 12.3 0.7 8.9 0.7 5.5 7.1 2.8 11.25 1 16.05 0.5 L 16.05 0.15 Q 11.15 0.7 6.95 2.5 0.3 5.3 0.35 8.9 0.25 12.5 6.85 15.4 13.15 18.15 20.95 18.25 Z" fill="#1A76B5" stroke="none"/>
</g>
</defs>

<g transform="matrix( 1, 0, 0, 1, 1,0.85) ">
<g transform="matrix( 1, 0, 0, 1, 0,0) ">
<use xlink:href="#uid_478"/>
</g>
</g>
</g></g><g transform="translate(20, 3266.0)"><g transform="translate(-0.0, -0.0)">
<defs>
<g id="uid_479">
<path d=" M 20.95 18.25 Q 28.8 18.35 35.15 15.65 41.85 12.8 41.85 9.2 41.9 5.6 35.25 2.7 30.85 0.8 25.8 0.2 L 25.8 0.45 Q 30.8 1.1 35.15 2.95 41.6 5.8 41.6 9.2 41.55 12.6 35.05 15.4 28.7 18.05 20.95 18 13.15 17.9 6.85 15.2 0.4 12.3 0.45 8.9 0.45 5.5 6.95 2.75 11.15 0.9 16.05 0.4 L 16.05 0.1 Q 11.1 0.65 6.85 2.5 0.15 5.3 0.2 8.9 0.1 12.5 6.75 15.45 13.05 18.2 20.95 18.25 Z" fill="#1A76B5" stroke="none"/>
</g>
</defs>

<g transform="matrix( 1, 0, 0, 1, 1,0.85) ">
<g transform="matrix( 1, 0, 0, 1, 0,0) ">
<use xlink:href="#uid_479"/>
</g>
</g>
</g></g><g transform="translate(20, 3306.0)"><g transform="translate(-0.0, -0.0)">
<defs>
<g id="uid_480">
<path d=" M 20.95 18.35 Q 28.85 18.45 35.3 15.7 42.05 12.85 42.05 9.2 42.1 5.55 35.4 2.65 30.95 0.7 25.8 0.1 L 25.8 0.35 Q 30.9 1 35.3 2.9 41.8 5.75 41.8 9.2 41.75 12.65 35.2 15.45 28.75 18.15 20.95 18.1 13.1 18 6.7 15.25 0.2 12.35 0.25 8.9 0.25 5.45 6.8 2.7 11.1 0.85 16.05 0.3 L 16.05 0 Q 11.05 0.55 6.7 2.45 -0.05 5.25 0 8.9 -0.1 12.55 6.6 15.5 13 18.3 20.95 18.35 Z" fill="#1A76B5" stroke="none"/>
</g>
</defs>

<g transform="matrix( 1, 0, 0, 1, 1,0.85) ">
<g transform="matrix( 1, 0, 0, 1, 0,0) ">
<use xlink:href="#uid_480"/>
</g>
</g>
</g></g><g transform="translate(20, 3346.0)"><g transform="translate(-0.0, -0.0)">
<defs/>

<g transform="matrix( 1, 0, 0, 1, 1,0.85) "/>
</g></g></svg>