<?xml version="1.0" ?><svg height="10933.0px" viewBox="0 0 193.0 10933.0" width="193.0px" xmlns="http://www.w3.org/2000/svg" xmlns:xlink="http://www.w3.org/1999/xlink">
<g transform="translate(20, 6286.0)"><g transform="translate(-0.0, -0.0)">
<defs>
<g id="uid_819">
<path d=" M 359.75 268.65 L 396.95 250.05 359.75 231.45 322.6 250.05 359.75 268.65 Z" fill="#D7E13D" stroke="none"/>
</g>

<g id="uid_820">
<path d=" M 396.95 287.25 L 359.75 268.65 322.6 287.25 359.75 305.85 396.95 287.25 Z" fill="#000000" stroke="none"/>
</g>

<g id="uid_821">
<path d=" M 359.75 305.85 L 359.75 268.65 322.55 250.05 322.55 287.25 359.75 305.85 Z" fill="#98C64E" stroke="none"/>
</g>

<g id="uid_822">
<path d=" M 396.95 287.25 L 396.95 250.05 359.75 268.65 359.75 305.85 396.95 287.25 Z" fill="#98C64E" stroke="none"/>
</g>

<g id="uid_823">
<path d=" M 359.8 153.6 L 356.55 151.95 356.55 248.3 359.8 249.9 359.8 153.6 Z" fill="#186EA8" stroke="none"/>
</g>

<g id="uid_824">
<path d=" M 362.85 152.1 L 359.8 153.6 359.8 249.95 362.85 248.4 362.85 152.1 Z" fill="#AA7022" stroke="none"/>
</g>

<g id="uid_825">
<path d=" M 359.55 150.45 L 356.55 151.95 359.8 153.6 362.8 152.1 359.55 150.45 Z" fill="#D7E13D" stroke="none"/>
</g>

<g id="uid_826">
<path d=" M 281.1 271.15 L 243.9 289.75 281.1 308.3 318.3 289.75 281.1 271.15 Z" fill="#D7E13D" stroke="none"/>
</g>

<g id="uid_827">
<path d=" M 281.1 308.35 L 243.9 326.95 281.1 345.5 318.3 326.95 281.1 308.35 Z" fill="#000000" stroke="none"/>
</g>

<g id="uid_828">
<path d=" M 243.9 326.95 L 281.1 345.55 281.1 308.3 243.9 289.7 243.9 326.95 Z" fill="#98C64E" stroke="none"/>
</g>

<g id="uid_829">
<path d=" M 359.75 305.85 L 359.75 288.65 322.55 270.05 322.55 287.25 359.75 305.85 Z" fill="#186EA8" stroke="none"/>
</g>

<g id="uid_830">
<path d=" M 243.9 309.7 L 243.9 326.95 281.1 345.55 281.1 328.3 243.9 309.7 Z" fill="#186EA8" stroke="none"/>
</g>

<g id="uid_831">
<path d=" M 281.1 308.3 L 281.1 345.5 318.3 326.95 318.3 289.75 281.1 308.3 Z" fill="#98C64E" stroke="none"/>
</g>

<g id="uid_832">
<path d=" M 356.4 197.2 L 358.7 196.55 356.4 195.05 Q 350.15 191.7 339.75 192.85 329.8 193.95 318.65 198.9 307.2 203.95 297.75 211.6 287.55 219.9 281.85 229.45 L 281.85 237.65 Q 290.95 232.75 319.45 218.75 353.95 201.8 356.4 200.55 L 356.4 197.2 Z" fill="#D7E13D" stroke="none"/>
</g>

<g id="uid_833">
<path d=" M 358.7 196.55 Q 352.45 193.2 342.1 194.35 332.15 195.45 321 200.4 309.55 205.45 300.05 213.1 289.85 221.4 284.15 230.95 L 284.15 239.15 Q 293.25 234.25 321.75 220.25 356.25 203.3 358.7 202.05 L 358.7 196.55 Z" fill="#98C64E" stroke="none"/>
</g>

<g id="uid_834">
<path d=" M 281.15 194.95 L 277.85 193.3 277.85 289.6 281.15 291.25 281.15 194.95 Z" fill="#186EA8" stroke="none"/>
</g>

<g id="uid_835">
<path d=" M 284.2 193.4 L 281.15 194.95 281.15 291.25 284.2 289.75 284.2 193.4 Z" fill="#AA7022" stroke="none"/>
</g>

<g id="uid_836">
<path d=" M 280.9 191.8 L 277.9 193.3 281.15 194.95 284.15 193.45 280.9 191.8 Z" fill="#D7E13D" stroke="none"/>
</g>

<g id="uid_837">
<path d=" M 258.25 271.85 L 265.35 272.9 272.45 264.85 265.3 263.75 258.25 271.85 Z" fill="#186EA8" stroke="none"/>
</g>

<g id="uid_838">
<path d=" M 259.9 272.6 L 268 264.85 265.3 263.75 258.25 271.85 259.9 272.6 Z" fill="#186EA8" stroke="none"/>
</g>

<g id="uid_839">
<path d=" M 270.3 267.1 L 274.1 265.5 272.45 264.85 265.3 263.75 266.95 264.5 270.3 267.1 Z" fill="#D7E13D" stroke="none"/>
</g>

<g id="uid_840">
<path d=" M 259.9 272.6 L 266.95 273.75 274.1 265.5 266.95 264.5 259.9 272.6 Z" fill="#98C64E" stroke="none"/>
</g>

<g id="uid_841">
<path d=" M 370.7 223 L 378.2 214.45 370.6 213.3 363.15 221.9 370.7 223 Z" fill="#186EA8" stroke="none"/>
</g>

<g id="uid_842">
<path d=" M 364.9 222.7 L 373.5 214.45 370.6 213.3 363.15 221.9 364.9 222.7 Z" fill="#186EA8" stroke="none"/>
</g>

<g id="uid_843">
<path d=" M 375.9 216.85 L 379.95 215.15 378.2 214.45 370.6 213.3 372.4 214.1 375.9 216.85 Z" fill="#D7E13D" stroke="none"/>
</g>

<g id="uid_844">
<path d=" M 364.9 222.7 L 372.4 223.9 379.95 215.15 372.4 214.1 364.9 222.7 Z" fill="#98C64E" stroke="none"/>
</g>

<g id="uid_845">
<path d=" M 372 187.1 L 379.1 186.2 372.25 177.95 365.1 178.9 372 187.1 Z" fill="#186EA8" stroke="none"/>
</g>

<g id="uid_846">
<path d=" M 369.5 179 L 377.4 186.9 379.1 186.2 372.25 177.95 369.5 179 Z" fill="#98C64E" stroke="none"/>
</g>

<g id="uid_847">
<path d=" M 367.2 181.2 L 370.6 178.7 372.25 177.95 365.1 178.9 363.45 179.55 367.2 181.2 Z" fill="#D7E13D" stroke="none"/>
</g>

<g id="uid_848">
<path d=" M 370.4 187.9 L 377.4 186.9 370.6 178.7 363.45 179.55 370.4 187.9 Z" fill="#186EA8" stroke="none"/>
</g>

<g id="uid_849">
<path d=" M 268.6 242.65 L 261.45 243.6 268.35 251.75 275.4 250.85 268.6 242.65 Z" fill="#186EA8" stroke="none"/>
</g>

<g id="uid_850">
<path d=" M 268.6 242.65 L 265.85 243.65 273.75 251.6 275.4 250.85 268.6 242.65 Z" fill="#98C64E" stroke="none"/>
</g>

<g id="uid_851">
<path d=" M 259.75 244.25 L 263.55 245.85 266.9 243.35 268.6 242.65 261.45 243.6 259.75 244.25 Z" fill="#D7E13D" stroke="none"/>
</g>

<g id="uid_852">
<path d=" M 266.9 243.35 L 259.75 244.25 266.7 252.55 273.75 251.6 266.9 243.35 Z" fill="#186EA8" stroke="none"/>
</g>

<g id="uid_853">
<path d=" M 2.7 5.3 Q 2.05 4.95 1.35 5.3 0.65 5.7 0.25 6.65 -0.15 7.55 0.05 8.45 0.2 9.35 0.8 9.7 1.45 10.05 2.15 9.65 2.85 9.3 3.25 8.35 3.65 7.45 3.5 6.55 3.3 5.65 2.7 5.3 Z" fill="#186EA8" stroke="none"/>
</g>

<g id="uid_854">
<path d=" M 13.85 1.4 Q 13.65 0.5 13.05 0.15 12.4 -0.2 11.7 0.2 11 0.6 10.6 1.5 10.2 2.4 10.4 3.3 10.55 4.2 11.15 4.55 11.8 4.9 12.5 4.5 13.2 4.15 13.6 3.2 14 2.3 13.85 1.4 Z" fill="#186EA8" stroke="none"/>
</g>

<g id="uid_855">
<path d=" M 325.2 214.8 Q 325.75 214.8 326.3 214.6 328.05 214 328.75 212.05 329.3 210.65 329.1 209.65 329 209.45 328.85 209.55 328.65 209.55 328.75 209.75 328.95 210.65 328.45 211.95 327.75 213.7 326.15 214.3 324.9 214.7 324.15 214.1 323.3 213.55 323.3 212.6 323.3 212.45 323.1 212.45 322.9 212.45 322.9 212.6 322.9 213.65 323.9 214.4 324.5 214.8 325.2 214.8 Z" fill="#D7E13D" stroke="none"/>
</g>

<g id="uid_856">
<path d=" M 326.3 214.5 Q 326.5 214.5 326.5 214.3 L 326.5 211.45 Q 326.5 211.25 326.3 211.25 326.1 211.25 326.1 211.45 L 326.1 214.3 Q 326.1 214.5 326.3 214.5 Z" fill="#D7E13D" stroke="none"/>
</g>

<g id="uid_857">
<path d=" M 326.35 212.2 L 328.8 208 323.8 210.65 326.35 212.2 Z" fill="#186EA8" stroke="none"/>
</g>

<g id="uid_858">
<path d=" M 322.15 213.5 Q 322.25 213.5 322.35 213.3 322.35 213.1 322.15 213.1 L 307.95 212.65 Q 307.8 212.65 307.8 212.8 307.8 213 307.95 213 L 322.15 213.5 Z" fill="#D7E13D" stroke="none"/>
</g>

<g id="uid_859">
<path d=" M 308.2 221.65 L 322.3 214.3 Q 322.55 214.2 322.4 214.05 322.3 213.85 322.15 213.95 L 308.15 221.3 Q 307.95 221.4 308.05 221.55 L 308.2 221.65 Z" fill="#D7E13D" stroke="none"/>
</g>

<g id="uid_860">
<path d=" M 340.2 197.75 Q 340 197.65 339.95 197.8 L 329.8 209.75 Q 329.7 209.95 329.85 210 L 329.95 210.05 330.1 210 340.2 198 Q 340.3 197.9 340.2 197.75 Z" fill="#D7E13D" stroke="none"/>
</g>

<g id="uid_861">
<path d=" M 329.95 211.45 L 330.05 211.45 340.45 206.6 Q 340.5 206.6 340.55 206.5 340.6 206.45 340.55 206.4 340.45 206.2 340.3 206.3 L 329.9 211.1 Q 329.7 211.2 329.8 211.35 L 329.95 211.45 Z" fill="#D7E13D" stroke="none"/>
</g>

<g id="uid_862">
<path d=" M 309.8 180.1 L 307.2 178.85 307.25 205.05 309.85 206.3 309.8 180.1 Z" fill="#186EA8" stroke="none"/>
</g>

<g id="uid_863">
<path d=" M 309.8 180.1 L 317.8 176.2 315.2 174.95 307.2 178.9 309.8 180.1 Z" fill="#D7E13D" stroke="none"/>
</g>

<g id="uid_864">
<path d=" M 317.8 176.2 L 309.8 180.1 309.85 206.3 317.85 202.35 317.8 176.2 Z" fill="#98C64E" stroke="none"/>
</g>

<g id="uid_865">
<path d=" M 324.45 170.6 L 324.5 196.8 327.1 198.05 327.05 171.85 324.45 170.6 Z" fill="#186EA8" stroke="none"/>
</g>

<g id="uid_866">
<path d=" M 327.05 171.85 L 335.05 167.95 332.45 166.7 324.45 170.65 327.05 171.85 Z" fill="#D7E13D" stroke="none"/>
</g>

<g id="uid_867">
<path d=" M 335.05 167.95 L 327.05 171.85 327.1 198.05 335.1 196 335.05 167.95 Z" fill="#98C64E" stroke="none"/>
</g>
</defs>

<g transform="matrix( 1, 0, 0, 1, -243.9,-150.45) ">
<use xlink:href="#uid_819"/>
</g>

<g transform="matrix( 1, 0, 0, 1, -243.9,-150.45) ">
<use xlink:href="#uid_820"/>
</g>

<g transform="matrix( 1, 0, 0, 1, -243.9,-150.45) ">
<use xlink:href="#uid_821"/>
</g>

<g transform="matrix( 1, 0, 0, 1, -243.9,-150.45) ">
<use xlink:href="#uid_822"/>
</g>

<g transform="matrix( 1, 0, 0, 1, -243.9,-150.45) ">
<use xlink:href="#uid_823"/>
</g>

<g transform="matrix( 1, 0, 0, 1, -243.9,-150.45) ">
<use xlink:href="#uid_824"/>
</g>

<g transform="matrix( 1, 0, 0, 1, -243.9,-150.45) ">
<use xlink:href="#uid_825"/>
</g>

<g transform="matrix( 1, 0, 0, 1, -243.9,-150.45) ">
<use xlink:href="#uid_826"/>
</g>

<g transform="matrix( 1, 0, 0, 1, -243.9,-150.45) ">
<use xlink:href="#uid_827"/>
</g>

<g transform="matrix( 1, 0, 0, 1, -243.9,-150.45) ">
<use xlink:href="#uid_828"/>
</g>

<g transform="matrix( 1, 0, 0, 1, -243.9,-150.45) ">
<use xlink:href="#uid_829"/>
</g>

<g transform="matrix( 1, 0, 0, 1, -243.9,-150.45) ">
<use xlink:href="#uid_830"/>
</g>

<g transform="matrix( 1, 0, 0, 1, -243.9,-150.45) ">
<use xlink:href="#uid_831"/>
</g>

<g transform="matrix( 1, 0, 0, 1, -243.9,-150.45) ">
<use xlink:href="#uid_832"/>
</g>

<g transform="matrix( 1, 0, 0, 1, -243.9,-150.45) ">
<use xlink:href="#uid_833"/>
</g>

<g transform="matrix( 1, 0, 0, 1, -243.9,-150.45) ">
<use xlink:href="#uid_834"/>
</g>

<g transform="matrix( 1, 0, 0, 1, -243.9,-150.45) ">
<use xlink:href="#uid_835"/>
</g>

<g transform="matrix( 1, 0, 0, 1, -243.9,-150.45) ">
<use xlink:href="#uid_836"/>
</g>

<g transform="matrix( 1, 0, 0, 1, -243.9,-150.45) ">
<use xlink:href="#uid_837"/>
</g>

<g transform="matrix( 1, 0, 0, 1, -243.9,-150.45) ">
<use xlink:href="#uid_838"/>
</g>

<g transform="matrix( 1, 0, 0, 1, -243.9,-150.45) ">
<use xlink:href="#uid_839"/>
</g>

<g transform="matrix( 1, 0, 0, 1, -243.9,-150.45) ">
<use xlink:href="#uid_840"/>
</g>

<g transform="matrix( 1, 0, 0, 1, -243.9,-150.45) ">
<use xlink:href="#uid_841"/>
</g>

<g transform="matrix( 1, 0, 0, 1, -243.9,-150.45) ">
<use xlink:href="#uid_842"/>
</g>

<g transform="matrix( 1, 0, 0, 1, -243.9,-150.45) ">
<use xlink:href="#uid_843"/>
</g>

<g transform="matrix( 1, 0, 0, 1, -243.9,-150.45) ">
<use xlink:href="#uid_844"/>
</g>

<g transform="matrix( 1, 0, 0, 1, -243.9,-150.45) ">
<use xlink:href="#uid_845"/>
</g>

<g transform="matrix( 1, 0, 0, 1, -243.9,-150.45) ">
<use xlink:href="#uid_846"/>
</g>

<g transform="matrix( 1, 0, 0, 1, -243.9,-150.45) ">
<use xlink:href="#uid_847"/>
</g>

<g transform="matrix( 1, 0, 0, 1, -243.9,-150.45) ">
<use xlink:href="#uid_848"/>
</g>

<g transform="matrix( 1, 0, 0, 1, -243.9,-150.45) ">
<use xlink:href="#uid_849"/>
</g>

<g transform="matrix( 1, 0, 0, 1, -243.9,-150.45) ">
<use xlink:href="#uid_850"/>
</g>

<g transform="matrix( 1, 0, 0, 1, -243.9,-150.45) ">
<use xlink:href="#uid_851"/>
</g>

<g transform="matrix( 1, 0, 0, 1, -243.9,-150.45) ">
<use xlink:href="#uid_852"/>
</g>

<g transform="matrix( 1, 0, 0, 1, 74.7,52) ">
<g transform="matrix( 1, 0, 0, 1, 0,0) ">
<use xlink:href="#uid_853"/>
</g>

<g transform="matrix( 1, 0, 0, 1, 0,0) ">
<use xlink:href="#uid_854"/>
</g>
</g>

<g transform="matrix( 1, 0, 0, 1, -243.9,-150.45) ">
<use xlink:href="#uid_855"/>
</g>

<g transform="matrix( 1, 0, 0, 1, -243.9,-150.45) ">
<use xlink:href="#uid_856"/>
</g>

<g transform="matrix( 1, 0, 0, 1, -243.9,-150.45) ">
<use xlink:href="#uid_857"/>
</g>

<g transform="matrix( 1, 0, 0, 1, -243.9,-150.45) ">
<use xlink:href="#uid_858"/>
</g>

<g transform="matrix( 1, 0, 0, 1, -243.9,-150.45) ">
<use xlink:href="#uid_859"/>
</g>

<g transform="matrix( 1, 0, 0, 1, -243.9,-150.45) ">
<use xlink:href="#uid_860"/>
</g>

<g transform="matrix( 1, 0, 0, 1, -243.9,-150.45) ">
<use xlink:href="#uid_861"/>
</g>

<g transform="matrix( 1, 0, 0, 1, -243.9,-150.45) ">
<use xlink:href="#uid_862"/>
</g>

<g transform="matrix( 1, 0, 0, 1, -243.9,-150.45) ">
<use xlink:href="#uid_863"/>
</g>

<g transform="matrix( 1, 0, 0, 1, -243.9,-150.45) ">
<use xlink:href="#uid_864"/>
</g>

<g transform="matrix( 1, 0, 0, 1, -243.9,-150.45) ">
<use xlink:href="#uid_865"/>
</g>

<g transform="matrix( 1, 0, 0, 1, -243.9,-150.45) ">
<use xlink:href="#uid_866"/>
</g>

<g transform="matrix( 1, 0, 0, 1, -243.9,-150.45) ">
<use xlink:href="#uid_867"/>
</g>
</g></g>
</svg>