<?xml version="1.0" ?><svg height="10933.0px" viewBox="0 0 193.0 10933.0" width="193.0px" xmlns="http://www.w3.org/2000/svg" xmlns:xlink="http://www.w3.org/1999/xlink">
<g transform="translate(20, 1898.0)"><g transform="translate(-0.0, -0.0)">
<defs>
<g id="uid_372">
<path d=" M 2.55 -7 Q 1.2 -6.9 0.25 -6.45 -0.85 -7.05 -2.6 -7.05 -4.2 -7 -5.3 -6.35 -6.45 -5.75 -6.4 -4.9 -6.4 -4.1 -5.4 -3.6 -6.7 -2.85 -6.65 -1.95 -6.55 -1.1 -5.35 -0.55 -4.15 0 -2.55 -0.05 -1.25 -0.1 -0.2 -0.6 0.85 0 2.65 0 4.25 -0.05 5.4 -0.65 6.5 -1.3 6.45 -2.15 6.4 -2.9 5.45 -3.45 6.75 -4.1 6.65 -5.1 6.6 -5.9 5.35 -6.5 4.15 -7.05 2.55 -7 M 2.1 -4.8 Q 3.15 -4.35 3.25 -3.65 3.35 -2.95 2.45 -2.45 1.55 -1.95 0.2 -1.9 -1.15 -1.85 -2.2 -2.3 -3.25 -2.75 -3.35 -3.45 -3.4 -4.15 -2.55 -4.7 -1.65 -5.2 -0.3 -5.25 1.05 -5.3 2.1 -4.8 Z" fill="#F9EF49" stroke="none"/>
</g>
</defs>

<g transform="matrix( 1, 0, 0, 1, 1.1,0.95) ">
<g transform="matrix( 0.5488739013671875, 0, 0, 0.5488739013671875, 12.15,3.85) ">
<g transform="matrix( 1, 0, 0, 1, 0,0) ">
<use xlink:href="#uid_372"/>
</g>
</g>
</g>
</g></g><g transform="translate(20, 1928.0)"><g transform="translate(-0.0, -0.0)">
<defs>
<g id="uid_373">
<path d=" M 2.55 -7 Q 1.2 -6.9 0.25 -6.45 -0.85 -7.05 -2.6 -7.05 -4.2 -7 -5.3 -6.35 -6.45 -5.75 -6.4 -4.9 -6.4 -4.1 -5.4 -3.6 -6.7 -2.85 -6.65 -1.95 -6.55 -1.1 -5.35 -0.55 -4.15 0 -2.55 -0.05 -1.25 -0.1 -0.2 -0.6 0.85 0 2.65 0 4.25 -0.05 5.4 -0.65 6.5 -1.3 6.45 -2.15 6.4 -2.9 5.45 -3.45 6.75 -4.1 6.65 -5.1 6.6 -5.9 5.35 -6.5 4.15 -7.05 2.55 -7 M 2.1 -4.8 Q 3.15 -4.35 3.25 -3.65 3.35 -2.95 2.45 -2.45 1.55 -1.95 0.2 -1.9 -1.15 -1.85 -2.2 -2.3 -3.25 -2.75 -3.35 -3.45 -3.4 -4.15 -2.55 -4.7 -1.65 -5.2 -0.3 -5.25 1.05 -5.3 2.1 -4.8 Z" fill="#F9EF49" stroke="none"/>
</g>
</defs>

<g transform="matrix( 1, 0, 0, 1, 1.1,0.95) ">
<g transform="matrix( 0.636566162109375, 0, 0, 0.636566162109375, 11.05,4.7) ">
<g transform="matrix( 1, 0, 0, 1, 0,0) ">
<use xlink:href="#uid_373"/>
</g>
</g>
</g>
</g></g><g transform="translate(20, 1958.0)"><g transform="translate(-0.0, -0.0)">
<defs>
<g id="uid_374">
<path d=" M 2.55 -7 Q 1.2 -6.9 0.25 -6.45 -0.85 -7.05 -2.6 -7.05 -4.2 -7 -5.3 -6.35 -6.45 -5.75 -6.4 -4.9 -6.4 -4.1 -5.4 -3.6 -6.7 -2.85 -6.65 -1.95 -6.55 -1.1 -5.35 -0.55 -4.15 0 -2.55 -0.05 -1.25 -0.1 -0.2 -0.6 0.85 0 2.65 0 4.25 -0.05 5.4 -0.65 6.5 -1.3 6.45 -2.15 6.4 -2.9 5.45 -3.45 6.75 -4.1 6.65 -5.1 6.6 -5.9 5.35 -6.5 4.15 -7.05 2.55 -7 M 2.1 -4.8 Q 3.15 -4.35 3.25 -3.65 3.35 -2.95 2.45 -2.45 1.55 -1.95 0.2 -1.9 -1.15 -1.85 -2.2 -2.3 -3.25 -2.75 -3.35 -3.45 -3.4 -4.15 -2.55 -4.7 -1.65 -5.2 -0.3 -5.25 1.05 -5.3 2.1 -4.8 Z" fill="#F9EF49" stroke="none"/>
</g>
</defs>

<g transform="matrix( 1, 0, 0, 1, 1.1,0.95) ">
<g transform="matrix( 0.7242889404296875, 0, 0, 0.7242889404296875, 10,5.5) ">
<g transform="matrix( 1, 0, 0, 1, 0,0) ">
<use xlink:href="#uid_374"/>
</g>
</g>
</g>
</g></g><g transform="translate(20, 1988.0)"><g transform="translate(-0.0, -0.0)">
<defs>
<g id="uid_375">
<path d=" M 2.55 -7 Q 1.2 -6.9 0.25 -6.45 -0.85 -7.05 -2.6 -7.05 -4.2 -7 -5.3 -6.35 -6.45 -5.75 -6.4 -4.9 -6.4 -4.1 -5.4 -3.6 -6.7 -2.85 -6.65 -1.95 -6.55 -1.1 -5.35 -0.55 -4.15 0 -2.55 -0.05 -1.25 -0.1 -0.2 -0.6 0.85 0 2.65 0 4.25 -0.05 5.4 -0.65 6.5 -1.3 6.45 -2.15 6.4 -2.9 5.45 -3.45 6.75 -4.1 6.65 -5.1 6.6 -5.9 5.35 -6.5 4.15 -7.05 2.55 -7 M 2.1 -4.8 Q 3.15 -4.35 3.25 -3.65 3.35 -2.95 2.45 -2.45 1.55 -1.95 0.2 -1.9 -1.15 -1.85 -2.2 -2.3 -3.25 -2.75 -3.35 -3.45 -3.4 -4.15 -2.55 -4.7 -1.65 -5.2 -0.3 -5.25 1.05 -5.3 2.1 -4.8 Z" fill="#F9EF49" stroke="none"/>
</g>
</defs>

<g transform="matrix( 1, 0, 0, 1, 1.1,0.95) ">
<g transform="matrix( 0.8119964599609375, 0, 0, 0.8119964599609375, 8.9,6.35) ">
<g transform="matrix( 1, 0, 0, 1, 0,0) ">
<use xlink:href="#uid_375"/>
</g>
</g>
</g>
</g></g><g transform="translate(20, 2018.0)"><g transform="translate(-0.0, -0.0)">
<defs>
<g id="uid_376">
<path d=" M 2.55 -7 Q 1.2 -6.9 0.25 -6.45 -0.85 -7.05 -2.6 -7.05 -4.2 -7 -5.3 -6.35 -6.45 -5.75 -6.4 -4.9 -6.4 -4.1 -5.4 -3.6 -6.7 -2.85 -6.65 -1.95 -6.55 -1.1 -5.35 -0.55 -4.15 0 -2.55 -0.05 -1.25 -0.1 -0.2 -0.6 0.85 0 2.65 0 4.25 -0.05 5.4 -0.65 6.5 -1.3 6.45 -2.15 6.4 -2.9 5.45 -3.45 6.75 -4.1 6.65 -5.1 6.6 -5.9 5.35 -6.5 4.15 -7.05 2.55 -7 M 2.1 -4.8 Q 3.15 -4.35 3.25 -3.65 3.35 -2.95 2.45 -2.45 1.55 -1.95 0.2 -1.9 -1.15 -1.85 -2.2 -2.3 -3.25 -2.75 -3.35 -3.45 -3.4 -4.15 -2.55 -4.7 -1.65 -5.2 -0.3 -5.25 1.05 -5.3 2.1 -4.8 Z" fill="#F9EF49" stroke="none"/>
</g>
</defs>

<g transform="matrix( 1, 0, 0, 1, 1.1,0.95) ">
<g transform="matrix( 0.89971923828125, 0, 0, 0.89971923828125, 7.85,7.1) ">
<g transform="matrix( 1, 0, 0, 1, 0,0) ">
<use xlink:href="#uid_376"/>
</g>
</g>
</g>
</g></g><g transform="translate(20, 2048.0)"><g transform="translate(-0.0, -0.0)">
<defs>
<g id="uid_377">
<path d=" M 2.55 -7 Q 1.2 -6.9 0.25 -6.45 -0.85 -7.05 -2.6 -7.05 -4.2 -7 -5.3 -6.35 -6.45 -5.75 -6.4 -4.9 -6.4 -4.1 -5.4 -3.6 -6.7 -2.85 -6.65 -1.95 -6.55 -1.1 -5.35 -0.55 -4.15 0 -2.55 -0.05 -1.25 -0.1 -0.2 -0.6 0.85 0 2.65 0 4.25 -0.05 5.4 -0.65 6.5 -1.3 6.45 -2.15 6.4 -2.9 5.45 -3.45 6.75 -4.1 6.65 -5.1 6.6 -5.9 5.35 -6.5 4.15 -7.05 2.55 -7 M 2.1 -4.8 Q 3.15 -4.35 3.25 -3.65 3.35 -2.95 2.45 -2.45 1.55 -1.95 0.2 -1.9 -1.15 -1.85 -2.2 -2.3 -3.25 -2.75 -3.35 -3.45 -3.4 -4.15 -2.55 -4.7 -1.65 -5.2 -0.3 -5.25 1.05 -5.3 2.1 -4.8 Z" fill="#F9EF49" stroke="none"/>
</g>
</defs>

<g transform="matrix( 1, 0, 0, 1, 1.1,0.95) ">
<g transform="matrix( 0.91973876953125, 0, 0, 0.91973876953125, 7.6,7.3) ">
<g transform="matrix( 1, 0, 0, 1, 0,0) ">
<use xlink:href="#uid_377"/>
</g>
</g>
</g>
</g></g><g transform="translate(20, 2078.0)"><g transform="translate(-0.0, -0.0)">
<defs>
<g id="uid_378">
<path d=" M 2.55 -7 Q 1.2 -6.9 0.25 -6.45 -0.85 -7.05 -2.6 -7.05 -4.2 -7 -5.3 -6.35 -6.45 -5.75 -6.4 -4.9 -6.4 -4.1 -5.4 -3.6 -6.7 -2.85 -6.65 -1.95 -6.55 -1.1 -5.35 -0.55 -4.15 0 -2.55 -0.05 -1.25 -0.1 -0.2 -0.6 0.85 0 2.65 0 4.25 -0.05 5.4 -0.65 6.5 -1.3 6.45 -2.15 6.4 -2.9 5.45 -3.45 6.75 -4.1 6.65 -5.1 6.6 -5.9 5.35 -6.5 4.15 -7.05 2.55 -7 M 2.1 -4.8 Q 3.15 -4.35 3.25 -3.65 3.35 -2.95 2.45 -2.45 1.55 -1.95 0.2 -1.9 -1.15 -1.85 -2.2 -2.3 -3.25 -2.75 -3.35 -3.45 -3.4 -4.15 -2.55 -4.7 -1.65 -5.2 -0.3 -5.25 1.05 -5.3 2.1 -4.8 Z" fill="#F9EF49" stroke="none"/>
</g>
</defs>

<g transform="matrix( 1, 0, 0, 1, 1.1,0.95) ">
<g transform="matrix( 0.9398193359375, 0, 0, 0.9398193359375, 7.3,7.45) ">
<g transform="matrix( 1, 0, 0, 1, 0,0) ">
<use xlink:href="#uid_378"/>
</g>
</g>
</g>
</g></g><g transform="translate(20, 2108.0)"><g transform="translate(-0.0, -0.0)">
<defs>
<g id="uid_379">
<path d=" M 2.55 -7 Q 1.2 -6.9 0.25 -6.45 -0.85 -7.05 -2.6 -7.05 -4.2 -7 -5.3 -6.35 -6.45 -5.75 -6.4 -4.9 -6.4 -4.1 -5.4 -3.6 -6.7 -2.85 -6.65 -1.95 -6.55 -1.1 -5.35 -0.55 -4.15 0 -2.55 -0.05 -1.25 -0.1 -0.2 -0.6 0.85 0 2.65 0 4.25 -0.05 5.4 -0.65 6.5 -1.3 6.45 -2.15 6.4 -2.9 5.45 -3.45 6.75 -4.1 6.65 -5.1 6.6 -5.9 5.35 -6.5 4.15 -7.05 2.55 -7 M 2.1 -4.8 Q 3.15 -4.35 3.25 -3.65 3.35 -2.95 2.45 -2.45 1.55 -1.95 0.2 -1.9 -1.15 -1.85 -2.2 -2.3 -3.25 -2.75 -3.35 -3.45 -3.4 -4.15 -2.55 -4.7 -1.65 -5.2 -0.3 -5.25 1.05 -5.3 2.1 -4.8 Z" fill="#F9EF49" stroke="none"/>
</g>
</defs>

<g transform="matrix( 1, 0, 0, 1, 1.1,0.95) ">
<g transform="matrix( 0.959869384765625, 0, 0, 0.959869384765625, 7.05,7.65) ">
<g transform="matrix( 1, 0, 0, 1, 0,0) ">
<use xlink:href="#uid_379"/>
</g>
</g>
</g>
</g></g><g transform="translate(20, 2138.0)"><g transform="translate(-0.0, -0.0)">
<defs>
<g id="uid_380">
<path d=" M 2.55 -7 Q 1.2 -6.9 0.25 -6.45 -0.85 -7.05 -2.6 -7.05 -4.2 -7 -5.3 -6.35 -6.45 -5.75 -6.4 -4.9 -6.4 -4.1 -5.4 -3.6 -6.7 -2.85 -6.65 -1.95 -6.55 -1.1 -5.35 -0.55 -4.15 0 -2.55 -0.05 -1.25 -0.1 -0.2 -0.6 0.85 0 2.65 0 4.25 -0.05 5.4 -0.65 6.5 -1.3 6.45 -2.15 6.4 -2.9 5.45 -3.45 6.75 -4.1 6.65 -5.1 6.6 -5.9 5.35 -6.5 4.15 -7.05 2.55 -7 M 2.1 -4.8 Q 3.15 -4.35 3.25 -3.65 3.35 -2.95 2.45 -2.45 1.55 -1.95 0.2 -1.9 -1.15 -1.85 -2.2 -2.3 -3.25 -2.75 -3.35 -3.45 -3.4 -4.15 -2.55 -4.7 -1.65 -5.2 -0.3 -5.25 1.05 -5.3 2.1 -4.8 Z" fill="#F9EF49" stroke="none"/>
</g>
</defs>

<g transform="matrix( 1, 0, 0, 1, 1.1,0.95) ">
<g transform="matrix( 0.9799346923828125, 0, 0, 0.9799346923828125, 6.75,7.8) ">
<g transform="matrix( 1, 0, 0, 1, 0,0) ">
<use xlink:href="#uid_380"/>
</g>
</g>
</g>
</g></g><g transform="translate(20, 2168.0)"><g transform="translate(-0.0, -0.0)">
<defs>
<g id="uid_381">
<path d=" M 2.55 -7 Q 1.2 -6.9 0.25 -6.45 -0.85 -7.05 -2.6 -7.05 -4.2 -7 -5.3 -6.35 -6.45 -5.75 -6.4 -4.9 -6.4 -4.1 -5.4 -3.6 -6.7 -2.85 -6.65 -1.95 -6.55 -1.1 -5.35 -0.55 -4.15 0 -2.55 -0.05 -1.25 -0.1 -0.2 -0.6 0.85 0 2.65 0 4.25 -0.05 5.4 -0.65 6.5 -1.3 6.45 -2.15 6.4 -2.9 5.45 -3.45 6.75 -4.1 6.65 -5.1 6.6 -5.9 5.35 -6.5 4.15 -7.05 2.55 -7 M 2.1 -4.8 Q 3.15 -4.35 3.25 -3.65 3.35 -2.95 2.45 -2.45 1.55 -1.95 0.2 -1.9 -1.15 -1.85 -2.2 -2.3 -3.25 -2.75 -3.35 -3.45 -3.4 -4.15 -2.55 -4.7 -1.65 -5.2 -0.3 -5.25 1.05 -5.3 2.1 -4.8 Z" fill="#F9EF49" stroke="none"/>
</g>
</defs>

<g transform="matrix( 1, 0, 0, 1, 1.1,0.95) ">
<g transform="matrix( 1, 0, 0, 1, 6.65,8.15) ">
<g transform="matrix( 1, 0, 0, 1, 0,0) ">
<use xlink:href="#uid_381"/>
</g>
</g>
</g>
</g></g></svg>