<?xml version="1.0" ?><svg height="10933.0px" viewBox="0 0 193.0 10933.0" width="193.0px" xmlns="http://www.w3.org/2000/svg" xmlns:xlink="http://www.w3.org/1999/xlink">
<g transform="translate(20, 764.0)"><g transform="translate(-0.0, -0.0)">
<defs>
<g id="uid_255">
<path d=" M 53.75 44.25 L 55.35 45.15 55.35 36.9 53.75 35.95 53.75 44.25 Z" fill="#186EA8" stroke="none"/>

<path d=" M 55.35 45.15 L 57 44.5 57 35.95 55.35 36.9 55.35 45.15 Z" fill="#98C64E" stroke="none"/>
</g>

<g id="uid_256">
<path d=" M 28.1 7.45 L 28.1 4.4 0.55 4 0.55 7.2 Q 0.55 8.75 2.6 10 L 0 10.25 0 13.35 Q 0.15 15.15 2.65 16.35 5.2 17.55 8.55 17.45 11.5 17.35 13.5 16.4 15.95 17.8 19.5 17.7 22.75 17.65 25.05 16.5 27.35 15.3 27.5 13.6 L 27.55 10.5 25.5 10.5 Q 27.95 9.25 28.1 7.45 Z" fill="#186EA8" stroke="none"/>
</g>

<g id="uid_257">
<path d=" M 25.5 7.75 Q 28.3 6.35 28.1 4.35 27.95 2.55 25.45 1.35 22.95 0.2 19.55 0.25 16.8 0.3 14.6 1.3 12.15 0 8.6 0 5.2 0.05 2.85 1.35 0.5 2.65 0.55 4.45 0.55 6 2.6 7.25 -0.15 8.65 0 10.6 0.15 12.4 2.65 13.6 5.2 14.8 8.55 14.7 11.3 14.65 13.5 13.65 15.95 15.05 19.5 14.95 22.9 14.9 25.25 13.6 27.65 12.3 27.55 10.55 27.55 9 25.5 7.75 Z" fill="#F9EF49" stroke="none"/>
</g>
</defs>

<g transform="matrix( 1.0988006591796875, 0, 0, 1.0988006591796875, 0,0) ">
<g transform="matrix( 1, 0, 0, 1, 0,0) ">
<use xlink:href="#uid_255"/>
</g>

<g transform="matrix( 0.4720458984375, 0, 0, 0.4720458984375, 55.5,43.75) ">
<g transform="matrix( 1.1439208984375, 0, 0, 1.1439208984375, -16.05,-20.25) ">
<use xlink:href="#uid_256"/>
</g>

<g transform="matrix( 1.1439208984375, 0, 0, 1.1439208984375, -16.05,-20.25) ">
<use xlink:href="#uid_257"/>
</g>
</g>
</g>
</g></g><g transform="translate(20, 845.0)"><g transform="translate(-0.0, -0.0)">
<defs>
<g id="uid_258">
<path d=" M 53.75 44.25 L 55.35 45.15 55.35 36.9 53.75 35.95 53.75 44.25 Z" fill="#186EA8" stroke="none"/>

<path d=" M 55.35 45.15 L 57 44.5 57 35.95 55.35 36.9 55.35 45.15 Z" fill="#98C64E" stroke="none"/>
</g>

<g id="uid_259">
<path d=" M 28.1 7.45 L 28.1 4.4 0.55 4 0.55 7.2 Q 0.55 8.75 2.6 10 L 0 10.25 0 13.35 Q 0.15 15.15 2.65 16.35 5.2 17.55 8.55 17.45 11.5 17.35 13.5 16.4 15.95 17.8 19.5 17.7 22.75 17.65 25.05 16.5 27.35 15.3 27.5 13.6 L 27.55 10.5 25.5 10.5 Q 27.95 9.25 28.1 7.45 Z" fill="#186EA8" stroke="none"/>
</g>

<g id="uid_260">
<path d=" M 25.5 7.75 Q 28.3 6.35 28.1 4.35 27.95 2.55 25.45 1.35 22.95 0.2 19.55 0.25 16.8 0.3 14.6 1.3 12.15 0 8.6 0 5.2 0.05 2.85 1.35 0.5 2.65 0.55 4.45 0.55 6 2.6 7.25 -0.15 8.65 0 10.6 0.15 12.4 2.65 13.6 5.2 14.8 8.55 14.7 11.3 14.65 13.5 13.65 15.95 15.05 19.5 14.95 22.9 14.9 25.25 13.6 27.65 12.3 27.55 10.55 27.55 9 25.5 7.75 Z" fill="#F9EF49" stroke="none"/>
</g>
</defs>

<g transform="matrix( 1.0988006591796875, 0, 0, 1.0988006591796875, 0,0) ">
<g transform="matrix( 1, 0, 0, 1, 0,0) ">
<use xlink:href="#uid_258"/>
</g>

<g transform="matrix( 0.63818359375, 0, 0, 0.6052398681640625, 55.5,38.7) ">
<g transform="matrix( 1.1439208984375, 0, 0, 1.1439208984375, -16.05,-20.25) ">
<use xlink:href="#uid_259"/>
</g>

<g transform="matrix( 1.1439208984375, 0, 0, 1.1439208984375, -16.05,-20.25) ">
<use xlink:href="#uid_260"/>
</g>
</g>
</g>
</g></g><g transform="translate(20, 926.0)"><g transform="translate(-0.0, -0.0)">
<defs>
<g id="uid_261">
<path d=" M 55.35 45.15 L 55.35 9.3 53.75 8.35 53.75 44.25 55.35 45.15 Z" fill="#186EA8" stroke="none"/>

<path d=" M 55.35 45.15 L 57 44.5 57 8.35 55.35 9.3 55.35 45.15 Z" fill="#98C64E" stroke="none"/>
</g>

<g id="uid_262">
<path d=" M 81.6 195.15 L 86.25 192.85 81.6 190.6 77 192.85 81.6 195.15 Z" fill="#D7E13D" stroke="none"/>
</g>

<g id="uid_263">
<path d=" M 7.6 25.05 L 3.6 23.05 3.6 24.8 7.6 26.8 7.6 25.05 Z" fill="#186EA8" stroke="none"/>
</g>

<g id="uid_264">
<path d=" M 11.65 23.05 L 7.6 25.05 7.6 26.8 11.65 24.8 11.65 23.05 Z" fill="#98C64E" stroke="none"/>
</g>

<g id="uid_265">
<path d=" M 28.1 7.45 L 28.1 4.4 0.55 4 0.55 7.2 Q 0.55 8.75 2.6 10 L 0 10.25 0 13.35 Q 0.15 15.15 2.65 16.35 5.2 17.55 8.55 17.45 11.5 17.35 13.5 16.4 15.95 17.8 19.5 17.7 22.75 17.65 25.05 16.5 27.35 15.3 27.5 13.6 L 27.55 10.5 25.5 10.5 Q 27.95 9.25 28.1 7.45 Z" fill="#186EA8" stroke="none"/>
</g>

<g id="uid_266">
<path d=" M 25.5 7.75 Q 28.3 6.35 28.1 4.35 27.95 2.55 25.45 1.35 22.95 0.2 19.55 0.25 16.8 0.3 14.6 1.3 12.15 0 8.6 0 5.2 0.05 2.85 1.35 0.5 2.65 0.55 4.45 0.55 6 2.6 7.25 -0.15 8.65 0 10.6 0.15 12.4 2.65 13.6 5.2 14.8 8.55 14.7 11.3 14.65 13.5 13.65 15.95 15.05 19.5 14.95 22.9 14.9 25.25 13.6 27.65 12.3 27.55 10.55 27.55 9 25.5 7.75 Z" fill="#F9EF49" stroke="none"/>
</g>
</defs>

<g transform="matrix( 1.0988006591796875, 0, 0, 1.0988006591796875, 0,0) ">
<g transform="matrix( 1, 0, 0, 1, 0,0) ">
<use xlink:href="#uid_261"/>
</g>

<g transform="matrix( 0.53125, 0, 0, 0.53125, 50.7,43.05) ">
<g transform="matrix( 1, 0, 0, 1, -81.6,-197.15) ">
<use xlink:href="#uid_262"/>
</g>

<g transform="matrix( 1.1439208984375, 0, 0, 1.1439208984375, -8.7,-30.65) ">
<use xlink:href="#uid_263"/>
</g>

<g transform="matrix( 1.1439208984375, 0, 0, 1.1439208984375, -8.7,-30.65) ">
<use xlink:href="#uid_264"/>
</g>
</g>

<g transform="matrix( 1.1366424560546875, 0, 0, 1.0048828125, 55.5,23.55) ">
<g transform="matrix( 1.1439208984375, 0, 0, 1.1439208984375, -16.05,-20.25) ">
<use xlink:href="#uid_265"/>
</g>

<g transform="matrix( 1.1439208984375, 0, 0, 1.1439208984375, -16.05,-20.25) ">
<use xlink:href="#uid_266"/>
</g>
</g>
</g>
</g></g><g transform="translate(20, 1007.0)"><g transform="translate(-0.0, -0.0)">
<defs>
<g id="uid_267">
<path d=" M 16.3 -10.25 L 0.15 -2.2 -16.05 -10.3 -0.15 -18.35 16.15 -10.2 20.45 -12.35 4.15 -20.5 0 -18.4 -4.3 -20.55 -20.55 -12.4 -16.25 -10.25 -20.4 -8.2 -4.1 -0.05 0 -2.15 4.3 0 20.6 -8.1 16.3 -10.25 Z" fill="#98C64E" stroke="none"/>
</g>

<g id="uid_268">
<path d=" M 55.35 45.15 L 55.35 9.3 53.75 8.35 53.75 44.25 55.35 45.15 Z" fill="#186EA8" stroke="none"/>

<path d=" M 55.35 45.15 L 57 44.5 57 8.35 55.35 9.3 55.35 45.15 Z" fill="#98C64E" stroke="none"/>
</g>

<g id="uid_269">
<path d=" M 81.6 195.15 L 86.25 192.85 81.6 190.6 77 192.85 81.6 195.15 Z" fill="#D7E13D" stroke="none"/>
</g>

<g id="uid_270">
<path d=" M 7.6 25.05 L 3.6 23.05 3.6 24.8 7.6 26.8 7.6 25.05 Z" fill="#186EA8" stroke="none"/>
</g>

<g id="uid_271">
<path d=" M 11.65 23.05 L 7.6 25.05 7.6 26.8 11.65 24.8 11.65 23.05 Z" fill="#98C64E" stroke="none"/>
</g>

<g id="uid_272">
<path d=" M 28.1 7.45 L 28.1 4.4 0.55 4 0.55 7.2 Q 0.55 8.75 2.6 10 L 0 10.25 0 13.35 Q 0.15 15.15 2.65 16.35 5.2 17.55 8.55 17.45 11.5 17.35 13.5 16.4 15.95 17.8 19.5 17.7 22.75 17.65 25.05 16.5 27.35 15.3 27.5 13.6 L 27.55 10.5 25.5 10.5 Q 27.95 9.25 28.1 7.45 Z" fill="#186EA8" stroke="none"/>
</g>

<g id="uid_273">
<path d=" M 25.5 7.75 Q 28.3 6.35 28.1 4.35 27.95 2.55 25.45 1.35 22.95 0.2 19.55 0.25 16.8 0.3 14.6 1.3 12.15 0 8.6 0 5.2 0.05 2.85 1.35 0.5 2.65 0.55 4.45 0.55 6 2.6 7.25 -0.15 8.65 0 10.6 0.15 12.4 2.65 13.6 5.2 14.8 8.55 14.7 11.3 14.65 13.5 13.65 15.95 15.05 19.5 14.95 22.9 14.9 25.25 13.6 27.65 12.3 27.55 10.55 27.55 9 25.5 7.75 Z" fill="#F9EF49" stroke="none"/>
</g>
</defs>

<g transform="matrix( 1.0988006591796875, 0, 0, 1.0988006591796875, 0,0) ">
<g transform="matrix( 0.599517822265625, 0, 0, 0.599517822265625, 54.4,48.3) ">
<g transform="matrix( 1, 0, 0, 1, 0,0) ">
<use xlink:href="#uid_267"/>
</g>
</g>

<g transform="matrix( 1, 0, 0, 1, 0,0) ">
<use xlink:href="#uid_268"/>
</g>

<g transform="matrix( 0.60223388671875, 0, 0, 0.582489013671875, 50.35,41.55) ">
<g transform="matrix( 1, 0, 0, 1, -81.6,-197.15) ">
<use xlink:href="#uid_269"/>
</g>

<g transform="matrix( 1.1439208984375, 0, 0, 1.1439208984375, -8.7,-30.65) ">
<use xlink:href="#uid_270"/>
</g>

<g transform="matrix( 1.1439208984375, 0, 0, 1.1439208984375, -8.7,-30.65) ">
<use xlink:href="#uid_271"/>
</g>
</g>

<g transform="matrix( 1.100372314453125, 0, 0, 1.0035552978515625, 55.45,22.65) ">
<g transform="matrix( 1.1439208984375, 0, 0, 1.1439208984375, -16.05,-20.25) ">
<use xlink:href="#uid_272"/>
</g>

<g transform="matrix( 1.1439208984375, 0, 0, 1.1439208984375, -16.05,-20.25) ">
<use xlink:href="#uid_273"/>
</g>
</g>
</g>
</g></g><g transform="translate(20, 1088.0)"><g transform="translate(-0.0, -0.0)">
<defs>
<g id="uid_274">
<path d=" M 16.3 -10.25 L 0.15 -2.2 -16.05 -10.3 -0.15 -18.35 16.15 -10.2 20.45 -12.35 4.15 -20.5 0 -18.4 -4.3 -20.55 -20.55 -12.4 -16.25 -10.25 -20.4 -8.2 -4.1 -0.05 0 -2.15 4.3 0 20.6 -8.1 16.3 -10.25 Z" fill="#98C64E" stroke="none"/>
</g>

<g id="uid_275">
<path d=" M 55.35 45.15 L 55.35 9.3 53.75 8.35 53.75 44.25 55.35 45.15 Z" fill="#186EA8" stroke="none"/>

<path d=" M 55.35 45.15 L 57 44.5 57 8.35 55.35 9.3 55.35 45.15 Z" fill="#98C64E" stroke="none"/>
</g>

<g id="uid_276">
<path d=" M 81.6 195.15 L 86.25 192.85 81.6 190.6 77 192.85 81.6 195.15 Z" fill="#D7E13D" stroke="none"/>
</g>

<g id="uid_277">
<path d=" M 7.6 25.05 L 3.6 23.05 3.6 24.8 7.6 26.8 7.6 25.05 Z" fill="#186EA8" stroke="none"/>
</g>

<g id="uid_278">
<path d=" M 11.65 23.05 L 7.6 25.05 7.6 26.8 11.65 24.8 11.65 23.05 Z" fill="#98C64E" stroke="none"/>
</g>

<g id="uid_279">
<path d=" M 28.1 7.45 L 28.1 4.4 0.55 4 0.55 7.2 Q 0.55 8.75 2.6 10 L 0 10.25 0 13.35 Q 0.15 15.15 2.65 16.35 5.2 17.55 8.55 17.45 11.5 17.35 13.5 16.4 15.95 17.8 19.5 17.7 22.75 17.65 25.05 16.5 27.35 15.3 27.5 13.6 L 27.55 10.5 25.5 10.5 Q 27.95 9.25 28.1 7.45 Z" fill="#186EA8" stroke="none"/>
</g>

<g id="uid_280">
<path d=" M 25.5 7.75 Q 28.3 6.35 28.1 4.35 27.95 2.55 25.45 1.35 22.95 0.2 19.55 0.25 16.8 0.3 14.6 1.3 12.15 0 8.6 0 5.2 0.05 2.85 1.35 0.5 2.65 0.55 4.45 0.55 6 2.6 7.25 -0.15 8.65 0 10.6 0.15 12.4 2.65 13.6 5.2 14.8 8.55 14.7 11.3 14.65 13.5 13.65 15.95 15.05 19.5 14.95 22.9 14.9 25.25 13.6 27.65 12.3 27.55 10.55 27.55 9 25.5 7.75 Z" fill="#F9EF49" stroke="none"/>
</g>
</defs>

<g transform="matrix( 1.0988006591796875, 0, 0, 1.0988006591796875, 0,0) ">
<g transform="matrix( 0.824127197265625, 0, 0, 0.824127197265625, 54.4,50.65) ">
<g transform="matrix( 1, 0, 0, 1, 0,0) ">
<use xlink:href="#uid_274"/>
</g>
</g>

<g transform="matrix( 1, 0, 0, 1, 0,0) ">
<use xlink:href="#uid_275"/>
</g>

<g transform="matrix( 0.8152313232421875, 0, 0, 0.7362518310546875, 49.25,36.9) ">
<g transform="matrix( 1, 0, 0, 1, -81.6,-197.15) ">
<use xlink:href="#uid_276"/>
</g>

<g transform="matrix( 1.1439208984375, 0, 0, 1.1439208984375, -8.7,-30.65) ">
<use xlink:href="#uid_277"/>
</g>

<g transform="matrix( 1.1439208984375, 0, 0, 1.1439208984375, -8.7,-30.65) ">
<use xlink:href="#uid_278"/>
</g>
</g>

<g transform="matrix( 1.0696868896484375, 0, 0, 1.002471923828125, 55.45,21.85) ">
<g transform="matrix( 1.1439208984375, 0, 0, 1.1439208984375, -16.05,-20.25) ">
<use xlink:href="#uid_279"/>
</g>

<g transform="matrix( 1.1439208984375, 0, 0, 1.1439208984375, -16.05,-20.25) ">
<use xlink:href="#uid_280"/>
</g>
</g>
</g>
</g></g><g transform="translate(20, 1169.0)"><g transform="translate(-0.0, -0.0)">
<defs>
<g id="uid_281">
<path d=" M 16.3 -10.25 L 0.15 -2.2 -16.05 -10.3 -0.15 -18.35 16.15 -10.2 20.45 -12.35 4.15 -20.5 0 -18.4 -4.3 -20.55 -20.55 -12.4 -16.25 -10.25 -20.4 -8.2 -4.1 -0.05 0 -2.15 4.3 0 20.6 -8.1 16.3 -10.25 Z" fill="#98C64E" stroke="none"/>
</g>

<g id="uid_282">
<path d=" M 55.35 45.15 L 55.35 9.3 53.75 8.35 53.75 44.25 55.35 45.15 Z" fill="#186EA8" stroke="none"/>

<path d=" M 55.35 45.15 L 57 44.5 57 8.35 55.35 9.3 55.35 45.15 Z" fill="#98C64E" stroke="none"/>
</g>

<g id="uid_283">
<path d=" M 81.6 195.15 L 86.25 192.85 81.6 190.6 77 192.85 81.6 195.15 Z" fill="#D7E13D" stroke="none"/>
</g>

<g id="uid_284">
<path d=" M 7.6 25.05 L 3.6 23.05 3.6 24.8 7.6 26.8 7.6 25.05 Z" fill="#186EA8" stroke="none"/>
</g>

<g id="uid_285">
<path d=" M 11.65 23.05 L 7.6 25.05 7.6 26.8 11.65 24.8 11.65 23.05 Z" fill="#98C64E" stroke="none"/>
</g>

<g id="uid_286">
<path d=" M 28.1 7.45 L 28.1 4.4 0.55 4 0.55 7.2 Q 0.55 8.75 2.6 10 L 0 10.25 0 13.35 Q 0.15 15.15 2.65 16.35 5.2 17.55 8.55 17.45 11.5 17.35 13.5 16.4 15.95 17.8 19.5 17.7 22.75 17.65 25.05 16.5 27.35 15.3 27.5 13.6 L 27.55 10.5 25.5 10.5 Q 27.95 9.25 28.1 7.45 Z" fill="#186EA8" stroke="none"/>
</g>

<g id="uid_287">
<path d=" M 25.5 7.75 Q 28.3 6.35 28.1 4.35 27.95 2.55 25.45 1.35 22.95 0.2 19.55 0.25 16.8 0.3 14.6 1.3 12.15 0 8.6 0 5.2 0.05 2.85 1.35 0.5 2.65 0.55 4.45 0.55 6 2.6 7.25 -0.15 8.65 0 10.6 0.15 12.4 2.65 13.6 5.2 14.8 8.55 14.7 11.3 14.65 13.5 13.65 15.95 15.05 19.5 14.95 22.9 14.9 25.25 13.6 27.65 12.3 27.55 10.55 27.55 9 25.5 7.75 Z" fill="#F9EF49" stroke="none"/>
</g>
</defs>

<g transform="matrix( 1.0988006591796875, 0, 0, 1.0988006591796875, 0,0) ">
<g transform="matrix( 1.04876708984375, 0, 0, 1.04876708984375, 54.4,52.95) ">
<g transform="matrix( 1, 0, 0, 1, 0,0) ">
<use xlink:href="#uid_281"/>
</g>
</g>

<g transform="matrix( 1, 0, 0, 1, 0,0) ">
<use xlink:href="#uid_282"/>
</g>

<g transform="matrix( 1.1702117919921875, 0, 0, 0.992523193359375, 47.35,29.2) ">
<g transform="matrix( 1, 0, 0, 1, -81.6,-197.15) ">
<use xlink:href="#uid_283"/>
</g>

<g transform="matrix( 1.1439208984375, 0, 0, 1.1439208984375, -8.7,-30.65) ">
<use xlink:href="#uid_284"/>
</g>

<g transform="matrix( 1.1439208984375, 0, 0, 1.1439208984375, -8.7,-30.65) ">
<use xlink:href="#uid_285"/>
</g>
</g>

<g transform="matrix( 1.044586181640625, 0, 0, 1.001556396484375, 55.5,21.3) ">
<g transform="matrix( 1.1439208984375, 0, 0, 1.1439208984375, -16.05,-20.25) ">
<use xlink:href="#uid_286"/>
</g>

<g transform="matrix( 1.1439208984375, 0, 0, 1.1439208984375, -16.05,-20.25) ">
<use xlink:href="#uid_287"/>
</g>
</g>
</g>
</g></g><g transform="translate(20, 1250.0)"><g transform="translate(-0.0, -0.0)">
<defs>
<g id="uid_288">
<path d=" M 16.3 -10.25 L 0.15 -2.2 -16.05 -10.3 -0.15 -18.35 16.15 -10.2 20.45 -12.35 4.15 -20.5 0 -18.4 -4.3 -20.55 -20.55 -12.4 -16.25 -10.25 -20.4 -8.2 -4.1 -0.05 0 -2.15 4.3 0 20.6 -8.1 16.3 -10.25 Z" fill="#98C64E" stroke="none"/>
</g>

<g id="uid_289">
<path d=" M 55.35 45.15 L 55.35 9.3 53.75 8.35 53.75 44.25 55.35 45.15 Z" fill="#186EA8" stroke="none"/>

<path d=" M 55.35 45.15 L 57 44.5 57 8.35 55.35 9.3 55.35 45.15 Z" fill="#98C64E" stroke="none"/>
</g>

<g id="uid_290">
<path d=" M 81.6 195.15 L 86.25 192.85 81.6 190.6 77 192.85 81.6 195.15 Z" fill="#D7E13D" stroke="none"/>
</g>

<g id="uid_291">
<path d=" M 7.6 25.05 L 3.6 23.05 3.6 24.8 7.6 26.8 7.6 25.05 Z" fill="#186EA8" stroke="none"/>
</g>

<g id="uid_292">
<path d=" M 11.65 23.05 L 7.6 25.05 7.6 26.8 11.65 24.8 11.65 23.05 Z" fill="#98C64E" stroke="none"/>
</g>

<g id="uid_293">
<path d=" M 28.1 7.45 L 28.1 4.4 0.55 4 0.55 7.2 Q 0.55 8.75 2.6 10 L 0 10.25 0 13.35 Q 0.15 15.15 2.65 16.35 5.2 17.55 8.55 17.45 11.5 17.35 13.5 16.4 15.95 17.8 19.5 17.7 22.75 17.65 25.05 16.5 27.35 15.3 27.5 13.6 L 27.55 10.5 25.5 10.5 Q 27.95 9.25 28.1 7.45 Z" fill="#186EA8" stroke="none"/>
</g>

<g id="uid_294">
<path d=" M 25.5 7.75 Q 28.3 6.35 28.1 4.35 27.95 2.55 25.45 1.35 22.95 0.2 19.55 0.25 16.8 0.3 14.6 1.3 12.15 0 8.6 0 5.2 0.05 2.85 1.35 0.5 2.65 0.55 4.45 0.55 6 2.6 7.25 -0.15 8.65 0 10.6 0.15 12.4 2.65 13.6 5.2 14.8 8.55 14.7 11.3 14.65 13.5 13.65 15.95 15.05 19.5 14.95 22.9 14.9 25.25 13.6 27.65 12.3 27.55 10.55 27.55 9 25.5 7.75 Z" fill="#F9EF49" stroke="none"/>
</g>

<g id="uid_295">
<path d=" M 9.7 -4.75 L 0 -9.65 -9.7 -4.9 -0.05 0 9.7 -4.75 Z" fill="#98C64E" stroke="none"/>
</g>
</defs>

<g transform="matrix( 1.0988006591796875, 0, 0, 1.0988006591796875, 0,0) ">
<g transform="matrix( 1.0380859375, 0, 0, 1.0380859375, 54.4,52.85) ">
<g transform="matrix( 1, 0, 0, 1, 0,0) ">
<use xlink:href="#uid_288"/>
</g>
</g>

<g transform="matrix( 1, 0, 0, 1, 0,0) ">
<use xlink:href="#uid_289"/>
</g>

<g transform="matrix( 1.125030517578125, 0, 0, 0.9944915771484375, 47.55,29.55) ">
<g transform="matrix( 1, 0, 0, 1, -81.6,-197.15) ">
<use xlink:href="#uid_290"/>
</g>

<g transform="matrix( 1.1439208984375, 0, 0, 1.1439208984375, -8.7,-30.65) ">
<use xlink:href="#uid_291"/>
</g>

<g transform="matrix( 1.1439208984375, 0, 0, 1.1439208984375, -8.7,-30.65) ">
<use xlink:href="#uid_292"/>
</g>
</g>

<g transform="matrix( 1.02508544921875, 0, 0, 1.0008697509765625, 55.5,20.8) ">
<g transform="matrix( 1.1439208984375, 0, 0, 1.1439208984375, -16.05,-20.25) ">
<use xlink:href="#uid_293"/>
</g>

<g transform="matrix( 1.1439208984375, 0, 0, 1.1439208984375, -16.05,-20.25) ">
<use xlink:href="#uid_294"/>
</g>
</g>

<g transform="matrix( 0.573638916015625, 0, 0, 0.573638916015625, 31.35,45.1) ">
<g transform="matrix( 1, 0, 0, 1, 0,0) ">
<use xlink:href="#uid_295"/>
</g>
</g>
</g>
</g></g><g transform="translate(20, 1331.0)"><g transform="translate(-0.0, -0.0)">
<defs>
<g id="uid_296">
<path d=" M 16.3 -10.25 L 0.15 -2.2 -16.05 -10.3 -0.15 -18.35 16.15 -10.2 20.45 -12.35 4.15 -20.5 0 -18.4 -4.3 -20.55 -20.55 -12.4 -16.25 -10.25 -20.4 -8.2 -4.1 -0.05 0 -2.15 4.3 0 20.6 -8.1 16.3 -10.25 Z" fill="#98C64E" stroke="none"/>
</g>

<g id="uid_297">
<path d=" M 55.35 45.15 L 55.35 9.3 53.75 8.35 53.75 44.25 55.35 45.15 Z" fill="#186EA8" stroke="none"/>

<path d=" M 55.35 45.15 L 57 44.5 57 8.35 55.35 9.3 55.35 45.15 Z" fill="#98C64E" stroke="none"/>
</g>

<g id="uid_298">
<path d=" M 81.6 195.15 L 86.25 192.85 81.6 190.6 77 192.85 81.6 195.15 Z" fill="#D7E13D" stroke="none"/>
</g>

<g id="uid_299">
<path d=" M 7.6 25.05 L 3.6 23.05 3.6 24.8 7.6 26.8 7.6 25.05 Z" fill="#186EA8" stroke="none"/>
</g>

<g id="uid_300">
<path d=" M 11.65 23.05 L 7.6 25.05 7.6 26.8 11.65 24.8 11.65 23.05 Z" fill="#98C64E" stroke="none"/>
</g>

<g id="uid_301">
<path d=" M 28.1 7.45 L 28.1 4.4 0.55 4 0.55 7.2 Q 0.55 8.75 2.6 10 L 0 10.25 0 13.35 Q 0.15 15.15 2.65 16.35 5.2 17.55 8.55 17.45 11.5 17.35 13.5 16.4 15.95 17.8 19.5 17.7 22.75 17.65 25.05 16.5 27.35 15.3 27.5 13.6 L 27.55 10.5 25.5 10.5 Q 27.95 9.25 28.1 7.45 Z" fill="#186EA8" stroke="none"/>
</g>

<g id="uid_302">
<path d=" M 25.5 7.75 Q 28.3 6.35 28.1 4.35 27.95 2.55 25.45 1.35 22.95 0.2 19.55 0.25 16.8 0.3 14.6 1.3 12.15 0 8.6 0 5.2 0.05 2.85 1.35 0.5 2.65 0.55 4.45 0.55 6 2.6 7.25 -0.15 8.65 0 10.6 0.15 12.4 2.65 13.6 5.2 14.8 8.55 14.7 11.3 14.65 13.5 13.65 15.95 15.05 19.5 14.95 22.9 14.9 25.25 13.6 27.65 12.3 27.55 10.55 27.55 9 25.5 7.75 Z" fill="#F9EF49" stroke="none"/>
</g>

<g id="uid_303">
<path d=" M 20.65 7.25 L 20.7 5.1 19.6 5.05 Q 17.35 3.3 13.25 3.45 9.75 3.6 8 5.05 L 6.85 5.05 6.9 7.25 Q 7.15 8.7 9.35 9.65 11.5 10.55 14.35 10.45 16.9 10.4 18.7 9.45 20.45 8.55 20.65 7.25 Z" fill="#186EA8" stroke="none"/>
</g>

<g id="uid_304">
<path d=" M 20.7 4.75 Q 20.5 3.3 18.3 2.35 16.1 1.4 13.25 1.5 10.4 1.6 8.55 2.75 6.7 3.85 6.9 5.3 7.15 6.75 9.3 7.7 11.5 8.65 14.35 8.55 17.2 8.45 19.05 7.35 20.95 6.2 20.7 4.75 Z" fill="#FFA2DA" stroke="none"/>
</g>

<g id="uid_305">
<path d=" M 9.7 -4.75 L 0 -9.65 -9.7 -4.9 -0.05 0 9.7 -4.75 Z" fill="#98C64E" stroke="none"/>
</g>
</defs>

<g transform="matrix( 1.0988006591796875, 0, 0, 1.0988006591796875, 0,0) ">
<g transform="matrix( 1.0274658203125, 0, 0, 1.0274658203125, 54.4,52.7) ">
<g transform="matrix( 1, 0, 0, 1, 0,0) ">
<use xlink:href="#uid_296"/>
</g>
</g>

<g transform="matrix( 1, 0, 0, 1, 0,0) ">
<use xlink:href="#uid_297"/>
</g>

<g transform="matrix( 1.086822509765625, 0, 0, 0.9961700439453125, 47.7,29.95) ">
<g transform="matrix( 1, 0, 0, 1, -81.6,-197.15) ">
<use xlink:href="#uid_298"/>
</g>

<g transform="matrix( 1.1439208984375, 0, 0, 1.1439208984375, -8.7,-30.65) ">
<use xlink:href="#uid_299"/>
</g>

<g transform="matrix( 1.1439208984375, 0, 0, 1.1439208984375, -8.7,-30.65) ">
<use xlink:href="#uid_300"/>
</g>
</g>

<g transform="matrix( 1.011138916015625, 0, 0, 1.0003662109375, 55.5,20.4) ">
<g transform="matrix( 1.1439208984375, 0, 0, 1.1439208984375, -16.05,-20.25) ">
<use xlink:href="#uid_301"/>
</g>

<g transform="matrix( 1.1439208984375, 0, 0, 1.1439208984375, -16.05,-20.25) ">
<use xlink:href="#uid_302"/>
</g>
</g>

<g transform="matrix( 0.643310546875, 0, 0, 0.7451019287109375, 55.3,11.9) ">
<g transform="matrix( 1.1439208984375, 0, 0, 1.1439208984375, -15.8,-11.95) ">
<use xlink:href="#uid_303"/>
</g>

<g transform="matrix( 1.1439208984375, 0, 0, 1.1439208984375, -15.8,-11.95) ">
<use xlink:href="#uid_304"/>
</g>
</g>

<g transform="matrix( 0.649749755859375, 0, 0, 0.649749755859375, 27.45,45.45) ">
<g transform="matrix( 1, 0, 0, 1, 0,0) ">
<use xlink:href="#uid_305"/>
</g>
</g>
</g>
</g></g><g transform="translate(20, 1412.0)"><g transform="translate(-0.0, -0.0)">
<defs>
<g id="uid_306">
<path d=" M 16.3 -10.25 L 0.15 -2.2 -16.05 -10.3 -0.15 -18.35 16.15 -10.2 20.45 -12.35 4.15 -20.5 0 -18.4 -4.3 -20.55 -20.55 -12.4 -16.25 -10.25 -20.4 -8.2 -4.1 -0.05 0 -2.15 4.3 0 20.6 -8.1 16.3 -10.25 Z" fill="#98C64E" stroke="none"/>
</g>

<g id="uid_307">
<path d=" M 55.35 45.15 L 55.35 9.3 53.75 8.35 53.75 44.25 55.35 45.15 Z" fill="#186EA8" stroke="none"/>

<path d=" M 55.35 45.15 L 57 44.5 57 8.35 55.35 9.3 55.35 45.15 Z" fill="#98C64E" stroke="none"/>
</g>

<g id="uid_308">
<path d=" M 81.6 195.15 L 86.25 192.85 81.6 190.6 77 192.85 81.6 195.15 Z" fill="#D7E13D" stroke="none"/>
</g>

<g id="uid_309">
<path d=" M 7.6 25.05 L 3.6 23.05 3.6 24.8 7.6 26.8 7.6 25.05 Z" fill="#186EA8" stroke="none"/>
</g>

<g id="uid_310">
<path d=" M 11.65 23.05 L 7.6 25.05 7.6 26.8 11.65 24.8 11.65 23.05 Z" fill="#98C64E" stroke="none"/>
</g>

<g id="uid_311">
<path d=" M 28.1 7.45 L 28.1 4.4 0.55 4 0.55 7.2 Q 0.55 8.75 2.6 10 L 0 10.25 0 13.35 Q 0.15 15.15 2.65 16.35 5.2 17.55 8.55 17.45 11.5 17.35 13.5 16.4 15.95 17.8 19.5 17.7 22.75 17.65 25.05 16.5 27.35 15.3 27.5 13.6 L 27.55 10.5 25.5 10.5 Q 27.95 9.25 28.1 7.45 Z" fill="#186EA8" stroke="none"/>
</g>

<g id="uid_312">
<path d=" M 25.5 7.75 Q 28.3 6.35 28.1 4.35 27.95 2.55 25.45 1.35 22.95 0.2 19.55 0.25 16.8 0.3 14.6 1.3 12.15 0 8.6 0 5.2 0.05 2.85 1.35 0.5 2.65 0.55 4.45 0.55 6 2.6 7.25 -0.15 8.65 0 10.6 0.15 12.4 2.65 13.6 5.2 14.8 8.55 14.7 11.3 14.65 13.5 13.65 15.95 15.05 19.5 14.95 22.9 14.9 25.25 13.6 27.65 12.3 27.55 10.55 27.55 9 25.5 7.75 Z" fill="#F9EF49" stroke="none"/>
</g>

<g id="uid_313">
<path d=" M 20.65 7.25 L 20.7 5.1 19.6 5.05 Q 17.35 3.3 13.25 3.45 9.75 3.6 8 5.05 L 6.85 5.05 6.9 7.25 Q 7.15 8.7 9.35 9.65 11.5 10.55 14.35 10.45 16.9 10.4 18.7 9.45 20.45 8.55 20.65 7.25 Z" fill="#186EA8" stroke="none"/>
</g>

<g id="uid_314">
<path d=" M 20.7 4.75 Q 20.5 3.3 18.3 2.35 16.1 1.4 13.25 1.5 10.4 1.6 8.55 2.75 6.7 3.85 6.9 5.3 7.15 6.75 9.3 7.7 11.5 8.65 14.35 8.55 17.2 8.45 19.05 7.35 20.95 6.2 20.7 4.75 Z" fill="#FFA2DA" stroke="none"/>
</g>

<g id="uid_315">
<path d=" M 9.7 -4.75 L 0 -9.65 -9.7 -4.9 -0.05 0 9.7 -4.75 Z" fill="#98C64E" stroke="none"/>
</g>

<g id="uid_316">
<path d=" M 4.25 -2.05 L 0.05 -4.1 -4.2 -2.05 0 0 4.25 -2.05 Z" fill="#98C64E" stroke="none"/>
</g>
</defs>

<g transform="matrix( 1.0988006591796875, 0, 0, 1.0988006591796875, 0,0) ">
<g transform="matrix( 1.0167999267578125, 0, 0, 1.0167999267578125, 54.4,52.55) ">
<g transform="matrix( 1, 0, 0, 1, 0,0) ">
<use xlink:href="#uid_306"/>
</g>
</g>

<g transform="matrix( 1, 0, 0, 1, 0,0) ">
<use xlink:href="#uid_307"/>
</g>

<g transform="matrix( 1.0555572509765625, 0, 0, 0.997528076171875, 47.8,30.15) ">
<g transform="matrix( 1, 0, 0, 1, -81.6,-197.15) ">
<use xlink:href="#uid_308"/>
</g>

<g transform="matrix( 1.1439208984375, 0, 0, 1.1439208984375, -8.7,-30.65) ">
<use xlink:href="#uid_309"/>
</g>

<g transform="matrix( 1.1439208984375, 0, 0, 1.1439208984375, -8.7,-30.65) ">
<use xlink:href="#uid_310"/>
</g>
</g>

<g transform="matrix( 1.002777099609375, 0, 0, 1.0000762939453125, 55.5,20.2) ">
<g transform="matrix( 1.1439208984375, 0, 0, 1.1439208984375, -16.05,-20.25) ">
<use xlink:href="#uid_311"/>
</g>

<g transform="matrix( 1.1439208984375, 0, 0, 1.1439208984375, -16.05,-20.25) ">
<use xlink:href="#uid_312"/>
</g>
</g>

<g transform="matrix( 0.7569732666015625, 0, 0, 0.83331298828125, 55.3,11.95) ">
<g transform="matrix( 1.1439208984375, 0, 0, 1.1439208984375, -15.8,-11.95) ">
<use xlink:href="#uid_313"/>
</g>

<g transform="matrix( 1.1439208984375, 0, 0, 1.1439208984375, -15.8,-11.95) ">
<use xlink:href="#uid_314"/>
</g>
</g>

<g transform="matrix( 0.8781585693359375, 0, 0, 0.8781585693359375, 15.85,46.55) ">
<g transform="matrix( 1, 0, 0, 1, 0,0) ">
<use xlink:href="#uid_315"/>
</g>
</g>

<g transform="matrix( 2.159393310546875, 0, 0, 2.159393310546875, 73.15,56.2) ">
<g transform="matrix( 1, 0, 0, 1, 0,0) ">
<use xlink:href="#uid_316"/>
</g>
</g>
</g>
</g></g><g transform="translate(20, 1493.0)"><g transform="translate(-0.0, -0.0)">
<defs>
<g id="uid_317">
<path d=" M 16.3 -10.25 L 0.15 -2.2 -16.05 -10.3 -0.15 -18.35 16.15 -10.2 20.45 -12.35 4.15 -20.5 0 -18.4 -4.3 -20.55 -20.55 -12.4 -16.25 -10.25 -20.4 -8.2 -4.1 -0.05 0 -2.15 4.3 0 20.6 -8.1 16.3 -10.25 Z" fill="#98C64E" stroke="none"/>
</g>

<g id="uid_318">
<path d=" M 55.35 45.15 L 55.35 9.3 53.75 8.35 53.75 44.25 55.35 45.15 Z" fill="#186EA8" stroke="none"/>

<path d=" M 55.35 45.15 L 57 44.5 57 8.35 55.35 9.3 55.35 45.15 Z" fill="#98C64E" stroke="none"/>
</g>

<g id="uid_319">
<path d=" M 81.6 195.15 L 86.25 192.85 81.6 190.6 77 192.85 81.6 195.15 Z" fill="#D7E13D" stroke="none"/>
</g>

<g id="uid_320">
<path d=" M 7.6 25.05 L 3.6 23.05 3.6 24.8 7.6 26.8 7.6 25.05 Z" fill="#186EA8" stroke="none"/>
</g>

<g id="uid_321">
<path d=" M 11.65 23.05 L 7.6 25.05 7.6 26.8 11.65 24.8 11.65 23.05 Z" fill="#98C64E" stroke="none"/>
</g>

<g id="uid_322">
<path d=" M 28.1 7.45 L 28.1 4.4 0.55 4 0.55 7.2 Q 0.55 8.75 2.6 10 L 0 10.25 0 13.35 Q 0.15 15.15 2.65 16.35 5.2 17.55 8.55 17.45 11.5 17.35 13.5 16.4 15.95 17.8 19.5 17.7 22.75 17.65 25.05 16.5 27.35 15.3 27.5 13.6 L 27.55 10.5 25.5 10.5 Q 27.95 9.25 28.1 7.45 Z" fill="#186EA8" stroke="none"/>
</g>

<g id="uid_323">
<path d=" M 25.5 7.75 Q 28.3 6.35 28.1 4.35 27.95 2.55 25.45 1.35 22.95 0.2 19.55 0.25 16.8 0.3 14.6 1.3 12.15 0 8.6 0 5.2 0.05 2.85 1.35 0.5 2.65 0.55 4.45 0.55 6 2.6 7.25 -0.15 8.65 0 10.6 0.15 12.4 2.65 13.6 5.2 14.8 8.55 14.7 11.3 14.65 13.5 13.65 15.95 15.05 19.5 14.95 22.9 14.9 25.25 13.6 27.65 12.3 27.55 10.55 27.55 9 25.5 7.75 Z" fill="#F9EF49" stroke="none"/>
</g>

<g id="uid_324">
<path d=" M 20.65 7.25 L 20.7 5.1 19.6 5.05 Q 17.35 3.3 13.25 3.45 9.75 3.6 8 5.05 L 6.85 5.05 6.9 7.25 Q 7.15 8.7 9.35 9.65 11.5 10.55 14.35 10.45 16.9 10.4 18.7 9.45 20.45 8.55 20.65 7.25 Z" fill="#186EA8" stroke="none"/>
</g>

<g id="uid_325">
<path d=" M 20.7 4.75 Q 20.5 3.3 18.3 2.35 16.1 1.4 13.25 1.5 10.4 1.6 8.55 2.75 6.7 3.85 6.9 5.3 7.15 6.75 9.3 7.7 11.5 8.65 14.35 8.55 17.2 8.45 19.05 7.35 20.95 6.2 20.7 4.75 Z" fill="#FFA2DA" stroke="none"/>
</g>

<g id="uid_326">
<path d=" M 9.7 -4.75 L 0 -9.65 -9.7 -4.9 -0.05 0 9.7 -4.75 Z" fill="#98C64E" stroke="none"/>
</g>

<g id="uid_327">
<path d=" M 4.25 -2.05 L 0.05 -4.1 -4.2 -2.05 0 0 4.25 -2.05 Z" fill="#98C64E" stroke="none"/>
</g>
</defs>

<g transform="matrix( 1.0988006591796875, 0, 0, 1.0988006591796875, 0,0) ">
<g transform="matrix( 1.00616455078125, 0, 0, 1.00616455078125, 54.4,52.45) ">
<g transform="matrix( 1, 0, 0, 1, 0,0) ">
<use xlink:href="#uid_317"/>
</g>
</g>

<g transform="matrix( 1, 0, 0, 1, 0,0) ">
<use xlink:href="#uid_318"/>
</g>

<g transform="matrix( 1.0312347412109375, 0, 0, 0.99859619140625, 47.9,30.35) ">
<g transform="matrix( 1, 0, 0, 1, -81.6,-197.15) ">
<use xlink:href="#uid_319"/>
</g>

<g transform="matrix( 1.1439208984375, 0, 0, 1.1439208984375, -8.7,-30.65) ">
<use xlink:href="#uid_320"/>
</g>

<g transform="matrix( 1.1439208984375, 0, 0, 1.1439208984375, -8.7,-30.65) ">
<use xlink:href="#uid_321"/>
</g>
</g>

<g transform="matrix( 1, 0, 0, 1, 55.5,20.25) ">
<g transform="matrix( 1.1439208984375, 0, 0, 1.1439208984375, -16.05,-20.25) ">
<use xlink:href="#uid_322"/>
</g>

<g transform="matrix( 1.1439208984375, 0, 0, 1.1439208984375, -16.05,-20.25) ">
<use xlink:href="#uid_323"/>
</g>
</g>

<g transform="matrix( 1.0980224609375, 0, 0, 1.0980224609375, 55.25,11.95) ">
<g transform="matrix( 1.1439208984375, 0, 0, 1.1439208984375, -15.8,-11.95) ">
<use xlink:href="#uid_324"/>
</g>

<g transform="matrix( 1.1439208984375, 0, 0, 1.1439208984375, -15.8,-11.95) ">
<use xlink:href="#uid_325"/>
</g>
</g>

<g transform="matrix( 0.9220123291015625, 0, 0, 0.9220123291015625, 13.6,46.75) ">
<g transform="matrix( 1, 0, 0, 1, 0,0) ">
<use xlink:href="#uid_326"/>
</g>
</g>

<g transform="matrix( 2.0494384765625, 0, 0, 2.0494384765625, 73.2,55.95) ">
<g transform="matrix( 1, 0, 0, 1, 0,0) ">
<use xlink:href="#uid_327"/>
</g>
</g>
</g>
</g></g><g transform="translate(20, 1574.0)"><g transform="translate(-0.0, -0.0)">
<defs>
<g id="uid_328">
<path d=" M 16.3 -10.25 L 0.15 -2.2 -16.05 -10.3 -0.15 -18.35 16.15 -10.2 20.45 -12.35 4.15 -20.5 0 -18.4 -4.3 -20.55 -20.55 -12.4 -16.25 -10.25 -20.4 -8.2 -4.1 -0.05 0 -2.15 4.3 0 20.6 -8.1 16.3 -10.25 Z" fill="#98C64E" stroke="none"/>
</g>

<g id="uid_329">
<path d=" M 55.35 45.15 L 55.35 9.3 53.75 8.35 53.75 44.25 55.35 45.15 Z" fill="#186EA8" stroke="none"/>

<path d=" M 55.35 45.15 L 57 44.5 57 8.35 55.35 9.3 55.35 45.15 Z" fill="#98C64E" stroke="none"/>
</g>

<g id="uid_330">
<path d=" M 81.6 195.15 L 86.25 192.85 81.6 190.6 77 192.85 81.6 195.15 Z" fill="#D7E13D" stroke="none"/>
</g>

<g id="uid_331">
<path d=" M 7.6 25.05 L 3.6 23.05 3.6 24.8 7.6 26.8 7.6 25.05 Z" fill="#186EA8" stroke="none"/>
</g>

<g id="uid_332">
<path d=" M 11.65 23.05 L 7.6 25.05 7.6 26.8 11.65 24.8 11.65 23.05 Z" fill="#98C64E" stroke="none"/>
</g>

<g id="uid_333">
<path d=" M 28.1 7.45 L 28.1 4.4 0.55 4 0.55 7.2 Q 0.55 8.75 2.6 10 L 0 10.25 0 13.35 Q 0.15 15.15 2.65 16.35 5.2 17.55 8.55 17.45 11.5 17.35 13.5 16.4 15.95 17.8 19.5 17.7 22.75 17.65 25.05 16.5 27.35 15.3 27.5 13.6 L 27.55 10.5 25.5 10.5 Q 27.95 9.25 28.1 7.45 Z" fill="#186EA8" stroke="none"/>
</g>

<g id="uid_334">
<path d=" M 25.5 7.75 Q 28.3 6.35 28.1 4.35 27.95 2.55 25.45 1.35 22.95 0.2 19.55 0.25 16.8 0.3 14.6 1.3 12.15 0 8.6 0 5.2 0.05 2.85 1.35 0.5 2.65 0.55 4.45 0.55 6 2.6 7.25 -0.15 8.65 0 10.6 0.15 12.4 2.65 13.6 5.2 14.8 8.55 14.7 11.3 14.65 13.5 13.65 15.95 15.05 19.5 14.95 22.9 14.9 25.25 13.6 27.65 12.3 27.55 10.55 27.55 9 25.5 7.75 Z" fill="#F9EF49" stroke="none"/>
</g>

<g id="uid_335">
<path d=" M 20.65 7.25 L 20.7 5.1 19.6 5.05 Q 17.35 3.3 13.25 3.45 9.75 3.6 8 5.05 L 6.85 5.05 6.9 7.25 Q 7.15 8.7 9.35 9.65 11.5 10.55 14.35 10.45 16.9 10.4 18.7 9.45 20.45 8.55 20.65 7.25 Z" fill="#186EA8" stroke="none"/>
</g>

<g id="uid_336">
<path d=" M 20.7 4.75 Q 20.5 3.3 18.3 2.35 16.1 1.4 13.25 1.5 10.4 1.6 8.55 2.75 6.7 3.85 6.9 5.3 7.15 6.75 9.3 7.7 11.5 8.65 14.35 8.55 17.2 8.45 19.05 7.35 20.95 6.2 20.7 4.75 Z" fill="#FFA2DA" stroke="none"/>
</g>

<g id="uid_337">
<path d=" M 9.7 -4.75 L 0 -9.65 -9.7 -4.9 -0.05 0 9.7 -4.75 Z" fill="#98C64E" stroke="none"/>
</g>

<g id="uid_338">
<path d=" M 4.25 -2.05 L 0.05 -4.1 -4.2 -2.05 0 0 4.25 -2.05 Z" fill="#98C64E" stroke="none"/>
</g>
</defs>

<g transform="matrix( 1.0988006591796875, 0, 0, 1.0988006591796875, 0,0) ">
<g transform="matrix( 0.9954986572265625, 0, 0, 0.9954986572265625, 54.4,52.35) ">
<g transform="matrix( 1, 0, 0, 1, 0,0) ">
<use xlink:href="#uid_328"/>
</g>
</g>

<g transform="matrix( 1, 0, 0, 1, 0,0) ">
<use xlink:href="#uid_329"/>
</g>

<g transform="matrix( 1.0138702392578125, 0, 0, 0.999359130859375, 47.95,30.55) ">
<g transform="matrix( 1, 0, 0, 1, -81.6,-197.15) ">
<use xlink:href="#uid_330"/>
</g>

<g transform="matrix( 1.1439208984375, 0, 0, 1.1439208984375, -8.7,-30.65) ">
<use xlink:href="#uid_331"/>
</g>

<g transform="matrix( 1.1439208984375, 0, 0, 1.1439208984375, -8.7,-30.65) ">
<use xlink:href="#uid_332"/>
</g>
</g>

<g transform="matrix( 1, 0, 0, 1, 55.5,20.25) ">
<g transform="matrix( 1.1439208984375, 0, 0, 1.1439208984375, -16.05,-20.25) ">
<use xlink:href="#uid_333"/>
</g>

<g transform="matrix( 1.1439208984375, 0, 0, 1.1439208984375, -16.05,-20.25) ">
<use xlink:href="#uid_334"/>
</g>
</g>

<g transform="matrix( 1.073486328125, 0, 0, 1.073486328125, 55.25,11.95) ">
<g transform="matrix( 1.1439208984375, 0, 0, 1.1439208984375, -15.8,-11.95) ">
<use xlink:href="#uid_335"/>
</g>

<g transform="matrix( 1.1439208984375, 0, 0, 1.1439208984375, -15.8,-11.95) ">
<use xlink:href="#uid_336"/>
</g>
</g>

<g transform="matrix( 0.95611572265625, 0, 0, 0.95611572265625, 11.9,46.85) ">
<g transform="matrix( 1, 0, 0, 1, 0,0) ">
<use xlink:href="#uid_337"/>
</g>
</g>

<g transform="matrix( 1.939483642578125, 0, 0, 1.939483642578125, 73.25,55.7) ">
<g transform="matrix( 1, 0, 0, 1, 0,0) ">
<use xlink:href="#uid_338"/>
</g>
</g>
</g>
</g></g><g transform="translate(20, 1655.0)"><g transform="translate(-0.0, -0.0)">
<defs>
<g id="uid_339">
<path d=" M 16.3 -10.25 L 0.15 -2.2 -16.05 -10.3 -0.15 -18.35 16.15 -10.2 20.45 -12.35 4.15 -20.5 0 -18.4 -4.3 -20.55 -20.55 -12.4 -16.25 -10.25 -20.4 -8.2 -4.1 -0.05 0 -2.15 4.3 0 20.6 -8.1 16.3 -10.25 Z" fill="#98C64E" stroke="none"/>
</g>

<g id="uid_340">
<path d=" M 55.35 45.15 L 55.35 9.3 53.75 8.35 53.75 44.25 55.35 45.15 Z" fill="#186EA8" stroke="none"/>

<path d=" M 55.35 45.15 L 57 44.5 57 8.35 55.35 9.3 55.35 45.15 Z" fill="#98C64E" stroke="none"/>
</g>

<g id="uid_341">
<path d=" M 81.6 195.15 L 86.25 192.85 81.6 190.6 77 192.85 81.6 195.15 Z" fill="#D7E13D" stroke="none"/>
</g>

<g id="uid_342">
<path d=" M 7.6 25.05 L 3.6 23.05 3.6 24.8 7.6 26.8 7.6 25.05 Z" fill="#186EA8" stroke="none"/>
</g>

<g id="uid_343">
<path d=" M 11.65 23.05 L 7.6 25.05 7.6 26.8 11.65 24.8 11.65 23.05 Z" fill="#98C64E" stroke="none"/>
</g>

<g id="uid_344">
<path d=" M 28.1 7.45 L 28.1 4.4 0.55 4 0.55 7.2 Q 0.55 8.75 2.6 10 L 0 10.25 0 13.35 Q 0.15 15.15 2.65 16.35 5.2 17.55 8.55 17.45 11.5 17.35 13.5 16.4 15.95 17.8 19.5 17.7 22.75 17.65 25.05 16.5 27.35 15.3 27.5 13.6 L 27.55 10.5 25.5 10.5 Q 27.95 9.25 28.1 7.45 Z" fill="#186EA8" stroke="none"/>
</g>

<g id="uid_345">
<path d=" M 25.5 7.75 Q 28.3 6.35 28.1 4.35 27.95 2.55 25.45 1.35 22.95 0.2 19.55 0.25 16.8 0.3 14.6 1.3 12.15 0 8.6 0 5.2 0.05 2.85 1.35 0.5 2.65 0.55 4.45 0.55 6 2.6 7.25 -0.15 8.65 0 10.6 0.15 12.4 2.65 13.6 5.2 14.8 8.55 14.7 11.3 14.65 13.5 13.65 15.95 15.05 19.5 14.95 22.9 14.9 25.25 13.6 27.65 12.3 27.55 10.55 27.55 9 25.5 7.75 Z" fill="#F9EF49" stroke="none"/>
</g>

<g id="uid_346">
<path d=" M 20.65 7.25 L 20.7 5.1 19.6 5.05 Q 17.35 3.3 13.25 3.45 9.75 3.6 8 5.05 L 6.85 5.05 6.9 7.25 Q 7.15 8.7 9.35 9.65 11.5 10.55 14.35 10.45 16.9 10.4 18.7 9.45 20.45 8.55 20.65 7.25 Z" fill="#186EA8" stroke="none"/>
</g>

<g id="uid_347">
<path d=" M 20.7 4.75 Q 20.5 3.3 18.3 2.35 16.1 1.4 13.25 1.5 10.4 1.6 8.55 2.75 6.7 3.85 6.9 5.3 7.15 6.75 9.3 7.7 11.5 8.65 14.35 8.55 17.2 8.45 19.05 7.35 20.95 6.2 20.7 4.75 Z" fill="#FFA2DA" stroke="none"/>
</g>

<g id="uid_348">
<path d=" M 9.7 -4.75 L 0 -9.65 -9.7 -4.9 -0.05 0 9.7 -4.75 Z" fill="#98C64E" stroke="none"/>
</g>

<g id="uid_349">
<path d=" M 4.25 -2.05 L 0.05 -4.1 -4.2 -2.05 0 0 4.25 -2.05 Z" fill="#98C64E" stroke="none"/>
</g>
</defs>

<g transform="matrix( 1.0988006591796875, 0, 0, 1.0988006591796875, 0,0) ">
<g transform="matrix( 0.9848785400390625, 0, 0, 0.9848785400390625, 54.4,52.25) ">
<g transform="matrix( 1, 0, 0, 1, 0,0) ">
<use xlink:href="#uid_339"/>
</g>
</g>

<g transform="matrix( 1, 0, 0, 1, 0,0) ">
<use xlink:href="#uid_340"/>
</g>

<g transform="matrix( 1.003448486328125, 0, 0, 0.99981689453125, 48,30.6) ">
<g transform="matrix( 1, 0, 0, 1, -81.6,-197.15) ">
<use xlink:href="#uid_341"/>
</g>

<g transform="matrix( 1.1439208984375, 0, 0, 1.1439208984375, -8.7,-30.65) ">
<use xlink:href="#uid_342"/>
</g>

<g transform="matrix( 1.1439208984375, 0, 0, 1.1439208984375, -8.7,-30.65) ">
<use xlink:href="#uid_343"/>
</g>
</g>

<g transform="matrix( 1, 0, 0, 1, 55.5,20.25) ">
<g transform="matrix( 1.1439208984375, 0, 0, 1.1439208984375, -16.05,-20.25) ">
<use xlink:href="#uid_344"/>
</g>

<g transform="matrix( 1.1439208984375, 0, 0, 1.1439208984375, -16.05,-20.25) ">
<use xlink:href="#uid_345"/>
</g>
</g>

<g transform="matrix( 1.0489959716796875, 0, 0, 1.0489959716796875, 55.25,11.95) ">
<g transform="matrix( 1.1439208984375, 0, 0, 1.1439208984375, -15.8,-11.95) ">
<use xlink:href="#uid_346"/>
</g>

<g transform="matrix( 1.1439208984375, 0, 0, 1.1439208984375, -15.8,-11.95) ">
<use xlink:href="#uid_347"/>
</g>
</g>

<g transform="matrix( 0.98046875, 0, 0, 0.98046875, 10.6,46.95) ">
<g transform="matrix( 1, 0, 0, 1, 0,0) ">
<use xlink:href="#uid_348"/>
</g>
</g>

<g transform="matrix( 1.829559326171875, 0, 0, 1.829559326171875, 73.15,55.5) ">
<g transform="matrix( 1, 0, 0, 1, 0,0) ">
<use xlink:href="#uid_349"/>
</g>
</g>
</g>
</g></g><g transform="translate(20, 1736.0)"><g transform="translate(-0.0, -0.0)">
<defs>
<g id="uid_350">
<path d=" M 16.3 -10.25 L 0.15 -2.2 -16.05 -10.3 -0.15 -18.35 16.15 -10.2 20.45 -12.35 4.15 -20.5 0 -18.4 -4.3 -20.55 -20.55 -12.4 -16.25 -10.25 -20.4 -8.2 -4.1 -0.05 0 -2.15 4.3 0 20.6 -8.1 16.3 -10.25 Z" fill="#98C64E" stroke="none"/>
</g>

<g id="uid_351">
<path d=" M 55.35 45.15 L 55.35 9.3 53.75 8.35 53.75 44.25 55.35 45.15 Z" fill="#186EA8" stroke="none"/>

<path d=" M 55.35 45.15 L 57 44.5 57 8.35 55.35 9.3 55.35 45.15 Z" fill="#98C64E" stroke="none"/>
</g>

<g id="uid_352">
<path d=" M 81.6 195.15 L 86.25 192.85 81.6 190.6 77 192.85 81.6 195.15 Z" fill="#D7E13D" stroke="none"/>
</g>

<g id="uid_353">
<path d=" M 7.6 25.05 L 3.6 23.05 3.6 24.8 7.6 26.8 7.6 25.05 Z" fill="#186EA8" stroke="none"/>
</g>

<g id="uid_354">
<path d=" M 11.65 23.05 L 7.6 25.05 7.6 26.8 11.65 24.8 11.65 23.05 Z" fill="#98C64E" stroke="none"/>
</g>

<g id="uid_355">
<path d=" M 28.1 7.45 L 28.1 4.4 0.55 4 0.55 7.2 Q 0.55 8.75 2.6 10 L 0 10.25 0 13.35 Q 0.15 15.15 2.65 16.35 5.2 17.55 8.55 17.45 11.5 17.35 13.5 16.4 15.95 17.8 19.5 17.7 22.75 17.65 25.05 16.5 27.35 15.3 27.5 13.6 L 27.55 10.5 25.5 10.5 Q 27.95 9.25 28.1 7.45 Z" fill="#186EA8" stroke="none"/>
</g>

<g id="uid_356">
<path d=" M 25.5 7.75 Q 28.3 6.35 28.1 4.35 27.95 2.55 25.45 1.35 22.95 0.2 19.55 0.25 16.8 0.3 14.6 1.3 12.15 0 8.6 0 5.2 0.05 2.85 1.35 0.5 2.65 0.55 4.45 0.55 6 2.6 7.25 -0.15 8.65 0 10.6 0.15 12.4 2.65 13.6 5.2 14.8 8.55 14.7 11.3 14.65 13.5 13.65 15.95 15.05 19.5 14.95 22.9 14.9 25.25 13.6 27.65 12.3 27.55 10.55 27.55 9 25.5 7.75 Z" fill="#F9EF49" stroke="none"/>
</g>

<g id="uid_357">
<path d=" M 20.65 7.25 L 20.7 5.1 19.6 5.05 Q 17.35 3.3 13.25 3.45 9.75 3.6 8 5.05 L 6.85 5.05 6.9 7.25 Q 7.15 8.7 9.35 9.65 11.5 10.55 14.35 10.45 16.9 10.4 18.7 9.45 20.45 8.55 20.65 7.25 Z" fill="#186EA8" stroke="none"/>
</g>

<g id="uid_358">
<path d=" M 20.7 4.75 Q 20.5 3.3 18.3 2.35 16.1 1.4 13.25 1.5 10.4 1.6 8.55 2.75 6.7 3.85 6.9 5.3 7.15 6.75 9.3 7.7 11.5 8.65 14.35 8.55 17.2 8.45 19.05 7.35 20.95 6.2 20.7 4.75 Z" fill="#FFA2DA" stroke="none"/>
</g>

<g id="uid_359">
<path d=" M 9.7 -4.75 L 0 -9.65 -9.7 -4.9 -0.05 0 9.7 -4.75 Z" fill="#98C64E" stroke="none"/>
</g>

<g id="uid_360">
<path d=" M 4.25 -2.05 L 0.05 -4.1 -4.2 -2.05 0 0 4.25 -2.05 Z" fill="#98C64E" stroke="none"/>
</g>
</defs>

<g transform="matrix( 1.0988006591796875, 0, 0, 1.0988006591796875, 0,0) ">
<g transform="matrix( 0.974212646484375, 0, 0, 0.974212646484375, 54.4,52.05) ">
<g transform="matrix( 1, 0, 0, 1, 0,0) ">
<use xlink:href="#uid_350"/>
</g>
</g>

<g transform="matrix( 1, 0, 0, 1, 0,0) ">
<use xlink:href="#uid_351"/>
</g>

<g transform="matrix( 1, 0, 0, 1, 48.15,30.65) ">
<g transform="matrix( 1, 0, 0, 1, -81.6,-197.15) ">
<use xlink:href="#uid_352"/>
</g>

<g transform="matrix( 1.1439208984375, 0, 0, 1.1439208984375, -8.7,-30.65) ">
<use xlink:href="#uid_353"/>
</g>

<g transform="matrix( 1.1439208984375, 0, 0, 1.1439208984375, -8.7,-30.65) ">
<use xlink:href="#uid_354"/>
</g>
</g>

<g transform="matrix( 1, 0, 0, 1, 55.5,20.25) ">
<g transform="matrix( 1.1439208984375, 0, 0, 1.1439208984375, -16.05,-20.25) ">
<use xlink:href="#uid_355"/>
</g>

<g transform="matrix( 1.1439208984375, 0, 0, 1.1439208984375, -16.05,-20.25) ">
<use xlink:href="#uid_356"/>
</g>
</g>

<g transform="matrix( 1.02447509765625, 0, 0, 1.02447509765625, 55.25,11.9) ">
<g transform="matrix( 1.1439208984375, 0, 0, 1.1439208984375, -15.8,-11.95) ">
<use xlink:href="#uid_357"/>
</g>

<g transform="matrix( 1.1439208984375, 0, 0, 1.1439208984375, -15.8,-11.95) ">
<use xlink:href="#uid_358"/>
</g>
</g>

<g transform="matrix( 0.9951019287109375, 0, 0, 0.9951019287109375, 9.9,47) ">
<g transform="matrix( 1, 0, 0, 1, 0,0) ">
<use xlink:href="#uid_359"/>
</g>
</g>

<g transform="matrix( 1.719635009765625, 0, 0, 1.719635009765625, 73.2,55.25) ">
<g transform="matrix( 1, 0, 0, 1, 0,0) ">
<use xlink:href="#uid_360"/>
</g>
</g>
</g>
</g></g><g transform="translate(20, 1817.0)"><g transform="translate(-0.0, -0.0)">
<defs>
<g id="uid_361">
<path d=" M 16.3 -10.25 L 0.15 -2.2 -16.05 -10.3 -0.15 -18.35 16.15 -10.2 20.45 -12.35 4.15 -20.5 0 -18.4 -4.3 -20.55 -20.55 -12.4 -16.25 -10.25 -20.4 -8.2 -4.1 -0.05 0 -2.15 4.3 0 20.6 -8.1 16.3 -10.25 Z" fill="#98C64E" stroke="none"/>
</g>

<g id="uid_362">
<path d=" M 55.35 45.15 L 55.35 9.3 53.75 8.35 53.75 44.25 55.35 45.15 Z" fill="#186EA8" stroke="none"/>

<path d=" M 55.35 45.15 L 57 44.5 57 8.35 55.35 9.3 55.35 45.15 Z" fill="#98C64E" stroke="none"/>
</g>

<g id="uid_363">
<path d=" M 81.6 195.15 L 86.25 192.85 81.6 190.6 77 192.85 81.6 195.15 Z" fill="#D7E13D" stroke="none"/>
</g>

<g id="uid_364">
<path d=" M 7.6 25.05 L 3.6 23.05 3.6 24.8 7.6 26.8 7.6 25.05 Z" fill="#186EA8" stroke="none"/>
</g>

<g id="uid_365">
<path d=" M 11.65 23.05 L 7.6 25.05 7.6 26.8 11.65 24.8 11.65 23.05 Z" fill="#98C64E" stroke="none"/>
</g>

<g id="uid_366">
<path d=" M 28.1 7.45 L 28.1 4.4 0.55 4 0.55 7.2 Q 0.55 8.75 2.6 10 L 0 10.25 0 13.35 Q 0.15 15.15 2.65 16.35 5.2 17.55 8.55 17.45 11.5 17.35 13.5 16.4 15.95 17.8 19.5 17.7 22.75 17.65 25.05 16.5 27.35 15.3 27.5 13.6 L 27.55 10.5 25.5 10.5 Q 27.95 9.25 28.1 7.45 Z" fill="#186EA8" stroke="none"/>
</g>

<g id="uid_367">
<path d=" M 25.5 7.75 Q 28.3 6.35 28.1 4.35 27.95 2.55 25.45 1.35 22.95 0.2 19.55 0.25 16.8 0.3 14.6 1.3 12.15 0 8.6 0 5.2 0.05 2.85 1.35 0.5 2.65 0.55 4.45 0.55 6 2.6 7.25 -0.15 8.65 0 10.6 0.15 12.4 2.65 13.6 5.2 14.8 8.55 14.7 11.3 14.65 13.5 13.65 15.95 15.05 19.5 14.95 22.9 14.9 25.25 13.6 27.65 12.3 27.55 10.55 27.55 9 25.5 7.75 Z" fill="#F9EF49" stroke="none"/>
</g>

<g id="uid_368">
<path d=" M 20.65 7.25 L 20.7 5.1 19.6 5.05 Q 17.35 3.3 13.25 3.45 9.75 3.6 8 5.05 L 6.85 5.05 6.9 7.25 Q 7.15 8.7 9.35 9.65 11.5 10.55 14.35 10.45 16.9 10.4 18.7 9.45 20.45 8.55 20.65 7.25 Z" fill="#186EA8" stroke="none"/>
</g>

<g id="uid_369">
<path d=" M 20.7 4.75 Q 20.5 3.3 18.3 2.35 16.1 1.4 13.25 1.5 10.4 1.6 8.55 2.75 6.7 3.85 6.9 5.3 7.15 6.75 9.3 7.7 11.5 8.65 14.35 8.55 17.2 8.45 19.05 7.35 20.95 6.2 20.7 4.75 Z" fill="#FFA2DA" stroke="none"/>
</g>

<g id="uid_370">
<path d=" M 9.7 -4.75 L 0 -9.65 -9.7 -4.9 -0.05 0 9.7 -4.75 Z" fill="#98C64E" stroke="none"/>
</g>

<g id="uid_371">
<path d=" M 4.25 -2.05 L 0.05 -4.1 -4.2 -2.05 0 0 4.25 -2.05 Z" fill="#98C64E" stroke="none"/>
</g>
</defs>

<g transform="matrix( 1.0988006591796875, 0, 0, 1.0988006591796875, 0,0) ">
<g transform="matrix( 0.963592529296875, 0, 0, 0.963592529296875, 54.4,52.05) ">
<g transform="matrix( 1, 0, 0, 1, 0,0) ">
<use xlink:href="#uid_361"/>
</g>
</g>

<g transform="matrix( 1, 0, 0, 1, 0,0) ">
<use xlink:href="#uid_362"/>
</g>

<g transform="matrix( 1, 0, 0, 1, 48.15,30.65) ">
<g transform="matrix( 1, 0, 0, 1, -81.6,-197.15) ">
<use xlink:href="#uid_363"/>
</g>

<g transform="matrix( 1.1439208984375, 0, 0, 1.1439208984375, -8.7,-30.65) ">
<use xlink:href="#uid_364"/>
</g>

<g transform="matrix( 1.1439208984375, 0, 0, 1.1439208984375, -8.7,-30.65) ">
<use xlink:href="#uid_365"/>
</g>
</g>

<g transform="matrix( 1, 0, 0, 1, 55.5,20.25) ">
<g transform="matrix( 1.1439208984375, 0, 0, 1.1439208984375, -16.05,-20.25) ">
<use xlink:href="#uid_366"/>
</g>

<g transform="matrix( 1.1439208984375, 0, 0, 1.1439208984375, -16.05,-20.25) ">
<use xlink:href="#uid_367"/>
</g>
</g>

<g transform="matrix( 1, 0, 0, 1, 55.25,11.95) ">
<g transform="matrix( 1.1439208984375, 0, 0, 1.1439208984375, -15.8,-11.95) ">
<use xlink:href="#uid_368"/>
</g>

<g transform="matrix( 1.1439208984375, 0, 0, 1.1439208984375, -15.8,-11.95) ">
<use xlink:href="#uid_369"/>
</g>
</g>

<g transform="matrix( 1, 0, 0, 1, 9.7,47.15) ">
<g transform="matrix( 1, 0, 0, 1, 0,0) ">
<use xlink:href="#uid_370"/>
</g>
</g>

<g transform="matrix( 1.6097412109375, 0, 0, 1.6097412109375, 73.25,55.2) ">
<g transform="matrix( 1, 0, 0, 1, 0,0) ">
<use xlink:href="#uid_371"/>
</g>
</g>
</g>
</g></g></svg>