<?xml version="1.0" ?><svg height="10933.0px" viewBox="0 0 193.0 10933.0" width="193.0px" xmlns="http://www.w3.org/2000/svg" xmlns:xlink="http://www.w3.org/1999/xlink">
<g transform="translate(20, 322.0)"><g transform="translate(-0.0, -0.0)">
<defs>
<g id="uid_60">
<path d=" M 16.7 5.45 L 22.15 2.75 16.7 0 11.25 2.7 16.7 5.45 Z" fill="#F9EF49" stroke="none"/>
</g>

<g id="uid_61">
<path d=" M 22.15 2.75 L 16.7 5.45 16.65 7.55 22.15 4.8 22.15 2.75 Z" fill="#98C64E" stroke="none"/>
</g>

<g id="uid_62">
<path d=" M 16.7 5.45 L 11.25 2.7 11.2 8.15 16.65 10.9 16.7 5.45 Z" fill="#D8D8D8" stroke="none"/>
</g>

<g id="uid_63">
<path d=" M 5.7 5.45 L 11.2 2.75 5.75 0 0.25 2.7 5.7 5.45 Z" fill="#F9EF49" stroke="none"/>
</g>

<g id="uid_64">
<path d=" M 11.2 2.75 L 5.7 5.45 5.65 10.9 11.15 8.2 11.2 2.75 Z" fill="#D8D8D8" stroke="none"/>
</g>

<g id="uid_65">
<path d=" M 5.7 5.45 L 0.25 2.7 0.2 4.8 5.65 7.55 5.7 5.45 Z" fill="#186EA8" stroke="none"/>
</g>

<g id="uid_66">
<path d=" M 5.45 10.95 L 10.95 8.25 5.5 5.5 0 8.2 5.45 10.95 Z" fill="#F9EF49" stroke="none"/>
</g>

<g id="uid_67">
<path d=" M 10.95 8.25 L 5.45 10.95 5.45 13 10.9 10.3 10.95 8.25 Z" fill="#98C64E" stroke="none"/>
</g>

<g id="uid_68">
<path d=" M 5.45 10.95 L 0 8.2 0 10.25 5.45 13 5.45 10.95 Z" fill="#186EA8" stroke="none"/>
</g>

<g id="uid_69">
<path d=" M 16.45 10.95 L 21.95 8.25 16.5 5.5 11 8.2 16.45 10.95 Z" fill="#F9EF49" stroke="none"/>
</g>

<g id="uid_70">
<path d=" M 21.95 8.25 L 16.45 10.95 16.45 13 21.9 10.3 21.95 8.25 Z" fill="#98C64E" stroke="none"/>
</g>

<g id="uid_71">
<path d=" M 16.45 10.95 L 11 8.2 11 10.25 16.45 13 16.45 10.95 Z" fill="#186EA8" stroke="none"/>
</g>

<g id="uid_72">
<path d=" M 11.1 7 L 16.55 4.3 11.1 1.55 5.65 4.25 11.1 7 Z" fill="#186EA8" stroke="none"/>
</g>

<g id="uid_73">
<path d=" M 16.55 4.3 L 11.1 7 11.05 8.3 16.55 5.6 16.55 4.3 Z" fill="#98C64E" stroke="none"/>
</g>

<g id="uid_74">
<path d=" M 11.1 7 L 5.65 4.25 5.6 5.55 11.05 8.3 11.1 7 Z" fill="#186EA8" stroke="none"/>
</g>
</defs>

<g transform="matrix( 1, 0, 0, 1, 0,0) ">
<g transform="matrix( 0.33203125, 0, 0, 0.33203125, 11.95,11.9) ">
<g transform="matrix( 1, 0, 0, 1, -11.05,-13) ">
<use xlink:href="#uid_60"/>
</g>

<g transform="matrix( 1, 0, 0, 1, -11.05,-13) ">
<use xlink:href="#uid_61"/>
</g>

<g transform="matrix( 1, 0, 0, 1, -11.05,-13) ">
<use xlink:href="#uid_62"/>
</g>

<g transform="matrix( 1, 0, 0, 1, -11.05,-13) ">
<use xlink:href="#uid_63"/>
</g>

<g transform="matrix( 1, 0, 0, 1, -11.05,-13) ">
<use xlink:href="#uid_64"/>
</g>

<g transform="matrix( 1, 0, 0, 1, -11.05,-13) ">
<use xlink:href="#uid_65"/>
</g>

<g transform="matrix( 1, 0, 0, 1, -11.05,-13) ">
<use xlink:href="#uid_66"/>
</g>

<g transform="matrix( 1, 0, 0, 1, -11.05,-13) ">
<use xlink:href="#uid_67"/>
</g>

<g transform="matrix( 1, 0, 0, 1, -11.05,-13) ">
<use xlink:href="#uid_68"/>
</g>

<g transform="matrix( 1, 0, 0, 1, -11.05,-13) ">
<use xlink:href="#uid_69"/>
</g>

<g transform="matrix( 1, 0, 0, 1, -11.05,-13) ">
<use xlink:href="#uid_70"/>
</g>

<g transform="matrix( 1, 0, 0, 1, -11.05,-13) ">
<use xlink:href="#uid_71"/>
</g>

<g transform="matrix( 1, 0, 0, 1, -11.05,-13) ">
<use xlink:href="#uid_72"/>
</g>

<g transform="matrix( 1, 0, 0, 1, -11.05,-13) ">
<use xlink:href="#uid_73"/>
</g>

<g transform="matrix( 1, 0, 0, 1, -11.05,-13) ">
<use xlink:href="#uid_74"/>
</g>
</g>
</g>
</g></g><g transform="translate(20, 356.0)"><g transform="translate(-0.0, -0.0)">
<defs>
<g id="uid_75">
<path d=" M 16.7 5.45 L 22.15 2.75 16.7 0 11.25 2.7 16.7 5.45 Z" fill="#F9EF49" stroke="none"/>
</g>

<g id="uid_76">
<path d=" M 22.15 2.75 L 16.7 5.45 16.65 7.55 22.15 4.8 22.15 2.75 Z" fill="#98C64E" stroke="none"/>
</g>

<g id="uid_77">
<path d=" M 16.7 5.45 L 11.25 2.7 11.2 8.15 16.65 10.9 16.7 5.45 Z" fill="#D8D8D8" stroke="none"/>
</g>

<g id="uid_78">
<path d=" M 5.7 5.45 L 11.2 2.75 5.75 0 0.25 2.7 5.7 5.45 Z" fill="#F9EF49" stroke="none"/>
</g>

<g id="uid_79">
<path d=" M 11.2 2.75 L 5.7 5.45 5.65 10.9 11.15 8.2 11.2 2.75 Z" fill="#D8D8D8" stroke="none"/>
</g>

<g id="uid_80">
<path d=" M 5.7 5.45 L 0.25 2.7 0.2 4.8 5.65 7.55 5.7 5.45 Z" fill="#186EA8" stroke="none"/>
</g>

<g id="uid_81">
<path d=" M 5.45 10.95 L 10.95 8.25 5.5 5.5 0 8.2 5.45 10.95 Z" fill="#F9EF49" stroke="none"/>
</g>

<g id="uid_82">
<path d=" M 10.95 8.25 L 5.45 10.95 5.45 13 10.9 10.3 10.95 8.25 Z" fill="#98C64E" stroke="none"/>
</g>

<g id="uid_83">
<path d=" M 5.45 10.95 L 0 8.2 0 10.25 5.45 13 5.45 10.95 Z" fill="#186EA8" stroke="none"/>
</g>

<g id="uid_84">
<path d=" M 16.45 10.95 L 21.95 8.25 16.5 5.5 11 8.2 16.45 10.95 Z" fill="#F9EF49" stroke="none"/>
</g>

<g id="uid_85">
<path d=" M 21.95 8.25 L 16.45 10.95 16.45 13 21.9 10.3 21.95 8.25 Z" fill="#98C64E" stroke="none"/>
</g>

<g id="uid_86">
<path d=" M 16.45 10.95 L 11 8.2 11 10.25 16.45 13 16.45 10.95 Z" fill="#186EA8" stroke="none"/>
</g>

<g id="uid_87">
<path d=" M 11.1 7 L 16.55 4.3 11.1 1.55 5.65 4.25 11.1 7 Z" fill="#186EA8" stroke="none"/>
</g>

<g id="uid_88">
<path d=" M 16.55 4.3 L 11.1 7 11.05 8.3 16.55 5.6 16.55 4.3 Z" fill="#98C64E" stroke="none"/>
</g>

<g id="uid_89">
<path d=" M 11.1 7 L 5.65 4.25 5.6 5.55 11.05 8.3 11.1 7 Z" fill="#186EA8" stroke="none"/>
</g>
</defs>

<g transform="matrix( 1, 0, 0, 1, 0,0) ">
<g transform="matrix( 0.417999267578125, 0, 0, 0.413787841796875, 11.9,12.1) ">
<g transform="matrix( 1, 0, 0, 1, -11.05,-13) ">
<use xlink:href="#uid_75"/>
</g>

<g transform="matrix( 1, 0, 0, 1, -11.05,-13) ">
<use xlink:href="#uid_76"/>
</g>

<g transform="matrix( 1, 0, 0, 1, -11.05,-13) ">
<use xlink:href="#uid_77"/>
</g>

<g transform="matrix( 1, 0, 0, 1, -11.05,-13) ">
<use xlink:href="#uid_78"/>
</g>

<g transform="matrix( 1, 0, 0, 1, -11.05,-13) ">
<use xlink:href="#uid_79"/>
</g>

<g transform="matrix( 1, 0, 0, 1, -11.05,-13) ">
<use xlink:href="#uid_80"/>
</g>

<g transform="matrix( 1, 0, 0, 1, -11.05,-13) ">
<use xlink:href="#uid_81"/>
</g>

<g transform="matrix( 1, 0, 0, 1, -11.05,-13) ">
<use xlink:href="#uid_82"/>
</g>

<g transform="matrix( 1, 0, 0, 1, -11.05,-13) ">
<use xlink:href="#uid_83"/>
</g>

<g transform="matrix( 1, 0, 0, 1, -11.05,-13) ">
<use xlink:href="#uid_84"/>
</g>

<g transform="matrix( 1, 0, 0, 1, -11.05,-13) ">
<use xlink:href="#uid_85"/>
</g>

<g transform="matrix( 1, 0, 0, 1, -11.05,-13) ">
<use xlink:href="#uid_86"/>
</g>

<g transform="matrix( 1, 0, 0, 1, -11.05,-13) ">
<use xlink:href="#uid_87"/>
</g>

<g transform="matrix( 1, 0, 0, 1, -11.05,-13) ">
<use xlink:href="#uid_88"/>
</g>

<g transform="matrix( 1, 0, 0, 1, -11.05,-13) ">
<use xlink:href="#uid_89"/>
</g>
</g>
</g>
</g></g><g transform="translate(20, 390.0)"><g transform="translate(-0.0, -0.0)">
<defs>
<g id="uid_90">
<path d=" M 16.7 5.45 L 22.15 2.75 16.7 0 11.25 2.7 16.7 5.45 Z" fill="#F9EF49" stroke="none"/>
</g>

<g id="uid_91">
<path d=" M 22.15 2.75 L 16.7 5.45 16.65 7.55 22.15 4.8 22.15 2.75 Z" fill="#98C64E" stroke="none"/>
</g>

<g id="uid_92">
<path d=" M 16.7 5.45 L 11.25 2.7 11.2 8.15 16.65 10.9 16.7 5.45 Z" fill="#D8D8D8" stroke="none"/>
</g>

<g id="uid_93">
<path d=" M 5.7 5.45 L 11.2 2.75 5.75 0 0.25 2.7 5.7 5.45 Z" fill="#F9EF49" stroke="none"/>
</g>

<g id="uid_94">
<path d=" M 11.2 2.75 L 5.7 5.45 5.65 10.9 11.15 8.2 11.2 2.75 Z" fill="#D8D8D8" stroke="none"/>
</g>

<g id="uid_95">
<path d=" M 5.7 5.45 L 0.25 2.7 0.2 4.8 5.65 7.55 5.7 5.45 Z" fill="#186EA8" stroke="none"/>
</g>

<g id="uid_96">
<path d=" M 5.45 10.95 L 10.95 8.25 5.5 5.5 0 8.2 5.45 10.95 Z" fill="#F9EF49" stroke="none"/>
</g>

<g id="uid_97">
<path d=" M 10.95 8.25 L 5.45 10.95 5.45 13 10.9 10.3 10.95 8.25 Z" fill="#98C64E" stroke="none"/>
</g>

<g id="uid_98">
<path d=" M 5.45 10.95 L 0 8.2 0 10.25 5.45 13 5.45 10.95 Z" fill="#186EA8" stroke="none"/>
</g>

<g id="uid_99">
<path d=" M 16.45 10.95 L 21.95 8.25 16.5 5.5 11 8.2 16.45 10.95 Z" fill="#F9EF49" stroke="none"/>
</g>

<g id="uid_100">
<path d=" M 21.95 8.25 L 16.45 10.95 16.45 13 21.9 10.3 21.95 8.25 Z" fill="#98C64E" stroke="none"/>
</g>

<g id="uid_101">
<path d=" M 16.45 10.95 L 11 8.2 11 10.25 16.45 13 16.45 10.95 Z" fill="#186EA8" stroke="none"/>
</g>

<g id="uid_102">
<path d=" M 11.1 7 L 16.55 4.3 11.1 1.55 5.65 4.25 11.1 7 Z" fill="#186EA8" stroke="none"/>
</g>

<g id="uid_103">
<path d=" M 16.55 4.3 L 11.1 7 11.05 8.3 16.55 5.6 16.55 4.3 Z" fill="#98C64E" stroke="none"/>
</g>

<g id="uid_104">
<path d=" M 11.1 7 L 5.65 4.25 5.6 5.55 11.05 8.3 11.1 7 Z" fill="#186EA8" stroke="none"/>
</g>
</defs>

<g transform="matrix( 1, 0, 0, 1, 0,0) ">
<g transform="matrix( 0.675933837890625, 0, 0, 0.65911865234375, 11.95,12.65) ">
<g transform="matrix( 1, 0, 0, 1, -11.05,-13) ">
<use xlink:href="#uid_90"/>
</g>

<g transform="matrix( 1, 0, 0, 1, -11.05,-13) ">
<use xlink:href="#uid_91"/>
</g>

<g transform="matrix( 1, 0, 0, 1, -11.05,-13) ">
<use xlink:href="#uid_92"/>
</g>

<g transform="matrix( 1, 0, 0, 1, -11.05,-13) ">
<use xlink:href="#uid_93"/>
</g>

<g transform="matrix( 1, 0, 0, 1, -11.05,-13) ">
<use xlink:href="#uid_94"/>
</g>

<g transform="matrix( 1, 0, 0, 1, -11.05,-13) ">
<use xlink:href="#uid_95"/>
</g>

<g transform="matrix( 1, 0, 0, 1, -11.05,-13) ">
<use xlink:href="#uid_96"/>
</g>

<g transform="matrix( 1, 0, 0, 1, -11.05,-13) ">
<use xlink:href="#uid_97"/>
</g>

<g transform="matrix( 1, 0, 0, 1, -11.05,-13) ">
<use xlink:href="#uid_98"/>
</g>

<g transform="matrix( 1, 0, 0, 1, -11.05,-13) ">
<use xlink:href="#uid_99"/>
</g>

<g transform="matrix( 1, 0, 0, 1, -11.05,-13) ">
<use xlink:href="#uid_100"/>
</g>

<g transform="matrix( 1, 0, 0, 1, -11.05,-13) ">
<use xlink:href="#uid_101"/>
</g>

<g transform="matrix( 1, 0, 0, 1, -11.05,-13) ">
<use xlink:href="#uid_102"/>
</g>

<g transform="matrix( 1, 0, 0, 1, -11.05,-13) ">
<use xlink:href="#uid_103"/>
</g>

<g transform="matrix( 1, 0, 0, 1, -11.05,-13) ">
<use xlink:href="#uid_104"/>
</g>
</g>
</g>
</g></g><g transform="translate(20, 424.0)"><g transform="translate(-0.0, -0.0)">
<defs>
<g id="uid_105">
<path d=" M 16.7 5.45 L 22.15 2.75 16.7 0 11.25 2.7 16.7 5.45 Z" fill="#F9EF49" stroke="none"/>
</g>

<g id="uid_106">
<path d=" M 22.15 2.75 L 16.7 5.45 16.65 7.55 22.15 4.8 22.15 2.75 Z" fill="#98C64E" stroke="none"/>
</g>

<g id="uid_107">
<path d=" M 16.7 5.45 L 11.25 2.7 11.2 8.15 16.65 10.9 16.7 5.45 Z" fill="#D8D8D8" stroke="none"/>
</g>

<g id="uid_108">
<path d=" M 5.7 5.45 L 11.2 2.75 5.75 0 0.25 2.7 5.7 5.45 Z" fill="#F9EF49" stroke="none"/>
</g>

<g id="uid_109">
<path d=" M 11.2 2.75 L 5.7 5.45 5.65 10.9 11.15 8.2 11.2 2.75 Z" fill="#D8D8D8" stroke="none"/>
</g>

<g id="uid_110">
<path d=" M 5.7 5.45 L 0.25 2.7 0.2 4.8 5.65 7.55 5.7 5.45 Z" fill="#186EA8" stroke="none"/>
</g>

<g id="uid_111">
<path d=" M 5.45 10.95 L 10.95 8.25 5.5 5.5 0 8.2 5.45 10.95 Z" fill="#F9EF49" stroke="none"/>
</g>

<g id="uid_112">
<path d=" M 10.95 8.25 L 5.45 10.95 5.45 13 10.9 10.3 10.95 8.25 Z" fill="#98C64E" stroke="none"/>
</g>

<g id="uid_113">
<path d=" M 5.45 10.95 L 0 8.2 0 10.25 5.45 13 5.45 10.95 Z" fill="#186EA8" stroke="none"/>
</g>

<g id="uid_114">
<path d=" M 16.45 10.95 L 21.95 8.25 16.5 5.5 11 8.2 16.45 10.95 Z" fill="#F9EF49" stroke="none"/>
</g>

<g id="uid_115">
<path d=" M 21.95 8.25 L 16.45 10.95 16.45 13 21.9 10.3 21.95 8.25 Z" fill="#98C64E" stroke="none"/>
</g>

<g id="uid_116">
<path d=" M 16.45 10.95 L 11 8.2 11 10.25 16.45 13 16.45 10.95 Z" fill="#186EA8" stroke="none"/>
</g>

<g id="uid_117">
<path d=" M 11.1 7 L 16.55 4.3 11.1 1.55 5.65 4.25 11.1 7 Z" fill="#186EA8" stroke="none"/>
</g>

<g id="uid_118">
<path d=" M 16.55 4.3 L 11.1 7 11.05 8.3 16.55 5.6 16.55 4.3 Z" fill="#98C64E" stroke="none"/>
</g>

<g id="uid_119">
<path d=" M 11.1 7 L 5.65 4.25 5.6 5.55 11.05 8.3 11.1 7 Z" fill="#186EA8" stroke="none"/>
</g>
</defs>

<g transform="matrix( 1, 0, 0, 1, 0,0) ">
<g transform="matrix( 1.1058197021484375, 0, 0, 1.0679931640625, 12.2,14.2) ">
<g transform="matrix( 1, 0, 0, 1, -11.05,-13) ">
<use xlink:href="#uid_105"/>
</g>

<g transform="matrix( 1, 0, 0, 1, -11.05,-13) ">
<use xlink:href="#uid_106"/>
</g>

<g transform="matrix( 1, 0, 0, 1, -11.05,-13) ">
<use xlink:href="#uid_107"/>
</g>

<g transform="matrix( 1, 0, 0, 1, -11.05,-13) ">
<use xlink:href="#uid_108"/>
</g>

<g transform="matrix( 1, 0, 0, 1, -11.05,-13) ">
<use xlink:href="#uid_109"/>
</g>

<g transform="matrix( 1, 0, 0, 1, -11.05,-13) ">
<use xlink:href="#uid_110"/>
</g>

<g transform="matrix( 1, 0, 0, 1, -11.05,-13) ">
<use xlink:href="#uid_111"/>
</g>

<g transform="matrix( 1, 0, 0, 1, -11.05,-13) ">
<use xlink:href="#uid_112"/>
</g>

<g transform="matrix( 1, 0, 0, 1, -11.05,-13) ">
<use xlink:href="#uid_113"/>
</g>

<g transform="matrix( 1, 0, 0, 1, -11.05,-13) ">
<use xlink:href="#uid_114"/>
</g>

<g transform="matrix( 1, 0, 0, 1, -11.05,-13) ">
<use xlink:href="#uid_115"/>
</g>

<g transform="matrix( 1, 0, 0, 1, -11.05,-13) ">
<use xlink:href="#uid_116"/>
</g>

<g transform="matrix( 1, 0, 0, 1, -11.05,-13) ">
<use xlink:href="#uid_117"/>
</g>

<g transform="matrix( 1, 0, 0, 1, -11.05,-13) ">
<use xlink:href="#uid_118"/>
</g>

<g transform="matrix( 1, 0, 0, 1, -11.05,-13) ">
<use xlink:href="#uid_119"/>
</g>
</g>
</g>
</g></g><g transform="translate(20, 458.0)"><g transform="translate(-0.0, -0.0)">
<defs>
<g id="uid_120">
<path d=" M 16.7 5.45 L 22.15 2.75 16.7 0 11.25 2.7 16.7 5.45 Z" fill="#F9EF49" stroke="none"/>
</g>

<g id="uid_121">
<path d=" M 22.15 2.75 L 16.7 5.45 16.65 7.55 22.15 4.8 22.15 2.75 Z" fill="#98C64E" stroke="none"/>
</g>

<g id="uid_122">
<path d=" M 16.7 5.45 L 11.25 2.7 11.2 8.15 16.65 10.9 16.7 5.45 Z" fill="#D8D8D8" stroke="none"/>
</g>

<g id="uid_123">
<path d=" M 5.7 5.45 L 11.2 2.75 5.75 0 0.25 2.7 5.7 5.45 Z" fill="#F9EF49" stroke="none"/>
</g>

<g id="uid_124">
<path d=" M 11.2 2.75 L 5.7 5.45 5.65 10.9 11.15 8.2 11.2 2.75 Z" fill="#D8D8D8" stroke="none"/>
</g>

<g id="uid_125">
<path d=" M 5.7 5.45 L 0.25 2.7 0.2 4.8 5.65 7.55 5.7 5.45 Z" fill="#186EA8" stroke="none"/>
</g>

<g id="uid_126">
<path d=" M 5.45 10.95 L 10.95 8.25 5.5 5.5 0 8.2 5.45 10.95 Z" fill="#F9EF49" stroke="none"/>
</g>

<g id="uid_127">
<path d=" M 10.95 8.25 L 5.45 10.95 5.45 13 10.9 10.3 10.95 8.25 Z" fill="#98C64E" stroke="none"/>
</g>

<g id="uid_128">
<path d=" M 5.45 10.95 L 0 8.2 0 10.25 5.45 13 5.45 10.95 Z" fill="#186EA8" stroke="none"/>
</g>

<g id="uid_129">
<path d=" M 16.45 10.95 L 21.95 8.25 16.5 5.5 11 8.2 16.45 10.95 Z" fill="#F9EF49" stroke="none"/>
</g>

<g id="uid_130">
<path d=" M 21.95 8.25 L 16.45 10.95 16.45 13 21.9 10.3 21.95 8.25 Z" fill="#98C64E" stroke="none"/>
</g>

<g id="uid_131">
<path d=" M 16.45 10.95 L 11 8.2 11 10.25 16.45 13 16.45 10.95 Z" fill="#186EA8" stroke="none"/>
</g>

<g id="uid_132">
<path d=" M 11.1 7 L 16.55 4.3 11.1 1.55 5.65 4.25 11.1 7 Z" fill="#186EA8" stroke="none"/>
</g>

<g id="uid_133">
<path d=" M 16.55 4.3 L 11.1 7 11.05 8.3 16.55 5.6 16.55 4.3 Z" fill="#98C64E" stroke="none"/>
</g>

<g id="uid_134">
<path d=" M 11.1 7 L 5.65 4.25 5.6 5.55 11.05 8.3 11.1 7 Z" fill="#186EA8" stroke="none"/>
</g>
</defs>

<g transform="matrix( 1, 0, 0, 1, 0,0) ">
<g transform="matrix( 1.0904693603515625, 0, 0, 1.0531768798828125, 12.2,13.9) ">
<g transform="matrix( 1, 0, 0, 1, -11.05,-13) ">
<use xlink:href="#uid_120"/>
</g>

<g transform="matrix( 1, 0, 0, 1, -11.05,-13) ">
<use xlink:href="#uid_121"/>
</g>

<g transform="matrix( 1, 0, 0, 1, -11.05,-13) ">
<use xlink:href="#uid_122"/>
</g>

<g transform="matrix( 1, 0, 0, 1, -11.05,-13) ">
<use xlink:href="#uid_123"/>
</g>

<g transform="matrix( 1, 0, 0, 1, -11.05,-13) ">
<use xlink:href="#uid_124"/>
</g>

<g transform="matrix( 1, 0, 0, 1, -11.05,-13) ">
<use xlink:href="#uid_125"/>
</g>

<g transform="matrix( 1, 0, 0, 1, -11.05,-13) ">
<use xlink:href="#uid_126"/>
</g>

<g transform="matrix( 1, 0, 0, 1, -11.05,-13) ">
<use xlink:href="#uid_127"/>
</g>

<g transform="matrix( 1, 0, 0, 1, -11.05,-13) ">
<use xlink:href="#uid_128"/>
</g>

<g transform="matrix( 1, 0, 0, 1, -11.05,-13) ">
<use xlink:href="#uid_129"/>
</g>

<g transform="matrix( 1, 0, 0, 1, -11.05,-13) ">
<use xlink:href="#uid_130"/>
</g>

<g transform="matrix( 1, 0, 0, 1, -11.05,-13) ">
<use xlink:href="#uid_131"/>
</g>

<g transform="matrix( 1, 0, 0, 1, -11.05,-13) ">
<use xlink:href="#uid_132"/>
</g>

<g transform="matrix( 1, 0, 0, 1, -11.05,-13) ">
<use xlink:href="#uid_133"/>
</g>

<g transform="matrix( 1, 0, 0, 1, -11.05,-13) ">
<use xlink:href="#uid_134"/>
</g>
</g>
</g>
</g></g><g transform="translate(20, 492.0)"><g transform="translate(-0.0, -0.0)">
<defs>
<g id="uid_135">
<path d=" M 16.7 5.45 L 22.15 2.75 16.7 0 11.25 2.7 16.7 5.45 Z" fill="#F9EF49" stroke="none"/>
</g>

<g id="uid_136">
<path d=" M 22.15 2.75 L 16.7 5.45 16.65 7.55 22.15 4.8 22.15 2.75 Z" fill="#98C64E" stroke="none"/>
</g>

<g id="uid_137">
<path d=" M 16.7 5.45 L 11.25 2.7 11.2 8.15 16.65 10.9 16.7 5.45 Z" fill="#D8D8D8" stroke="none"/>
</g>

<g id="uid_138">
<path d=" M 5.7 5.45 L 11.2 2.75 5.75 0 0.25 2.7 5.7 5.45 Z" fill="#F9EF49" stroke="none"/>
</g>

<g id="uid_139">
<path d=" M 11.2 2.75 L 5.7 5.45 5.65 10.9 11.15 8.2 11.2 2.75 Z" fill="#D8D8D8" stroke="none"/>
</g>

<g id="uid_140">
<path d=" M 5.7 5.45 L 0.25 2.7 0.2 4.8 5.65 7.55 5.7 5.45 Z" fill="#186EA8" stroke="none"/>
</g>

<g id="uid_141">
<path d=" M 5.45 10.95 L 10.95 8.25 5.5 5.5 0 8.2 5.45 10.95 Z" fill="#F9EF49" stroke="none"/>
</g>

<g id="uid_142">
<path d=" M 10.95 8.25 L 5.45 10.95 5.45 13 10.9 10.3 10.95 8.25 Z" fill="#98C64E" stroke="none"/>
</g>

<g id="uid_143">
<path d=" M 5.45 10.95 L 0 8.2 0 10.25 5.45 13 5.45 10.95 Z" fill="#186EA8" stroke="none"/>
</g>

<g id="uid_144">
<path d=" M 16.45 10.95 L 21.95 8.25 16.5 5.5 11 8.2 16.45 10.95 Z" fill="#F9EF49" stroke="none"/>
</g>

<g id="uid_145">
<path d=" M 21.95 8.25 L 16.45 10.95 16.45 13 21.9 10.3 21.95 8.25 Z" fill="#98C64E" stroke="none"/>
</g>

<g id="uid_146">
<path d=" M 16.45 10.95 L 11 8.2 11 10.25 16.45 13 16.45 10.95 Z" fill="#186EA8" stroke="none"/>
</g>

<g id="uid_147">
<path d=" M 11.1 7 L 16.55 4.3 11.1 1.55 5.65 4.25 11.1 7 Z" fill="#186EA8" stroke="none"/>
</g>

<g id="uid_148">
<path d=" M 16.55 4.3 L 11.1 7 11.05 8.3 16.55 5.6 16.55 4.3 Z" fill="#98C64E" stroke="none"/>
</g>

<g id="uid_149">
<path d=" M 11.1 7 L 5.65 4.25 5.6 5.55 11.05 8.3 11.1 7 Z" fill="#186EA8" stroke="none"/>
</g>
</defs>

<g transform="matrix( 1, 0, 0, 1, 0,0) ">
<g transform="matrix( 1.07952880859375, 0, 0, 1.0426025390625, 12.3,13.7) ">
<g transform="matrix( 1, 0, 0, 1, -11.05,-13) ">
<use xlink:href="#uid_135"/>
</g>

<g transform="matrix( 1, 0, 0, 1, -11.05,-13) ">
<use xlink:href="#uid_136"/>
</g>

<g transform="matrix( 1, 0, 0, 1, -11.05,-13) ">
<use xlink:href="#uid_137"/>
</g>

<g transform="matrix( 1, 0, 0, 1, -11.05,-13) ">
<use xlink:href="#uid_138"/>
</g>

<g transform="matrix( 1, 0, 0, 1, -11.05,-13) ">
<use xlink:href="#uid_139"/>
</g>

<g transform="matrix( 1, 0, 0, 1, -11.05,-13) ">
<use xlink:href="#uid_140"/>
</g>

<g transform="matrix( 1, 0, 0, 1, -11.05,-13) ">
<use xlink:href="#uid_141"/>
</g>

<g transform="matrix( 1, 0, 0, 1, -11.05,-13) ">
<use xlink:href="#uid_142"/>
</g>

<g transform="matrix( 1, 0, 0, 1, -11.05,-13) ">
<use xlink:href="#uid_143"/>
</g>

<g transform="matrix( 1, 0, 0, 1, -11.05,-13) ">
<use xlink:href="#uid_144"/>
</g>

<g transform="matrix( 1, 0, 0, 1, -11.05,-13) ">
<use xlink:href="#uid_145"/>
</g>

<g transform="matrix( 1, 0, 0, 1, -11.05,-13) ">
<use xlink:href="#uid_146"/>
</g>

<g transform="matrix( 1, 0, 0, 1, -11.05,-13) ">
<use xlink:href="#uid_147"/>
</g>

<g transform="matrix( 1, 0, 0, 1, -11.05,-13) ">
<use xlink:href="#uid_148"/>
</g>

<g transform="matrix( 1, 0, 0, 1, -11.05,-13) ">
<use xlink:href="#uid_149"/>
</g>
</g>
</g>
</g></g><g transform="translate(20, 526.0)"><g transform="translate(-0.0, -0.0)">
<defs>
<g id="uid_150">
<path d=" M 16.7 5.45 L 22.15 2.75 16.7 0 11.25 2.7 16.7 5.45 Z" fill="#F9EF49" stroke="none"/>
</g>

<g id="uid_151">
<path d=" M 22.15 2.75 L 16.7 5.45 16.65 7.55 22.15 4.8 22.15 2.75 Z" fill="#98C64E" stroke="none"/>
</g>

<g id="uid_152">
<path d=" M 16.7 5.45 L 11.25 2.7 11.2 8.15 16.65 10.9 16.7 5.45 Z" fill="#D8D8D8" stroke="none"/>
</g>

<g id="uid_153">
<path d=" M 5.7 5.45 L 11.2 2.75 5.75 0 0.25 2.7 5.7 5.45 Z" fill="#F9EF49" stroke="none"/>
</g>

<g id="uid_154">
<path d=" M 11.2 2.75 L 5.7 5.45 5.65 10.9 11.15 8.2 11.2 2.75 Z" fill="#D8D8D8" stroke="none"/>
</g>

<g id="uid_155">
<path d=" M 5.7 5.45 L 0.25 2.7 0.2 4.8 5.65 7.55 5.7 5.45 Z" fill="#186EA8" stroke="none"/>
</g>

<g id="uid_156">
<path d=" M 5.45 10.95 L 10.95 8.25 5.5 5.5 0 8.2 5.45 10.95 Z" fill="#F9EF49" stroke="none"/>
</g>

<g id="uid_157">
<path d=" M 10.95 8.25 L 5.45 10.95 5.45 13 10.9 10.3 10.95 8.25 Z" fill="#98C64E" stroke="none"/>
</g>

<g id="uid_158">
<path d=" M 5.45 10.95 L 0 8.2 0 10.25 5.45 13 5.45 10.95 Z" fill="#186EA8" stroke="none"/>
</g>

<g id="uid_159">
<path d=" M 16.45 10.95 L 21.95 8.25 16.5 5.5 11 8.2 16.45 10.95 Z" fill="#F9EF49" stroke="none"/>
</g>

<g id="uid_160">
<path d=" M 21.95 8.25 L 16.45 10.95 16.45 13 21.9 10.3 21.95 8.25 Z" fill="#98C64E" stroke="none"/>
</g>

<g id="uid_161">
<path d=" M 16.45 10.95 L 11 8.2 11 10.25 16.45 13 16.45 10.95 Z" fill="#186EA8" stroke="none"/>
</g>

<g id="uid_162">
<path d=" M 11.1 7 L 16.55 4.3 11.1 1.55 5.65 4.25 11.1 7 Z" fill="#186EA8" stroke="none"/>
</g>

<g id="uid_163">
<path d=" M 16.55 4.3 L 11.1 7 11.05 8.3 16.55 5.6 16.55 4.3 Z" fill="#98C64E" stroke="none"/>
</g>

<g id="uid_164">
<path d=" M 11.1 7 L 5.65 4.25 5.6 5.55 11.05 8.3 11.1 7 Z" fill="#186EA8" stroke="none"/>
</g>
</defs>

<g transform="matrix( 1, 0, 0, 1, 0,0) ">
<g transform="matrix( 1.0729522705078125, 0, 0, 1.0362396240234375, 12.25,13.55) ">
<g transform="matrix( 1, 0, 0, 1, -11.05,-13) ">
<use xlink:href="#uid_150"/>
</g>

<g transform="matrix( 1, 0, 0, 1, -11.05,-13) ">
<use xlink:href="#uid_151"/>
</g>

<g transform="matrix( 1, 0, 0, 1, -11.05,-13) ">
<use xlink:href="#uid_152"/>
</g>

<g transform="matrix( 1, 0, 0, 1, -11.05,-13) ">
<use xlink:href="#uid_153"/>
</g>

<g transform="matrix( 1, 0, 0, 1, -11.05,-13) ">
<use xlink:href="#uid_154"/>
</g>

<g transform="matrix( 1, 0, 0, 1, -11.05,-13) ">
<use xlink:href="#uid_155"/>
</g>

<g transform="matrix( 1, 0, 0, 1, -11.05,-13) ">
<use xlink:href="#uid_156"/>
</g>

<g transform="matrix( 1, 0, 0, 1, -11.05,-13) ">
<use xlink:href="#uid_157"/>
</g>

<g transform="matrix( 1, 0, 0, 1, -11.05,-13) ">
<use xlink:href="#uid_158"/>
</g>

<g transform="matrix( 1, 0, 0, 1, -11.05,-13) ">
<use xlink:href="#uid_159"/>
</g>

<g transform="matrix( 1, 0, 0, 1, -11.05,-13) ">
<use xlink:href="#uid_160"/>
</g>

<g transform="matrix( 1, 0, 0, 1, -11.05,-13) ">
<use xlink:href="#uid_161"/>
</g>

<g transform="matrix( 1, 0, 0, 1, -11.05,-13) ">
<use xlink:href="#uid_162"/>
</g>

<g transform="matrix( 1, 0, 0, 1, -11.05,-13) ">
<use xlink:href="#uid_163"/>
</g>

<g transform="matrix( 1, 0, 0, 1, -11.05,-13) ">
<use xlink:href="#uid_164"/>
</g>
</g>
</g>
</g></g><g transform="translate(20, 560.0)"><g transform="translate(-0.0, -0.0)">
<defs>
<g id="uid_165">
<path d=" M 16.7 5.45 L 22.15 2.75 16.7 0 11.25 2.7 16.7 5.45 Z" fill="#F9EF49" stroke="none"/>
</g>

<g id="uid_166">
<path d=" M 22.15 2.75 L 16.7 5.45 16.65 7.55 22.15 4.8 22.15 2.75 Z" fill="#98C64E" stroke="none"/>
</g>

<g id="uid_167">
<path d=" M 16.7 5.45 L 11.25 2.7 11.2 8.15 16.65 10.9 16.7 5.45 Z" fill="#D8D8D8" stroke="none"/>
</g>

<g id="uid_168">
<path d=" M 5.7 5.45 L 11.2 2.75 5.75 0 0.25 2.7 5.7 5.45 Z" fill="#F9EF49" stroke="none"/>
</g>

<g id="uid_169">
<path d=" M 11.2 2.75 L 5.7 5.45 5.65 10.9 11.15 8.2 11.2 2.75 Z" fill="#D8D8D8" stroke="none"/>
</g>

<g id="uid_170">
<path d=" M 5.7 5.45 L 0.25 2.7 0.2 4.8 5.65 7.55 5.7 5.45 Z" fill="#186EA8" stroke="none"/>
</g>

<g id="uid_171">
<path d=" M 5.45 10.95 L 10.95 8.25 5.5 5.5 0 8.2 5.45 10.95 Z" fill="#F9EF49" stroke="none"/>
</g>

<g id="uid_172">
<path d=" M 10.95 8.25 L 5.45 10.95 5.45 13 10.9 10.3 10.95 8.25 Z" fill="#98C64E" stroke="none"/>
</g>

<g id="uid_173">
<path d=" M 5.45 10.95 L 0 8.2 0 10.25 5.45 13 5.45 10.95 Z" fill="#186EA8" stroke="none"/>
</g>

<g id="uid_174">
<path d=" M 16.45 10.95 L 21.95 8.25 16.5 5.5 11 8.2 16.45 10.95 Z" fill="#F9EF49" stroke="none"/>
</g>

<g id="uid_175">
<path d=" M 21.95 8.25 L 16.45 10.95 16.45 13 21.9 10.3 21.95 8.25 Z" fill="#98C64E" stroke="none"/>
</g>

<g id="uid_176">
<path d=" M 16.45 10.95 L 11 8.2 11 10.25 16.45 13 16.45 10.95 Z" fill="#186EA8" stroke="none"/>
</g>

<g id="uid_177">
<path d=" M 11.1 7 L 16.55 4.3 11.1 1.55 5.65 4.25 11.1 7 Z" fill="#186EA8" stroke="none"/>
</g>

<g id="uid_178">
<path d=" M 16.55 4.3 L 11.1 7 11.05 8.3 16.55 5.6 16.55 4.3 Z" fill="#98C64E" stroke="none"/>
</g>

<g id="uid_179">
<path d=" M 11.1 7 L 5.65 4.25 5.6 5.55 11.05 8.3 11.1 7 Z" fill="#186EA8" stroke="none"/>
</g>
</defs>

<g transform="matrix( 1, 0, 0, 1, 0,0) ">
<g transform="matrix( 1.0707855224609375, 0, 0, 1.034149169921875, 12.25,13.45) ">
<g transform="matrix( 1, 0, 0, 1, -11.05,-13) ">
<use xlink:href="#uid_165"/>
</g>

<g transform="matrix( 1, 0, 0, 1, -11.05,-13) ">
<use xlink:href="#uid_166"/>
</g>

<g transform="matrix( 1, 0, 0, 1, -11.05,-13) ">
<use xlink:href="#uid_167"/>
</g>

<g transform="matrix( 1, 0, 0, 1, -11.05,-13) ">
<use xlink:href="#uid_168"/>
</g>

<g transform="matrix( 1, 0, 0, 1, -11.05,-13) ">
<use xlink:href="#uid_169"/>
</g>

<g transform="matrix( 1, 0, 0, 1, -11.05,-13) ">
<use xlink:href="#uid_170"/>
</g>

<g transform="matrix( 1, 0, 0, 1, -11.05,-13) ">
<use xlink:href="#uid_171"/>
</g>

<g transform="matrix( 1, 0, 0, 1, -11.05,-13) ">
<use xlink:href="#uid_172"/>
</g>

<g transform="matrix( 1, 0, 0, 1, -11.05,-13) ">
<use xlink:href="#uid_173"/>
</g>

<g transform="matrix( 1, 0, 0, 1, -11.05,-13) ">
<use xlink:href="#uid_174"/>
</g>

<g transform="matrix( 1, 0, 0, 1, -11.05,-13) ">
<use xlink:href="#uid_175"/>
</g>

<g transform="matrix( 1, 0, 0, 1, -11.05,-13) ">
<use xlink:href="#uid_176"/>
</g>

<g transform="matrix( 1, 0, 0, 1, -11.05,-13) ">
<use xlink:href="#uid_177"/>
</g>

<g transform="matrix( 1, 0, 0, 1, -11.05,-13) ">
<use xlink:href="#uid_178"/>
</g>

<g transform="matrix( 1, 0, 0, 1, -11.05,-13) ">
<use xlink:href="#uid_179"/>
</g>
</g>
</g>
</g></g><g transform="translate(20, 594.0)"><g transform="translate(-0.0, -0.0)">
<defs>
<g id="uid_180">
<path d=" M 16.7 5.45 L 22.15 2.75 16.7 0 11.25 2.7 16.7 5.45 Z" fill="#F9EF49" stroke="none"/>
</g>

<g id="uid_181">
<path d=" M 22.15 2.75 L 16.7 5.45 16.65 7.55 22.15 4.8 22.15 2.75 Z" fill="#98C64E" stroke="none"/>
</g>

<g id="uid_182">
<path d=" M 16.7 5.45 L 11.25 2.7 11.2 8.15 16.65 10.9 16.7 5.45 Z" fill="#D8D8D8" stroke="none"/>
</g>

<g id="uid_183">
<path d=" M 5.7 5.45 L 11.2 2.75 5.75 0 0.25 2.7 5.7 5.45 Z" fill="#F9EF49" stroke="none"/>
</g>

<g id="uid_184">
<path d=" M 11.2 2.75 L 5.7 5.45 5.65 10.9 11.15 8.2 11.2 2.75 Z" fill="#D8D8D8" stroke="none"/>
</g>

<g id="uid_185">
<path d=" M 5.7 5.45 L 0.25 2.7 0.2 4.8 5.65 7.55 5.7 5.45 Z" fill="#186EA8" stroke="none"/>
</g>

<g id="uid_186">
<path d=" M 5.45 10.95 L 10.95 8.25 5.5 5.5 0 8.2 5.45 10.95 Z" fill="#F9EF49" stroke="none"/>
</g>

<g id="uid_187">
<path d=" M 10.95 8.25 L 5.45 10.95 5.45 13 10.9 10.3 10.95 8.25 Z" fill="#98C64E" stroke="none"/>
</g>

<g id="uid_188">
<path d=" M 5.45 10.95 L 0 8.2 0 10.25 5.45 13 5.45 10.95 Z" fill="#186EA8" stroke="none"/>
</g>

<g id="uid_189">
<path d=" M 16.45 10.95 L 21.95 8.25 16.5 5.5 11 8.2 16.45 10.95 Z" fill="#F9EF49" stroke="none"/>
</g>

<g id="uid_190">
<path d=" M 21.95 8.25 L 16.45 10.95 16.45 13 21.9 10.3 21.95 8.25 Z" fill="#98C64E" stroke="none"/>
</g>

<g id="uid_191">
<path d=" M 16.45 10.95 L 11 8.2 11 10.25 16.45 13 16.45 10.95 Z" fill="#186EA8" stroke="none"/>
</g>

<g id="uid_192">
<path d=" M 11.1 7 L 16.55 4.3 11.1 1.55 5.65 4.25 11.1 7 Z" fill="#186EA8" stroke="none"/>
</g>

<g id="uid_193">
<path d=" M 16.55 4.3 L 11.1 7 11.05 8.3 16.55 5.6 16.55 4.3 Z" fill="#98C64E" stroke="none"/>
</g>

<g id="uid_194">
<path d=" M 11.1 7 L 5.65 4.25 5.6 5.55 11.05 8.3 11.1 7 Z" fill="#186EA8" stroke="none"/>
</g>
</defs>

<g transform="matrix( 1, 0, 0, 1, 0,0) ">
<g transform="matrix( 1.0707550048828125, 0, 0, 1.03411865234375, 12.2,13.6) ">
<g transform="matrix( 1, 0, 0, 1, -11.05,-13) ">
<use xlink:href="#uid_180"/>
</g>

<g transform="matrix( 1, 0, 0, 1, -11.05,-13) ">
<use xlink:href="#uid_181"/>
</g>

<g transform="matrix( 1, 0, 0, 1, -11.05,-13) ">
<use xlink:href="#uid_182"/>
</g>

<g transform="matrix( 1, 0, 0, 1, -11.05,-13) ">
<use xlink:href="#uid_183"/>
</g>

<g transform="matrix( 1, 0, 0, 1, -11.05,-13) ">
<use xlink:href="#uid_184"/>
</g>

<g transform="matrix( 1, 0, 0, 1, -11.05,-13) ">
<use xlink:href="#uid_185"/>
</g>

<g transform="matrix( 1, 0, 0, 1, -11.05,-13) ">
<use xlink:href="#uid_186"/>
</g>

<g transform="matrix( 1, 0, 0, 1, -11.05,-13) ">
<use xlink:href="#uid_187"/>
</g>

<g transform="matrix( 1, 0, 0, 1, -11.05,-13) ">
<use xlink:href="#uid_188"/>
</g>

<g transform="matrix( 1, 0, 0, 1, -11.05,-13) ">
<use xlink:href="#uid_189"/>
</g>

<g transform="matrix( 1, 0, 0, 1, -11.05,-13) ">
<use xlink:href="#uid_190"/>
</g>

<g transform="matrix( 1, 0, 0, 1, -11.05,-13) ">
<use xlink:href="#uid_191"/>
</g>

<g transform="matrix( 1, 0, 0, 1, -11.05,-13) ">
<use xlink:href="#uid_192"/>
</g>

<g transform="matrix( 1, 0, 0, 1, -11.05,-13) ">
<use xlink:href="#uid_193"/>
</g>

<g transform="matrix( 1, 0, 0, 1, -11.05,-13) ">
<use xlink:href="#uid_194"/>
</g>
</g>
</g>
</g></g><g transform="translate(20, 628.0)"><g transform="translate(-0.0, -0.0)">
<defs>
<g id="uid_195">
<path d=" M 16.7 5.45 L 22.15 2.75 16.7 0 11.25 2.7 16.7 5.45 Z" fill="#F9EF49" stroke="none"/>
</g>

<g id="uid_196">
<path d=" M 22.15 2.75 L 16.7 5.45 16.65 7.55 22.15 4.8 22.15 2.75 Z" fill="#98C64E" stroke="none"/>
</g>

<g id="uid_197">
<path d=" M 16.7 5.45 L 11.25 2.7 11.2 8.15 16.65 10.9 16.7 5.45 Z" fill="#D8D8D8" stroke="none"/>
</g>

<g id="uid_198">
<path d=" M 5.7 5.45 L 11.2 2.75 5.75 0 0.25 2.7 5.7 5.45 Z" fill="#F9EF49" stroke="none"/>
</g>

<g id="uid_199">
<path d=" M 11.2 2.75 L 5.7 5.45 5.65 10.9 11.15 8.2 11.2 2.75 Z" fill="#D8D8D8" stroke="none"/>
</g>

<g id="uid_200">
<path d=" M 5.7 5.45 L 0.25 2.7 0.2 4.8 5.65 7.55 5.7 5.45 Z" fill="#186EA8" stroke="none"/>
</g>

<g id="uid_201">
<path d=" M 5.45 10.95 L 10.95 8.25 5.5 5.5 0 8.2 5.45 10.95 Z" fill="#F9EF49" stroke="none"/>
</g>

<g id="uid_202">
<path d=" M 10.95 8.25 L 5.45 10.95 5.45 13 10.9 10.3 10.95 8.25 Z" fill="#98C64E" stroke="none"/>
</g>

<g id="uid_203">
<path d=" M 5.45 10.95 L 0 8.2 0 10.25 5.45 13 5.45 10.95 Z" fill="#186EA8" stroke="none"/>
</g>

<g id="uid_204">
<path d=" M 16.45 10.95 L 21.95 8.25 16.5 5.5 11 8.2 16.45 10.95 Z" fill="#F9EF49" stroke="none"/>
</g>

<g id="uid_205">
<path d=" M 21.95 8.25 L 16.45 10.95 16.45 13 21.9 10.3 21.95 8.25 Z" fill="#98C64E" stroke="none"/>
</g>

<g id="uid_206">
<path d=" M 16.45 10.95 L 11 8.2 11 10.25 16.45 13 16.45 10.95 Z" fill="#186EA8" stroke="none"/>
</g>

<g id="uid_207">
<path d=" M 11.1 7 L 16.55 4.3 11.1 1.55 5.65 4.25 11.1 7 Z" fill="#186EA8" stroke="none"/>
</g>

<g id="uid_208">
<path d=" M 16.55 4.3 L 11.1 7 11.05 8.3 16.55 5.6 16.55 4.3 Z" fill="#98C64E" stroke="none"/>
</g>

<g id="uid_209">
<path d=" M 11.1 7 L 5.65 4.25 5.6 5.55 11.05 8.3 11.1 7 Z" fill="#186EA8" stroke="none"/>
</g>
</defs>

<g transform="matrix( 1, 0, 0, 1, 0,0) ">
<g transform="matrix( 1.0707550048828125, 0, 0, 1.03411865234375, 12.2,13.75) ">
<g transform="matrix( 1, 0, 0, 1, -11.05,-13) ">
<use xlink:href="#uid_195"/>
</g>

<g transform="matrix( 1, 0, 0, 1, -11.05,-13) ">
<use xlink:href="#uid_196"/>
</g>

<g transform="matrix( 1, 0, 0, 1, -11.05,-13) ">
<use xlink:href="#uid_197"/>
</g>

<g transform="matrix( 1, 0, 0, 1, -11.05,-13) ">
<use xlink:href="#uid_198"/>
</g>

<g transform="matrix( 1, 0, 0, 1, -11.05,-13) ">
<use xlink:href="#uid_199"/>
</g>

<g transform="matrix( 1, 0, 0, 1, -11.05,-13) ">
<use xlink:href="#uid_200"/>
</g>

<g transform="matrix( 1, 0, 0, 1, -11.05,-13) ">
<use xlink:href="#uid_201"/>
</g>

<g transform="matrix( 1, 0, 0, 1, -11.05,-13) ">
<use xlink:href="#uid_202"/>
</g>

<g transform="matrix( 1, 0, 0, 1, -11.05,-13) ">
<use xlink:href="#uid_203"/>
</g>

<g transform="matrix( 1, 0, 0, 1, -11.05,-13) ">
<use xlink:href="#uid_204"/>
</g>

<g transform="matrix( 1, 0, 0, 1, -11.05,-13) ">
<use xlink:href="#uid_205"/>
</g>

<g transform="matrix( 1, 0, 0, 1, -11.05,-13) ">
<use xlink:href="#uid_206"/>
</g>

<g transform="matrix( 1, 0, 0, 1, -11.05,-13) ">
<use xlink:href="#uid_207"/>
</g>

<g transform="matrix( 1, 0, 0, 1, -11.05,-13) ">
<use xlink:href="#uid_208"/>
</g>

<g transform="matrix( 1, 0, 0, 1, -11.05,-13) ">
<use xlink:href="#uid_209"/>
</g>
</g>
</g>
</g></g><g transform="translate(20, 662.0)"><g transform="translate(-0.0, -0.0)">
<defs>
<g id="uid_210">
<path d=" M 16.7 5.45 L 22.15 2.75 16.7 0 11.25 2.7 16.7 5.45 Z" fill="#F9EF49" stroke="none"/>
</g>

<g id="uid_211">
<path d=" M 22.15 2.75 L 16.7 5.45 16.65 7.55 22.15 4.8 22.15 2.75 Z" fill="#98C64E" stroke="none"/>
</g>

<g id="uid_212">
<path d=" M 16.7 5.45 L 11.25 2.7 11.2 8.15 16.65 10.9 16.7 5.45 Z" fill="#D8D8D8" stroke="none"/>
</g>

<g id="uid_213">
<path d=" M 5.7 5.45 L 11.2 2.75 5.75 0 0.25 2.7 5.7 5.45 Z" fill="#F9EF49" stroke="none"/>
</g>

<g id="uid_214">
<path d=" M 11.2 2.75 L 5.7 5.45 5.65 10.9 11.15 8.2 11.2 2.75 Z" fill="#D8D8D8" stroke="none"/>
</g>

<g id="uid_215">
<path d=" M 5.7 5.45 L 0.25 2.7 0.2 4.8 5.65 7.55 5.7 5.45 Z" fill="#186EA8" stroke="none"/>
</g>

<g id="uid_216">
<path d=" M 5.45 10.95 L 10.95 8.25 5.5 5.5 0 8.2 5.45 10.95 Z" fill="#F9EF49" stroke="none"/>
</g>

<g id="uid_217">
<path d=" M 10.95 8.25 L 5.45 10.95 5.45 13 10.9 10.3 10.95 8.25 Z" fill="#98C64E" stroke="none"/>
</g>

<g id="uid_218">
<path d=" M 5.45 10.95 L 0 8.2 0 10.25 5.45 13 5.45 10.95 Z" fill="#186EA8" stroke="none"/>
</g>

<g id="uid_219">
<path d=" M 16.45 10.95 L 21.95 8.25 16.5 5.5 11 8.2 16.45 10.95 Z" fill="#F9EF49" stroke="none"/>
</g>

<g id="uid_220">
<path d=" M 21.95 8.25 L 16.45 10.95 16.45 13 21.9 10.3 21.95 8.25 Z" fill="#98C64E" stroke="none"/>
</g>

<g id="uid_221">
<path d=" M 16.45 10.95 L 11 8.2 11 10.25 16.45 13 16.45 10.95 Z" fill="#186EA8" stroke="none"/>
</g>

<g id="uid_222">
<path d=" M 11.1 7 L 16.55 4.3 11.1 1.55 5.65 4.25 11.1 7 Z" fill="#186EA8" stroke="none"/>
</g>

<g id="uid_223">
<path d=" M 16.55 4.3 L 11.1 7 11.05 8.3 16.55 5.6 16.55 4.3 Z" fill="#98C64E" stroke="none"/>
</g>

<g id="uid_224">
<path d=" M 11.1 7 L 5.65 4.25 5.6 5.55 11.05 8.3 11.1 7 Z" fill="#186EA8" stroke="none"/>
</g>
</defs>

<g transform="matrix( 1, 0, 0, 1, 0,0) ">
<g transform="matrix( 1.0707550048828125, 0, 0, 1.03411865234375, 12.2,13.95) ">
<g transform="matrix( 1, 0, 0, 1, -11.05,-13) ">
<use xlink:href="#uid_210"/>
</g>

<g transform="matrix( 1, 0, 0, 1, -11.05,-13) ">
<use xlink:href="#uid_211"/>
</g>

<g transform="matrix( 1, 0, 0, 1, -11.05,-13) ">
<use xlink:href="#uid_212"/>
</g>

<g transform="matrix( 1, 0, 0, 1, -11.05,-13) ">
<use xlink:href="#uid_213"/>
</g>

<g transform="matrix( 1, 0, 0, 1, -11.05,-13) ">
<use xlink:href="#uid_214"/>
</g>

<g transform="matrix( 1, 0, 0, 1, -11.05,-13) ">
<use xlink:href="#uid_215"/>
</g>

<g transform="matrix( 1, 0, 0, 1, -11.05,-13) ">
<use xlink:href="#uid_216"/>
</g>

<g transform="matrix( 1, 0, 0, 1, -11.05,-13) ">
<use xlink:href="#uid_217"/>
</g>

<g transform="matrix( 1, 0, 0, 1, -11.05,-13) ">
<use xlink:href="#uid_218"/>
</g>

<g transform="matrix( 1, 0, 0, 1, -11.05,-13) ">
<use xlink:href="#uid_219"/>
</g>

<g transform="matrix( 1, 0, 0, 1, -11.05,-13) ">
<use xlink:href="#uid_220"/>
</g>

<g transform="matrix( 1, 0, 0, 1, -11.05,-13) ">
<use xlink:href="#uid_221"/>
</g>

<g transform="matrix( 1, 0, 0, 1, -11.05,-13) ">
<use xlink:href="#uid_222"/>
</g>

<g transform="matrix( 1, 0, 0, 1, -11.05,-13) ">
<use xlink:href="#uid_223"/>
</g>

<g transform="matrix( 1, 0, 0, 1, -11.05,-13) ">
<use xlink:href="#uid_224"/>
</g>
</g>
</g>
</g></g><g transform="translate(20, 696.0)"><g transform="translate(-0.0, -0.0)">
<defs>
<g id="uid_225">
<path d=" M 16.7 5.45 L 22.15 2.75 16.7 0 11.25 2.7 16.7 5.45 Z" fill="#F9EF49" stroke="none"/>
</g>

<g id="uid_226">
<path d=" M 22.15 2.75 L 16.7 5.45 16.65 7.55 22.15 4.8 22.15 2.75 Z" fill="#98C64E" stroke="none"/>
</g>

<g id="uid_227">
<path d=" M 16.7 5.45 L 11.25 2.7 11.2 8.15 16.65 10.9 16.7 5.45 Z" fill="#D8D8D8" stroke="none"/>
</g>

<g id="uid_228">
<path d=" M 5.7 5.45 L 11.2 2.75 5.75 0 0.25 2.7 5.7 5.45 Z" fill="#F9EF49" stroke="none"/>
</g>

<g id="uid_229">
<path d=" M 11.2 2.75 L 5.7 5.45 5.65 10.9 11.15 8.2 11.2 2.75 Z" fill="#D8D8D8" stroke="none"/>
</g>

<g id="uid_230">
<path d=" M 5.7 5.45 L 0.25 2.7 0.2 4.8 5.65 7.55 5.7 5.45 Z" fill="#186EA8" stroke="none"/>
</g>

<g id="uid_231">
<path d=" M 5.45 10.95 L 10.95 8.25 5.5 5.5 0 8.2 5.45 10.95 Z" fill="#F9EF49" stroke="none"/>
</g>

<g id="uid_232">
<path d=" M 10.95 8.25 L 5.45 10.95 5.45 13 10.9 10.3 10.95 8.25 Z" fill="#98C64E" stroke="none"/>
</g>

<g id="uid_233">
<path d=" M 5.45 10.95 L 0 8.2 0 10.25 5.45 13 5.45 10.95 Z" fill="#186EA8" stroke="none"/>
</g>

<g id="uid_234">
<path d=" M 16.45 10.95 L 21.95 8.25 16.5 5.5 11 8.2 16.45 10.95 Z" fill="#F9EF49" stroke="none"/>
</g>

<g id="uid_235">
<path d=" M 21.95 8.25 L 16.45 10.95 16.45 13 21.9 10.3 21.95 8.25 Z" fill="#98C64E" stroke="none"/>
</g>

<g id="uid_236">
<path d=" M 16.45 10.95 L 11 8.2 11 10.25 16.45 13 16.45 10.95 Z" fill="#186EA8" stroke="none"/>
</g>

<g id="uid_237">
<path d=" M 11.1 7 L 16.55 4.3 11.1 1.55 5.65 4.25 11.1 7 Z" fill="#186EA8" stroke="none"/>
</g>

<g id="uid_238">
<path d=" M 16.55 4.3 L 11.1 7 11.05 8.3 16.55 5.6 16.55 4.3 Z" fill="#98C64E" stroke="none"/>
</g>

<g id="uid_239">
<path d=" M 11.1 7 L 5.65 4.25 5.6 5.55 11.05 8.3 11.1 7 Z" fill="#186EA8" stroke="none"/>
</g>
</defs>

<g transform="matrix( 1, 0, 0, 1, 0,0) ">
<g transform="matrix( 1.0707550048828125, 0, 0, 1.03411865234375, 12.2,14.1) ">
<g transform="matrix( 1, 0, 0, 1, -11.05,-13) ">
<use xlink:href="#uid_225"/>
</g>

<g transform="matrix( 1, 0, 0, 1, -11.05,-13) ">
<use xlink:href="#uid_226"/>
</g>

<g transform="matrix( 1, 0, 0, 1, -11.05,-13) ">
<use xlink:href="#uid_227"/>
</g>

<g transform="matrix( 1, 0, 0, 1, -11.05,-13) ">
<use xlink:href="#uid_228"/>
</g>

<g transform="matrix( 1, 0, 0, 1, -11.05,-13) ">
<use xlink:href="#uid_229"/>
</g>

<g transform="matrix( 1, 0, 0, 1, -11.05,-13) ">
<use xlink:href="#uid_230"/>
</g>

<g transform="matrix( 1, 0, 0, 1, -11.05,-13) ">
<use xlink:href="#uid_231"/>
</g>

<g transform="matrix( 1, 0, 0, 1, -11.05,-13) ">
<use xlink:href="#uid_232"/>
</g>

<g transform="matrix( 1, 0, 0, 1, -11.05,-13) ">
<use xlink:href="#uid_233"/>
</g>

<g transform="matrix( 1, 0, 0, 1, -11.05,-13) ">
<use xlink:href="#uid_234"/>
</g>

<g transform="matrix( 1, 0, 0, 1, -11.05,-13) ">
<use xlink:href="#uid_235"/>
</g>

<g transform="matrix( 1, 0, 0, 1, -11.05,-13) ">
<use xlink:href="#uid_236"/>
</g>

<g transform="matrix( 1, 0, 0, 1, -11.05,-13) ">
<use xlink:href="#uid_237"/>
</g>

<g transform="matrix( 1, 0, 0, 1, -11.05,-13) ">
<use xlink:href="#uid_238"/>
</g>

<g transform="matrix( 1, 0, 0, 1, -11.05,-13) ">
<use xlink:href="#uid_239"/>
</g>
</g>
</g>
</g></g><g transform="translate(20, 730.0)"><g transform="translate(-0.0, -0.0)">
<defs>
<g id="uid_240">
<path d=" M 16.7 5.45 L 22.15 2.75 16.7 0 11.25 2.7 16.7 5.45 Z" fill="#F9EF49" stroke="none"/>
</g>

<g id="uid_241">
<path d=" M 22.15 2.75 L 16.7 5.45 16.65 7.55 22.15 4.8 22.15 2.75 Z" fill="#98C64E" stroke="none"/>
</g>

<g id="uid_242">
<path d=" M 16.7 5.45 L 11.25 2.7 11.2 8.15 16.65 10.9 16.7 5.45 Z" fill="#D8D8D8" stroke="none"/>
</g>

<g id="uid_243">
<path d=" M 5.7 5.45 L 11.2 2.75 5.75 0 0.25 2.7 5.7 5.45 Z" fill="#F9EF49" stroke="none"/>
</g>

<g id="uid_244">
<path d=" M 11.2 2.75 L 5.7 5.45 5.65 10.9 11.15 8.2 11.2 2.75 Z" fill="#D8D8D8" stroke="none"/>
</g>

<g id="uid_245">
<path d=" M 5.7 5.45 L 0.25 2.7 0.2 4.8 5.65 7.55 5.7 5.45 Z" fill="#186EA8" stroke="none"/>
</g>

<g id="uid_246">
<path d=" M 5.45 10.95 L 10.95 8.25 5.5 5.5 0 8.2 5.45 10.95 Z" fill="#F9EF49" stroke="none"/>
</g>

<g id="uid_247">
<path d=" M 10.95 8.25 L 5.45 10.95 5.45 13 10.9 10.3 10.95 8.25 Z" fill="#98C64E" stroke="none"/>
</g>

<g id="uid_248">
<path d=" M 5.45 10.95 L 0 8.2 0 10.25 5.45 13 5.45 10.95 Z" fill="#186EA8" stroke="none"/>
</g>

<g id="uid_249">
<path d=" M 16.45 10.95 L 21.95 8.25 16.5 5.5 11 8.2 16.45 10.95 Z" fill="#F9EF49" stroke="none"/>
</g>

<g id="uid_250">
<path d=" M 21.95 8.25 L 16.45 10.95 16.45 13 21.9 10.3 21.95 8.25 Z" fill="#98C64E" stroke="none"/>
</g>

<g id="uid_251">
<path d=" M 16.45 10.95 L 11 8.2 11 10.25 16.45 13 16.45 10.95 Z" fill="#186EA8" stroke="none"/>
</g>

<g id="uid_252">
<path d=" M 11.1 7 L 16.55 4.3 11.1 1.55 5.65 4.25 11.1 7 Z" fill="#186EA8" stroke="none"/>
</g>

<g id="uid_253">
<path d=" M 16.55 4.3 L 11.1 7 11.05 8.3 16.55 5.6 16.55 4.3 Z" fill="#98C64E" stroke="none"/>
</g>

<g id="uid_254">
<path d=" M 11.1 7 L 5.65 4.25 5.6 5.55 11.05 8.3 11.1 7 Z" fill="#186EA8" stroke="none"/>
</g>
</defs>

<g transform="matrix( 1, 0, 0, 1, 0,0) ">
<g transform="matrix( 1.0707855224609375, 0, 0, 1.034149169921875, 12.25,14.35) ">
<g transform="matrix( 1, 0, 0, 1, -11.05,-13) ">
<use xlink:href="#uid_240"/>
</g>

<g transform="matrix( 1, 0, 0, 1, -11.05,-13) ">
<use xlink:href="#uid_241"/>
</g>

<g transform="matrix( 1, 0, 0, 1, -11.05,-13) ">
<use xlink:href="#uid_242"/>
</g>

<g transform="matrix( 1, 0, 0, 1, -11.05,-13) ">
<use xlink:href="#uid_243"/>
</g>

<g transform="matrix( 1, 0, 0, 1, -11.05,-13) ">
<use xlink:href="#uid_244"/>
</g>

<g transform="matrix( 1, 0, 0, 1, -11.05,-13) ">
<use xlink:href="#uid_245"/>
</g>

<g transform="matrix( 1, 0, 0, 1, -11.05,-13) ">
<use xlink:href="#uid_246"/>
</g>

<g transform="matrix( 1, 0, 0, 1, -11.05,-13) ">
<use xlink:href="#uid_247"/>
</g>

<g transform="matrix( 1, 0, 0, 1, -11.05,-13) ">
<use xlink:href="#uid_248"/>
</g>

<g transform="matrix( 1, 0, 0, 1, -11.05,-13) ">
<use xlink:href="#uid_249"/>
</g>

<g transform="matrix( 1, 0, 0, 1, -11.05,-13) ">
<use xlink:href="#uid_250"/>
</g>

<g transform="matrix( 1, 0, 0, 1, -11.05,-13) ">
<use xlink:href="#uid_251"/>
</g>

<g transform="matrix( 1, 0, 0, 1, -11.05,-13) ">
<use xlink:href="#uid_252"/>
</g>

<g transform="matrix( 1, 0, 0, 1, -11.05,-13) ">
<use xlink:href="#uid_253"/>
</g>

<g transform="matrix( 1, 0, 0, 1, -11.05,-13) ">
<use xlink:href="#uid_254"/>
</g>
</g>
</g>
</g></g></svg>