<?xml version="1.0" ?><svg height="10933.0px" viewBox="0 0 193.0 10933.0" width="193.0px" xmlns="http://www.w3.org/2000/svg" xmlns:xlink="http://www.w3.org/1999/xlink">
<g transform="translate(20, 3386.0)"><g transform="translate(-0.0, -0.0)"><defs><g id="uid_482" overflow="visible"><g id="uid_483" transform="matrix(1.098 0 0 1.098 0 0)"><path d="M-2.25 -1.35L-2.35 1.3 .1 2.5 .15 -.15 -2.25 -1.35Z" fill="#1A76B5" stroke="none"/></g><g id="uid_484" transform="matrix(1.098 0 0 1.098 0 0)"><path d="M2.4 -1.25L.15 -.15 .1 2.5 2.3 1.4 2.4 -1.25Z" fill="#23A0F3" stroke="none"/></g><g id="uid_485" transform="matrix(1.098 0 0 1.098 0 0)"><path d="M.15 -.15L2.4 -1.25 0 -2.45 -2.2 -1.35 .15 -.15Z" fill="#23A0F3" stroke="none"/></g></g></defs><g id="uid_486" overflow="visible"><use transform="translate(40.35 31.75)" xlink:href="#uid_482"/><use transform="matrix(1.383 0 0 1.383 23.45 5.9)" xlink:href="#uid_482"/><path d="M40.35,43.5 L38,42.25 37.95,76.3 40.25,77.45 40.35,43.5Z" fill="#1A76B5" stroke="none"/><path d="M40.3,43.55 L40.2,77.5 Q41.85,76.9 42.4,76.4 L42.5,42.45 40.3,43.55Z" fill="#23A0F3" stroke="none"/><path d="M38,42.3 L40.35,43.55 42.45,42.45 40.15,41.25 38,42.3Z" fill="#23A0F3" stroke="none"/><use transform="translate(40.35 39.75)" xlink:href="#uid_482"/><g id="uid_487"><g id="uid_488"><path d="M18.711,13.224 L18.538,20.416 25.123,23.709 25.297,16.517 18.711,13.224Z" fill="#1A76B5" stroke="none" stroke-width="1.733"/></g><g id="uid_489"><path d="M31.449,13.484 L25.297,16.517 25.123,23.709 31.102,20.676 31.449,13.484Z" fill="#23A0F3" stroke="none" stroke-width="1.733"/></g><g id="uid_490"><path d="M25.297,16.517 L31.449,13.484 24.863,10.191 18.798,13.224 25.297,16.517Z" fill="#23A0F3" stroke="none" stroke-width="1.733"/></g></g><use transform="matrix(1.493 0 0 1.493 33.25 15.75)" xlink:href="#uid_482"/><use transform="matrix(1.512 0 0 1.512 60.2 17.85)" xlink:href="#uid_482"/><use transform="translate(40.25 39.75)" xlink:href="#uid_482"/><use transform="matrix(1.445 0 0 1.445 43.85 9.1)" xlink:href="#uid_482"/></g></g></g><g transform="translate(20, 3486.0)"><g transform="translate(-0.0, -0.0)"><defs><g id="uid_492" overflow="visible"><g id="uid_493" transform="matrix(1.098 0 0 1.098 0 0)"><path d="M-2.25 -1.35L-2.35 1.3 .1 2.5 .15 -.15 -2.25 -1.35Z" fill="#1A76B5" stroke="none"/></g><g id="uid_494" transform="matrix(1.098 0 0 1.098 0 0)"><path d="M2.4 -1.25L.15 -.15 .1 2.5 2.3 1.4 2.4 -1.25Z" fill="#23A0F3" stroke="none"/></g><g id="uid_495" transform="matrix(1.098 0 0 1.098 0 0)"><path d="M.15 -.15L2.4 -1.25 0 -2.45 -2.2 -1.35 .15 -.15Z" fill="#23A0F3" stroke="none"/></g></g></defs><g id="uid_496" overflow="visible"><use transform="matrix(1.062 0 0 1.062 40 24.8)" xlink:href="#uid_492"/><use transform="matrix(1.389 0 0 1.389 22.5 6.25)" xlink:href="#uid_492"/><path d="M40.35,43.7 L38,42.45 37.95,76.35 40.25,77.5 40.35,43.7Z" fill="#1A76B5" stroke="none"/><path d="M40.3,43.65 L40.2,77.45 Q41.85,76.85 42.4,76.35 L42.5,42.55 40.3,43.65Z" fill="#23A0F3" stroke="none"/><path d="M40.15,41.4 L38,42.45 40.35,43.7 42.45,42.6 40.15,41.4Z" fill="#23A0F3" stroke="none"/><use transform="translate(40.3 34.45)" xlink:href="#uid_492"/><g id="uid_497"><g id="uid_498"><path d="M17.111,14.374 L16.938,21.566 23.523,24.859 23.697,17.667 17.111,14.374Z" fill="#1A76B5" stroke="none" stroke-width="1.733"/></g><g id="uid_499"><path d="M29.849,14.634 L23.697,17.667 23.523,24.859 29.502,21.826 29.849,14.634Z" fill="#23A0F3" stroke="none" stroke-width="1.733"/></g><g id="uid_500"><path d="M23.697,17.667 L29.849,14.634 23.263,11.341 17.198,14.374 23.697,17.667Z" fill="#23A0F3" stroke="none" stroke-width="1.733"/></g></g><use transform="matrix(1.527 0 0 1.527 32.2 15.55)" xlink:href="#uid_492"/><use transform="matrix(1.512 0 0 1.512 61.2 20.15)" xlink:href="#uid_492"/><use transform="translate(40.2 32.5)" xlink:href="#uid_492"/><use transform="matrix(1.466 0 0 1.466 44.9 8.3)" xlink:href="#uid_492"/></g></g></g><g transform="translate(20, 3586.0)"><g transform="translate(-0.0, -0.0)"><defs><g id="uid_502" overflow="visible"><g id="uid_503" transform="matrix(1.098 0 0 1.098 0 0)"><path d="M-2.25 -1.35L-2.35 1.3 .1 2.5 .15 -.15 -2.25 -1.35Z" fill="#1A76B5" stroke="none"/></g><g id="uid_504" transform="matrix(1.098 0 0 1.098 0 0)"><path d="M2.4 -1.25L.15 -.15 .1 2.5 2.3 1.4 2.4 -1.25Z" fill="#23A0F3" stroke="none"/></g><g id="uid_505" transform="matrix(1.098 0 0 1.098 0 0)"><path d="M.15 -.15L2.4 -1.25 0 -2.45 -2.2 -1.35 .15 -.15Z" fill="#23A0F3" stroke="none"/></g></g></defs><g id="uid_506" overflow="visible"><use transform="matrix(1.348 0 0 1.348 28.65 4.75)" xlink:href="#uid_502"/><use opacity="0" transform="matrix(1.389 0 0 1.389 17.55 20.75)" xlink:href="#uid_502"/><path d="M40.35,42.3 L38,41.05 37.95,76.3 40.25,77.45 40.35,42.3Z" fill="#1A76B5" stroke="none"/><path d="M40.3,42.35 L40.2,77.5 Q41.85,76.9 42.4,76.4 L42.5,41.25 40.3,42.35Z" fill="#23A0F3" stroke="none"/><path d="M40.15,40.1 L38,41.15 40.35,42.4 42.45,41.3 40.15,40.1Z" fill="#23A0F3" stroke="none"/><g id="uid_507"><g id="uid_508"><path d="M22.461,11.824 L22.288,19.016 28.873,22.309 29.047,15.117 22.461,11.824Z" fill="#1A76B5" stroke="none" stroke-width="1.733"/></g><g id="uid_509"><path d="M35.199,12.084 L29.047,15.117 28.873,22.309 34.852,19.276 35.199,12.084Z" fill="#23A0F3" stroke="none" stroke-width="1.733"/></g><g id="uid_510"><path d="M29.047,15.117 L35.199,12.084 28.613,8.791 22.548,11.824 29.047,15.117Z" fill="#23A0F3" stroke="none" stroke-width="1.733"/></g></g><use transform="matrix(1.181 0 0 1.181 40.3 28.8)" xlink:href="#uid_502"/><use transform="translate(40.35 6.3)" xlink:href="#uid_502"/><use transform="translate(40.35 33.3)" xlink:href="#uid_502"/><use transform="matrix(1.469 0 0 1.469 51.15 13.6)" xlink:href="#uid_502"/><use transform="translate(44.3 14.45)" xlink:href="#uid_502"/><use transform="translate(40.2 39.2)" xlink:href="#uid_502"/><use transform="matrix(1.144 0 0 1.144 52.9 6.95)" xlink:href="#uid_502"/><use transform="matrix(1.423 0 0 1.423 43.05 10.15)" xlink:href="#uid_502"/><use transform="matrix(1.53 0 0 1.53 55.3 6.25)" xlink:href="#uid_502"/></g></g></g><g transform="translate(20, 3686.0)"><g transform="translate(-0.0, -0.0)"><defs><g id="uid_512" overflow="visible"><g id="uid_513" transform="matrix(1.098 0 0 1.098 0 0)"><path d="M-2.25 -1.35L-2.35 1.3 .1 2.5 .15 -.15 -2.25 -1.35Z" fill="#1A76B5" stroke="none"/></g><g id="uid_514" transform="matrix(1.098 0 0 1.098 0 0)"><path d="M2.4 -1.25L.15 -.15 .1 2.5 2.3 1.4 2.4 -1.25Z" fill="#23A0F3" stroke="none"/></g><g id="uid_515" transform="matrix(1.098 0 0 1.098 0 0)"><path d="M.15 -.15L2.4 -1.25 0 -2.45 -2.2 -1.35 .15 -.15Z" fill="#23A0F3" stroke="none"/></g></g></defs><g id="uid_516" overflow="visible"><use transform="matrix(1.355 0 0 1.355 27.6 4.95)" xlink:href="#uid_512"/><path d="M40.35,43.25 L38,42 37.95,76.35 40.25,77.5 40.35,43.25Z" fill="#1A76B5" stroke="none"/><path d="M40.3,43.2 L40.2,77.45 Q41.85,76.85 42.4,76.35 L42.5,42.1 40.3,43.2Z" fill="#23A0F3" stroke="none"/><path d="M40.15,41 L38,42.05 40.35,43.3 42.45,42.2 40.15,41Z" fill="#23A0F3" stroke="none"/><g id="uid_517"><g id="uid_518"><path d="M20.511,12.324 L20.338,19.516 26.923,22.809 27.097,15.617 20.511,12.324Z" fill="#1A76B5" stroke="none" stroke-width="1.733"/></g><g id="uid_519"><path d="M33.249,12.584 L27.097,15.617 26.923,22.809 32.902,19.776 33.249,12.584Z" fill="#23A0F3" stroke="none" stroke-width="1.733"/></g><g id="uid_520"><path d="M27.097,15.617 L33.249,12.584 26.663,9.291 20.598,12.324 27.097,15.617Z" fill="#23A0F3" stroke="none" stroke-width="1.733"/></g></g><use transform="matrix(1.242 0 0 1.242 40.3 25.2)" xlink:href="#uid_512"/><use transform="translate(40.35 5.65)" xlink:href="#uid_512"/><use transform="translate(40.35 27.8)" xlink:href="#uid_512"/><use transform="matrix(1.483 0 0 1.483 53.1 13.8)" xlink:href="#uid_512"/><use opacity=".97" transform="translate(45.55 13.9)" xlink:href="#uid_512"/><use transform="translate(40.2 36.15)" xlink:href="#uid_512"/><use transform="matrix(1.144 0 0 1.144 53.95 7.1)" xlink:href="#uid_512"/><use transform="matrix(1.445 0 0 1.445 43.9 9.15)" xlink:href="#uid_512"/><use opacity=".8" transform="matrix(1.514 0 0 1.514 56.05 6.55)" xlink:href="#uid_512"/></g></g></g><g transform="translate(20, 3786.0)"><g transform="translate(-0.0, -0.0)"><defs><g id="uid_522" overflow="visible"><g id="uid_523" transform="matrix(1.098 0 0 1.098 0 0)"><path d="M-2.25 -1.35L-2.35 1.3 .1 2.5 .15 -.15 -2.25 -1.35Z" fill="#1A76B5" stroke="none"/></g><g id="uid_524" transform="matrix(1.098 0 0 1.098 0 0)"><path d="M2.4 -1.25L.15 -.15 .1 2.5 2.3 1.4 2.4 -1.25Z" fill="#23A0F3" stroke="none"/></g><g id="uid_525" transform="matrix(1.098 0 0 1.098 0 0)"><path d="M.15 -.15L2.4 -1.25 0 -2.45 -2.2 -1.35 .15 -.15Z" fill="#23A0F3" stroke="none"/></g></g></defs><g id="uid_526" overflow="visible"><use transform="matrix(1.362 0 0 1.362 26.5 5)" xlink:href="#uid_522"/><path d="M40.35,42.85 L38,41.6 37.95,76.3 40.25,77.45 40.35,42.85Z" fill="#1A76B5" stroke="none"/><path d="M40.3,42.9 L40.2,77.5 Q41.85,76.9 42.4,76.4 L42.5,41.8 40.3,42.9Z" fill="#23A0F3" stroke="none"/><path d="M40.15,40.65 L38,41.7 40.35,42.95 42.45,41.85 40.15,40.65Z" fill="#23A0F3" stroke="none"/><g id="uid_527"><g id="uid_528"><path d="M18.711,13.224 L18.538,20.416 25.123,23.709 25.297,16.517 18.711,13.224Z" fill="#1A76B5" stroke="none" stroke-width="1.733"/></g><g id="uid_529"><path d="M31.449,13.484 L25.297,16.517 25.123,23.709 31.102,20.676 31.449,13.484Z" fill="#23A0F3" stroke="none" stroke-width="1.733"/></g><g id="uid_530"><path d="M25.297,16.517 L31.449,13.484 24.863,10.191 18.798,13.224 25.297,16.517Z" fill="#23A0F3" stroke="none" stroke-width="1.733"/></g></g><use transform="matrix(1.302 0 0 1.302 40.05 21.6)" xlink:href="#uid_522"/><use transform="translate(40.35 4.95)" xlink:href="#uid_522"/><use transform="translate(40.35 23.3)" xlink:href="#uid_522"/><use transform="matrix(1.497 0 0 1.497 55.05 14.05)" xlink:href="#uid_522"/><use opacity=".95" transform="translate(46.85 13.45)" xlink:href="#uid_522"/><use transform="translate(40.2 33.15)" xlink:href="#uid_522"/><use transform="matrix(1.144 0 0 1.144 55 7.35)" xlink:href="#uid_522"/><use transform="matrix(1.466 0 0 1.466 44.9 8.3)" xlink:href="#uid_522"/><use opacity=".6" transform="matrix(1.499 0 0 1.499 56.75 6.85)" xlink:href="#uid_522"/></g></g></g><g transform="translate(20, 3886.0)"><g transform="translate(-0.0, -0.0)"><defs><g id="uid_532" overflow="visible"><g id="uid_533" transform="matrix(1.098 0 0 1.098 0 0)"><path d="M-2.25 -1.35L-2.35 1.3 .1 2.5 .15 -.15 -2.25 -1.35Z" fill="#1A76B5" stroke="none"/></g><g id="uid_534" transform="matrix(1.098 0 0 1.098 0 0)"><path d="M2.4 -1.25L.15 -.15 .1 2.5 2.3 1.4 2.4 -1.25Z" fill="#23A0F3" stroke="none"/></g><g id="uid_535" transform="matrix(1.098 0 0 1.098 0 0)"><path d="M.15 -.15L2.4 -1.25 0 -2.45 -2.2 -1.35 .15 -.15Z" fill="#23A0F3" stroke="none"/></g></g></defs><g id="uid_536" overflow="visible"><use transform="matrix(1.369 0 0 1.369 25.5 5.2)" xlink:href="#uid_532"/><path d="M40.35,42.55 L38,41.3 37.95,76.3 40.25,77.45 40.35,42.55Z" fill="#1A76B5" stroke="none"/><path d="M40.3,42.6 L40.2,77.5 Q41.85,76.9 42.4,76.4 L42.5,41.5 40.3,42.6Z" fill="#23A0F3" stroke="none"/><path d="M40.15,40.35 L38,41.4 40.35,42.65 42.45,41.55 40.15,40.35Z" fill="#23A0F3" stroke="none"/><g id="uid_537"><g id="uid_538"><path d="M17.111,14.374 L16.938,21.566 23.523,24.859 23.697,17.667 17.111,14.374Z" fill="#1A76B5" stroke="none" stroke-width="1.733"/></g><g id="uid_539"><path d="M29.849,14.634 L23.697,17.667 23.523,24.859 29.502,21.826 29.849,14.634Z" fill="#23A0F3" stroke="none" stroke-width="1.733"/></g><g id="uid_540"><path d="M23.697,17.667 L29.849,14.634 23.263,11.341 17.198,14.374 23.697,17.667Z" fill="#23A0F3" stroke="none" stroke-width="1.733"/></g></g><use transform="matrix(1.363 0 0 1.363 38.35 18.45)" xlink:href="#uid_532"/><use transform="translate(40.35 4.85)" xlink:href="#uid_532"/><use transform="translate(40.35 19.85)" xlink:href="#uid_532"/><use transform="matrix(1.512 0 0 1.512 56.9 14.2)" xlink:href="#uid_532"/><use opacity=".92" transform="translate(48.15 13.15)" xlink:href="#uid_532"/><use transform="translate(40.2 30.1)" xlink:href="#uid_532"/><use transform="matrix(1.144 0 0 1.144 56.05 7.65)" xlink:href="#uid_532"/><use transform="matrix(1.487 0 0 1.487 45.95 7.5)" xlink:href="#uid_532"/><use opacity=".4" transform="matrix(1.484 0 0 1.484 57.4 7.3)" xlink:href="#uid_532"/></g></g></g><g transform="translate(20, 3986.0)"><g transform="translate(-0.0, -0.0)"><defs><g id="uid_542" overflow="visible"><g id="uid_543" transform="matrix(1.098 0 0 1.098 0 0)"><path d="M-2.25 -1.35L-2.35 1.3 .1 2.5 .15 -.15 -2.25 -1.35Z" fill="#1A76B5" stroke="none"/></g><g id="uid_544" transform="matrix(1.098 0 0 1.098 0 0)"><path d="M2.4 -1.25L.15 -.15 .1 2.5 2.3 1.4 2.4 -1.25Z" fill="#23A0F3" stroke="none"/></g><g id="uid_545" transform="matrix(1.098 0 0 1.098 0 0)"><path d="M.15 -.15L2.4 -1.25 0 -2.45 -2.2 -1.35 .15 -.15Z" fill="#23A0F3" stroke="none"/></g></g></defs><g id="uid_546" overflow="visible"><use transform="matrix(1.376 0 0 1.376 24.45 5.45)" xlink:href="#uid_542"/><use transform="translate(40.35 31.75)" xlink:href="#uid_542"/><path d="M40.35,42.25 L38,41 37.95,76.35 40.25,77.5 40.35,42.25Z" fill="#1A76B5" stroke="none"/><path d="M40.3,42.2 L40.2,77.45 Q41.85,76.85 42.4,76.35 L42.5,41.1 40.3,42.2Z" fill="#23A0F3" stroke="none"/><path d="M40.15,40 L38,41.05 40.35,42.3 42.45,41.2 40.15,40Z" fill="#23A0F3" stroke="none"/><g id="uid_547"><g id="uid_548"><path d="M14.965,15.394 L14.782,23.333 22.174,27.074 22.356,19.044 14.965,15.394Z" fill="#1A76B5" stroke="none" stroke-width="1.825"/></g><g id="uid_549"><path d="M29.109,15.668 L22.356,19.044 22.174,27.074 28.835,23.697 29.109,15.668Z" fill="#23A0F3" stroke="none" stroke-width="1.825"/></g><g id="uid_550"><path d="M22.356,19.044 L29.109,15.668 21.809,12.018 15.147,15.394 22.356,19.044Z" fill="#23A0F3" stroke="none" stroke-width="1.825"/></g></g><use transform="matrix(1.423 0 0 1.423 35.3 16.4)" xlink:href="#uid_542"/><use transform="translate(40.35 4.75)" xlink:href="#uid_542"/><use transform="translate(40.35 17.35)" xlink:href="#uid_542"/><use transform="matrix(1.512 0 0 1.512 57.9 16.35)" xlink:href="#uid_542"/><use opacity=".9" transform="translate(49.5 13)" xlink:href="#uid_542"/><use transform="translate(40.35 27.05)" xlink:href="#uid_542"/><use transform="matrix(1.144 0 0 1.144 56.8 8)" xlink:href="#uid_542"/><use transform="matrix(1.508 0 0 1.508 47.05 6.9)" xlink:href="#uid_542"/><use opacity=".2" transform="matrix(1.469 0 0 1.469 58.05 7.8)" xlink:href="#uid_542"/></g></g></g><g transform="translate(20, 4086.0)"><g transform="translate(-0.0, -0.0)"><defs><g id="uid_552" overflow="visible"><g id="uid_553" transform="matrix(1.098 0 0 1.098 0 0)"><path d="M-2.25 -1.35L-2.35 1.3 .1 2.5 .15 -.15 -2.25 -1.35Z" fill="#1A76B5" stroke="none"/></g><g id="uid_554" transform="matrix(1.098 0 0 1.098 0 0)"><path d="M2.4 -1.25L.15 -.15 .1 2.5 2.3 1.4 2.4 -1.25Z" fill="#23A0F3" stroke="none"/></g><g id="uid_555" transform="matrix(1.098 0 0 1.098 0 0)"><path d="M.15 -.15L2.4 -1.25 0 -2.45 -2.2 -1.35 .15 -.15Z" fill="#23A0F3" stroke="none"/></g></g></defs><g id="uid_556" overflow="visible"><use transform="matrix(1.383 0 0 1.383 23.45 5.9)" xlink:href="#uid_552"/><use transform="matrix(1.062 0 0 1.062 40 24.8)" xlink:href="#uid_552"/><path d="M40.35,41.85 L38,40.6 38,56.05 37.95,76.3 40.25,77.45 40.3,56.05 40.35,41.85Z" fill="#1A76B5" stroke="none"/><path d="M40.25,56.1 L40.2,77.5 Q41.85,76.9 42.4,76.4 L42.45,56.1 42.5,40.8 40.3,41.9 40.25,56.1Z" fill="#23A0F3" stroke="none"/><path d="M38,40.7 L40.35,41.95 42.45,40.85 40.15,39.65 38,40.7Z" fill="#23A0F3" stroke="none"/><g id="uid_557" opacity=".8"><g id="uid_558"><path d="M11.965,20.694 L11.782,28.633 19.174,32.374 19.356,24.344 11.965,20.694Z" fill="#1A76B5" stroke="none" stroke-width="1.825"/></g><g id="uid_559"><path d="M26.109,20.968 L19.356,24.344 19.174,32.374 25.835,28.998 26.109,20.968Z" fill="#23A0F3" stroke="none" stroke-width="1.825"/></g><g id="uid_560"><path d="M19.356,24.344 L26.109,20.968 18.809,17.318 12.147,20.694 19.356,24.344Z" fill="#23A0F3" stroke="none" stroke-width="1.825"/></g></g><use transform="matrix(1.458 0 0 1.458 34.3 16.05)" xlink:href="#uid_552"/><use transform="translate(40.35 4.65)" xlink:href="#uid_552"/><use transform="translate(40.35 15.85)" xlink:href="#uid_552"/><use transform="matrix(1.512 0 0 1.512 58.9 18.55)" xlink:href="#uid_552"/><use opacity=".87" transform="translate(50.85 13)" xlink:href="#uid_552"/><use transform="translate(40.2 26.3)" xlink:href="#uid_552"/><use transform="matrix(1.144 0 0 1.144 57.55 8.45)" xlink:href="#uid_552"/><use transform="matrix(1.53 0 0 1.53 48.1 6.2)" xlink:href="#uid_552"/><use opacity="0" transform="matrix(1.454 0 0 1.454 58.7 8.05)" xlink:href="#uid_552"/></g></g></g><g transform="translate(20, 4186.0)"><g transform="translate(-0.0, -0.0)"><defs><g id="uid_562" overflow="visible"><g id="uid_563" transform="matrix(1.098 0 0 1.098 0 0)"><path d="M-2.25 -1.35L-2.35 1.3 .1 2.5 .15 -.15 -2.25 -1.35Z" fill="#1A76B5" stroke="none"/></g><g id="uid_564" transform="matrix(1.098 0 0 1.098 0 0)"><path d="M2.4 -1.25L.15 -.15 .1 2.5 2.3 1.4 2.4 -1.25Z" fill="#23A0F3" stroke="none"/></g><g id="uid_565" transform="matrix(1.098 0 0 1.098 0 0)"><path d="M.15 -.15L2.4 -1.25 0 -2.45 -2.2 -1.35 .15 -.15Z" fill="#23A0F3" stroke="none"/></g></g></defs><g id="uid_566" overflow="visible"><use transform="matrix(1.389 0 0 1.389 22.5 6.25)" xlink:href="#uid_562"/><use transform="matrix(1.124 0 0 1.124 40 17.9)" xlink:href="#uid_562"/><path d="M40.35,41.85 L38,40.6 38,56.05 37.95,76.3 40.25,77.45 40.3,56.05 40.35,41.85Z" fill="#1A76B5" stroke="none"/><path d="M40.25,56.1 L40.2,77.5 Q41.85,76.9 42.4,76.4 L42.45,56.1 42.5,40.8 40.3,41.9 40.25,56.1Z" fill="#23A0F3" stroke="none"/><path d="M38,40.7 L40.35,41.95 42.45,40.85 40.15,39.65 38,40.7Z" fill="#23A0F3" stroke="none"/><g id="uid_567" opacity=".6"><g id="uid_568"><path d="M11.415,26.894 L11.233,34.833 18.624,38.574 18.806,30.544 11.415,26.894Z" fill="#1A76B5" stroke="none" stroke-width="1.825"/></g><g id="uid_569"><path d="M25.559,27.168 L18.806,30.544 18.624,38.574 25.285,35.198 25.559,27.168Z" fill="#23A0F3" stroke="none" stroke-width="1.825"/></g><g id="uid_570"><path d="M18.806,30.544 L25.559,27.168 18.259,23.518 11.598,26.894 18.806,30.544Z" fill="#23A0F3" stroke="none" stroke-width="1.825"/></g></g><use transform="matrix(1.493 0 0 1.493 33.25 15.75)" xlink:href="#uid_562"/><use transform="translate(40.35 4.55)" xlink:href="#uid_562"/><use transform="translate(40.35 15.35)" xlink:href="#uid_562"/><use transform="matrix(1.512 0 0 1.512 59.95 20.75)" xlink:href="#uid_562"/><use transform="translate(40.35 39.75)" xlink:href="#uid_562"/><use opacity=".85" transform="translate(52.2 13.2)" xlink:href="#uid_562"/><use transform="translate(40.2 25.6)" xlink:href="#uid_562"/><use transform="matrix(1.144 0 0 1.144 58.25 8.95)" xlink:href="#uid_562"/><use transform="matrix(1.529 0 0 1.529 49.25 5.9)" xlink:href="#uid_562"/></g></g></g><g transform="translate(20, 4286.0)"><g transform="translate(-0.0, -0.0)"><defs><g id="uid_572" overflow="visible"><g id="uid_573" transform="matrix(1.098 0 0 1.098 0 0)"><path d="M-2.25 -1.35L-2.35 1.3 .1 2.5 .15 -.15 -2.25 -1.35Z" fill="#1A76B5" stroke="none"/></g><g id="uid_574" transform="matrix(1.098 0 0 1.098 0 0)"><path d="M2.4 -1.25L.15 -.15 .1 2.5 2.3 1.4 2.4 -1.25Z" fill="#23A0F3" stroke="none"/></g><g id="uid_575" transform="matrix(1.098 0 0 1.098 0 0)"><path d="M.15 -.15L2.4 -1.25 0 -2.45 -2.2 -1.35 .15 -.15Z" fill="#23A0F3" stroke="none"/></g></g></defs><g id="uid_576" overflow="visible"><use transform="matrix(1.389 0 0 1.389 21.3 7.1)" xlink:href="#uid_572"/><use transform="matrix(1.186 0 0 1.186 38.4 11.3)" xlink:href="#uid_572"/><path d="M40.35,41.85 L38,40.6 38,56.05 37.95,76.3 40.25,77.45 40.3,56.05 40.35,41.85Z" fill="#1A76B5" stroke="none"/><path d="M40.25,56.1 L40.2,77.5 Q41.85,76.9 42.4,76.4 L42.45,56.1 42.5,40.8 40.3,41.9 40.25,56.1Z" fill="#23A0F3" stroke="none"/><path d="M38,40.7 L40.35,41.95 42.45,40.85 40.15,39.65 38,40.7Z" fill="#23A0F3" stroke="none"/><g id="uid_577" opacity=".4"><g id="uid_578"><path d="M11.415,33.044 L11.233,40.983 18.624,44.724 18.806,36.694 11.415,33.044Z" fill="#1A76B5" stroke="none" stroke-width="1.825"/></g><g id="uid_579"><path d="M25.559,33.317 L18.806,36.694 18.624,44.724 25.285,41.348 25.559,33.317Z" fill="#23A0F3" stroke="none" stroke-width="1.825"/></g><g id="uid_580"><path d="M18.806,36.694 L25.559,33.317 18.259,29.668 11.598,33.044 18.806,36.694Z" fill="#23A0F3" stroke="none" stroke-width="1.825"/></g></g><use transform="translate(40.35 39.75)" xlink:href="#uid_572"/><use transform="matrix(1.527 0 0 1.527 32.2 15.55)" xlink:href="#uid_572"/><use transform="translate(40.35 4.45)" xlink:href="#uid_572"/><use opacity=".75" transform="translate(40.35 14.95)" xlink:href="#uid_572"/><use transform="matrix(1.512 0 0 1.512 60.95 22.95)" xlink:href="#uid_572"/><use transform="matrix(1.085 0 0 1.085 40.2 33.95)" xlink:href="#uid_572"/><use opacity=".82" transform="translate(53.55 13.55)" xlink:href="#uid_572"/><use transform="translate(40.2 24.85)" xlink:href="#uid_572"/><use transform="matrix(1.144 0 0 1.144 58.9 9.55)" xlink:href="#uid_572"/><use transform="matrix(1.529 0 0 1.529 50.5 5.7)" xlink:href="#uid_572"/></g></g></g><g transform="translate(20, 4386.0)"><g transform="translate(-0.0, -0.0)"><defs><g id="uid_582" overflow="visible"><g id="uid_583" transform="matrix(1.098 0 0 1.098 0 0)"><path d="M-2.25 -1.35L-2.35 1.3 .1 2.5 .15 -.15 -2.25 -1.35Z" fill="#1A76B5" stroke="none"/></g><g id="uid_584" transform="matrix(1.098 0 0 1.098 0 0)"><path d="M2.4 -1.25L.15 -.15 .1 2.5 2.3 1.4 2.4 -1.25Z" fill="#23A0F3" stroke="none"/></g><g id="uid_585" transform="matrix(1.098 0 0 1.098 0 0)"><path d="M.15 -.15L2.4 -1.25 0 -2.45 -2.2 -1.35 .15 -.15Z" fill="#23A0F3" stroke="none"/></g></g></defs><g id="uid_586" overflow="visible"><use transform="matrix(1.389 0 0 1.389 20.3 8.25)" xlink:href="#uid_582"/><use transform="matrix(1.247 0 0 1.247 33.6 6.45)" xlink:href="#uid_582"/><path d="M40.35,41.85 L38,40.6 38,56.05 37.95,76.3 40.25,77.45 40.3,56.05 40.35,41.85Z" fill="#1A76B5" stroke="none"/><path d="M40.25,56.1 L40.2,77.5 Q41.85,76.9 42.4,76.4 L42.45,56.1 42.5,40.8 40.3,41.9 40.25,56.1Z" fill="#23A0F3" stroke="none"/><path d="M38,40.7 L40.35,41.95 42.45,40.85 40.15,39.65 38,40.7Z" fill="#23A0F3" stroke="none"/><g id="uid_587" opacity=".2"><g id="uid_588"><path d="M11.415,39.244 L11.233,47.183 18.624,50.924 18.806,42.894 11.415,39.244Z" fill="#1A76B5" stroke="none" stroke-width="1.825"/></g><g id="uid_589"><path d="M25.559,39.518 L18.806,42.894 18.624,50.924 25.285,47.548 25.559,39.518Z" fill="#23A0F3" stroke="none" stroke-width="1.825"/></g><g id="uid_590"><path d="M18.806,42.894 L25.559,39.518 18.259,35.868 11.598,39.244 18.806,42.894Z" fill="#23A0F3" stroke="none" stroke-width="1.825"/></g></g><use transform="translate(40.3 34.45)" xlink:href="#uid_582"/><use opacity=".75" transform="matrix(1.562 0 0 1.562 31.15 15.3)" xlink:href="#uid_582"/><use transform="translate(40.35 4.55)" xlink:href="#uid_582"/><use opacity=".5" transform="translate(40.35 14.5)" xlink:href="#uid_582"/><use transform="matrix(1.512 0 0 1.512 61.95 25.2)" xlink:href="#uid_582"/><use transform="matrix(1.17 0 0 1.17 40.2 28.15)" xlink:href="#uid_582"/><use opacity=".7" transform="translate(54.7 14.05)" xlink:href="#uid_582"/><use transform="translate(40.2 24.1)" xlink:href="#uid_582"/><use transform="matrix(1.144 0 0 1.144 59.5 10.2)" xlink:href="#uid_582"/><use transform="matrix(1.529 0 0 1.529 51.7 5.65)" xlink:href="#uid_582"/></g></g></g><g transform="translate(20, 4486.0)"><g transform="translate(-0.0, -0.0)"><defs><g id="uid_592" overflow="visible"><g id="uid_593" transform="matrix(1.098 0 0 1.098 0 0)"><path d="M-2.25 -1.35L-2.35 1.3 .1 2.5 .15 -.15 -2.25 -1.35Z" fill="#1A76B5" stroke="none"/></g><g id="uid_594" transform="matrix(1.098 0 0 1.098 0 0)"><path d="M2.4 -1.25L.15 -.15 .1 2.5 2.3 1.4 2.4 -1.25Z" fill="#23A0F3" stroke="none"/></g><g id="uid_595" transform="matrix(1.098 0 0 1.098 0 0)"><path d="M.15 -.15L2.4 -1.25 0 -2.45 -2.2 -1.35 .15 -.15Z" fill="#23A0F3" stroke="none"/></g></g></defs><g id="uid_596" overflow="visible"><use transform="matrix(1.389 0 0 1.389 19.5 9.5)" xlink:href="#uid_592"/><use transform="matrix(1.264 0 0 1.264 32.85 6.05)" xlink:href="#uid_592"/><path d="M40.35,41.85 L38,40.6 38,56.05 37.95,76.3 40.25,77.45 40.3,56.05 40.35,41.85Z" fill="#1A76B5" stroke="none"/><path d="M40.25,56.1 L40.2,77.5 Q41.85,76.9 42.4,76.4 L42.45,56.1 42.5,40.8 40.3,41.9 40.25,56.1Z" fill="#23A0F3" stroke="none"/><path d="M38,40.7 L40.35,41.95 42.45,40.85 40.15,39.65 38,40.7Z" fill="#23A0F3" stroke="none"/><g id="uid_597" opacity="0"><g id="uid_598"><path d="M11.465,45.394 L11.282,53.333 18.674,57.074 18.856,49.044 11.465,45.394Z" fill="#1A76B5" stroke="none" stroke-width="1.825"/></g><g id="uid_599"><path d="M25.609,45.668 L18.856,49.044 18.674,57.074 25.335,53.698 25.609,45.668Z" fill="#23A0F3" stroke="none" stroke-width="1.825"/></g><g id="uid_600"><path d="M18.856,49.044 L25.609,45.668 18.309,42.018 11.647,45.394 18.856,49.044Z" fill="#23A0F3" stroke="none" stroke-width="1.825"/></g></g><use transform="translate(40.3 29.1)" xlink:href="#uid_592"/><use opacity=".5" transform="matrix(1.596 0 0 1.596 30.05 15.3)" xlink:href="#uid_592"/><use transform="translate(40.35 4.65)" xlink:href="#uid_592"/><use opacity=".25" transform="translate(40.35 14.1)" xlink:href="#uid_592"/><use opacity=".8" transform="matrix(1.512 0 0 1.512 61.95 29.2)" xlink:href="#uid_592"/><use transform="matrix(1.255 0 0 1.255 40.15 22.3)" xlink:href="#uid_592"/><use opacity=".59" transform="translate(55.75 14.7)" xlink:href="#uid_592"/><use transform="translate(40.2 23.4)" xlink:href="#uid_592"/><use transform="matrix(1.144 0 0 1.144 60.1 10.95)" xlink:href="#uid_592"/><use transform="matrix(1.529 0 0 1.529 52.9 5.75)" xlink:href="#uid_592"/></g></g></g><g transform="translate(20, 4586.0)"><g transform="translate(-0.0, -0.0)"><defs><g id="uid_602" overflow="visible"><g id="uid_603" transform="matrix(1.098 0 0 1.098 0 0)"><path d="M-2.25 -1.35L-2.35 1.3 .1 2.5 .15 -.15 -2.25 -1.35Z" fill="#1A76B5" stroke="none"/></g><g id="uid_604" transform="matrix(1.098 0 0 1.098 0 0)"><path d="M2.4 -1.25L.15 -.15 .1 2.5 2.3 1.4 2.4 -1.25Z" fill="#23A0F3" stroke="none"/></g><g id="uid_605" transform="matrix(1.098 0 0 1.098 0 0)"><path d="M.15 -.15L2.4 -1.25 0 -2.45 -2.2 -1.35 .15 -.15Z" fill="#23A0F3" stroke="none"/></g></g></defs><g id="uid_606" overflow="visible"><use transform="matrix(1.124 0 0 1.124 40 17.9)" xlink:href="#uid_602"/><use transform="matrix(1.389 0 0 1.389 21.25 7.05)" xlink:href="#uid_602"/><path d="M40.35,44.15 L38,42.9 37.95,76.35 40.25,77.5 40.35,44.15Z" fill="#1A76B5" stroke="none"/><path d="M40.3,44.15 L40.2,77.5 Q41.85,76.9 42.4,76.4 L42.5,43.05 40.3,44.15Z" fill="#23A0F3" stroke="none"/><path d="M40.15,41.85 L38,42.9 40.35,44.15 42.45,43.05 40.15,41.85Z" fill="#23A0F3" stroke="none"/><use transform="translate(40.3 29.1)" xlink:href="#uid_602"/><g id="uid_607"><g id="uid_608"><path d="M14.965,15.394 L14.782,23.333 22.174,27.074 22.356,19.044 14.965,15.394Z" fill="#1A76B5" stroke="none" stroke-width="1.825"/></g><g id="uid_609"><path d="M29.109,15.668 L22.356,19.044 22.174,27.074 28.835,23.697 29.109,15.668Z" fill="#23A0F3" stroke="none" stroke-width="1.825"/></g><g id="uid_610"><path d="M22.356,19.044 L29.109,15.668 21.809,12.018 15.147,15.394 22.356,19.044Z" fill="#23A0F3" stroke="none" stroke-width="1.825"/></g></g><use opacity=".75" transform="matrix(1.562 0 0 1.562 31.15 15.3)" xlink:href="#uid_602"/><use transform="translate(40.35 39.75)" xlink:href="#uid_602"/><use transform="matrix(1.512 0 0 1.512 61.8 22.65)" xlink:href="#uid_602"/><use transform="translate(40.2 25.2)" xlink:href="#uid_602"/><use transform="matrix(1.487 0 0 1.487 45.95 7.5)" xlink:href="#uid_602"/></g></g></g><g transform="translate(20, 4686.0)"><g transform="translate(-0.0, -0.0)"><defs><g id="uid_612" overflow="visible"><g id="uid_613" transform="matrix(1.098 0 0 1.098 0 0)"><path d="M-2.25 -1.35L-2.35 1.3 .1 2.5 .15 -.15 -2.25 -1.35Z" fill="#1A76B5" stroke="none"/></g><g id="uid_614" transform="matrix(1.098 0 0 1.098 0 0)"><path d="M2.4 -1.25L.15 -.15 .1 2.5 2.3 1.4 2.4 -1.25Z" fill="#23A0F3" stroke="none"/></g><g id="uid_615" transform="matrix(1.098 0 0 1.098 0 0)"><path d="M.15 -.15L2.4 -1.25 0 -2.45 -2.2 -1.35 .15 -.15Z" fill="#23A0F3" stroke="none"/></g></g></defs><g id="uid_616" overflow="visible"><use transform="matrix(1.389 0 0 1.389 18.85 10.9)" xlink:href="#uid_612"/><use transform="matrix(1.281 0 0 1.281 32.1 5.75)" xlink:href="#uid_612"/><path d="M40.35,41.85 L38,40.6 38,56.05 37.95,76.3 40.25,77.45 40.3,56.05 40.35,41.85Z" fill="#1A76B5" stroke="none"/><path d="M40.25,56.1 L40.2,77.5 Q41.85,76.9 42.4,76.4 L42.45,56.1 42.5,40.8 40.3,41.9 40.25,56.1Z" fill="#23A0F3" stroke="none"/><path d="M38,40.7 L40.35,41.95 42.45,40.85 40.15,39.65 38,40.7Z" fill="#23A0F3" stroke="none"/><g id="uid_617" opacity="0"><g id="uid_618"><path d="M11.465,45.394 L11.282,53.333 18.674,57.074 18.856,49.044 11.465,45.394Z" fill="#1A76B5" stroke="none" stroke-width="1.825"/></g><g id="uid_619"><path d="M25.609,45.668 L18.856,49.044 18.674,57.074 25.335,53.698 25.609,45.668Z" fill="#23A0F3" stroke="none" stroke-width="1.825"/></g><g id="uid_620"><path d="M18.856,49.044 L25.609,45.668 18.309,42.018 11.647,45.394 18.856,49.044Z" fill="#23A0F3" stroke="none" stroke-width="1.825"/></g></g><use transform="translate(40.3 23.8)" xlink:href="#uid_612"/><use opacity=".25" transform="matrix(1.631 0 0 1.631 29 15.4)" xlink:href="#uid_612"/><use transform="translate(40.35 39.75)" xlink:href="#uid_612"/><use transform="translate(40.35 4.75)" xlink:href="#uid_612"/><use opacity="0" transform="translate(40.35 13.65)" xlink:href="#uid_612"/><use opacity=".6" transform="matrix(1.512 0 0 1.512 62 33.2)" xlink:href="#uid_612"/><use transform="matrix(1.34 0 0 1.34 41 16.7)" xlink:href="#uid_612"/><use opacity=".47" transform="translate(56.75 15.4)" xlink:href="#uid_612"/><use transform="translate(40.35 22.65)" xlink:href="#uid_612"/><use opacity=".8" transform="matrix(1.144 0 0 1.144 61.05 12.8)" xlink:href="#uid_612"/><use transform="matrix(1.529 0 0 1.529 54.15 5.95)" xlink:href="#uid_612"/></g></g></g><g transform="translate(20, 4786.0)"><g transform="translate(-0.0, -0.0)"><defs><g id="uid_622" overflow="visible"><g id="uid_623" transform="matrix(1.098 0 0 1.098 0 0)"><path d="M-2.25 -1.35L-2.35 1.3 .1 2.5 .15 -.15 -2.25 -1.35Z" fill="#1A76B5" stroke="none"/></g><g id="uid_624" transform="matrix(1.098 0 0 1.098 0 0)"><path d="M2.4 -1.25L.15 -.15 .1 2.5 2.3 1.4 2.4 -1.25Z" fill="#23A0F3" stroke="none"/></g><g id="uid_625" transform="matrix(1.098 0 0 1.098 0 0)"><path d="M.15 -.15L2.4 -1.25 0 -2.45 -2.2 -1.35 .15 -.15Z" fill="#23A0F3" stroke="none"/></g></g></defs><g id="uid_626" overflow="visible"><use opacity=".8" transform="matrix(1.389 0 0 1.389 18.15 12.75)" xlink:href="#uid_622"/><use transform="matrix(1.298 0 0 1.298 31.25 5.45)" xlink:href="#uid_622"/><path d="M40.35,41.85 L38,40.6 38,56.05 37.95,76.3 40.25,77.45 40.3,56.05 40.35,41.85Z" fill="#1A76B5" stroke="none"/><path d="M40.25,56.1 L40.2,77.5 Q41.85,76.9 42.4,76.4 L42.45,56.1 42.5,40.8 40.3,41.9 40.25,56.1Z" fill="#23A0F3" stroke="none"/><path d="M38,40.7 L40.35,41.95 42.45,40.85 40.15,39.65 38,40.7Z" fill="#23A0F3" stroke="none"/><g id="uid_627" opacity="0"><g id="uid_628"><path d="M11.465,45.394 L11.282,53.333 18.674,57.074 18.856,49.044 11.465,45.394Z" fill="#1A76B5" stroke="none" stroke-width="1.825"/></g><g id="uid_629"><path d="M25.609,45.668 L18.856,49.044 18.674,57.074 25.335,53.698 25.609,45.668Z" fill="#23A0F3" stroke="none" stroke-width="1.825"/></g><g id="uid_630"><path d="M18.856,49.044 L25.609,45.668 18.309,42.018 11.647,45.394 18.856,49.044Z" fill="#23A0F3" stroke="none" stroke-width="1.825"/></g></g><g id="uid_631"><g id="uid_632"><path d="M34.928,16.56 L34.794,20.938 38.835,22.958 38.902,18.581 34.928,16.56Z" fill="#1A76B5" stroke="none" stroke-width="1.347"/></g><g id="uid_633"><path d="M42.606,16.762 L38.902,18.581 38.835,22.958 42.472,21.14 42.606,16.762Z" fill="#23A0F3" stroke="none" stroke-width="1.347"/></g><g id="uid_634"><path d="M38.902,18.581 L42.606,16.762 38.633,14.742 34.996,16.56 38.902,18.581Z" fill="#23A0F3" stroke="none" stroke-width="1.347"/></g></g><use opacity="0" transform="matrix(1.666 0 0 1.666 27.85 15.65)" xlink:href="#uid_622"/><use transform="matrix(1.06 0 0 1.06 40.3 36.1)" xlink:href="#uid_622"/><use transform="translate(40.35 4.85)" xlink:href="#uid_622"/><use opacity="0" transform="translate(40.35 13.65)" xlink:href="#uid_622"/><use opacity=".4" transform="matrix(1.512 0 0 1.512 62.1 37.2)" xlink:href="#uid_622"/><use transform="matrix(1.425 0 0 1.425 45.25 12.85)" xlink:href="#uid_622"/><use opacity=".35" transform="translate(57.7 16.2)" xlink:href="#uid_622"/><use opacity=".8" transform="translate(40.2 22.4)" xlink:href="#uid_622"/><use opacity=".6" transform="matrix(1.144 0 0 1.144 61.75 14.8)" xlink:href="#uid_622"/><use transform="matrix(1.53 0 0 1.53 55.3 6.25)" xlink:href="#uid_622"/></g></g></g><g transform="translate(20, 4886.0)"><g transform="translate(-0.0, -0.0)"><defs><g id="uid_636" overflow="visible"><g id="uid_637" transform="matrix(1.098 0 0 1.098 0 0)"><path d="M-2.25 -1.35L-2.35 1.3 .1 2.5 .15 -.15 -2.25 -1.35Z" fill="#1A76B5" stroke="none"/></g><g id="uid_638" transform="matrix(1.098 0 0 1.098 0 0)"><path d="M2.4 -1.25L.15 -.15 .1 2.5 2.3 1.4 2.4 -1.25Z" fill="#23A0F3" stroke="none"/></g><g id="uid_639" transform="matrix(1.098 0 0 1.098 0 0)"><path d="M.15 -.15L2.4 -1.25 0 -2.45 -2.2 -1.35 .15 -.15Z" fill="#23A0F3" stroke="none"/></g></g></defs><g id="uid_640" overflow="visible"><use opacity=".6" transform="matrix(1.389 0 0 1.389 17.75 14.7)" xlink:href="#uid_636"/><use transform="matrix(1.315 0 0 1.315 30.4 5.2)" xlink:href="#uid_636"/><path d="M40.35,41.85 L38,40.6 38,56.05 37.95,76.3 40.25,77.45 40.3,56.05 40.35,41.85Z" fill="#1A76B5" stroke="none"/><path d="M40.25,56.1 L40.2,77.5 Q41.85,76.9 42.4,76.4 L42.45,56.1 42.5,40.8 40.3,41.9 40.25,56.1Z" fill="#23A0F3" stroke="none"/><path d="M38,40.7 L40.35,41.95 42.45,40.85 40.15,39.65 38,40.7Z" fill="#23A0F3" stroke="none"/><g id="uid_641" opacity="0"><g id="uid_642"><path d="M11.465,45.394 L11.282,53.333 18.674,57.074 18.856,49.044 11.465,45.394Z" fill="#1A76B5" stroke="none" stroke-width="1.825"/></g><g id="uid_643"><path d="M25.609,45.668 L18.856,49.044 18.674,57.074 25.335,53.698 25.609,45.668Z" fill="#23A0F3" stroke="none" stroke-width="1.825"/></g><g id="uid_644"><path d="M18.856,49.044 L25.609,45.668 18.309,42.018 11.647,45.394 18.856,49.044Z" fill="#23A0F3" stroke="none" stroke-width="1.825"/></g></g><g id="uid_645"><g id="uid_646"><path d="M33.628,15.31 L33.494,19.688 37.535,21.708 37.602,17.331 33.628,15.31Z" fill="#1A76B5" stroke="none" stroke-width="1.347"/></g><g id="uid_647"><path d="M41.306,15.512 L37.602,17.331 37.535,21.708 41.172,19.89 41.306,15.512Z" fill="#23A0F3" stroke="none" stroke-width="1.347"/></g><g id="uid_648"><path d="M37.602,17.331 L41.306,15.512 37.333,13.492 33.696,15.31 37.602,17.331Z" fill="#23A0F3" stroke="none" stroke-width="1.347"/></g></g><use opacity="0" transform="matrix(1.666 0 0 1.666 27.85 15.65)" xlink:href="#uid_636"/><use transform="matrix(1.121 0 0 1.121 40.3 32.45)" xlink:href="#uid_636"/><use transform="translate(40.35 4.95)" xlink:href="#uid_636"/><use opacity="0" transform="translate(40.35 13.65)" xlink:href="#uid_636"/><use opacity=".2" transform="matrix(1.512 0 0 1.512 62.15 41.2)" xlink:href="#uid_636"/><use transform="matrix(1.44 0 0 1.44 47.15 12.15)" xlink:href="#uid_636"/><use opacity=".23" transform="translate(58.6 17)" xlink:href="#uid_636"/><use opacity=".6" transform="translate(40.2 22.15)" xlink:href="#uid_636"/><use opacity=".4" transform="matrix(1.144 0 0 1.144 62.25 16.9)" xlink:href="#uid_636"/><use opacity=".8" transform="matrix(1.514 0 0 1.514 56.05 6.55)" xlink:href="#uid_636"/></g></g></g><g transform="translate(20, 4986.0)"><g transform="translate(-0.0, -0.0)"><defs><g id="uid_650" overflow="visible"><g id="uid_651" transform="matrix(1.098 0 0 1.098 0 0)"><path d="M-2.25 -1.35L-2.35 1.3 .1 2.5 .15 -.15 -2.25 -1.35Z" fill="#1A76B5" stroke="none"/></g><g id="uid_652" transform="matrix(1.098 0 0 1.098 0 0)"><path d="M2.4 -1.25L.15 -.15 .1 2.5 2.3 1.4 2.4 -1.25Z" fill="#23A0F3" stroke="none"/></g><g id="uid_653" transform="matrix(1.098 0 0 1.098 0 0)"><path d="M.15 -.15L2.4 -1.25 0 -2.45 -2.2 -1.35 .15 -.15Z" fill="#23A0F3" stroke="none"/></g></g></defs><g id="uid_654" overflow="visible"><use opacity=".4" transform="matrix(1.389 0 0 1.389 17.45 16.7)" xlink:href="#uid_650"/><use transform="matrix(1.331 0 0 1.331 29.55 5.05)" xlink:href="#uid_650"/><path d="M40.35,41.85 L38,40.6 38,56.05 37.95,76.3 40.25,77.45 40.3,56.05 40.35,41.85Z" fill="#1A76B5" stroke="none"/><path d="M40.25,56.1 L40.2,77.5 Q41.85,76.9 42.4,76.4 L42.45,56.1 42.5,40.8 40.3,41.9 40.25,56.1Z" fill="#23A0F3" stroke="none"/><path d="M38,40.7 L40.35,41.95 42.45,40.85 40.15,39.65 38,40.7Z" fill="#23A0F3" stroke="none"/><g id="uid_655" opacity="0"><g id="uid_656"><path d="M11.465,45.394 L11.282,53.333 18.674,57.074 18.856,49.044 11.465,45.394Z" fill="#1A76B5" stroke="none" stroke-width="1.825"/></g><g id="uid_657"><path d="M25.609,45.668 L18.856,49.044 18.674,57.074 25.335,53.698 25.609,45.668Z" fill="#23A0F3" stroke="none" stroke-width="1.825"/></g><g id="uid_658"><path d="M18.856,49.044 L25.609,45.668 18.309,42.018 11.647,45.394 18.856,49.044Z" fill="#23A0F3" stroke="none" stroke-width="1.825"/></g></g><g id="uid_659"><g id="uid_660"><path d="M32.078,14.36 L31.944,18.738 35.985,20.758 36.052,16.381 32.078,14.36Z" fill="#1A76B5" stroke="none" stroke-width="1.347"/></g><g id="uid_661"><path d="M39.756,14.562 L36.052,16.381 35.985,20.758 39.622,18.94 39.756,14.562Z" fill="#23A0F3" stroke="none" stroke-width="1.347"/></g><g id="uid_662"><path d="M36.052,16.381 L39.756,14.562 35.783,12.542 32.146,14.36 36.052,16.381Z" fill="#23A0F3" stroke="none" stroke-width="1.347"/></g></g><use opacity="0" transform="matrix(1.666 0 0 1.666 27.85 15.65)" xlink:href="#uid_650"/><use transform="matrix(1.181 0 0 1.181 40.3 28.8)" xlink:href="#uid_650"/><use opacity=".75" transform="translate(40.35 6.75)" xlink:href="#uid_650"/><use opacity="0" transform="translate(40.35 13.65)" xlink:href="#uid_650"/><use opacity="0" transform="matrix(1.512 0 0 1.512 62.25 45.2)" xlink:href="#uid_650"/><use transform="matrix(1.454 0 0 1.454 49.2 11.8)" xlink:href="#uid_650"/><use opacity=".12" transform="translate(59.4 17.95)" xlink:href="#uid_650"/><use opacity=".4" transform="translate(40.2 21.95)" xlink:href="#uid_650"/><use opacity=".2" transform="matrix(1.144 0 0 1.144 62.55 19.05)" xlink:href="#uid_650"/><use opacity=".6" transform="matrix(1.499 0 0 1.499 56.7 6.9)" xlink:href="#uid_650"/><use transform="translate(40.25 39.75)" xlink:href="#uid_650"/></g></g></g><g transform="translate(20, 5086.0)"><g transform="translate(-0.0, -0.0)"><defs><g id="uid_664" overflow="visible"><g id="uid_665" transform="matrix(1.098 0 0 1.098 0 0)"><path d="M-2.25 -1.35L-2.35 1.3 .1 2.5 .15 -.15 -2.25 -1.35Z" fill="#1A76B5" stroke="none"/></g><g id="uid_666" transform="matrix(1.098 0 0 1.098 0 0)"><path d="M2.4 -1.25L.15 -.15 .1 2.5 2.3 1.4 2.4 -1.25Z" fill="#23A0F3" stroke="none"/></g><g id="uid_667" transform="matrix(1.098 0 0 1.098 0 0)"><path d="M.15 -.15L2.4 -1.25 0 -2.45 -2.2 -1.35 .15 -.15Z" fill="#23A0F3" stroke="none"/></g></g></defs><g id="uid_668" overflow="visible"><use opacity=".2" transform="matrix(1.389 0 0 1.389 17.3 18.7)" xlink:href="#uid_664"/><use transform="matrix(1.348 0 0 1.348 28.65 4.75)" xlink:href="#uid_664"/><path d="M40.35,41.85 L38,40.6 38,56.05 37.95,76.3 40.25,77.45 40.3,56.05 40.35,41.85Z" fill="#1A76B5" stroke="none"/><path d="M40.25,56.1 L40.2,77.5 Q41.85,76.9 42.4,76.4 L42.45,56.1 42.5,40.8 40.3,41.9 40.25,56.1Z" fill="#23A0F3" stroke="none"/><path d="M38,40.7 L40.35,41.95 42.45,40.85 40.15,39.65 38,40.7Z" fill="#23A0F3" stroke="none"/><g id="uid_669" opacity="0"><g id="uid_670"><path d="M11.465,45.394 L11.282,53.333 18.674,57.074 18.856,49.044 11.465,45.394Z" fill="#1A76B5" stroke="none" stroke-width="1.825"/></g><g id="uid_671"><path d="M25.609,45.668 L18.856,49.044 18.674,57.074 25.335,53.698 25.609,45.668Z" fill="#23A0F3" stroke="none" stroke-width="1.825"/></g><g id="uid_672"><path d="M18.856,49.044 L25.609,45.668 18.309,42.018 11.647,45.394 18.856,49.044Z" fill="#23A0F3" stroke="none" stroke-width="1.825"/></g></g><g id="uid_673"><g id="uid_674"><path d="M30.428,13.71 L30.294,18.088 34.335,20.108 34.402,15.731 30.428,13.71Z" fill="#1A76B5" stroke="none" stroke-width="1.347"/></g><g id="uid_675"><path d="M38.106,13.912 L34.402,15.731 34.335,20.108 37.972,18.29 38.106,13.912Z" fill="#23A0F3" stroke="none" stroke-width="1.347"/></g><g id="uid_676"><path d="M34.402,15.731 L38.106,13.912 34.133,11.892 30.496,13.71 34.402,15.731Z" fill="#23A0F3" stroke="none" stroke-width="1.347"/></g></g><use opacity="0" transform="matrix(1.666 0 0 1.666 27.85 15.65)" xlink:href="#uid_664"/><use transform="matrix(1.242 0 0 1.242 40.3 25.2)" xlink:href="#uid_664"/><use opacity=".5" transform="translate(40.35 8.5)" xlink:href="#uid_664"/><use opacity="0" transform="translate(40.35 13.65)" xlink:href="#uid_664"/><use opacity="0" transform="matrix(1.512 0 0 1.512 62.25 45.2)" xlink:href="#uid_664"/><use transform="matrix(1.469 0 0 1.469 51.3 11.8)" xlink:href="#uid_664"/><use opacity="0" transform="translate(60.25 18.85)" xlink:href="#uid_664"/><use opacity=".2" transform="translate(40.2 21.7)" xlink:href="#uid_664"/><use opacity="0" transform="matrix(1.144 0 0 1.144 62.95 21.15)" xlink:href="#uid_664"/><use opacity=".4" transform="matrix(1.484 0 0 1.484 57.35 7.35)" xlink:href="#uid_664"/><use transform="matrix(1.101 0 0 1.101 40.2 32.55)" xlink:href="#uid_664"/></g></g></g><g transform="translate(20, 5186.0)"><g transform="translate(-0.0, -0.0)"><defs><g id="uid_678" overflow="visible"><g id="uid_679" transform="matrix(1.098 0 0 1.098 0 0)"><path d="M-2.25 -1.35L-2.35 1.3 .1 2.5 .15 -.15 -2.25 -1.35Z" fill="#1A76B5" stroke="none"/></g><g id="uid_680" transform="matrix(1.098 0 0 1.098 0 0)"><path d="M2.4 -1.25L.15 -.15 .1 2.5 2.3 1.4 2.4 -1.25Z" fill="#23A0F3" stroke="none"/></g><g id="uid_681" transform="matrix(1.098 0 0 1.098 0 0)"><path d="M.15 -.15L2.4 -1.25 0 -2.45 -2.2 -1.35 .15 -.15Z" fill="#23A0F3" stroke="none"/></g></g></defs><g id="uid_682" overflow="visible"><use opacity="0" transform="matrix(1.389 0 0 1.389 17.55 20.75)" xlink:href="#uid_678"/><use transform="matrix(1.355 0 0 1.355 27.6 4.95)" xlink:href="#uid_678"/><path d="M40.35,41.85 L38,40.6 38,56.05 37.95,76.3 40.25,77.45 40.3,56.05 40.35,41.85Z" fill="#1A76B5" stroke="none"/><path d="M40.25,56.1 L40.2,77.5 Q41.85,76.9 42.4,76.4 L42.45,56.1 42.5,40.8 40.3,41.9 40.25,56.1Z" fill="#23A0F3" stroke="none"/><path d="M38,40.7 L40.35,41.95 42.45,40.85 40.15,39.65 38,40.7Z" fill="#23A0F3" stroke="none"/><g id="uid_683" opacity="0"><g id="uid_684"><path d="M11.465,45.394 L11.282,53.333 18.674,57.074 18.856,49.044 11.465,45.394Z" fill="#1A76B5" stroke="none" stroke-width="1.825"/></g><g id="uid_685"><path d="M25.609,45.668 L18.856,49.044 18.674,57.074 25.335,53.698 25.609,45.668Z" fill="#23A0F3" stroke="none" stroke-width="1.825"/></g><g id="uid_686"><path d="M18.856,49.044 L25.609,45.668 18.309,42.018 11.647,45.394 18.856,49.044Z" fill="#23A0F3" stroke="none" stroke-width="1.825"/></g></g><g id="uid_687"><g id="uid_688"><path d="M28.678,13.31 L28.544,17.688 32.585,19.708 32.652,15.331 28.678,13.31Z" fill="#1A76B5" stroke="none" stroke-width="1.347"/></g><g id="uid_689"><path d="M36.356,13.512 L32.652,15.331 32.585,19.708 36.222,17.89 36.356,13.512Z" fill="#23A0F3" stroke="none" stroke-width="1.347"/></g><g id="uid_690"><path d="M32.652,15.331 L36.356,13.512 32.383,11.492 28.746,13.31 32.652,15.331Z" fill="#23A0F3" stroke="none" stroke-width="1.347"/></g></g><use opacity="0" transform="matrix(1.666 0 0 1.666 27.85 15.65)" xlink:href="#uid_678"/><use transform="matrix(1.302 0 0 1.302 40.05 21.6)" xlink:href="#uid_678"/><use opacity=".25" transform="translate(40.35 10.3)" xlink:href="#uid_678"/><use opacity="0" transform="translate(40.35 13.65)" xlink:href="#uid_678"/><use opacity="0" transform="matrix(1.512 0 0 1.512 62.25 45.2)" xlink:href="#uid_678"/><use transform="matrix(1.483 0 0 1.483 53.35 12.25)" xlink:href="#uid_678"/><use opacity="0" transform="translate(60.25 18.85)" xlink:href="#uid_678"/><use opacity="0" transform="translate(40.35 21.45)" xlink:href="#uid_678"/><use opacity="0" transform="matrix(1.144 0 0 1.144 62.95 21.15)" xlink:href="#uid_678"/><use opacity=".2" transform="matrix(1.469 0 0 1.469 58.05 7.8)" xlink:href="#uid_678"/><use transform="matrix(1.201 0 0 1.201 40.2 25.3)" xlink:href="#uid_678"/></g></g></g><g transform="translate(20, 5286.0)"><g transform="translate(-0.0, -0.0)"><defs><g id="uid_692" overflow="visible"><g id="uid_693" transform="matrix(1.098 0 0 1.098 0 0)"><path d="M-2.25 -1.35L-2.35 1.3 .1 2.5 .15 -.15 -2.25 -1.35Z" fill="#1A76B5" stroke="none"/></g><g id="uid_694" transform="matrix(1.098 0 0 1.098 0 0)"><path d="M2.4 -1.25L.15 -.15 .1 2.5 2.3 1.4 2.4 -1.25Z" fill="#23A0F3" stroke="none"/></g><g id="uid_695" transform="matrix(1.098 0 0 1.098 0 0)"><path d="M.15 -.15L2.4 -1.25 0 -2.45 -2.2 -1.35 .15 -.15Z" fill="#23A0F3" stroke="none"/></g></g></defs><g id="uid_696" overflow="visible"><use opacity="0" transform="matrix(1.389 0 0 1.389 17.55 20.75)" xlink:href="#uid_692"/><use transform="matrix(1.362 0 0 1.362 26.5 5)" xlink:href="#uid_692"/><path d="M40.35,41.85 L38,40.6 38,56.05 37.95,76.3 40.25,77.45 40.3,56.05 40.35,41.85Z" fill="#1A76B5" stroke="none"/><path d="M40.25,56.1 L40.2,77.5 Q41.85,76.9 42.4,76.4 L42.45,56.1 42.5,40.8 40.3,41.9 40.25,56.1Z" fill="#23A0F3" stroke="none"/><path d="M38,40.7 L40.35,41.95 42.45,40.85 40.15,39.65 38,40.7Z" fill="#23A0F3" stroke="none"/><g id="uid_697" opacity="0"><g id="uid_698"><path d="M11.465,45.394 L11.282,53.333 18.674,57.074 18.856,49.044 11.465,45.394Z" fill="#1A76B5" stroke="none" stroke-width="1.825"/></g><g id="uid_699"><path d="M25.609,45.668 L18.856,49.044 18.674,57.074 25.335,53.698 25.609,45.668Z" fill="#23A0F3" stroke="none" stroke-width="1.825"/></g><g id="uid_700"><path d="M18.856,49.044 L25.609,45.668 18.309,42.018 11.647,45.394 18.856,49.044Z" fill="#23A0F3" stroke="none" stroke-width="1.825"/></g></g><g id="uid_701"><g id="uid_702"><path d="M24.461,11.674 L24.288,18.866 30.873,22.159 31.047,14.967 24.461,11.674Z" fill="#1A76B5" stroke="none" stroke-width="1.733"/></g><g id="uid_703"><path d="M37.199,11.934 L31.047,14.967 30.873,22.159 36.852,19.126 37.199,11.934Z" fill="#23A0F3" stroke="none" stroke-width="1.733"/></g><g id="uid_704"><path d="M31.047,14.967 L37.199,11.934 30.613,8.641 24.548,11.674 31.047,14.967Z" fill="#23A0F3" stroke="none" stroke-width="1.733"/></g></g><use opacity="0" transform="matrix(1.666 0 0 1.666 27.85 15.65)" xlink:href="#uid_692"/><use transform="matrix(1.363 0 0 1.363 38.4 18.4)" xlink:href="#uid_692"/><use opacity="0" transform="translate(40.35 12.05)" xlink:href="#uid_692"/><use opacity="0" transform="translate(40.35 13.65)" xlink:href="#uid_692"/><use opacity="0" transform="matrix(1.512 0 0 1.512 62.25 45.2)" xlink:href="#uid_692"/><use transform="matrix(1.497 0 0 1.497 55.3 13.05)" xlink:href="#uid_692"/><use opacity="0" transform="translate(60.25 18.85)" xlink:href="#uid_692"/><use opacity="0" transform="translate(40.35 21.45)" xlink:href="#uid_692"/><use opacity="0" transform="matrix(1.144 0 0 1.144 62.95 21.15)" xlink:href="#uid_692"/><use opacity="0" transform="matrix(1.454 0 0 1.454 58.7 8.05)" xlink:href="#uid_692"/><use transform="matrix(1.302 0 0 1.302 40.15 18.1)" xlink:href="#uid_692"/></g></g></g><g transform="translate(20, 5386.0)"><g transform="translate(-0.0, -0.0)"><defs><g id="uid_706" overflow="visible"><g id="uid_707" transform="matrix(1.098 0 0 1.098 0 0)"><path d="M-2.25 -1.35L-2.35 1.3 .1 2.5 .15 -.15 -2.25 -1.35Z" fill="#1A76B5" stroke="none"/></g><g id="uid_708" transform="matrix(1.098 0 0 1.098 0 0)"><path d="M2.4 -1.25L.15 -.15 .1 2.5 2.3 1.4 2.4 -1.25Z" fill="#23A0F3" stroke="none"/></g><g id="uid_709" transform="matrix(1.098 0 0 1.098 0 0)"><path d="M.15 -.15L2.4 -1.25 0 -2.45 -2.2 -1.35 .15 -.15Z" fill="#23A0F3" stroke="none"/></g></g></defs><g id="uid_710" overflow="visible"><use opacity="0" transform="matrix(1.389 0 0 1.389 17.55 20.75)" xlink:href="#uid_706"/><use transform="matrix(1.369 0 0 1.369 25.5 5.2)" xlink:href="#uid_706"/><path d="M40.35,41.85 L38,40.6 38,56.05 37.95,76.3 40.25,77.45 40.3,56.05 40.35,41.85Z" fill="#1A76B5" stroke="none"/><path d="M40.25,56.1 L40.2,77.5 Q41.85,76.9 42.4,76.4 L42.45,56.1 42.5,40.8 40.3,41.9 40.25,56.1Z" fill="#23A0F3" stroke="none"/><path d="M38,40.7 L40.35,41.95 42.45,40.85 40.15,39.65 38,40.7Z" fill="#23A0F3" stroke="none"/><g id="uid_711" opacity="0"><g id="uid_712"><path d="M11.465,45.394 L11.282,53.333 18.674,57.074 18.856,49.044 11.465,45.394Z" fill="#1A76B5" stroke="none" stroke-width="1.825"/></g><g id="uid_713"><path d="M25.609,45.668 L18.856,49.044 18.674,57.074 25.335,53.698 25.609,45.668Z" fill="#23A0F3" stroke="none" stroke-width="1.825"/></g><g id="uid_714"><path d="M18.856,49.044 L25.609,45.668 18.309,42.018 11.647,45.394 18.856,49.044Z" fill="#23A0F3" stroke="none" stroke-width="1.825"/></g></g><g id="uid_715"><g id="uid_716"><path d="M22.461,11.824 L22.288,19.016 28.873,22.309 29.047,15.117 22.461,11.824Z" fill="#1A76B5" stroke="none" stroke-width="1.733"/></g><g id="uid_717"><path d="M35.199,12.084 L29.047,15.117 28.873,22.309 34.852,19.276 35.199,12.084Z" fill="#23A0F3" stroke="none" stroke-width="1.733"/></g><g id="uid_718"><path d="M29.047,15.117 L35.199,12.084 28.613,8.791 22.548,11.824 29.047,15.117Z" fill="#23A0F3" stroke="none" stroke-width="1.733"/></g></g><use opacity="0" transform="matrix(1.666 0 0 1.666 27.85 15.65)" xlink:href="#uid_706"/><use transform="matrix(1.423 0 0 1.423 35.3 16.4)" xlink:href="#uid_706"/><use opacity="0" transform="translate(40.35 12.05)" xlink:href="#uid_706"/><use opacity="0" transform="translate(40.35 13.65)" xlink:href="#uid_706"/><use opacity="0" transform="matrix(1.512 0 0 1.512 62.25 45.2)" xlink:href="#uid_706"/><use transform="matrix(1.512 0 0 1.512 56.9 14.2)" xlink:href="#uid_706"/><use opacity="0" transform="translate(60.25 18.85)" xlink:href="#uid_706"/><use opacity="0" transform="translate(40.35 21.45)" xlink:href="#uid_706"/><use opacity="0" transform="matrix(1.144 0 0 1.144 62.95 21.15)" xlink:href="#uid_706"/><use opacity="0" transform="matrix(1.454 0 0 1.454 58.7 8.05)" xlink:href="#uid_706"/><use transform="matrix(1.402 0 0 1.402 42.2 11.2)" xlink:href="#uid_706"/></g></g></g><g transform="translate(20, 5486.0)"><g transform="translate(-0.0, -0.0)"><defs><g id="uid_720" overflow="visible"><g id="uid_721" transform="matrix(1.098 0 0 1.098 0 0)"><path d="M-2.25 -1.35L-2.35 1.3 .1 2.5 .15 -.15 -2.25 -1.35Z" fill="#1A76B5" stroke="none"/></g><g id="uid_722" transform="matrix(1.098 0 0 1.098 0 0)"><path d="M2.4 -1.25L.15 -.15 .1 2.5 2.3 1.4 2.4 -1.25Z" fill="#23A0F3" stroke="none"/></g><g id="uid_723" transform="matrix(1.098 0 0 1.098 0 0)"><path d="M.15 -.15L2.4 -1.25 0 -2.45 -2.2 -1.35 .15 -.15Z" fill="#23A0F3" stroke="none"/></g></g></defs><g id="uid_724" overflow="visible"><use opacity="0" transform="matrix(1.389 0 0 1.389 17.55 20.75)" xlink:href="#uid_720"/><use transform="matrix(1.376 0 0 1.376 24.45 5.45)" xlink:href="#uid_720"/><path d="M40.35,41.85 L38,40.6 38,56.05 37.95,76.3 40.25,77.45 40.3,56.05 40.35,41.85Z" fill="#1A76B5" stroke="none"/><path d="M40.25,56.1 L40.2,77.5 Q41.85,76.9 42.4,76.4 L42.45,56.1 42.5,40.8 40.3,41.9 40.25,56.1Z" fill="#23A0F3" stroke="none"/><path d="M38,40.7 L40.35,41.95 42.45,40.85 40.15,39.65 38,40.7Z" fill="#23A0F3" stroke="none"/><g id="uid_725" opacity="0"><g id="uid_726"><path d="M11.465,45.394 L11.282,53.333 18.674,57.074 18.856,49.044 11.465,45.394Z" fill="#1A76B5" stroke="none" stroke-width="1.825"/></g><g id="uid_727"><path d="M25.609,45.668 L18.856,49.044 18.674,57.074 25.335,53.698 25.609,45.668Z" fill="#23A0F3" stroke="none" stroke-width="1.825"/></g><g id="uid_728"><path d="M18.856,49.044 L25.609,45.668 18.309,42.018 11.647,45.394 18.856,49.044Z" fill="#23A0F3" stroke="none" stroke-width="1.825"/></g></g><g id="uid_729"><g id="uid_730"><path d="M20.511,12.324 L20.338,19.516 26.923,22.809 27.097,15.617 20.511,12.324Z" fill="#1A76B5" stroke="none" stroke-width="1.733"/></g><g id="uid_731"><path d="M33.249,12.584 L27.097,15.617 26.923,22.809 32.902,19.776 33.249,12.584Z" fill="#23A0F3" stroke="none" stroke-width="1.733"/></g><g id="uid_732"><path d="M27.097,15.617 L33.249,12.584 26.663,9.291 20.598,12.324 27.097,15.617Z" fill="#23A0F3" stroke="none" stroke-width="1.733"/></g></g><use opacity="0" transform="matrix(1.666 0 0 1.666 27.85 15.65)" xlink:href="#uid_720"/><use transform="matrix(1.458 0 0 1.458 34.3 16.05)" xlink:href="#uid_720"/><use opacity="0" transform="translate(40.35 12.05)" xlink:href="#uid_720"/><use opacity="0" transform="translate(40.35 13.65)" xlink:href="#uid_720"/><use opacity="0" transform="matrix(1.512 0 0 1.512 62.25 45.2)" xlink:href="#uid_720"/><use transform="matrix(1.512 0 0 1.512 58.7 15.85)" xlink:href="#uid_720"/><use opacity="0" transform="translate(60.25 18.85)" xlink:href="#uid_720"/><use opacity="0" transform="translate(40.35 21.45)" xlink:href="#uid_720"/><use opacity="0" transform="matrix(1.144 0 0 1.144 62.95 21.15)" xlink:href="#uid_720"/><use opacity="0" transform="matrix(1.454 0 0 1.454 58.7 8.05)" xlink:href="#uid_720"/><use transform="matrix(1.423 0 0 1.423 43 10.1)" xlink:href="#uid_720"/></g></g></g><g transform="translate(20, 5586.0)"><g transform="translate(-0.0, -0.0)"><defs><g id="uid_734" overflow="visible"><g id="uid_735" transform="matrix(1.098 0 0 1.098 0 0)"><path d="M-2.25 -1.35L-2.35 1.3 .1 2.5 .15 -.15 -2.25 -1.35Z" fill="#1A76B5" stroke="none"/></g><g id="uid_736" transform="matrix(1.098 0 0 1.098 0 0)"><path d="M2.4 -1.25L.15 -.15 .1 2.5 2.3 1.4 2.4 -1.25Z" fill="#23A0F3" stroke="none"/></g><g id="uid_737" transform="matrix(1.098 0 0 1.098 0 0)"><path d="M.15 -.15L2.4 -1.25 0 -2.45 -2.2 -1.35 .15 -.15Z" fill="#23A0F3" stroke="none"/></g></g></defs><g id="uid_738" overflow="visible"><use transform="matrix(1.186 0 0 1.186 38.4 11.3)" xlink:href="#uid_734"/><use transform="matrix(1.389 0 0 1.389 20.2 8.2)" xlink:href="#uid_734"/><path d="M40.35,44.85 L38,43.6 37.95,76.3 40.25,77.45 40.35,44.85Z" fill="#1A76B5" stroke="none"/><path d="M40.3,44.9 L40.2,77.5 Q41.85,76.9 42.4,76.4 L42.5,43.8 40.3,44.9Z" fill="#23A0F3" stroke="none"/><path d="M40.15,42.65 L38,43.7 40.35,44.95 42.45,43.85 40.15,42.65Z" fill="#23A0F3" stroke="none"/><use transform="translate(40.3 23.8)" xlink:href="#uid_734"/><g id="uid_739" opacity=".8"><g id="uid_740"><path d="M11.965,20.694 L11.782,28.633 19.174,32.374 19.356,24.344 11.965,20.694Z" fill="#1A76B5" stroke="none" stroke-width="1.825"/></g><g id="uid_741"><path d="M26.109,20.968 L19.356,24.344 19.174,32.374 25.835,28.998 26.109,20.968Z" fill="#23A0F3" stroke="none" stroke-width="1.825"/></g><g id="uid_742"><path d="M19.356,24.344 L26.109,20.968 18.809,17.318 12.147,20.694 19.356,24.344Z" fill="#23A0F3" stroke="none" stroke-width="1.825"/></g></g><use opacity=".5" transform="matrix(1.596 0 0 1.596 30.05 15.3)" xlink:href="#uid_734"/><use transform="translate(40.35 39.75)" xlink:href="#uid_734"/><use transform="matrix(1.085 0 0 1.085 41.35 34.4)" xlink:href="#uid_734"/><use transform="matrix(1.512 0 0 1.512 61.95 25.2)" xlink:href="#uid_734"/><use transform="translate(40.3 17.95)" xlink:href="#uid_734"/><use transform="matrix(1.508 0 0 1.508 47.05 6.9)" xlink:href="#uid_734"/></g></g></g><g transform="translate(20, 5686.0)"><g transform="translate(-0.0, -0.0)"><defs><g id="uid_744" overflow="visible"><g id="uid_745" transform="matrix(1.098 0 0 1.098 0 0)"><path d="M-2.25 -1.35L-2.35 1.3 .1 2.5 .15 -.15 -2.25 -1.35Z" fill="#1A76B5" stroke="none"/></g><g id="uid_746" transform="matrix(1.098 0 0 1.098 0 0)"><path d="M2.4 -1.25L.15 -.15 .1 2.5 2.3 1.4 2.4 -1.25Z" fill="#23A0F3" stroke="none"/></g><g id="uid_747" transform="matrix(1.098 0 0 1.098 0 0)"><path d="M.15 -.15L2.4 -1.25 0 -2.45 -2.2 -1.35 .15 -.15Z" fill="#23A0F3" stroke="none"/></g></g></defs><g id="uid_748" overflow="visible"><use transform="matrix(1.247 0 0 1.247 33.6 6.45)" xlink:href="#uid_744"/><use transform="matrix(1.389 0 0 1.389 19.4 9.45)" xlink:href="#uid_744"/><path d="M40.35,45.95 L38,44.7 37.95,76.35 40.25,77.5 40.35,45.95Z" fill="#1A76B5" stroke="none"/><path d="M40.3,45.95 L40.2,77.5 Q41.85,76.9 42.4,76.4 L42.5,44.85 40.3,45.95Z" fill="#23A0F3" stroke="none"/><path d="M40.15,43.7 L38,44.75 40.35,46 42.45,44.9 40.15,43.7Z" fill="#23A0F3" stroke="none"/><g id="uid_749"><g id="uid_750"><path d="M34.928,16.56 L34.794,20.938 38.835,22.958 38.902,18.581 34.928,16.56Z" fill="#1A76B5" stroke="none" stroke-width="1.347"/></g><g id="uid_751"><path d="M42.606,16.762 L38.902,18.581 38.835,22.958 42.472,21.14 42.606,16.762Z" fill="#23A0F3" stroke="none" stroke-width="1.347"/></g><g id="uid_752"><path d="M38.902,18.581 L42.606,16.762 38.633,14.742 34.996,16.56 38.902,18.581Z" fill="#23A0F3" stroke="none" stroke-width="1.347"/></g></g><g id="uid_753" opacity=".6"><g id="uid_754"><path d="M11.415,26.894 L11.233,34.833 18.624,38.574 18.806,30.544 11.415,26.894Z" fill="#1A76B5" stroke="none" stroke-width="1.825"/></g><g id="uid_755"><path d="M25.559,27.168 L18.806,30.544 18.624,38.574 25.285,35.198 25.559,27.168Z" fill="#23A0F3" stroke="none" stroke-width="1.825"/></g><g id="uid_756"><path d="M18.806,30.544 L25.559,27.168 18.259,23.518 11.598,26.894 18.806,30.544Z" fill="#23A0F3" stroke="none" stroke-width="1.825"/></g></g><use opacity=".25" transform="matrix(1.631 0 0 1.631 29 15.4)" xlink:href="#uid_744"/><use transform="translate(40.35 31.9)" xlink:href="#uid_744"/><use transform="matrix(1.17 0 0 1.17 42.35 29.05)" xlink:href="#uid_744"/><use opacity=".8" transform="matrix(1.512 0 0 1.512 62 29.2)" xlink:href="#uid_744"/><use transform="translate(42.95 11.35)" xlink:href="#uid_744"/><use transform="matrix(1.53 0 0 1.53 48.1 6.2)" xlink:href="#uid_744"/></g></g></g><g transform="translate(20, 5786.0)"><g transform="translate(-0.0, -0.0)"><defs><g id="uid_758" overflow="visible"><g id="uid_759" transform="matrix(1.098 0 0 1.098 0 0)"><path d="M-2.25 -1.35L-2.35 1.3 .1 2.5 .15 -.15 -2.25 -1.35Z" fill="#1A76B5" stroke="none"/></g><g id="uid_760" transform="matrix(1.098 0 0 1.098 0 0)"><path d="M2.4 -1.25L.15 -.15 .1 2.5 2.3 1.4 2.4 -1.25Z" fill="#23A0F3" stroke="none"/></g><g id="uid_761" transform="matrix(1.098 0 0 1.098 0 0)"><path d="M.15 -.15L2.4 -1.25 0 -2.45 -2.2 -1.35 .15 -.15Z" fill="#23A0F3" stroke="none"/></g></g></defs><g id="uid_762" overflow="visible"><use transform="matrix(1.264 0 0 1.264 32.85 6.05)" xlink:href="#uid_758"/><use transform="matrix(1.389 0 0 1.389 18.85 10.9)" xlink:href="#uid_758"/><path d="M40.35,44.55 L38,43.3 37.95,76.3 40.25,77.45 40.35,44.55Z" fill="#1A76B5" stroke="none"/><path d="M40.3,44.6 L40.2,77.5 Q41.85,76.9 42.4,76.4 L42.5,43.5 40.3,44.6Z" fill="#23A0F3" stroke="none"/><path d="M40.15,42.35 L38,43.4 40.35,44.65 42.45,43.55 40.15,42.35Z" fill="#23A0F3" stroke="none"/><g id="uid_763"><g id="uid_764"><path d="M33.628,15.31 L33.494,19.688 37.535,21.708 37.602,17.331 33.628,15.31Z" fill="#1A76B5" stroke="none" stroke-width="1.347"/></g><g id="uid_765"><path d="M41.306,15.512 L37.602,17.331 37.535,21.708 41.172,19.89 41.306,15.512Z" fill="#23A0F3" stroke="none" stroke-width="1.347"/></g><g id="uid_766"><path d="M37.602,17.331 L41.306,15.512 37.333,13.492 33.696,15.31 37.602,17.331Z" fill="#23A0F3" stroke="none" stroke-width="1.347"/></g></g><g id="uid_767" opacity=".4"><g id="uid_768"><path d="M11.415,33.044 L11.233,40.983 18.624,44.724 18.806,36.694 11.415,33.044Z" fill="#1A76B5" stroke="none" stroke-width="1.825"/></g><g id="uid_769"><path d="M25.559,33.317 L18.806,36.694 18.624,44.724 25.285,41.348 25.559,33.317Z" fill="#23A0F3" stroke="none" stroke-width="1.825"/></g><g id="uid_770"><path d="M18.806,36.694 L25.559,33.317 18.259,29.668 11.598,33.044 18.806,36.694Z" fill="#23A0F3" stroke="none" stroke-width="1.825"/></g></g><use opacity="0" transform="matrix(1.666 0 0 1.666 27.85 15.65)" xlink:href="#uid_758"/><use transform="translate(40.35 24.05)" xlink:href="#uid_758"/><use transform="matrix(1.255 0 0 1.255 43.3 23.65)" xlink:href="#uid_758"/><use opacity=".6" transform="matrix(1.512 0 0 1.512 62 33.2)" xlink:href="#uid_758"/><use transform="translate(40.35 42.25)" xlink:href="#uid_758"/><use transform="matrix(1.036 0 0 1.036 44.6 9.75)" xlink:href="#uid_758"/><use transform="translate(40.25 39.75)" xlink:href="#uid_758"/><use transform="matrix(1.529 0 0 1.529 49.25 5.9)" xlink:href="#uid_758"/></g></g></g><g transform="translate(20, 5886.0)"><g transform="translate(-0.0, -0.0)"><defs><g id="uid_772" overflow="visible"><g id="uid_773" transform="matrix(1.098 0 0 1.098 0 0)"><path d="M-2.25 -1.35L-2.35 1.3 .1 2.5 .15 -.15 -2.25 -1.35Z" fill="#1A76B5" stroke="none"/></g><g id="uid_774" transform="matrix(1.098 0 0 1.098 0 0)"><path d="M2.4 -1.25L.15 -.15 .1 2.5 2.3 1.4 2.4 -1.25Z" fill="#23A0F3" stroke="none"/></g><g id="uid_775" transform="matrix(1.098 0 0 1.098 0 0)"><path d="M.15 -.15L2.4 -1.25 0 -2.45 -2.2 -1.35 .15 -.15Z" fill="#23A0F3" stroke="none"/></g></g></defs><g id="uid_776" overflow="visible"><use transform="matrix(1.281 0 0 1.281 32.1 5.75)" xlink:href="#uid_772"/><use opacity=".8" transform="matrix(1.389 0 0 1.389 18.15 12.75)" xlink:href="#uid_772"/><path d="M40.35,43.25 L38,42 37.95,76.35 40.25,77.5 40.35,43.25Z" fill="#1A76B5" stroke="none"/><path d="M40.3,43.2 L40.2,77.45 Q41.85,76.85 42.4,76.35 L42.5,42.1 40.3,43.2Z" fill="#23A0F3" stroke="none"/><path d="M40.15,41 L38,42.05 40.35,43.3 42.45,42.2 40.15,41Z" fill="#23A0F3" stroke="none"/><g id="uid_777"><g id="uid_778"><path d="M32.078,14.36 L31.944,18.738 35.985,20.758 36.052,16.381 32.078,14.36Z" fill="#1A76B5" stroke="none" stroke-width="1.347"/></g><g id="uid_779"><path d="M39.756,14.562 L36.052,16.381 35.985,20.758 39.622,18.94 39.756,14.562Z" fill="#23A0F3" stroke="none" stroke-width="1.347"/></g><g id="uid_780"><path d="M36.052,16.381 L39.756,14.562 35.783,12.542 32.146,14.36 36.052,16.381Z" fill="#23A0F3" stroke="none" stroke-width="1.347"/></g></g><g id="uid_781" opacity=".2"><g id="uid_782"><path d="M11.415,39.244 L11.233,47.183 18.624,50.924 18.806,42.894 11.415,39.244Z" fill="#1A76B5" stroke="none" stroke-width="1.825"/></g><g id="uid_783"><path d="M25.559,39.518 L18.806,42.894 18.624,50.924 25.285,47.548 25.559,39.518Z" fill="#23A0F3" stroke="none" stroke-width="1.825"/></g><g id="uid_784"><path d="M18.806,42.894 L25.559,39.518 18.259,35.868 11.598,39.244 18.806,42.894Z" fill="#23A0F3" stroke="none" stroke-width="1.825"/></g></g><use transform="translate(40.35 16.2)" xlink:href="#uid_772"/><use transform="matrix(1.34 0 0 1.34 44.25 18.35)" xlink:href="#uid_772"/><use opacity=".4" transform="matrix(1.512 0 0 1.512 62 37.2)" xlink:href="#uid_772"/><use transform="translate(40.2 36.35)" xlink:href="#uid_772"/><use transform="matrix(1.072 0 0 1.072 46.45 8.45)" xlink:href="#uid_772"/><use transform="matrix(1.101 0 0 1.101 40.2 32.55)" xlink:href="#uid_772"/><use transform="matrix(1.529 0 0 1.529 50.5 5.7)" xlink:href="#uid_772"/></g></g></g><g transform="translate(20, 5986.0)"><g transform="translate(-0.0, -0.0)"><defs><g id="uid_786" overflow="visible"><g id="uid_787" transform="matrix(1.098 0 0 1.098 0 0)"><path d="M-2.25 -1.35L-2.35 1.3 .1 2.5 .15 -.15 -2.25 -1.35Z" fill="#1A76B5" stroke="none"/></g><g id="uid_788" transform="matrix(1.098 0 0 1.098 0 0)"><path d="M2.4 -1.25L.15 -.15 .1 2.5 2.3 1.4 2.4 -1.25Z" fill="#23A0F3" stroke="none"/></g><g id="uid_789" transform="matrix(1.098 0 0 1.098 0 0)"><path d="M.15 -.15L2.4 -1.25 0 -2.45 -2.2 -1.35 .15 -.15Z" fill="#23A0F3" stroke="none"/></g></g></defs><g id="uid_790" overflow="visible"><use transform="matrix(1.298 0 0 1.298 31.25 5.45)" xlink:href="#uid_786"/><use opacity=".6" transform="matrix(1.389 0 0 1.389 17.75 14.7)" xlink:href="#uid_786"/><path d="M40.35,41.85 L38,40.6 37.95,76.3 40.25,77.45 40.35,41.85Z" fill="#1A76B5" stroke="none"/><path d="M40.3,41.9 L40.2,77.5 Q41.85,76.9 42.4,76.4 L42.5,40.8 40.3,41.9Z" fill="#23A0F3" stroke="none"/><path d="M40.15,39.65 L38,40.7 40.35,41.95 42.45,40.85 40.15,39.65Z" fill="#23A0F3" stroke="none"/><g id="uid_791"><g id="uid_792"><path d="M30.428,13.71 L30.294,18.088 34.335,20.108 34.402,15.731 30.428,13.71Z" fill="#1A76B5" stroke="none" stroke-width="1.347"/></g><g id="uid_793"><path d="M38.106,13.912 L34.402,15.731 34.335,20.108 37.972,18.29 38.106,13.912Z" fill="#23A0F3" stroke="none" stroke-width="1.347"/></g><g id="uid_794"><path d="M34.402,15.731 L38.106,13.912 34.133,11.892 30.496,13.71 34.402,15.731Z" fill="#23A0F3" stroke="none" stroke-width="1.347"/></g></g><g id="uid_795" opacity="0"><g id="uid_796"><path d="M11.465,45.394 L11.282,53.333 18.674,57.074 18.856,49.044 11.465,45.394Z" fill="#1A76B5" stroke="none" stroke-width="1.825"/></g><g id="uid_797"><path d="M25.609,45.668 L18.856,49.044 18.674,57.074 25.335,53.698 25.609,45.668Z" fill="#23A0F3" stroke="none" stroke-width="1.825"/></g><g id="uid_798"><path d="M18.856,49.044 L25.609,45.668 18.309,42.018 11.647,45.394 18.856,49.044Z" fill="#23A0F3" stroke="none" stroke-width="1.825"/></g></g><use transform="translate(40.35 39.75)" xlink:href="#uid_786"/><use transform="translate(40.35 8.35)" xlink:href="#uid_786"/><use transform="matrix(1.425 0 0 1.425 45.25 12.85)" xlink:href="#uid_786"/><use opacity=".2" transform="matrix(1.512 0 0 1.512 62 41.2)" xlink:href="#uid_786"/><use transform="translate(40.2 30.5)" xlink:href="#uid_786"/><use transform="matrix(1.108 0 0 1.108 48.5 7.45)" xlink:href="#uid_786"/><use transform="matrix(1.201 0 0 1.201 40.2 25.3)" xlink:href="#uid_786"/><use transform="matrix(1.529 0 0 1.529 51.7 5.65)" xlink:href="#uid_786"/></g></g></g><g transform="translate(20, 6086.0)"><g transform="translate(-0.0, -0.0)"><defs><g id="uid_800" overflow="visible"><g id="uid_801" transform="matrix(1.098 0 0 1.098 0 0)"><path d="M-2.25 -1.35L-2.35 1.3 .1 2.5 .15 -.15 -2.25 -1.35Z" fill="#1A76B5" stroke="none"/></g><g id="uid_802" transform="matrix(1.098 0 0 1.098 0 0)"><path d="M2.4 -1.25L.15 -.15 .1 2.5 2.3 1.4 2.4 -1.25Z" fill="#23A0F3" stroke="none"/></g><g id="uid_803" transform="matrix(1.098 0 0 1.098 0 0)"><path d="M.15 -.15L2.4 -1.25 0 -2.45 -2.2 -1.35 .15 -.15Z" fill="#23A0F3" stroke="none"/></g></g></defs><g id="uid_804" overflow="visible"><use transform="matrix(1.315 0 0 1.315 30.4 5.2)" xlink:href="#uid_800"/><use opacity=".4" transform="matrix(1.389 0 0 1.389 17.45 16.7)" xlink:href="#uid_800"/><path d="M40.35,40.5 L38,39.25 38,56.05 37.95,76.3 40.25,77.45 40.3,56.05 40.35,40.5Z" fill="#1A76B5" stroke="none"/><path d="M40.25,56.1 L40.2,77.5 Q41.85,76.9 42.4,76.4 L42.45,56.1 42.5,39.45 40.3,40.55 40.25,56.1Z" fill="#23A0F3" stroke="none"/><path d="M38,39.35 L40.35,40.6 42.45,39.5 40.15,38.3 38,39.35Z" fill="#23A0F3" stroke="none"/><g id="uid_805"><g id="uid_806"><path d="M28.678,13.31 L28.544,17.688 32.585,19.708 32.652,15.331 28.678,13.31Z" fill="#1A76B5" stroke="none" stroke-width="1.347"/></g><g id="uid_807"><path d="M36.356,13.512 L32.652,15.331 32.585,19.708 36.222,17.89 36.356,13.512Z" fill="#23A0F3" stroke="none" stroke-width="1.347"/></g><g id="uid_808"><path d="M32.652,15.331 L36.356,13.512 32.383,11.492 28.746,13.31 32.652,15.331Z" fill="#23A0F3" stroke="none" stroke-width="1.347"/></g></g><use transform="matrix(1.06 0 0 1.06 40.3 36.1)" xlink:href="#uid_800"/><use transform="translate(40.35 7.65)" xlink:href="#uid_800"/><use transform="matrix(1.44 0 0 1.44 47.2 13.1)" xlink:href="#uid_800"/><use opacity="0" transform="matrix(1.512 0 0 1.512 62.25 45.2)" xlink:href="#uid_800"/><use transform="translate(40.2 24.6)" xlink:href="#uid_800"/><use transform="matrix(1.144 0 0 1.144 50.75 7.05)" xlink:href="#uid_800"/><use transform="matrix(1.302 0 0 1.302 40.15 18.1)" xlink:href="#uid_800"/><use transform="matrix(1.529 0 0 1.529 52.9 5.75)" xlink:href="#uid_800"/></g></g></g><g transform="translate(20, 6186.0)"><g transform="translate(-0.0, -0.0)"><defs><g id="uid_810" overflow="visible"><g id="uid_811" transform="matrix(1.098 0 0 1.098 0 0)"><path d="M-2.25 -1.35L-2.35 1.3 .1 2.5 .15 -.15 -2.25 -1.35Z" fill="#1A76B5" stroke="none"/></g><g id="uid_812" transform="matrix(1.098 0 0 1.098 0 0)"><path d="M2.4 -1.25L.15 -.15 .1 2.5 2.3 1.4 2.4 -1.25Z" fill="#23A0F3" stroke="none"/></g><g id="uid_813" transform="matrix(1.098 0 0 1.098 0 0)"><path d="M.15 -.15L2.4 -1.25 0 -2.45 -2.2 -1.35 .15 -.15Z" fill="#23A0F3" stroke="none"/></g></g></defs><g id="uid_814" overflow="visible"><use transform="matrix(1.331 0 0 1.331 29.55 5.05)" xlink:href="#uid_810"/><use opacity=".2" transform="matrix(1.389 0 0 1.389 17.3 18.7)" xlink:href="#uid_810"/><path d="M40.35,41.45 L38,40.2 37.95,76.35 40.25,77.5 40.35,41.45Z" fill="#1A76B5" stroke="none"/><path d="M40.3,41.45 L40.2,77.5 Q41.85,76.9 42.4,76.4 L42.5,40.35 40.3,41.45Z" fill="#23A0F3" stroke="none"/><path d="M40.15,39.2 L38,40.25 40.35,41.5 42.45,40.4 40.15,39.2Z" fill="#23A0F3" stroke="none"/><g id="uid_815"><g id="uid_816"><path d="M24.461,11.674 L24.288,18.866 30.873,22.159 31.047,14.967 24.461,11.674Z" fill="#1A76B5" stroke="none" stroke-width="1.733"/></g><g id="uid_817"><path d="M37.199,11.934 L31.047,14.967 30.873,22.159 36.852,19.126 37.199,11.934Z" fill="#23A0F3" stroke="none" stroke-width="1.733"/></g><g id="uid_818"><path d="M31.047,14.967 L37.199,11.934 30.613,8.641 24.548,11.674 31.047,14.967Z" fill="#23A0F3" stroke="none" stroke-width="1.733"/></g></g><use transform="matrix(1.121 0 0 1.121 40.3 32.45)" xlink:href="#uid_810"/><use transform="translate(40.35 7)" xlink:href="#uid_810"/><use transform="translate(40.35 39.75)" xlink:href="#uid_810"/><use transform="matrix(1.454 0 0 1.454 49.15 13.35)" xlink:href="#uid_810"/><use transform="translate(40.55 18.8)" xlink:href="#uid_810"/><use transform="translate(40.35 42.25)" xlink:href="#uid_810"/><use transform="matrix(1.144 0 0 1.144 51.8 6.9)" xlink:href="#uid_810"/><use transform="matrix(1.402 0 0 1.402 42.2 11.2)" xlink:href="#uid_810"/><use transform="matrix(1.529 0 0 1.529 54.15 5.95)" xlink:href="#uid_810"/></g></g></g>
</svg>