<?xml version="1.0" ?><svg height="25909.0px" viewBox="0 0 168.0 25909.0" width="168.0px" xmlns="http://www.w3.org/2000/svg" xmlns:xlink="http://www.w3.org/1999/xlink">
<g transform="translate(20, 18361.0)"><g transform="translate(-0.0, -0.0)"><g id="uid_986" overflow="visible"><g id="uid_987"><path d="M64,128.05 L64,64.05 0,32.05 0,96.05 64,128.05Z" fill="#9A779A" stroke="none"/></g></g></g></g><g transform="translate(20, 18509.0)"><g transform="translate(-0.0, -0.0)"><g id="uid_989" overflow="visible"><g id="uid_990"><path d="M46.45,72.85 L17.6,58.45 17.6,87.3 46.45,101.75 46.45,72.85Z" fill="#9A779A" stroke="none"/></g></g></g></g><g transform="translate(20, 18657.0)"><g transform="translate(-0.0, -0.0)"><g id="uid_992" overflow="visible"><g id="uid_993"><path d="M44.3,73.95 L19.75,61.65 19.75,86.25 44.3,98.55 44.3,73.95Z" fill="#9A779A" stroke="none"/></g></g></g></g><g transform="translate(20, 18805.0)"><g transform="translate(-0.0, -0.0)"><g id="uid_995" overflow="visible"><g id="uid_996"><path d="M42.55,74.8 L21.5,64.3 21.5,85.35 42.55,95.9 42.55,74.8Z" fill="#9A779A" stroke="none"/></g></g></g></g><g transform="translate(20, 18953.0)"><g transform="translate(-0.0, -0.0)"><g id="uid_998" overflow="visible"><g id="uid_999"><path d="M41.2,75.5 L22.9,66.35 22.9,84.7 41.2,93.85 41.2,75.5Z" fill="#9A779A" stroke="none"/></g></g></g></g><g transform="translate(20, 19101.0)"><g transform="translate(-0.0, -0.0)"><g id="uid_1001" overflow="visible"><g id="uid_1002"><path d="M40.25,76 L23.85,67.85 23.85,84.2 40.25,92.35 40.25,76Z" fill="#9A779A" stroke="none"/></g></g></g></g><g transform="translate(20, 19249.0)"><g transform="translate(-0.0, -0.0)"><g id="uid_1004" overflow="visible"><g id="uid_1005"><path d="M39.65,76.3 L24.45,68.7 24.45,83.9 39.65,91.5 39.65,76.3Z" fill="#9A779A" stroke="none"/></g></g></g></g><g transform="translate(20, 19397.0)"><g transform="translate(-0.0, -0.0)"><g id="uid_1007" overflow="visible"><g id="uid_1008"><path d="M39.45,76.4 L24.65,69 24.65,83.8 39.45,91.2 39.45,76.4Z" fill="#9A779A" stroke="none"/></g></g></g></g><g transform="translate(20, 19545.0)"><g transform="translate(-0.0, -0.0)"><g id="uid_1010" overflow="visible"/></g></g><g transform="translate(20, 19693.0)"><g transform="translate(-0.0, -0.0)"><g id="uid_1012" overflow="visible"><g id="uid_1013"><path d="M128.2,96 L128.2,32 64.25,64 64.25,128 128.2,96Z" fill="#B78AB5" stroke="none"/></g></g></g></g><g transform="translate(20, 19841.0)"><g transform="translate(-0.0, -0.0)"><g id="uid_1015" overflow="visible"><g id="uid_1016"><path d="M116.4,37.9 L64.25,64 64.25,128 116.4,101.9 116.4,37.9Z" fill="#B78AB5" stroke="none"/></g></g></g></g><g transform="translate(20, 19989.0)"><g transform="translate(-0.0, -0.0)"><g id="uid_1018" overflow="visible"><g id="uid_1019"><path d="M104.65,43.75 L64.25,64 64.25,128 104.65,107.75 104.65,43.75Z" fill="#B78AB5" stroke="none"/></g></g></g></g><g transform="translate(20, 20137.0)"><g transform="translate(-0.0, -0.0)"><g id="uid_1021" overflow="visible"><g id="uid_1022"><path d="M92.85,49.65 L64.25,64 64.25,128 92.85,113.65 92.85,49.65Z" fill="#B78AB5" stroke="none"/></g></g></g></g><g transform="translate(20, 20285.0)"><g transform="translate(-0.0, -0.0)"><g id="uid_1024" overflow="visible"><g id="uid_1025"><path d="M81.1,55.5 L64.25,64 64.25,128 81.1,119.5 81.1,55.5Z" fill="#B78AB5" stroke="none"/></g></g></g></g><g transform="translate(20, 20433.0)"><g transform="translate(-0.0, -0.0)"><g id="uid_1027" overflow="visible"><g id="uid_1028"><path d="M69.3,61.4 L64.25,64 64.25,128 69.3,125.4 69.3,61.4Z" fill="#B78AB5" stroke="none"/></g></g></g></g><g transform="translate(20, 20581.0)"><g transform="translate(-0.0, -0.0)"><g id="uid_1030" overflow="visible"/></g></g><g transform="translate(20, 20729.0)"><g transform="translate(-0.0, -0.0)"><g id="uid_1032" overflow="visible"><g id="uid_1033"><path d="M128.25,32.05 L64.25,.05 .3,32.05 64.25,64.05 128.25,32.05Z" fill="#B78AB5" stroke="none"/></g></g></g></g><g transform="translate(20, 20877.0)"><g transform="translate(-0.0, -0.0)"><g id="uid_1035" overflow="visible"><g id="uid_1036"><path d="M127.6,32.05 L64.25,.35 .95,32.05 64.25,63.75 127.6,32.05Z" fill="#B78AB5" stroke="none"/></g></g></g></g><g transform="translate(20, 21025.0)"><g transform="translate(-0.0, -0.0)"><g id="uid_1038" overflow="visible"><g id="uid_1039"><path d="M125.65,32.05 L64.25,1.35 2.9,32.05 64.25,62.75 125.65,32.05Z" fill="#B78AB5" stroke="none"/></g></g></g></g><g transform="translate(20, 21173.0)"><g transform="translate(-0.0, -0.0)"><g id="uid_1041" overflow="visible"><g id="uid_1042"><path d="M122.45,32.05 L64.25,2.95 6.1,32.05 64.25,61.15 122.45,32.05Z" fill="#B78AB5" stroke="none"/></g></g></g></g><g transform="translate(20, 21321.0)"><g transform="translate(-0.0, -0.0)"><g id="uid_1044" overflow="visible"><g id="uid_1045"><path d="M117.95,32.1 L64.25,5.25 10.6,32.1 64.25,58.95 117.95,32.1Z" fill="#B78AB5" stroke="none"/></g></g></g></g><g transform="translate(20, 21469.0)"><g transform="translate(-0.0, -0.0)"><g id="uid_1047" overflow="visible"><g id="uid_1048"><path d="M112.15,32.1 L64.25,8.15 16.4,32.1 64.25,56.05 112.15,32.1Z" fill="#B78AB5" stroke="none"/></g></g></g></g><g transform="translate(20, 21617.0)"><g transform="translate(-0.0, -0.0)"><g id="uid_1050" overflow="visible"><g id="uid_1051"><path d="M35.35,32.1 L64.3,46.6 93.25,32.1 64.3,17.6 35.35,32.1Z" fill="#B78AB5" stroke="none"/></g></g></g></g><g transform="translate(20, 21765.0)"><g transform="translate(-0.0, -0.0)"><g id="uid_1053" overflow="visible"><g id="uid_1054"><path d="M46.7,32.1 L64.3,40.9 81.9,32.1 64.3,23.3 46.7,32.1Z" fill="#B78AB5" stroke="none"/></g></g></g></g><g transform="translate(20, 21913.0)"><g transform="translate(-0.0, -0.0)"><g id="uid_1056" overflow="visible"><g id="uid_1057"><path d="M50.5,32.1 L64.3,39 78.1,32.1 64.3,25.2 50.5,32.1Z" fill="#B78AB5" stroke="none"/></g></g></g></g><g transform="translate(20, 22061.0)"><g transform="translate(-0.0, -0.0)"><g id="uid_1059" overflow="visible"/></g></g><g transform="translate(20, 22209.0)"><g transform="translate(-0.0, -0.0)"><g id="uid_1061" overflow="visible"><g id="uid_1062"><path d="M64,128.1 L64,64.05 0,32.05 0,96.1 64,128.1Z" fill="#EDB0E8" stroke="none"/></g></g></g></g><g transform="translate(20, 22357.0)"><g transform="translate(-0.0, -0.0)"><g id="uid_1064" overflow="visible"><g id="uid_1065"><path d="M43.85,74.15 L20.15,62.3 20.15,86 43.85,97.85 43.85,74.15Z" fill="#EDB0E8" stroke="none"/></g></g></g></g><g transform="translate(20, 22505.0)"><g transform="translate(-0.0, -0.0)"><g id="uid_1067" overflow="visible"><g id="uid_1068"><path d="M35.4,78.4 L28.7,75.05 28.7,81.75 35.4,85.1 35.4,78.4Z" fill="#EDB0E8" stroke="none"/></g></g></g></g><g transform="translate(20, 22653.0)"><g transform="translate(-0.0, -0.0)"><g id="uid_1070" overflow="visible"><g id="uid_1071"><path d="M34.45,78.85 L29.65,76.45 29.65,81.3 34.45,83.7 34.45,78.85Z" fill="#EDB0E8" stroke="none"/></g></g></g></g><g transform="translate(20, 22801.0)"><g transform="translate(-0.0, -0.0)"><g id="uid_1073" overflow="visible"/></g></g><g transform="translate(20, 22949.0)"><g transform="translate(-0.0, -0.0)"><g id="uid_1075" overflow="visible"><g id="uid_1076"><path d="M42.9,74.6 L21.1,63.7 21.1,85.55 42.9,96.45 42.9,74.6Z" fill="#EDB0E8" stroke="none"/></g></g></g></g><g transform="translate(20, 23097.0)"><g transform="translate(-0.0, -0.0)"><g id="uid_1078" overflow="visible"><g id="uid_1079"><path d="M41.95,75.1 L22.05,65.15 22.05,85.05 41.95,95 41.95,75.1Z" fill="#EDB0E8" stroke="none"/></g></g></g></g><g transform="translate(20, 23245.0)"><g transform="translate(-0.0, -0.0)"><g id="uid_1081" overflow="visible"><g id="uid_1082"><path d="M41.05,75.55 L23,66.55 23,84.6 41.05,93.6 41.05,75.55Z" fill="#EDB0E8" stroke="none"/></g></g></g></g><g transform="translate(20, 23393.0)"><g transform="translate(-0.0, -0.0)"><g id="uid_1084" overflow="visible"><g id="uid_1085"><path d="M40.1,76.05 L23.95,67.95 23.95,84.1 40.1,92.2 40.1,76.05Z" fill="#EDB0E8" stroke="none"/></g></g></g></g><g transform="translate(20, 23541.0)"><g transform="translate(-0.0, -0.0)"><g id="uid_1087" overflow="visible"><g id="uid_1088"><path d="M39.15,76.5 L24.9,69.4 24.9,83.65 39.15,90.8 39.15,76.5Z" fill="#EDB0E8" stroke="none"/></g></g></g></g><g transform="translate(20, 23689.0)"><g transform="translate(-0.0, -0.0)"><g id="uid_1090" overflow="visible"><g id="uid_1091"><path d="M38.2,76.95 L25.85,70.8 25.85,83.2 38.2,89.35 38.2,76.95Z" fill="#EDB0E8" stroke="none"/></g></g></g></g><g transform="translate(20, 23837.0)"><g transform="translate(-0.0, -0.0)"><g id="uid_1093" overflow="visible"><g id="uid_1094"><path d="M37.25,77.45 L26.8,72.2 26.8,82.7 37.25,87.95 37.25,77.45Z" fill="#EDB0E8" stroke="none"/></g></g></g></g><g transform="translate(20, 23985.0)"><g transform="translate(-0.0, -0.0)"><g id="uid_1096" overflow="visible"><g id="uid_1097"><path d="M36.35,77.9 L27.75,73.6 27.75,82.25 36.35,86.55 36.35,77.9Z" fill="#EDB0E8" stroke="none"/></g></g></g></g><g transform="translate(20, 24133.0)"><g transform="translate(-0.0, -0.0)"><g id="uid_1099" overflow="visible"><g id="uid_1100"><path d="M127.95,32.15 L63.95,64.15 63.95,128.15 127.95,96.15 127.95,32.15Z" fill="#EDB0E8" stroke="none"/></g></g></g></g><g transform="translate(20, 24281.0)"><g transform="translate(-0.0, -0.0)"><g id="uid_1102" overflow="visible"><g id="uid_1103"><path d="M115.75,38.25 L63.95,64.15 63.95,128.15 115.75,102.25 115.75,38.25Z" fill="#EDB0E8" stroke="none"/></g></g></g></g><g transform="translate(20, 24429.0)"><g transform="translate(-0.0, -0.0)"><g id="uid_1105" overflow="visible"><g id="uid_1106"><path d="M103.55,44.35 L63.95,64.15 63.95,128.15 103.5,108.35 103.55,44.35Z" fill="#EDB0E8" stroke="none"/></g></g></g></g><g transform="translate(20, 24577.0)"><g transform="translate(-0.0, -0.0)"><g id="uid_1108" overflow="visible"><g id="uid_1109"><path d="M91.3,50.5 L63.95,64.15 63.95,128.15 91.3,114.45 91.3,50.5Z" fill="#EDB0E8" stroke="none"/></g></g></g></g><g transform="translate(20, 24725.0)"><g transform="translate(-0.0, -0.0)">
<g id="uid_1111" overflow="visible"><g id="uid_1112"><path d="M79.1,56.6 L63.95,64.15 63.95,128.15 79.05,120.55 79.1,56.6Z" fill="#EDB0E8" stroke="none"/></g></g></g></g><g transform="translate(20, 24873.0)"><g transform="translate(-0.0, -0.0)"><g id="uid_1114" overflow="visible"><g id="uid_1115"><path d="M66.9,62.7 L63.95,64.15 63.95,128.15 66.85,126.65 66.9,62.7Z" fill="#EDB0E8" stroke="none"/></g></g></g></g><g transform="translate(20, 20581.0)"><g transform="translate(-0.0, -0.0)"/></g><g transform="translate(20, 25021.0)"><g transform="translate(-0.0, -0.0)"><g id="uid_1118" overflow="visible"><g id="uid_1119"><path d="M0.05,32.05 L64.05,64.05 128,32.05 64.05,.05 .05,32.05Z" fill="#EDB0E8" stroke="none"/></g></g></g></g><g transform="translate(20, 25169.0)"><g transform="translate(-0.0, -0.0)"><g id="uid_1121" overflow="visible"><g id="uid_1122"><path d="M0.05,32.05 L64.05,64.05 128,32.05 64.05,.05 .05,32.05 M64,36.2 L55.7,32.05 64,27.9 72.3,32.05 64,36.2Z" fill="#EDB0E8" stroke="none"/></g></g></g></g><g transform="translate(20, 25317.0)"><g transform="translate(-0.0, -0.0)"><g id="uid_1124" overflow="visible"><g id="uid_1125"><path d="M0.05,32.05 L64.05,64.05 128,32.05 64.05,.05 .05,32.05 M64,17.85 L92.35,32.05 64,46.25 35.65,32.05 64,17.85Z" fill="#EDB0E8" stroke="none"/></g></g></g></g><g transform="translate(20, 25465.0)"><g transform="translate(-0.0, -0.0)"><g id="uid_1127" overflow="visible"><g id="uid_1128"><path d="M0.05,32.05 L64.05,64.05 128,32.05 64.05,.05 .05,32.05 M64.05,10.1 L107.95,32.05 64.05,54 20.1,32.05 64.05,10.1Z" fill="#EDB0E8" stroke="none"/></g></g></g></g><g transform="translate(20, 25613.0)"><g transform="translate(-0.0, -0.0)"><g id="uid_1130" overflow="visible"><g id="uid_1131"><path d="M0.05,32.05 L64.05,64.05 128,32.05 64.05,.05 .05,32.05 M119.1,32.05 L64.05,59.6 8.95,32.05 64.05,4.5 119.1,32.05Z" fill="#EDB0E8" stroke="none"/></g></g></g></g><g transform="translate(20, 25761.0)"><g transform="translate(-0.0, -0.0)"><g id="uid_1133" overflow="visible"><g id="uid_1134"><path d="M0.05,32.05 L64.05,64.05 128,32.05 64.05,.05 .05,32.05 M2.3,32.05 L64.05,1.15 125.75,32.05 64.05,62.95 2.3,32.05Z" fill="#EDB0E8" stroke="none"/></g></g></g></g><g transform="translate(20, 20581.0)"><g transform="translate(-0.0, -0.0)"/></g></svg>