<?xml version="1.0" standalone="no"?>
<!DOCTYPE svg PUBLIC "-//W3C//DTD SVG 20010904//EN"
 "http://www.w3.org/TR/2001/REC-SVG-20010904/DTD/svg10.dtd">
<svg version="1.0" xmlns="http://www.w3.org/2000/svg"
 width="1056.000000pt" height="1056.000000pt" viewBox="0 0 1056.000000 1056.000000"
 preserveAspectRatio="xMidYMid meet">
<metadata>
Created by potrace 1.11, written by Peter Selinger 2001-2013
</metadata>
<g transform="translate(0.000000,1056.000000) scale(0.100000,-0.100000)"
fill="#000000" stroke="none">
<path d="M2122 6643 l3 -3918 60 -2 c33 -2 68 -5 78 -7 9 -2 17 -1 17 2 0 8
234 6 255 -2 8 -3 15 -2 15 2 0 8 118 8 126 -1 3 -3 19 -1 35 3 17 5 31 5 35
-1 3 -5 10 -6 16 -3 14 9 263 9 277 0 6 -4 11 -4 11 1 0 4 17 7 37 6 21 -1 45
-2 54 -2 14 -1 15 -133 14 -1348 0 -742 1 -1354 3 -1360 3 -10 440 -13 2141
-13 l2136 0 0 1356 c0 803 4 1358 9 1361 8 5 183 7 196 3 3 -2 9 -2 14 -1 7 1
91 2 186 1 8 -1 54 1 103 2 48 2 87 0 87 -4 0 -4 7 -5 15 -1 24 9 245 9 245 0
0 -5 5 -5 11 -1 7 4 40 7 75 6 l64 -1 0 2249 c0 2133 -1 2249 -17 2254 -17 5
-18 94 -18 1668 l0 1663 -1020 0 -1019 0 -1 -1665 0 -1665 -1100 0 -1100 0 -1
201 c0 110 -4 205 -8 212 -4 7 -4 12 1 12 4 0 7 39 5 87 -3 110 -3 79 0 284 1
96 -2 181 -6 187 -4 7 -4 12 1 12 10 0 9 232 -1 248 -4 7 -4 12 1 12 10 0 9
262 -1 278 -3 6 -3 13 1 15 5 3 7 92 5 199 -3 233 -2 191 -2 328 0 63 0 122 0
130 0 8 1 74 2 146 1 71 -2 135 -5 141 -4 7 -4 14 0 16 10 6 9 380 -1 395 -4
7 -4 12 1 12 4 0 8 61 8 135 0 74 -4 135 -8 135 -5 0 -5 5 -1 12 7 11 8 47 5
118 -1 20 -8 20 -1021 20 l-1020 0 2 -3917z"/>
</g>
</svg>
