<?xml version="1.0" standalone="no"?>
<!DOCTYPE svg PUBLIC "-//W3C//DTD SVG 20010904//EN"
 "http://www.w3.org/TR/2001/REC-SVG-20010904/DTD/svg10.dtd">
<svg version="1.0" xmlns="http://www.w3.org/2000/svg"
 width="1064.000000pt" height="1064.000000pt" viewBox="0 0 1064.000000 1064.000000"
 preserveAspectRatio="xMidYMid meet">
<metadata>
Created by potrace 1.11, written by Peter Selinger 2001-2013
</metadata>
<g transform="translate(0.000000,1064.000000) scale(0.100000,-0.100000)"
fill="#000000" stroke="none">
<path d="M3836 9640 l-50 -5 -3 -810 c-1 -445 -3 -811 -3 -812 -4 -16 -1 -134
4 -141 4 -6 2 -13 -2 -16 -10 -6 -9 -36 1 -52 3 -6 4 -14 1 -17 -10 -9 -10
-557 0 -557 5 0 4 -6 -1 -12 -11 -16 -11 -4887 0 -4906 5 -6 5 -12 0 -12 -4 0
-8 -62 -8 -137 l0 -138 -68 -1 c-38 -1 -71 -5 -74 -8 -3 -3 -12 -1 -19 5 -8 6
-14 6 -18 0 -5 -8 -59 0 -69 10 -1 1 -12 -3 -24 -9 -14 -8 -24 -8 -28 -2 -3 6
-15 6 -30 0 -16 -6 -27 -6 -31 1 -3 6 -10 6 -17 1 -7 -5 -21 -6 -32 -2 -11 4
-30 4 -42 -1 -13 -5 -25 -4 -29 2 -4 7 -10 7 -18 0 -7 -6 -15 -8 -18 -6 -7 7
-489 7 -496 1 -2 -3 -13 -1 -23 5 -13 6 -25 6 -38 -1 -13 -6 -22 -7 -26 0 -3
6 -15 6 -30 0 -16 -6 -27 -6 -31 1 -3 6 -10 6 -17 1 -7 -5 -21 -6 -32 -2 -11
4 -30 4 -42 -1 -13 -5 -25 -4 -29 2 -4 7 -10 7 -18 0 -7 -6 -15 -8 -19 -5 -4
5 -71 6 -177 3 -8 0 -138 0 -288 1 -151 1 -277 -1 -280 -4 -3 -3 -11 -1 -18 5
-8 6 -14 6 -18 0 -5 -8 -59 0 -69 10 -1 1 -12 -3 -24 -9 -14 -8 -24 -8 -28 -2
-3 6 -15 6 -30 0 -16 -6 -27 -6 -31 1 -3 6 -10 6 -17 1 -7 -5 -21 -6 -32 -2
-11 4 -30 4 -42 -1 -13 -5 -25 -4 -29 2 -4 7 -10 7 -18 0 -7 -6 -15 -8 -19 -5
-7 7 -166 8 -174 0 -3 -3 -14 -1 -24 5 -13 6 -25 6 -38 -1 -13 -6 -22 -7 -26
0 -3 6 -15 6 -30 0 -16 -6 -27 -6 -31 1 -3 6 -10 6 -17 1 -7 -5 -21 -6 -32 -2
-11 4 -30 4 -42 -1 -13 -5 -25 -4 -29 2 -4 7 -10 7 -18 0 -7 -6 -15 -8 -19 -5
-3 3 -41 5 -84 5 -91 -2 -98 -2 -181 0 -35 0 -66 -2 -69 -5 -3 -3 -14 -1 -24
5 -13 6 -25 6 -38 -1 -13 -6 -22 -7 -26 0 -3 6 -15 6 -30 0 -16 -6 -27 -6 -31
1 -3 6 -10 6 -17 1 -7 -5 -21 -6 -32 -2 -11 4 -30 4 -42 -1 -13 -5 -25 -4 -29
2 -4 7 -10 7 -18 0 -7 -6 -15 -8 -18 -5 -9 8 -154 8 -168 -1 -6 -4 -9 -13 -6
-21 3 -8 1 -14 -5 -14 -6 0 -7 -5 -4 -10 7 -11 8 -63 2 -116 -2 -18 0 -40 4
-50 3 -11 3 -29 -2 -41 -5 -15 -5 -23 2 -23 6 0 6 -6 0 -18 -5 -10 -6 -24 -1
-31 4 -8 5 -25 1 -40 -7 -28 -6 -90 3 -98 2 -3 1 -16 -4 -29 -6 -16 -6 -24 1
-24 6 0 6 -6 0 -18 -5 -10 -6 -24 -1 -31 4 -8 5 -25 1 -40 -7 -28 -6 -90 3
-98 2 -3 1 -16 -4 -29 -6 -16 -6 -24 1 -24 6 0 6 -6 0 -18 -5 -10 -6 -24 -1
-31 4 -8 5 -25 1 -40 -3 -14 -5 -39 -4 -56 2 -16 3 -42 4 -57 l0 -28 2420 0
c1928 0 2419 3 2420 13 0 6 1 1943 2 4304 2 3808 0 4291 -13 4292 -26 1 -49 2
-82 2 -18 0 -46 1 -63 2 -16 1 -40 -1 -52 -5 -12 -4 -25 -3 -28 1 -3 5 -20 6
-38 2 -18 -5 -41 -6 -52 -4 -11 2 -24 4 -30 4 -5 0 -28 0 -50 0 -22 -1 -53 0
-70 2 -16 1 -40 -1 -52 -5 -12 -4 -25 -3 -28 1 -3 5 -20 6 -38 2 -18 -5 -41
-6 -52 -4 -11 3 -28 5 -37 4 -66 -1 -86 0 -113 2 -16 1 -40 -1 -52 -5 -12 -4
-25 -3 -28 1 -3 5 -22 5 -42 0 -44 -9 -43 -9 -63 0 -8 4 -37 4 -64 1z"/>
<path d="M5822 9638 l-27 -7 0 -4301 0 -4300 2423 0 2422 0 0 494 0 495 -86 3
c-47 2 -93 0 -102 -3 -9 -4 -25 -2 -34 3 -11 5 -25 5 -37 -2 -13 -6 -22 -7
-26 0 -3 6 -15 6 -30 0 -16 -6 -27 -6 -31 1 -3 6 -10 6 -17 1 -7 -5 -21 -6
-32 -2 -11 4 -30 4 -42 -1 -13 -5 -25 -4 -29 2 -4 7 -10 7 -18 0 -7 -6 -15 -8
-19 -5 -4 5 -71 6 -177 3 -8 0 -138 0 -288 1 -151 1 -277 -1 -280 -4 -3 -3
-11 -1 -18 5 -8 6 -14 6 -18 0 -4 -6 -18 -6 -36 -1 -37 11 -40 10 -62 -1 -10
-6 -19 -5 -23 1 -3 6 -15 6 -30 0 -16 -6 -27 -6 -31 1 -3 6 -10 6 -17 1 -7 -5
-21 -6 -32 -2 -11 4 -30 4 -42 -1 -13 -5 -25 -4 -29 2 -4 7 -10 7 -18 0 -7 -6
-15 -8 -19 -5 -7 7 -166 8 -174 0 -3 -3 -14 -1 -24 5 -13 6 -25 6 -38 -1 -13
-6 -22 -7 -26 0 -3 6 -15 6 -30 0 -16 -6 -27 -6 -31 1 -3 6 -10 6 -17 1 -7 -5
-21 -6 -32 -2 -11 4 -30 4 -42 -1 -13 -5 -25 -4 -29 2 -4 7 -10 7 -18 0 -7 -6
-15 -8 -19 -5 -3 3 -41 5 -84 5 -91 -2 -98 -2 -181 0 -35 0 -66 -2 -69 -5 -3
-3 -14 -1 -24 5 -13 6 -25 6 -38 -1 -13 -6 -22 -7 -26 0 -3 6 -15 6 -30 0 -16
-6 -27 -6 -31 1 -3 6 -10 6 -17 1 -7 -5 -21 -6 -32 -2 -11 4 -30 4 -42 -1 -13
-5 -25 -4 -29 2 -4 7 -10 7 -18 0 -7 -6 -15 -8 -19 -5 -4 5 -40 5 -182 3 -11
0 -121 0 -244 1 -123 0 -226 -2 -229 -4 -2 -3 -13 -1 -23 5 -13 6 -25 6 -38
-1 -13 -6 -22 -7 -26 0 -3 6 -15 6 -30 0 -16 -6 -27 -6 -31 1 -4 7 -10 7 -18
0 -6 -6 -18 -6 -25 -2 -8 5 -26 5 -41 1 -16 -5 -32 -4 -38 2 -6 6 -12 6 -16 0
-3 -5 -16 -7 -29 -5 l-23 5 -1 2986 c-1 2989 -6 4618 -14 4627 -4 3 -42 5
-104 5 -11 0 -41 0 -67 1 -25 1 -50 -1 -55 -4 -5 -3 -15 -2 -22 3 -8 4 -27 4
-42 0 -19 -6 -29 -5 -29 2 0 7 -4 7 -13 -1 -8 -6 -16 -8 -19 -6 -9 9 -81 12
-104 4 -11 -4 -27 -4 -34 1 -7 4 -26 4 -41 0 -19 -6 -29 -5 -29 2 0 7 -4 7
-13 -1 -8 -6 -16 -8 -19 -6 -9 9 -82 11 -105 3 -13 -4 -25 -3 -28 3 -4 5 -11
7 -16 3 -6 -3 -36 -5 -67 -4 -31 1 -63 1 -69 1 -29 -2 -41 -2 -101 1 -34 2
-75 0 -90 -4z"/>
</g>
</svg>
