<?xml version="1.0" standalone="no"?>
<!DOCTYPE svg PUBLIC "-//W3C//DTD SVG 20010904//EN"
 "http://www.w3.org/TR/2001/REC-SVG-20010904/DTD/svg10.dtd">
<svg version="1.0" xmlns="http://www.w3.org/2000/svg"
 width="6000.000000pt" height="4000.000000pt" viewBox="0 0 6000.000000 4000.000000"
 preserveAspectRatio="xMidYMid meet">
<metadata>
Created by potrace 1.16, written by Peter Selinger 2001-2019
</metadata>
<g transform="translate(0.000000,4000.000000) scale(0.100000,-0.100000)"
fill="#000000" stroke="none">
<path d="M0 20000 l0 -20000 30000 0 30000 0 0 20000 0 20000 -30000 0 -30000
0 0 -20000z m30338 8716 c14 -23 33 -38 64 -49 66 -22 127 -64 134 -91 7 -29
71 -82 109 -92 15 -4 46 -21 69 -38 22 -18 64 -43 91 -57 28 -13 74 -39 102
-57 29 -18 65 -37 80 -43 16 -6 53 -25 83 -42 30 -17 76 -39 101 -48 25 -9 57
-27 71 -40 14 -13 36 -31 49 -41 21 -14 22 -17 7 -23 -9 -4 -34 1 -55 11 -48
23 -203 111 -267 152 -27 17 -65 37 -85 43 -20 6 -44 18 -54 27 -9 8 -20 12
-24 9 -3 -4 -1 -7 5 -7 6 0 14 -21 18 -46 8 -53 -6 -43 229 -164 220 -112 246
-131 239 -168 -5 -25 -1 -29 54 -54 32 -16 66 -28 76 -28 16 0 73 -27 86 -40
3 -3 30 -17 60 -32 30 -14 86 -50 124 -78 112 -84 214 -154 254 -174 98 -50
222 -134 270 -182 29 -29 62 -56 73 -59 10 -4 19 -11 19 -16 0 -5 5 -9 11 -9
6 0 29 -16 52 -35 22 -19 50 -35 61 -36 12 0 15 -3 8 -6 -16 -6 29 -43 52 -43
33 0 82 -29 141 -82 33 -30 74 -62 92 -71 17 -9 98 -83 180 -164 81 -82 164
-161 183 -177 19 -16 63 -56 98 -88 49 -45 70 -58 95 -58 18 0 52 -9 76 -20
54 -25 73 -25 96 0 10 11 28 20 41 20 13 0 26 5 29 10 3 6 21 10 38 10 21 0
45 10 66 28 l34 28 -27 42 c-14 23 -26 46 -26 52 0 5 -4 10 -9 10 -4 0 -25 16
-45 35 -21 19 -41 35 -45 35 -4 0 -30 25 -58 55 -29 30 -55 55 -59 55 -16 0
-84 75 -84 92 0 25 36 23 58 -3 33 -42 356 -369 364 -369 4 0 12 9 18 19 8 16
3 28 -25 65 -19 26 -35 51 -35 56 0 18 17 10 34 -15 9 -14 24 -25 34 -25 10 0
22 -4 27 -8 18 -15 93 -35 114 -29 26 6 34 -5 56 -73 10 -30 27 -71 38 -90 13
-23 17 -45 14 -67 -3 -18 -2 -33 3 -33 8 0 7 -50 -4 -285 -2 -33 -7 -71 -11
-85 -5 -14 -7 -27 -6 -29 2 -2 -3 -7 -10 -11 -13 -9 -5 -40 11 -40 5 0 10 11
10 25 0 14 5 25 10 25 14 0 11 -85 -7 -180 -8 -41 -20 -120 -27 -175 -7 -55
-18 -113 -24 -130 -6 -16 -20 -102 -32 -190 -11 -88 -23 -172 -26 -186 -3 -15
-1 -30 4 -33 7 -4 13 12 17 41 8 61 35 156 45 163 4 3 11 50 15 105 3 55 13
144 20 198 8 54 11 105 8 113 -3 9 4 28 16 44 11 16 21 44 21 62 0 25 3 29 10
18 5 -8 10 -55 10 -105 l0 -90 19 40 c17 39 29 87 37 150 4 30 19 53 30 43 12
-13 -58 -449 -82 -507 -8 -18 -14 -63 -14 -100 0 -36 -9 -100 -20 -141 -22
-80 -34 -207 -20 -215 8 -5 50 84 50 108 0 8 7 17 15 21 10 4 15 -1 15 -16 0
-17 2 -18 15 -8 23 19 19 57 -6 63 -17 4 -20 11 -16 29 3 13 8 52 12 88 10
121 28 230 37 230 9 0 3 -122 -12 -235 -10 -75 2 -102 19 -46 27 91 44 14 30
-137 -4 -53 -13 -111 -18 -129 -5 -18 -12 -61 -16 -98 -6 -56 -5 -64 8 -59 29
11 34 -105 12 -311 -4 -35 -3 -44 4 -30 19 41 41 125 41 157 -1 43 43 218 54
218 4 0 7 -65 4 -144 -2 -80 0 -139 4 -133 4 7 8 21 8 32 0 29 43 165 52 165
13 0 3 -101 -11 -110 -9 -5 -16 -48 -22 -126 -4 -66 -18 -173 -30 -239 -29
-161 -35 -230 -20 -221 6 4 11 6 11 4 1 -2 5 -48 9 -103 9 -114 -2 -212 -59
-520 -24 -130 -30 -186 -20 -180 5 3 12 27 15 53 3 26 19 101 36 167 16 66 29
131 29 145 0 14 7 50 16 80 9 30 25 102 35 160 11 58 32 148 46 200 14 52 29
127 33 165 13 121 41 288 51 307 15 28 29 12 29 -33 0 -21 3 -39 8 -39 24 1
72 67 72 99 0 11 5 23 10 26 6 3 10 24 10 45 0 21 4 41 9 44 10 7 5 -93 -9
-179 -6 -33 -12 -73 -14 -90 -3 -16 -9 -55 -15 -85 -6 -30 -13 -76 -16 -102
-3 -25 -9 -57 -14 -70 -13 -34 -18 -212 -6 -218 5 -3 11 4 13 15 7 46 16 48
22 5 6 -38 8 -41 15 -22 11 33 25 27 25 -13 0 -35 -12 -46 -27 -22 -11 17 -20
-33 -22 -114 0 -36 -10 -114 -22 -175 -11 -60 -24 -139 -29 -177 -5 -37 -14
-76 -20 -87 -5 -10 -15 -47 -20 -82 -5 -35 -12 -76 -15 -93 -3 -16 -7 -61 -10
-100 l-4 -70 14 53 c8 29 19 62 25 72 5 10 10 34 10 52 0 45 36 232 50 259 7
11 20 66 30 122 34 186 41 221 62 315 12 50 25 92 29 92 4 0 8 -39 8 -86 0
-47 3 -89 5 -93 7 -10 -12 -155 -29 -226 -8 -33 -17 -84 -20 -114 -3 -30 -12
-88 -20 -130 -18 -90 -17 -81 -5 -81 5 0 12 17 16 38 6 39 27 127 40 177 6 23
10 2 15 -85 10 -182 19 -230 40 -230 11 0 20 -10 23 -28 12 -50 15 -212 5
-245 -13 -45 -39 -220 -33 -226 12 -13 28 27 55 145 16 71 39 167 49 214 11
47 36 168 55 270 20 102 40 203 46 225 11 38 12 39 20 16 15 -39 15 -289 0
-381 -14 -80 -15 -83 -26 -56 -11 26 -12 22 -18 -50 -4 -44 -14 -110 -22 -149
-9 -38 -22 -113 -30 -165 -18 -122 -53 -286 -71 -328 -7 -18 -13 -59 -13 -90
0 -52 -28 -223 -46 -279 -4 -14 -3 -23 3 -23 6 0 15 23 21 50 6 28 18 67 27
88 9 20 22 64 29 97 25 117 54 262 74 370 28 148 71 333 111 480 12 44 25 98
29 120 10 55 19 69 36 55 21 -18 27 3 24 98 -1 48 1 105 5 127 4 22 12 73 18
113 13 84 28 95 28 20 0 -29 2 -95 4 -146 3 -62 0 -110 -9 -140 -8 -26 -13
-54 -13 -62 3 -30 -15 -119 -23 -114 -4 2 -6 11 -2 19 3 8 0 15 -6 15 -6 0
-11 -4 -11 -8 0 -53 -25 -235 -36 -261 -8 -19 -19 -77 -25 -130 -6 -53 -14
-114 -19 -136 -17 -71 -8 -72 14 -1 12 38 26 71 31 73 6 2 9 -77 7 -208 -1
-129 1 -208 7 -205 5 4 17 30 26 59 9 28 20 60 26 69 5 10 9 34 9 54 0 30 -3
34 -19 29 -16 -5 -20 2 -27 62 -12 104 -4 250 17 318 10 33 21 87 25 120 3 33
26 133 50 223 24 89 44 182 44 206 0 49 27 191 41 219 15 26 29 20 27 -10 -2
-16 1 -64 5 -108 10 -94 -12 -244 -43 -303 -14 -25 -20 -56 -20 -99 0 -55 -18
-163 -50 -301 -6 -23 -10 -57 -9 -75 1 -49 67 180 84 293 8 52 21 119 30 149
8 30 18 77 21 105 6 53 54 246 74 304 14 37 35 42 43 10 12 -49 -2 -234 -21
-279 -11 -25 -22 -83 -26 -137 -4 -51 -16 -123 -27 -160 -10 -37 -19 -81 -19
-98 0 -17 -7 -48 -15 -67 -8 -20 -15 -56 -15 -79 l0 -43 20 33 c12 19 20 50
20 75 0 24 11 81 25 127 14 46 25 91 25 100 0 20 36 97 50 105 5 3 10 35 10
70 0 63 32 175 50 175 17 0 25 -161 15 -293 -5 -64 -71 -371 -86 -399 -5 -9
-15 -50 -23 -90 -8 -40 -19 -84 -25 -98 -10 -25 -10 -25 -10 -2 -1 14 -5 21
-12 17 -6 -5 -9 -40 -8 -94 4 -105 -20 -239 -56 -315 -27 -57 -29 -86 -8 -93
7 -3 18 18 28 54 9 32 29 93 46 135 16 42 29 87 29 100 1 13 7 37 14 53 l13
30 8 -45 c11 -67 22 -26 23 90 1 98 30 260 47 263 5 1 12 -13 16 -31 14 -67
19 -42 19 86 0 84 6 155 16 199 9 37 17 82 19 98 4 53 37 199 50 225 7 14 15
48 18 75 5 41 44 152 48 135 0 -3 7 -72 14 -155 12 -141 12 -155 -7 -238 -11
-48 -26 -94 -34 -102 -8 -8 -14 -27 -13 -42 2 -40 -49 -282 -67 -318 -9 -16
-17 -49 -19 -72 -2 -23 -8 -51 -14 -62 -6 -11 -11 -41 -11 -66 0 -25 -5 -56
-11 -68 -7 -11 -16 -58 -20 -104 -8 -75 -36 -173 -38 -130 -1 9 -6 17 -12 17
-8 0 -10 -22 -7 -71 4 -47 0 -94 -9 -133 -26 -105 -53 -229 -61 -276 -5 -25
-14 -55 -20 -67 -7 -12 -12 -32 -12 -45 0 -13 -8 -40 -19 -60 -10 -21 -16 -48
-14 -62 4 -17 -1 -27 -15 -35 -16 -9 -21 -24 -25 -73 -8 -107 -26 -209 -43
-242 -9 -17 -25 -65 -34 -106 -10 -41 -32 -129 -50 -195 -30 -113 -40 -157
-76 -349 -33 -173 6 -103 46 84 13 58 38 150 56 205 18 55 43 148 54 207 30
149 93 330 117 339 17 6 19 13 13 61 -5 35 -1 97 11 183 22 150 25 161 43 168
15 6 26 -108 26 -260 0 -103 -36 -295 -61 -324 -10 -11 -21 -46 -25 -77 -3
-31 -15 -82 -25 -112 -11 -30 -19 -67 -19 -82 0 -15 -9 -51 -19 -79 -11 -28
-23 -76 -26 -107 -4 -32 -15 -84 -25 -117 -11 -33 -22 -94 -25 -135 -4 -41 -9
-84 -12 -95 -3 -13 -2 -16 4 -10 5 6 15 30 22 55 7 25 18 59 26 75 8 17 19 63
26 103 8 55 16 75 31 83 17 9 19 18 15 46 -6 37 -3 56 34 208 12 50 25 108 30
130 4 22 29 117 54 210 55 204 62 249 44 271 -8 10 -16 59 -20 128 -4 63 -12
122 -20 133 -11 18 -10 31 4 80 9 32 16 72 15 88 0 27 26 117 51 170 5 11 12
34 15 50 3 17 10 53 16 80 17 83 31 158 37 200 3 22 12 50 20 62 9 14 13 34
10 51 -3 16 -1 46 4 68 6 21 15 59 20 84 6 25 17 59 25 77 8 17 14 40 14 52 0
28 17 27 23 -1 3 -17 5 -15 6 9 0 17 -5 33 -11 36 -10 3 -10 8 1 21 8 10 18
39 22 64 4 26 16 72 28 102 12 30 30 94 40 141 28 131 59 177 47 69 -7 -58 2
-95 27 -111 6 -4 6 -19 -1 -40 -5 -19 -15 -61 -22 -94 -7 -33 -26 -112 -42
-175 -16 -63 -33 -138 -38 -167 -4 -29 -15 -74 -24 -100 -8 -26 -15 -64 -15
-83 0 -68 -20 -190 -35 -212 -9 -12 -16 -32 -16 -43 0 -11 -7 -31 -16 -43 -8
-12 -19 -52 -24 -90 -4 -37 -22 -114 -39 -172 -32 -110 -38 -150 -21 -150 10
0 11 5 30 93 6 27 17 65 25 84 8 20 15 48 15 63 0 15 7 44 15 63 8 20 15 51
15 69 0 18 9 50 20 71 11 20 20 47 20 59 0 11 7 44 14 72 8 28 22 80 32 116 9
36 22 72 29 80 7 8 13 29 13 45 1 34 33 163 53 210 l12 30 8 -45 c4 -25 10
-112 13 -195 6 -131 4 -162 -13 -244 -12 -52 -21 -106 -21 -121 0 -14 -7 -35
-15 -46 -8 -10 -15 -31 -15 -45 0 -15 -7 -43 -15 -63 -8 -20 -24 -80 -35 -134
-11 -53 -23 -107 -26 -120 -6 -20 -4 -21 17 -14 12 5 23 17 24 28 1 10 7 35
13 54 6 19 18 64 27 100 9 36 25 88 36 115 10 28 19 66 19 85 0 39 28 104 56
135 11 11 25 33 32 48 6 15 17 25 22 22 13 -8 13 -42 0 -50 -8 -5 -7 -11 1
-21 6 -8 9 -23 6 -35 -3 -11 -1 -47 5 -79 12 -63 13 -60 -37 -225 -14 -44 -36
-129 -51 -190 -31 -130 -70 -264 -84 -285 -9 -13 -11 -13 -20 0 -8 13 -10 12
-11 -5 -7 -132 -58 -345 -86 -364 -6 -3 -13 -44 -16 -91 -4 -57 -19 -131 -46
-223 -23 -76 -41 -142 -41 -147 0 -6 -8 -29 -18 -53 -24 -54 -52 -166 -52
-209 -1 -18 -7 -44 -15 -58 -8 -14 -14 -37 -15 -52 0 -48 -35 -163 -56 -187
-2 -2 -13 4 -24 14 -23 20 -20 34 -25 -146 -2 -78 -23 -178 -54 -264 -10 -27
-24 -69 -32 -93 -7 -24 -20 -47 -29 -52 -15 -8 -19 1 -31 65 -14 67 -13 81 4
162 10 48 18 106 18 128 -2 36 9 88 29 140 4 11 15 52 24 90 10 39 25 85 34
104 13 28 17 31 22 16 6 -17 7 -18 13 -1 10 25 9 74 -1 78 -17 6 7 171 32 223
14 27 27 61 30 75 2 14 13 50 24 80 10 30 27 98 37 150 18 98 49 212 92 335
13 39 30 93 38 120 15 57 40 254 32 261 -3 3 -13 -21 -22 -53 -9 -32 -25 -72
-36 -89 -10 -17 -19 -49 -19 -70 0 -21 -6 -63 -14 -93 -8 -31 -22 -86 -31
-124 -17 -67 -35 -97 -35 -58 0 12 -4 21 -10 21 -6 0 -10 -30 -10 -71 0 -39
-5 -80 -12 -92 -7 -12 -15 -47 -19 -77 -4 -30 -16 -80 -27 -110 -11 -30 -25
-89 -32 -130 -14 -95 -56 -234 -75 -250 -8 -7 -12 -17 -8 -23 10 -17 4 -87
-11 -116 -7 -14 -17 -55 -20 -91 -4 -35 -11 -69 -14 -75 -4 -5 -12 -32 -18
-60 -7 -27 -28 -90 -47 -140 -20 -49 -41 -119 -48 -155 -15 -80 -36 -131 -52
-125 -21 8 -36 -9 -36 -40 -1 -110 -3 -170 -7 -177 -11 -18 -21 -6 -30 35 -12
52 6 175 28 191 11 8 12 15 5 27 -6 10 -7 24 -2 35 8 18 9 17 12 -4 3 -12 9
-20 14 -17 5 4 9 52 10 108 0 56 4 122 8 147 9 45 56 282 66 330 10 49 -12 -4
-25 -58 -7 -30 -20 -56 -30 -62 -21 -11 -32 -58 -20 -81 6 -10 4 -23 -4 -35
-7 -10 -21 -56 -30 -102 -9 -46 -24 -100 -35 -120 -10 -20 -21 -53 -25 -72 -8
-48 -35 -87 -47 -69 -5 8 -6 27 -3 42 3 16 0 66 -6 111 -12 78 -11 88 10 152
12 38 28 94 35 124 7 30 20 82 29 115 9 32 16 80 15 105 l-1 45 -13 -40 c-7
-22 -16 -57 -20 -79 -4 -26 -12 -40 -26 -43 -10 -3 -19 -13 -20 -22 -4 -56 -8
-83 -23 -141 -9 -36 -21 -78 -26 -95 -41 -137 -84 -324 -91 -390 -9 -92 -18
-121 -58 -180 -16 -23 -31 -55 -33 -71 -3 -16 -16 -74 -28 -129 -12 -55 -24
-110 -26 -122 -8 -44 -20 -23 -22 38 -2 53 7 103 58 329 4 19 15 58 24 85 9
28 16 73 16 101 0 28 9 80 20 114 11 34 20 69 20 76 0 8 9 19 20 26 13 8 20
24 20 43 0 34 17 138 61 369 16 87 28 160 26 162 -2 2 -16 -25 -32 -61 -15
-36 -34 -65 -41 -65 -10 0 -14 -16 -14 -58 0 -68 -47 -295 -79 -382 -5 -14
-12 -38 -16 -53 -4 -20 -10 -27 -20 -23 -12 4 -15 -7 -15 -62 0 -37 -9 -103
-20 -147 -11 -44 -22 -91 -25 -104 -5 -18 -9 -21 -17 -13 -15 15 -38 -36 -38
-83 0 -19 -5 -46 -12 -62 -6 -15 -10 -32 -9 -36 3 -15 -23 -77 -32 -77 -14 0
0 136 18 185 8 22 14 54 15 72 0 18 6 47 14 65 8 18 20 84 26 146 6 63 17 130
24 150 33 92 56 184 65 272 24 209 24 211 9 205 -13 -5 -38 -89 -38 -128 0
-15 -37 -177 -72 -317 -6 -25 -19 -62 -30 -82 -10 -21 -18 -53 -18 -73 0 -43
-19 -125 -33 -142 -5 -7 -11 -30 -13 -50 -10 -92 -16 -116 -34 -151 -11 -20
-20 -51 -20 -69 0 -46 -20 -133 -31 -133 -16 0 -9 174 11 286 12 60 30 159 41
219 11 61 26 133 34 160 7 28 17 82 20 120 4 39 13 82 21 96 7 14 18 62 23
107 6 44 13 93 17 109 4 15 4 25 0 22 -7 -7 -54 -181 -62 -229 -12 -73 -54
-175 -54 -130 0 6 -4 10 -10 10 -6 0 -10 -34 -10 -82 0 -92 -12 -149 -37 -173
-10 -11 -22 -58 -33 -128 -22 -141 -59 -309 -71 -321 -10 -11 -15 2 -22 56 -7
45 33 279 63 374 34 106 48 172 55 254 10 126 20 148 42 93 11 -27 11 -27 12
13 1 22 -3 44 -9 50 -6 6 -2 36 10 84 11 41 22 106 24 145 4 54 3 62 -4 35
-56 -215 -111 -400 -120 -400 -4 0 -13 -42 -20 -92 -8 -58 -22 -109 -36 -136
-13 -23 -24 -53 -24 -65 -1 -46 -30 -161 -47 -179 -30 -33 -34 -4 -13 93 11
52 27 132 36 179 9 47 22 110 30 140 15 58 31 145 44 245 5 33 13 76 19 95 6
19 11 48 10 65 0 23 -8 11 -34 -55 -19 -47 -35 -98 -35 -115 -1 -33 -48 -160
-49 -132 -1 9 -5 17 -10 17 -4 0 -11 -39 -14 -87 -4 -49 -13 -110 -20 -138
-25 -89 -37 -148 -46 -224 -10 -79 -31 -110 -43 -65 -4 14 -5 31 -3 37 3 7 9
53 15 102 11 101 26 197 35 235 3 14 11 45 17 70 6 25 15 53 21 64 5 10 10 39
12 65 5 73 16 163 25 206 14 61 12 75 -10 75 -16 0 -19 -5 -14 -29 4 -17 -1
-56 -11 -88 -56 -191 -70 -250 -85 -341 -11 -67 -29 -90 -31 -39 0 22 0 22 -9
1 -4 -11 -11 -68 -15 -125 -5 -90 -26 -226 -41 -281 -10 -34 -34 -7 -34 38 0
104 50 377 73 400 4 4 7 23 7 43 0 20 11 92 24 161 13 69 21 131 17 139 -5 8
-13 -11 -20 -50 -7 -34 -21 -84 -31 -109 -10 -26 -23 -89 -29 -141 -7 -61 -17
-102 -29 -119 -10 -14 -23 -61 -31 -110 -19 -129 -32 -183 -49 -203 -9 -10
-21 -50 -27 -90 -6 -40 -15 -72 -20 -72 -18 0 -22 52 -8 100 8 28 18 82 23
120 4 39 13 86 19 105 13 42 14 110 2 110 -12 0 -50 -122 -58 -188 -10 -86
-25 -74 -37 30 -2 20 0 56 6 80 15 67 39 206 49 284 5 40 13 84 19 98 10 27
40 170 60 286 6 36 13 74 16 85 l6 20 -14 -20 c-14 -19 -21 -45 -53 -206 -7
-36 -20 -83 -29 -104 -9 -20 -16 -58 -16 -84 0 -52 -17 -121 -29 -121 -7 0
-22 -70 -26 -125 -2 -25 -33 -165 -50 -225 -52 -181 -53 -182 -73 -157 -12 14
1 152 18 197 11 30 30 153 24 159 -9 10 -15 -11 -30 -95 -8 -49 -26 -124 -40
-167 -13 -43 -24 -96 -24 -118 0 -22 -4 -70 -10 -107 -18 -126 -32 -276 -36
-386 -3 -86 -8 -120 -24 -151 l-20 -39 0 34 c0 52 -31 170 -44 170 -7 0 -24 6
-38 12 -33 16 -40 48 -31 141 4 49 3 68 -5 63 -6 -3 -15 8 -22 28 -10 32 -15
35 -53 38 l-41 3 -13 60 c-7 33 -12 79 -13 102 0 58 -15 93 -40 93 -40 0 -100
31 -101 54 -3 40 -5 51 -19 114 -14 64 -14 64 -45 57 -16 -4 -53 -8 -82 -9
-41 -2 -56 -8 -72 -27 -15 -18 -28 -23 -59 -23 -26 1 -43 -4 -46 -12 -14 -36
-126 -39 -126 -4 0 15 -8 13 -60 -14 -57 -29 -62 -30 -74 -13 -18 23 -43 22
-56 -4 -7 -11 -10 -22 -8 -23 60 -44 118 -55 118 -23 0 19 94 21 110 2 7 -8
25 -15 40 -15 22 0 29 -6 32 -25 5 -22 1 -25 -28 -30 -19 -3 -49 -7 -68 -10
-18 -3 -111 -6 -206 -6 -129 0 -182 -4 -210 -15 -21 -8 -60 -15 -86 -15 -27 0
-115 0 -196 0 -93 0 -148 4 -153 10 -7 13 10 206 29 326 7 44 13 136 12 206
-1 113 -4 128 -24 153 -32 41 -29 109 14 322 13 65 14 91 5 133 -6 28 -11 81
-11 116 0 82 -23 195 -54 270 -20 47 -26 77 -26 142 0 91 31 242 58 283 9 15
58 63 107 107 161 145 210 196 439 451 65 72 124 132 131 132 7 0 32 18 57 39
43 38 55 58 118 195 36 76 36 52 0 271 -4 27 -6 53 -3 58 2 4 -3 65 -13 135
-12 91 -29 162 -60 252 -63 182 -127 346 -162 415 -27 53 -68 177 -118 355
-31 107 -74 160 -132 160 -41 0 -113 33 -138 63 -14 18 -55 48 -92 67 -58 31
-71 43 -106 103 -39 63 -44 68 -96 83 -30 9 -116 46 -190 81 -74 35 -177 80
-229 99 -123 46 -437 119 -601 139 -69 9 -88 19 -101 53 -14 37 12 102 67 163
23 27 48 65 54 86 13 43 26 273 16 273 -4 0 -18 -8 -33 -17 -25 -16 -26 -16
-44 6 -12 15 -19 39 -19 66 0 24 -12 87 -26 142 -23 86 -25 104 -15 146 17 73
14 91 -20 123 -17 16 -42 50 -55 76 -13 25 -42 61 -65 80 -23 18 -68 59 -99
91 -31 31 -65 57 -76 57 -10 1 -57 4 -104 7 -47 4 -155 7 -240 7 -155 -1 -155
-1 -248 -38 -51 -20 -110 -47 -130 -60 -47 -29 -123 -104 -186 -181 l-49 -60
7 -120 c3 -66 13 -160 21 -210 22 -131 20 -226 -5 -257 l-19 -25 24 -33 c37
-50 41 -89 15 -157 -12 -32 -28 -65 -35 -73 -8 -8 -15 -37 -17 -65 l-3 -49
-130 -38 c-71 -20 -150 -40 -175 -44 -44 -6 -78 -13 -160 -34 -21 -6 -60 -26
-86 -46 -25 -19 -63 -44 -83 -55 -21 -10 -51 -33 -67 -50 -16 -17 -47 -44 -70
-59 -32 -23 -46 -43 -68 -99 -18 -46 -38 -78 -55 -91 -17 -12 -36 -41 -49 -77
-12 -32 -41 -92 -64 -133 -48 -85 -101 -211 -160 -380 -55 -157 -62 -180 -96
-300 -49 -170 -141 -369 -208 -449 -17 -20 -44 -57 -61 -82 -17 -25 -38 -51
-47 -58 -23 -19 -20 -42 9 -81 37 -50 34 -140 -10 -340 -25 -111 -38 -204 -45
-312 -5 -84 -14 -211 -20 -283 -6 -71 -15 -251 -20 -400 -12 -323 -22 -426
-58 -565 -24 -96 -27 -123 -28 -305 l-1 -200 -44 -170 -44 -170 1 -175 c0
-161 2 -178 22 -215 18 -32 22 -56 22 -122 0 -45 -3 -89 -6 -97 -4 -9 -23 -19
-45 -22 -21 -4 -42 -12 -47 -18 -11 -15 -30 -105 -38 -186 -8 -79 -18 -100
-47 -100 -35 0 -67 -28 -67 -58 -1 -15 -8 -63 -16 -107 -21 -110 -22 -116 -23
-147 -1 -22 -6 -28 -23 -28 -13 0 -40 -5 -60 -11 -37 -10 -38 -11 -38 -55 0
-54 -14 -86 -35 -78 -17 7 -17 5 -15 -84 1 -56 -1 -63 -16 -60 -13 2 -21 17
-27 48 -4 25 -17 52 -27 61 -15 13 -21 36 -26 110 -4 51 -13 104 -21 118 -7
14 -13 34 -13 44 0 9 -14 72 -31 140 -16 67 -30 137 -31 156 0 19 -8 46 -18
60 -12 18 -20 53 -24 108 -4 58 -12 96 -29 130 -24 47 -35 90 -77 297 -11 54
-29 124 -40 155 -10 32 -17 67 -14 78 3 11 0 24 -7 28 -9 6 -11 -9 -5 -71 7
-94 52 -322 65 -338 5 -6 12 -51 16 -99 3 -48 10 -108 14 -135 4 -26 4 -58 0
-72 l-7 -25 -7 23 c-4 12 -11 22 -16 22 -5 0 -9 13 -9 30 0 29 -56 306 -65
320 -3 4 -7 32 -11 61 -6 58 -36 100 -42 60 -2 -11 2 -30 9 -42 14 -27 23
-249 9 -249 -15 0 -20 15 -40 122 -24 123 -25 212 -5 252 19 36 19 86 1 112
-14 18 -15 18 -20 -6 -3 -14 -7 -51 -9 -82 -2 -32 -7 -61 -11 -65 -12 -12 -36
28 -36 58 0 35 -16 79 -30 79 -19 0 -21 -47 -5 -120 10 -41 23 -111 30 -155 7
-44 23 -115 34 -157 24 -88 28 -210 8 -226 -10 -8 -12 -3 -13 26 0 58 -67 332
-81 332 -14 0 -9 -107 8 -175 17 -69 14 -188 -5 -182 -5 2 -15 25 -22 53 -7
27 -22 82 -33 123 -12 41 -21 88 -21 105 0 17 -11 76 -25 131 -14 55 -25 128
-25 162 0 35 -3 63 -8 63 -4 0 -13 12 -19 28 -18 40 -103 378 -103 408 0 14
-7 39 -17 57 -9 17 -19 43 -24 57 -6 19 -7 14 -8 -25 -1 -27 5 -61 12 -75 7
-14 21 -79 31 -145 33 -228 38 -255 45 -260 8 -4 23 -88 36 -197 4 -27 10 -48
14 -48 5 0 17 -26 29 -57 38 -108 48 -178 30 -201 -11 -13 -10 -15 5 -9 15 6
17 -1 17 -68 0 -41 -4 -75 -9 -75 -11 0 -21 25 -21 53 0 11 -6 28 -13 36 -20
24 -34 68 -48 154 -6 42 -15 77 -19 77 -4 0 -10 17 -13 38 -21 131 -31 182
-48 225 -10 26 -34 109 -53 185 -42 166 -80 272 -89 247 -10 -25 -8 -124 2
-144 11 -19 20 -301 10 -301 -6 0 -11 11 -23 50 -10 33 -43 100 -48 100 -5 0
-8 17 -8 38 0 20 -12 78 -26 127 -14 50 -30 115 -34 145 -14 83 -37 182 -49
213 -6 16 -11 40 -11 55 0 15 -16 70 -35 122 -19 52 -35 106 -35 120 0 14 -11
66 -24 115 -25 97 -55 223 -63 268 -2 15 -11 39 -19 55 -7 15 -14 37 -14 50 0
13 -12 58 -27 100 -14 42 -25 94 -24 115 1 22 -2 44 -8 50 -11 14 -81 253 -81
278 0 10 -16 71 -35 136 -19 66 -37 139 -41 164 -4 24 -15 58 -24 74 -10 17
-21 54 -25 84 -4 30 -16 79 -26 108 -10 29 -20 74 -24 100 -10 79 -75 383 -96
448 -10 34 -23 81 -28 105 -5 25 -19 70 -31 100 -16 40 -22 77 -23 135 0 122
2 187 9 220 7 29 7 29 21 -20 8 -27 18 -72 23 -98 5 -26 18 -63 29 -81 12 -18
21 -49 21 -67 1 -19 12 -65 26 -104 14 -38 36 -113 49 -165 14 -52 31 -108 39
-125 8 -16 23 -48 32 -70 10 -23 19 -34 21 -25 4 16 -35 200 -61 290 -9 30
-16 76 -16 102 0 44 -20 123 -39 159 -5 9 -23 72 -41 140 -37 148 -51 322 -28
353 10 13 15 14 15 5 0 -8 8 -39 17 -69 8 -30 20 -82 25 -115 19 -115 28 -151
60 -229 18 -44 36 -98 41 -120 4 -23 15 -76 24 -119 8 -43 27 -112 41 -152 14
-40 25 -89 25 -108 0 -19 8 -52 17 -73 9 -22 20 -59 23 -84 4 -25 19 -99 34
-165 14 -66 26 -130 26 -142 0 -26 36 -147 55 -183 7 -14 18 -50 25 -80 7 -30
32 -118 56 -194 24 -77 44 -145 44 -153 0 -7 5 -13 11 -13 8 0 9 13 4 43 -30
167 -65 330 -75 348 -5 9 -14 45 -20 80 -7 35 -18 86 -26 113 -8 26 -14 55
-14 63 0 8 -12 55 -26 106 -49 175 -53 192 -65 262 -6 39 -24 126 -39 195 -16
69 -32 164 -35 211 -8 91 1 197 15 182 12 -12 47 -139 56 -198 4 -27 17 -91
30 -142 13 -51 28 -149 34 -218 9 -110 27 -204 29 -153 1 9 5 19 11 23 12 7
28 -51 50 -183 12 -71 23 -110 37 -125 11 -12 23 -42 26 -67 6 -41 30 -131 59
-220 13 -38 21 -89 42 -255 9 -72 23 -132 41 -174 24 -58 27 -76 26 -178 -1
-70 3 -113 9 -113 5 0 10 7 10 16 0 8 4 12 10 9 5 -3 12 6 16 21 9 37 -12 143
-86 419 -16 61 -32 139 -35 175 -4 36 -10 74 -14 85 -28 70 -61 190 -67 245
-4 36 -11 76 -16 90 -6 14 -21 68 -34 120 -13 52 -32 124 -44 160 -11 36 -20
76 -20 90 0 14 -9 61 -20 105 -11 44 -23 105 -26 135 -3 30 -12 71 -20 90 -31
76 -64 262 -64 360 0 82 -3 99 -19 114 -12 11 -21 38 -26 74 -4 31 -15 82 -25
112 -43 135 -104 459 -95 506 8 45 23 34 36 -27 9 -40 28 -91 50 -131 5 -10 9
-24 9 -32 0 -7 7 -19 15 -26 13 -11 15 -8 15 21 0 43 22 149 31 149 19 0 58
-177 52 -234 -5 -49 -3 -55 26 -85 21 -22 31 -42 31 -64 0 -18 5 -50 12 -72 6
-22 12 -61 13 -86 1 -25 14 -84 28 -130 15 -46 35 -141 46 -211 11 -73 28
-142 40 -165 18 -34 20 -35 20 -13 1 67 -21 254 -34 287 -8 21 -19 61 -24 88
-5 28 -19 97 -31 155 -11 58 -27 130 -35 160 -24 93 -29 131 -30 238 -2 101 8
137 18 65 3 -21 14 -72 26 -113 11 -41 28 -115 36 -165 9 -49 20 -99 25 -110
12 -28 37 -139 45 -205 4 -30 15 -71 25 -90 9 -19 25 -69 34 -110 16 -72 55
-156 63 -135 4 14 -10 102 -36 225 -12 52 -26 122 -31 155 -6 33 -17 80 -25
105 -37 118 -55 292 -33 333 9 18 10 18 22 0 7 -10 16 -36 20 -58 4 -21 13
-51 20 -65 7 -14 16 -58 20 -98 4 -43 15 -91 27 -115 16 -32 22 -66 25 -142 5
-119 11 -155 24 -135 7 11 11 11 24 1 9 -8 16 -10 16 -5 0 9 -25 120 -40 175
-14 52 -40 292 -40 372 0 58 2 67 18 67 22 0 32 -29 62 -170 27 -130 33 -145
38 -99 2 20 -6 60 -18 90 -13 34 -24 98 -30 174 -10 110 -5 214 8 200 9 -9 42
27 42 48 0 65 -51 163 -74 140 -3 -3 -6 -40 -7 -82 0 -42 -2 -71 -4 -66 -59
184 -68 224 -57 265 7 27 7 51 1 67 -12 33 8 123 28 123 10 0 14 -6 10 -20 -3
-11 -1 -33 4 -48 5 -15 11 -48 14 -74 4 -27 10 -48 16 -48 14 0 10 57 -7 125
-9 33 -18 92 -20 130 -3 39 -9 86 -14 105 -16 56 -13 175 5 190 12 10 15 7 20
-17 7 -33 36 -102 44 -108 3 -1 6 31 6 73 0 43 3 86 8 96 7 19 8 19 22 0 8
-10 15 -34 15 -52 0 -67 44 -277 60 -289 21 -16 35 10 20 38 -13 23 -5 73 10
64 6 -3 10 -1 10 6 0 23 16 -4 28 -47 7 -23 12 -53 12 -66 0 -37 20 -88 35
-88 15 0 25 22 25 53 0 12 4 29 10 37 7 12 10 11 16 -5 9 -25 41 -57 47 -47
11 18 20 82 18 128 -1 29 2 55 8 59 18 10 13 90 -9 139 -17 41 -19 65 -17 205
2 104 7 164 15 174 7 7 9 17 6 20 -10 9 7 227 17 221 5 -3 9 -16 9 -29 0 -14
5 -45 12 -70 9 -34 18 -47 36 -52 28 -7 57 -62 66 -127 7 -58 37 -146 50 -146
10 0 3 71 -15 153 -11 49 -11 64 2 100 8 23 20 41 25 40 16 -3 4 98 -14 116
-12 13 -15 13 -24 -2 -18 -32 -26 -16 -33 61 -7 87 -21 139 -42 164 -10 11
-12 22 -5 35 5 10 7 24 5 31 -10 28 8 100 26 105 12 3 18 -1 17 -12 -1 -9 8
-17 21 -19 17 -3 24 -14 32 -53 14 -63 38 -112 54 -106 15 5 29 100 21 145 -3
18 0 49 6 68 13 38 -1 98 -24 107 -8 3 -14 27 -15 68 -2 61 -42 179 -61 179
-11 0 -20 28 -14 44 3 8 15 11 30 8 19 -3 24 0 24 16 0 12 5 24 10 27 19 11
12 100 -10 128 -35 45 -20 122 26 133 46 12 64 -21 60 -114 -2 -53 2 -88 13
-112 14 -33 15 -34 18 -10 6 38 44 110 60 110 15 0 50 -19 71 -38 11 -10 42
-12 126 -8 61 3 127 6 146 7 32 1 97 -10 145 -26 16 -5 28 5 58 44 20 28 54
62 75 75 20 13 98 86 173 162 226 230 316 314 337 314 11 0 27 11 36 25 9 14
20 24 24 23 4 -1 20 4 35 10 59 25 47 -3 -35 -82 -94 -90 -115 -121 -70 -105
15 5 45 25 66 44 22 19 43 35 48 35 4 0 8 4 8 9 0 14 101 114 148 145 23 16
42 35 42 43 0 7 11 18 24 24 32 15 67 81 54 103 -14 24 28 59 62 53 25 -5 92
23 119 51 9 9 52 39 96 68 116 77 167 113 195 140 44 42 72 63 90 69 10 3 28
21 39 40 14 25 27 35 45 35 31 0 69 14 87 32 19 19 117 68 135 68 30 0 89 38
150 96 40 38 142 114 154 114 12 0 129 57 180 89 19 11 53 30 75 41 22 10 51
30 64 44 22 23 22 26 7 32 -25 10 -136 -38 -262 -112 -151 -89 -231 -127 -251
-120 -14 6 -10 13 22 46 22 22 42 40 47 40 4 0 27 14 51 30 25 17 48 30 51 30
3 0 28 15 54 33 26 17 64 40 85 49 28 14 37 24 37 42 0 32 16 41 46 26 20 -11
27 -11 41 3 10 8 38 23 63 33 25 9 56 25 70 34 14 9 74 41 134 71 60 30 139
69 175 88 l66 33 -42 17 c-23 9 -45 19 -49 23 -10 11 63 78 85 78 10 0 35 15
57 33 66 57 85 59 112 13z m371 -17 c123 -57 210 -103 246 -129 44 -31 199
-124 248 -149 39 -20 50 -52 15 -44 -13 3 -30 11 -38 18 -8 7 -42 25 -75 41
-33 16 -61 32 -63 37 -2 4 -12 7 -23 7 -44 0 -214 99 -227 132 -2 5 -35 29
-73 54 -38 25 -69 48 -69 50 0 8 14 4 59 -17z m3251 -1949 c0 -4 13 -11 30
-15 30 -7 70 -47 70 -70 0 -22 31 -75 49 -85 10 -5 21 -23 24 -39 4 -19 16
-35 34 -43 15 -8 26 -21 24 -29 -1 -8 -5 -32 -7 -54 -2 -22 -7 -51 -10 -65
l-7 -25 -13 30 c-7 17 -13 40 -14 53 0 12 -6 22 -14 22 -8 0 -16 7 -19 14 -4
11 -16 13 -39 10 -33 -6 -33 -6 -46 50 -10 44 -10 59 0 75 16 25 -6 74 -63
142 -44 52 -49 65 -19 49 11 -6 20 -15 20 -20z m-7572 -109 c2 -6 14 -8 28 -5
22 6 24 3 24 -25 0 -39 -22 -92 -48 -117 -12 -12 -24 -43 -30 -83 -10 -57 -10
-66 6 -77 9 -7 25 -14 34 -14 9 0 20 -5 23 -10 11 -18 -17 -149 -36 -166 -16
-14 -19 -14 -33 8 -9 13 -18 40 -22 59 -13 78 -23 77 -31 -2 -3 -30 -11 -79
-19 -109 -8 -30 -14 -63 -14 -73 0 -35 -24 -11 -38 39 -17 63 -21 256 -6 275
7 8 14 32 17 54 9 65 23 124 35 137 5 7 10 36 9 65 -1 70 12 84 60 68 21 -7
39 -18 41 -24z m-382 -1448 c4 -37 6 -85 5 -107 -5 -87 -2 -111 15 -123 10 -7
14 -16 10 -20 -4 -4 -10 -2 -14 4 -4 6 -16 11 -27 10 -16 -2 -21 6 -25 43 -3
25 -9 50 -13 56 -9 16 -12 178 -3 193 4 6 16 11 26 11 15 0 20 -11 26 -67z
m8269 10 c-10 -112 -17 -166 -42 -298 -26 -136 -27 -139 -40 -106 -18 44 -10
143 16 204 12 27 21 57 21 67 0 10 4 21 10 25 5 3 8 22 6 43 -2 20 0 42 4 47
9 11 10 15 10 45 0 11 4 20 9 20 6 0 8 -21 6 -47z m2295 -214 c0 -16 5 -29 10
-29 9 0 34 -47 32 -60 0 -3 -5 -36 -11 -75 -15 -98 -40 -208 -50 -218 -15 -15
-22 11 -31 106 -9 92 -1 199 20 278 12 44 30 43 30 -2z m-2170 -499 c10 -25 8
-53 -19 -192 -39 -204 -61 -301 -71 -311 -4 -5 -10 31 -14 80 -5 70 -3 110 14
193 26 131 61 260 70 260 4 0 13 -13 20 -30z m396 -517 c-8 -97 -42 -308 -52
-325 -4 -6 -11 -43 -15 -82 -18 -150 -37 -213 -55 -185 -15 23 -8 209 10 275
9 34 20 88 25 120 5 33 24 117 42 187 38 147 56 151 45 10z m234 -103 c-5 -25
-9 -70 -10 -100 0 -31 -9 -88 -20 -128 -11 -39 -20 -85 -20 -101 0 -49 -17
-44 -22 7 -10 104 18 322 48 367 24 36 35 14 24 -45z m474 -240 c-4 -26 0 -50
16 -83 15 -33 20 -56 15 -75 -3 -15 -10 -66 -15 -114 -9 -95 -23 -136 -34
-102 -9 32 -11 376 -2 424 9 45 9 45 17 15 5 -16 6 -46 3 -65z m-642 52 c2
-16 0 -58 -4 -93 -5 -35 -14 -116 -21 -179 -7 -63 -18 -126 -26 -139 -7 -14
-11 -38 -8 -57 4 -22 1 -37 -9 -45 -9 -7 -14 -32 -14 -73 0 -68 -13 -104 -23
-64 -3 12 -9 69 -12 125 -5 82 -3 120 15 205 12 56 25 105 31 106 5 2 9 38 9
80 0 75 20 159 33 145 4 -3 7 -1 7 5 0 24 18 11 22 -16z m-10222 -360 c0 -35
-5 -72 -10 -82 -9 -16 -6 -24 15 -42 24 -21 26 -28 24 -96 -1 -40 -5 -75 -9
-77 -9 -5 -36 55 -49 110 -11 47 -15 264 -4 291 12 31 32 -32 33 -104z m395
-207 c5 -54 11 -75 21 -75 8 0 14 -8 14 -19 0 -10 7 -24 15 -31 9 -7 13 -21 9
-34 -3 -12 4 -42 15 -68 35 -81 50 -164 56 -300 3 -73 2 -126 -2 -118 -5 8
-16 26 -25 40 -9 14 -19 36 -21 50 -3 14 -15 59 -26 100 -12 41 -21 85 -21 98
0 13 -6 38 -14 55 -8 18 -19 59 -25 92 -6 33 -13 70 -17 83 -5 17 -2 22 11 22
9 0 15 5 13 11 -2 6 -7 10 -12 9 -18 -3 -26 26 -25 85 3 112 24 112 34 0z
m-505 -52 c0 -7 9 -29 19 -50 16 -32 21 -69 26 -220 5 -124 4 -183 -3 -183
-21 0 -74 230 -72 309 1 27 -4 48 -12 53 -10 6 -10 10 2 17 8 6 11 14 6 18 -4
4 -14 -1 -22 -11 -16 -23 -18 -9 -4 28 7 19 6 24 -4 20 -7 -3 -16 2 -19 10 -6
16 13 66 26 66 4 0 7 8 7 18 1 19 50 -55 50 -75z m11603 10 c-15 -77 -21 -112
-16 -90 2 9 9 17 14 17 5 0 9 -8 8 -17 -1 -23 -17 -63 -18 -45 -1 7 -6 10 -12
7 -5 -4 -9 -32 -8 -63 4 -82 -14 -182 -32 -182 -14 0 -11 224 3 238 7 7 8 12
3 12 -6 0 -5 4 0 8 7 4 9 35 5 84 -3 42 -1 74 3 71 5 -3 16 5 24 17 26 37 39
10 26 -57z m-199 -7 c-4 -28 -7 -78 -8 -111 -3 -93 -25 -238 -46 -291 l-18
-49 -7 75 c-4 41 -4 134 -1 207 5 136 6 139 59 195 10 10 15 24 11 30 -5 7 -3
8 5 3 9 -5 11 -22 5 -59z m820 -38 c4 -16 12 -27 19 -25 13 2 13 -9 -1 -100
-13 -80 -21 -92 -39 -62 -12 22 -13 17 -8 -44 4 -55 1 -76 -15 -112 -11 -24
-20 -46 -20 -49 0 -2 -5 -17 -11 -33 -10 -26 -12 -27 -19 -8 -14 33 -11 113 5
151 9 22 14 66 14 116 0 45 4 85 10 91 8 8 11 5 11 -8 1 -11 7 -31 14 -44 l13
-23 6 23 c4 13 7 58 8 99 1 75 2 78 13 28z m-12025 -122 c1 -21 5 -27 16 -22
8 3 14 2 13 -2 -1 -4 1 -18 5 -32 11 -47 15 -297 4 -270 -5 14 -16 39 -23 57
-8 17 -14 37 -14 45 0 8 -9 42 -20 75 -18 56 -33 236 -21 249 9 8 39 -68 40
-100z m4199 -39 c44 -118 47 -148 43 -497 -2 -125 -7 -182 -21 -235 -32 -119
-59 -266 -65 -360 -4 -49 -18 -132 -31 -183 -30 -117 -30 -151 0 -243 34 -104
38 -137 22 -194 -8 -27 -30 -104 -49 -170 -19 -66 -40 -154 -46 -195 -13 -78
-57 -291 -92 -444 -23 -99 -28 -230 -11 -291 7 -25 9 -85 6 -160 -9 -195 -16
-374 -17 -472 -2 -103 -9 -115 -67 -130 -41 -11 -123 -8 -147 6 -10 5 -26 5
-40 0 -22 -8 -211 -15 -217 -8 -2 2 0 40 3 84 4 44 4 93 -1 110 -4 16 -8 75
-8 130 0 117 -25 258 -52 298 -38 54 -66 143 -77 242 -6 55 -18 133 -27 174
-26 114 -15 286 29 491 33 149 68 343 111 610 9 52 36 158 61 234 24 77 54
185 65 240 11 56 25 123 30 149 6 27 10 58 10 70 0 47 23 101 60 141 42 45
104 162 115 216 6 32 91 191 105 198 3 1 31 19 63 40 80 53 130 103 146 148
15 44 26 54 58 54 17 0 26 -11 41 -53z m7322 -28 c7 -54 -5 -147 -21 -163 -5
-6 -9 -33 -9 -60 0 -55 -11 -83 -29 -72 -21 13 -11 164 19 311 14 68 30 62 40
-16z m-13595 25 c8 -19 19 -83 25 -142 6 -59 14 -117 17 -129 9 -40 -14 -25
-40 25 -35 69 -50 143 -42 210 10 84 17 90 40 36z m9101 -39 c11 -17 14 -35
10 -60 -8 -42 31 -126 75 -165 39 -34 68 -141 80 -295 12 -149 -4 -238 -54
-305 -18 -24 -59 -84 -92 -134 -33 -50 -68 -92 -77 -94 -10 -2 -24 8 -35 24
-15 24 -19 61 -25 263 -4 130 -11 256 -17 281 -23 104 -10 267 34 402 34 108
67 135 101 83z m-8378 -93 c0 -21 5 -49 12 -62 20 -37 23 -157 5 -164 -8 -3
-15 -18 -16 -33 -1 -21 -6 -13 -20 32 -11 33 -28 79 -39 102 -20 44 -29 113
-10 83 7 -12 12 -11 30 5 13 12 19 27 16 38 -2 10 -2 25 1 33 9 25 23 4 21
-34z m1282 -39 c0 -17 4 -43 10 -57 10 -26 20 -187 24 -366 1 -58 6 -127 10
-154 6 -36 6 -47 -3 -42 -6 4 -11 22 -11 40 0 33 -12 79 -55 208 -22 64 -22
76 -14 240 4 95 8 182 9 193 1 34 29 -24 30 -62z m-5558 -67 c9 -23 17 -35 17
-28 1 6 6 12 12 12 7 0 9 -9 5 -22 -5 -22 12 -88 24 -88 10 0 29 53 23 63 -4
6 2 8 15 5 13 -4 19 -2 16 6 -2 6 2 20 9 30 11 15 17 17 35 7 18 -10 22 -21
22 -62 0 -48 -1 -50 -27 -47 -24 3 -28 -1 -31 -25 -2 -20 -8 -27 -18 -23 -16
6 -17 4 -8 -17 3 -8 13 -13 23 -10 12 3 20 -2 24 -16 4 -17 2 -19 -19 -11 -31
12 -30 9 15 -75 33 -62 40 -70 64 -67 15 1 27 -2 27 -8 0 -5 -9 -10 -20 -10
-27 0 -25 -17 11 -74 28 -45 53 -60 31 -19 -8 15 -6 22 9 31 16 10 17 16 7 39
-7 16 -18 35 -25 44 -19 22 -16 32 7 26 29 -7 42 16 42 73 -1 49 9 63 25 38 4
-7 17 -18 27 -24 32 -17 33 -37 2 -23 -34 16 -37 11 -23 -34 7 -23 18 -37 28
-37 11 0 22 -19 35 -57 10 -32 17 -63 16 -70 -1 -6 2 -14 8 -18 5 -3 10 -1 10
4 0 18 36 12 61 -9 22 -19 23 -21 6 -31 -9 -5 -25 -18 -35 -28 -9 -10 -25 -21
-34 -24 -10 -4 -18 -15 -18 -26 0 -11 -3 -26 -6 -35 -4 -11 -1 -16 10 -16 24
0 20 -18 -11 -46 l-27 -25 27 -54 c15 -30 31 -55 36 -55 16 0 23 20 12 34 -10
12 -5 26 9 26 16 0 50 -39 50 -57 0 -12 7 -38 16 -59 23 -54 27 -93 13 -110
-9 -11 -8 -26 6 -72 10 -31 20 -61 23 -66 3 -5 1 -6 -4 -3 -19 11 -83 113 -90
142 -4 17 -21 50 -38 75 -17 25 -41 72 -52 105 -43 119 -56 150 -70 166 -8 8
-14 22 -14 29 0 7 -15 31 -33 54 -33 40 -217 403 -217 428 0 7 -9 24 -20 38
-11 14 -20 36 -20 49 0 13 -16 45 -35 71 -19 26 -35 55 -35 63 0 9 -4 19 -10
22 -5 3 -10 11 -10 17 0 20 74 -74 92 -116z m16902 18 c22 -19 26 -28 16 -34
-10 -6 -10 -15 0 -45 10 -31 9 -49 -5 -109 -9 -39 -21 -75 -25 -81 -4 -5 -11
-26 -16 -45 -8 -34 -8 -33 -15 25 -5 45 -12 63 -28 73 -25 17 -26 28 -7 64 11
21 12 36 5 63 -13 46 5 115 29 115 9 0 30 -12 46 -26z m-11105 -159 c17 -116
31 -238 31 -275 1 -33 2 -34 15 -16 8 11 17 17 20 15 6 -7 53 -161 70 -229 7
-30 24 -91 38 -135 31 -97 46 -164 52 -230 14 -141 20 -171 29 -145 5 14 9 37
8 53 -1 46 15 21 22 -35 4 -28 11 -59 16 -68 5 -10 11 -32 13 -51 3 -19 10
-56 17 -84 8 -35 10 -94 5 -194 -5 -102 -4 -141 4 -137 7 5 11 -4 11 -23 0
-24 4 -31 20 -31 21 0 29 33 11 45 -16 9 -22 60 -11 89 8 23 12 25 23 14 29
-29 50 -97 62 -198 10 -89 18 -127 31 -147 8 -12 14 -33 14 -46 0 -12 5 -28
12 -35 8 -8 12 -39 11 -85 -1 -39 1 -87 5 -106 7 -33 8 -32 21 28 8 34 17 59
21 54 14 -17 42 -155 49 -241 4 -50 12 -97 18 -104 6 -7 18 -38 28 -68 9 -30
31 -83 47 -118 19 -40 33 -90 38 -135 5 -40 13 -92 18 -117 6 -25 13 -81 16
-125 4 -43 10 -82 14 -85 10 -7 29 -39 48 -80 13 -29 14 -45 6 -90 -10 -51 -9
-88 4 -148 2 -13 14 -27 26 -31 17 -6 27 -26 44 -87 12 -43 31 -103 42 -133
22 -55 28 -90 36 -201 5 -60 -4 -103 -19 -88 -4 3 -16 39 -27 80 -11 40 -31
114 -45 163 -14 50 -29 122 -35 162 -6 40 -14 71 -20 70 -15 -3 -58 114 -58
161 0 28 -7 53 -19 69 -11 13 -23 45 -26 71 -4 26 -12 63 -20 82 -44 114 -106
333 -101 355 4 14 4 48 0 76 -5 39 -9 47 -20 38 -9 -8 -15 -5 -24 11 -26 49
-43 108 -44 159 -1 37 -7 57 -18 65 -21 15 -49 96 -52 147 -1 20 -10 44 -19
53 -10 10 -17 33 -17 53 0 20 -6 44 -14 52 -18 21 -78 264 -80 321 0 31 -6 49
-18 58 -12 9 -18 26 -18 51 0 21 -11 71 -25 112 -14 41 -28 101 -32 134 -3 33
-11 67 -18 75 -20 24 -52 129 -65 210 -6 41 -23 96 -36 122 -13 26 -24 62 -24
80 0 17 -12 70 -26 117 -44 148 -47 159 -40 170 11 17 -3 48 -23 54 -10 2 -21
17 -24 33 -3 16 -10 47 -16 69 -41 150 -47 218 -38 425 6 131 30 99 56 -75z
m169 108 c6 -27 16 -83 23 -126 7 -43 16 -80 20 -83 5 -3 9 -14 9 -26 0 -11 6
-34 14 -51 8 -18 21 -54 31 -82 56 -167 70 -177 39 -27 -17 82 -15 234 3 267
9 16 12 14 21 -16 6 -19 14 -52 18 -74 13 -82 44 -188 58 -199 8 -6 19 -36 25
-66 6 -30 22 -91 36 -135 45 -142 76 -278 84 -365 5 -47 12 -103 16 -125 8
-37 9 -38 17 -15 l9 24 13 -26 c24 -45 44 -121 51 -188 4 -36 13 -76 20 -90
23 -44 52 -133 65 -195 12 -66 29 -115 39 -115 3 0 6 -19 6 -42 1 -55 28 -178
66 -295 16 -51 34 -129 40 -175 5 -46 21 -105 33 -133 27 -58 42 -104 51 -160
4 -22 13 -53 20 -70 19 -43 34 -144 40 -272 3 -61 8 -119 12 -128 6 -17 7 -17
19 0 12 17 14 16 23 -6 6 -13 14 -80 19 -148 6 -78 13 -126 20 -129 7 -2 12
-12 12 -22 0 -10 4 -22 10 -25 13 -8 50 -136 50 -176 0 -19 9 -72 20 -119 11
-47 19 -114 19 -150 l0 -65 -16 40 c-32 85 -66 215 -86 332 -13 70 -27 123
-33 123 -15 0 -42 108 -50 198 -4 47 -11 71 -18 69 -6 -2 -21 14 -34 37 l-22
41 5 -45 c2 -25 7 -83 10 -130 5 -60 14 -98 31 -132 13 -26 24 -65 24 -87 0
-21 6 -61 14 -87 16 -54 39 -158 42 -189 1 -11 7 -57 14 -103 7 -46 10 -86 7
-88 -7 -7 -47 83 -47 106 0 16 -22 77 -55 155 -7 17 -16 57 -20 90 -4 33 -11
65 -15 70 -5 6 -20 53 -35 105 -26 95 -84 286 -153 500 -20 63 -39 138 -43
165 -4 28 -21 100 -38 160 -17 61 -31 120 -31 132 0 12 -15 70 -34 130 -19 59
-44 142 -55 183 -12 41 -26 89 -31 105 -5 17 -14 57 -20 90 -6 33 -16 76 -21
96 -5 20 -9 58 -9 84 0 40 -2 46 -14 36 -11 -10 -16 -8 -21 9 -8 25 2 40 14
21 14 -22 21 14 19 99 -1 87 10 180 22 180 5 0 13 -7 18 -16 8 -15 10 -15 15
0 7 16 -19 50 -32 41 -5 -2 -7 7 -5 20 2 25 -8 63 -33 123 -8 17 -17 56 -20
85 -3 28 -10 58 -16 65 -6 7 -14 34 -18 60 -5 26 -15 74 -23 107 -8 33 -22 97
-32 143 -10 45 -22 82 -26 82 -11 0 -10 -158 1 -164 5 -3 12 -26 15 -51 4 -24
10 -47 14 -49 7 -4 7 -44 3 -278 0 -38 -4 -68 -9 -68 -10 0 -49 106 -57 155
-4 22 -13 63 -21 90 -8 28 -32 114 -54 192 -22 78 -40 162 -40 186 0 27 -6 49
-15 57 -9 8 -15 30 -15 57 0 24 -7 54 -15 66 -15 24 -55 144 -49 150 2 2 4 62
4 133 2 192 15 243 38 147z m12864 22 c8 -19 8 -31 0 -50 -7 -14 -12 -43 -12
-65 0 -21 -5 -42 -10 -45 -7 -4 1 -27 20 -62 26 -46 31 -65 28 -104 -1 -27 0
-50 3 -52 13 -5 -10 -118 -35 -173 -14 -31 -26 -65 -26 -76 0 -36 -31 -126
-45 -132 -16 -6 -23 13 -24 67 -1 46 -7 58 -29 55 -22 -4 -19 43 5 89 14 26
15 36 5 58 -16 35 -15 125 2 166 8 19 17 54 21 79 6 37 5 43 -6 33 -19 -19
-29 -16 -29 7 0 11 8 24 18 27 9 4 22 13 28 21 6 8 16 12 22 8 8 -5 12 1 12
14 0 12 -4 19 -8 16 -5 -3 -5 20 0 51 14 91 37 117 60 68z m-14415 -71 c10
-43 18 -125 18 -181 1 -67 6 -114 17 -140 20 -48 40 -134 34 -141 -3 -2 5 -13
18 -23 14 -11 27 -38 36 -76 7 -32 17 -66 22 -75 10 -21 49 -328 43 -338 -3
-4 -1 -29 4 -54 9 -51 -1 -62 -17 -18 -5 15 -20 54 -32 87 -12 33 -30 80 -40
105 -10 25 -33 99 -50 165 -18 66 -36 128 -41 137 -5 10 -9 27 -9 39 0 12 -11
45 -24 73 -20 44 -23 63 -19 141 2 50 2 108 1 130 -8 132 1 269 17 253 3 -3
13 -41 22 -84z m14213 41 c0 -18 -37 -161 -50 -190 -4 -11 -13 -47 -20 -80 -6
-33 -19 -73 -27 -90 -8 -16 -19 -43 -23 -60 -5 -16 -31 -106 -60 -200 -28 -93
-58 -195 -66 -225 -19 -66 -31 -76 -60 -49 l-22 20 5 -84 c5 -81 4 -90 -51
-263 -69 -218 -73 -227 -87 -218 -25 15 11 598 41 669 20 48 30 91 30 131 0
44 17 94 32 94 9 0 10 -13 9 -80 -1 -25 5 -70 12 -100 13 -54 13 -51 20 124 4
99 11 184 16 189 5 5 7 16 4 23 -3 8 -1 14 5 14 15 0 42 81 42 128 0 56 40
142 80 171 l32 23 28 -20 c29 -22 40 -20 40 7 0 25 38 81 55 81 8 0 15 -7 15
-15z m2545 -2 c-4 -10 -15 -38 -23 -63 -8 -25 -25 -58 -36 -75 -12 -16 -28
-48 -35 -70 -27 -81 -71 -166 -81 -160 -15 9 -12 106 4 124 7 9 18 30 23 46 6
18 17 31 30 33 20 3 53 58 53 91 0 10 12 34 28 54 28 38 49 49 37 20z m-2895
-18 c0 -8 6 -15 13 -15 35 0 41 -91 11 -152 -8 -15 -14 -36 -14 -47 0 -22 -37
-126 -71 -197 -10 -23 -19 -48 -19 -56 0 -9 -7 -31 -15 -49 l-16 -34 6 51 c3
30 -1 81 -10 124 -19 88 -12 145 16 136 69 -22 63 -32 56 92 -4 76 -3 120 5
137 12 27 38 34 38 10z m-598 -88 c3 -23 1 -52 -3 -64 -5 -13 -5 -23 0 -23 26
0 32 -244 7 -300 -8 -19 -15 -29 -16 -22 0 20 -20 14 -20 -7 0 -11 -4 -22 -9
-26 -15 -9 -50 43 -44 65 3 11 2 28 -2 37 -11 27 -5 156 7 171 8 9 8 16 0 24
-7 7 -12 21 -12 33 0 21 31 109 43 121 4 4 7 21 7 37 0 29 1 29 19 13 11 -10
21 -35 23 -59z m-662 -108 c4 -120 2 -173 -7 -196 -7 -18 -13 -46 -13 -62 0
-35 -33 -179 -62 -271 -7 -19 -15 -53 -19 -75 -16 -81 -35 -151 -45 -170 -6
-11 -14 -44 -17 -74 -4 -30 -14 -62 -23 -72 -12 -13 -14 -28 -9 -57 5 -30 1
-53 -18 -98 -30 -71 -57 -164 -57 -194 0 -11 -4 -19 -9 -15 -16 9 -33 -34 -26
-64 4 -18 -7 -72 -30 -152 -70 -244 -83 -295 -95 -374 -6 -44 -20 -100 -31
-124 -10 -24 -19 -53 -19 -65 0 -25 -22 -107 -47 -174 -14 -39 -18 -43 -40
-37 -22 5 -24 3 -17 -17 3 -13 13 -27 20 -31 18 -10 18 -42 0 -70 -8 -12 -19
-47 -26 -77 -7 -30 -21 -73 -30 -95 -10 -22 -23 -62 -30 -90 -6 -27 -20 -58
-31 -68 -12 -11 -19 -31 -19 -55 0 -43 -21 -117 -37 -133 -14 -14 -23 40 -25
166 -2 112 9 173 35 202 15 18 17 25 8 36 -9 11 -6 35 10 103 11 49 27 101 35
116 8 15 14 36 14 48 0 44 33 163 50 180 17 17 30 81 50 248 4 36 16 75 27 90
10 15 32 74 47 132 16 58 32 110 36 115 4 6 13 55 20 110 6 55 19 118 27 140
8 22 23 73 33 113 11 41 25 84 33 95 8 12 20 66 26 120 7 55 16 111 21 125 5
15 11 44 15 64 3 20 22 61 41 90 29 42 39 70 49 138 8 47 25 118 39 159 14 41
26 85 26 97 0 13 9 47 19 76 11 29 22 72 26 95 4 24 11 45 16 49 5 3 9 18 9
34 0 16 5 32 10 35 6 4 8 21 4 41 -7 40 1 67 19 62 9 -3 13 -50 17 -169z
m-12040 64 c13 -29 40 -138 45 -183 5 -48 36 -183 46 -201 5 -11 15 -19 21
-19 7 0 8 -13 5 -37 -5 -28 6 -76 43 -197 43 -139 50 -173 51 -251 2 -141 12
-228 27 -233 10 -3 13 9 12 49 -2 53 10 192 16 186 9 -9 35 -166 35 -214 0
-113 5 -219 11 -253 13 -66 17 -150 7 -150 -5 0 -9 13 -9 29 0 15 -9 40 -20
54 -11 14 -20 37 -20 51 0 15 -9 45 -21 68 -21 40 -21 64 -3 126 5 16 2 22
-10 22 -19 0 -30 25 -51 118 -8 37 -22 81 -29 97 -13 26 -96 288 -128 400 -6
22 -15 45 -20 51 -27 37 -43 237 -39 477 1 44 13 48 31 10z m-1589 -13 c10 -6
19 -21 19 -33 0 -12 7 -43 14 -69 8 -25 12 -49 9 -52 -10 -10 7 -56 21 -56 20
0 28 -44 14 -75 -10 -22 -8 -28 10 -48 22 -23 31 -74 12 -62 -6 3 -13 -1 -17
-11 -4 -11 2 -23 18 -35 13 -10 27 -19 30 -19 9 0 5 133 -4 147 -11 18 8 48
32 50 15 1 22 -6 26 -25 3 -15 10 -42 16 -60 6 -18 9 -53 8 -78 -3 -41 0 -48
25 -62 26 -16 28 -16 38 1 32 57 52 -121 34 -308 -3 -33 -5 -66 -6 -72 0 -7
-7 -13 -15 -13 -19 0 -19 -19 1 -41 15 -16 39 -147 29 -157 -9 -10 -35 21 -35
42 0 12 -16 54 -35 93 -19 39 -35 81 -35 92 0 12 -18 57 -40 101 -27 53 -40
93 -40 119 0 27 -9 54 -28 83 -27 42 -40 71 -67 153 -7 22 -32 96 -55 165 -48
140 -57 188 -41 219 13 23 32 26 62 11z m-1341 -87 c0 -10 8 -38 18 -63 14
-36 21 -44 39 -42 19 3 22 -3 28 -60 4 -35 5 -73 3 -83 -2 -15 3 -21 20 -23
28 -4 42 -37 42 -95 0 -23 4 -57 9 -75 20 -69 -10 -26 -74 105 -37 75 -75 169
-85 209 -11 44 -28 82 -42 96 -20 20 -21 23 -5 26 9 2 17 8 17 13 0 5 7 9 15
9 8 0 15 -8 15 -17z m15148 -16 c-1 -25 5 -42 25 -63 30 -32 35 -59 13 -71 -8
-5 -18 -38 -24 -78 -6 -38 -26 -117 -46 -175 -20 -58 -41 -133 -46 -166 -6
-34 -17 -75 -25 -90 -8 -16 -15 -40 -15 -54 0 -14 -9 -50 -20 -80 l-19 -55 -7
43 c-3 23 -10 42 -15 42 -15 0 -22 -72 -11 -134 9 -55 7 -72 -13 -142 -13 -43
-36 -110 -50 -149 -40 -106 -43 -115 -49 -181 -3 -34 -14 -86 -25 -115 -10
-30 -22 -72 -26 -94 -4 -22 -12 -53 -20 -70 -7 -16 -17 -57 -23 -90 -16 -97
-54 -217 -65 -206 -15 15 -2 347 16 406 8 28 18 75 22 105 12 98 62 273 90
313 8 12 15 40 15 63 0 22 11 86 24 140 13 54 27 126 30 159 8 79 45 192 57
174 5 -8 9 -32 9 -54 0 -50 9 -85 22 -85 5 0 8 45 7 108 -1 81 2 117 15 146
20 47 20 46 1 46 -19 0 -19 9 0 34 8 11 15 34 15 52 0 18 5 36 10 39 6 4 10
15 8 24 -2 10 2 29 8 42 6 13 19 55 28 93 9 39 23 77 31 86 8 9 15 22 15 28 0
7 7 12 15 12 8 0 15 7 15 15 0 8 2 15 5 15 3 0 5 -15 3 -33z m226 -37 c9 -22
16 -48 16 -56 0 -14 3 -14 15 -4 17 14 20 3 5 -20 -5 -8 -10 -10 -11 -5 -1 12
-46 -179 -59 -255 -5 -30 -16 -77 -23 -105 -8 -27 -20 -72 -27 -100 -7 -27
-17 -59 -21 -70 -9 -19 -31 -99 -50 -180 -6 -22 -16 -47 -23 -55 -8 -8 -17
-37 -21 -65 -7 -54 -59 -253 -76 -297 -6 -15 -17 -29 -25 -32 -9 -3 -14 -21
-14 -49 0 -42 -10 -87 -30 -132 -19 -41 -50 -140 -50 -156 0 -9 -8 -34 -17
-55 -13 -31 -17 -35 -21 -19 -2 11 -9 26 -14 32 -6 7 -7 21 -3 30 4 10 10 36
12 58 2 22 8 53 13 68 16 49 -6 69 -44 38 -14 -11 -16 -11 -16 3 0 10 5 27 12
39 11 21 11 21 18 2 7 -19 7 -19 19 3 8 16 9 28 1 41 -7 14 -7 22 0 26 6 4 8
10 5 15 -3 5 1 42 10 82 8 40 15 91 15 113 1 22 7 58 15 80 8 22 15 51 15 65
0 14 9 42 20 63 11 20 20 49 20 64 0 16 11 61 25 101 14 41 25 83 25 94 0 11
6 32 14 46 8 15 17 43 21 63 3 21 12 43 21 50 13 11 15 6 13 -37 -2 -87 6
-263 14 -270 7 -7 12 161 9 296 -1 70 21 220 43 285 8 22 23 75 33 118 24 94
44 127 76 127 18 0 27 -9 40 -40z m629 -109 c-15 -14 -18 -31 -17 -87 1 -39
-4 -83 -11 -100 l-13 -32 34 -4 c19 -2 37 -2 39 1 10 9 4 67 -11 116 -16 53
-12 106 10 124 11 9 15 0 25 -46 6 -31 11 -76 11 -99 0 -24 5 -46 11 -50 15
-9 2 -110 -20 -154 -10 -19 -23 -57 -30 -85 -21 -83 -44 -145 -54 -145 -5 0
-7 6 -5 13 3 6 -1 59 -8 117 -7 58 -16 139 -20 180 -3 41 -8 77 -10 79 -10 11
-17 -14 -21 -76 -5 -64 7 -152 38 -278 16 -66 1 -180 -45 -340 -18 -66 -37
-134 -40 -151 -5 -20 -15 -34 -27 -37 -18 -5 -19 -11 -13 -69 5 -52 3 -72 -14
-108 -17 -38 -45 -126 -65 -205 -9 -35 -65 -175 -75 -188 -5 -7 -15 -42 -22
-80 -7 -41 -23 -84 -40 -109 -20 -29 -27 -50 -23 -68 2 -14 -2 -42 -9 -60
l-15 -35 -7 36 c-3 20 -2 47 2 60 5 13 6 35 2 49 -5 14 -14 60 -21 103 -21
127 -31 60 -27 -188 3 -192 1 -224 -14 -246 -9 -14 -18 -36 -20 -50 -2 -18 -9
-24 -27 -24 -14 0 -26 -6 -29 -13 -7 -22 -22 -1 -22 31 1 30 1 31 15 13 20
-26 27 -16 27 35 -1 47 -9 60 -22 39 -9 -13 -10 -13 -11 0 -5 46 -7 60 -12 74
-10 25 3 47 23 41 25 -8 32 8 24 50 -5 30 -9 33 -24 25 -10 -6 -21 -10 -24
-10 -11 0 -6 41 6 63 12 21 29 95 47 201 6 36 16 56 37 74 22 19 28 32 25 57
-2 34 22 127 63 245 13 36 31 106 40 155 18 93 26 118 82 247 19 43 34 85 34
95 0 32 21 93 31 93 6 0 8 -4 5 -9 -3 -4 1 -17 9 -27 10 -13 14 -45 15 -96 0
-94 19 -118 21 -26 1 35 0 68 -1 73 -9 35 -14 178 -8 225 4 30 12 84 16 120 5
36 22 118 37 183 22 98 31 120 48 126 18 7 22 17 23 57 1 61 29 146 63 194
l26 37 3 -60 c2 -47 -1 -63 -15 -76z m-13828 97 c4 -18 13 -44 20 -58 8 -14
18 -62 24 -108 9 -72 29 -154 61 -258 6 -17 12 -108 15 -203 3 -98 12 -206 21
-251 18 -91 15 -133 -6 -85 -29 66 -72 195 -96 290 -15 55 -30 105 -35 110 -4
6 -11 31 -15 55 -4 25 -12 52 -19 60 -7 8 -20 41 -30 73 -14 44 -15 63 -7 80
18 38 23 77 11 98 -8 17 -8 23 1 29 8 5 10 15 6 26 -4 10 -4 53 0 96 6 66 9
78 24 78 13 0 21 -11 25 -32z m-482 -45 c15 -45 37 -125 41 -149 1 -5 11 -21
23 -34 18 -18 25 -21 37 -11 12 10 16 8 21 -9 4 -12 2 -27 -4 -34 -12 -14 3
-166 20 -197 12 -23 11 -29 -4 -29 -7 0 -25 38 -41 84 -24 67 -27 87 -18 99
10 12 9 16 -7 20 -13 3 -22 17 -27 43 -3 22 -12 50 -19 64 -43 83 -70 173 -59
191 11 18 21 8 37 -38z m1712 20 c2 -10 4 -25 4 -33 1 -13 2 -13 11 0 7 11 10
8 10 -16 0 -17 9 -43 20 -57 12 -15 28 -66 40 -122 11 -53 23 -102 27 -108 3
-6 8 -25 9 -41 7 -87 18 -147 30 -157 8 -6 14 -8 14 -4 0 4 6 3 13 -3 10 -9
11 -30 6 -89 -8 -85 -17 -197 -18 -228 -1 -17 -3 -17 -15 -5 -19 21 -48 103
-86 245 -18 66 -41 137 -52 158 -23 45 -52 174 -52 232 0 46 12 187 20 228 6
30 13 30 19 0z m225 -17 c0 -8 6 -19 14 -25 8 -6 16 -24 19 -39 3 -15 9 -40
12 -57 4 -16 13 -63 22 -103 10 -48 27 -91 49 -124 31 -46 33 -54 28 -104 -9
-72 9 -116 42 -108 20 5 24 2 24 -15 0 -15 -5 -21 -17 -19 -16 3 -18 -6 -20
-67 -1 -38 0 -64 3 -57 3 6 14 12 24 12 18 0 21 -7 54 -148 8 -35 19 -69 24
-75 13 -18 -1 -123 -16 -119 -29 6 -2 -49 31 -61 18 -7 67 -104 67 -135 1 -9
9 -42 20 -72 33 -91 70 -333 77 -497 3 -84 4 -153 1 -153 -6 0 -30 71 -46 140
-6 25 -21 86 -33 135 -12 50 -30 109 -40 132 -25 57 -41 120 -43 168 0 23 -10
53 -23 71 -24 34 -30 55 -37 133 -3 37 -11 60 -28 78 -20 21 -23 36 -25 106
-2 105 -2 105 -12 88 -12 -19 -28 -6 -39 32 -11 37 -66 230 -94 332 -11 39
-26 84 -33 101 -19 44 -45 153 -46 194 -2 54 13 203 22 221 4 8 4 21 -1 29 -5
8 -6 18 -4 22 7 11 24 0 24 -16z m-406 -123 c13 -59 27 -119 30 -133 5 -21 5
-22 -3 -5 -8 16 -10 17 -10 3 -1 -9 5 -23 12 -30 20 -19 37 -54 37 -73 0 -9
14 -48 30 -86 30 -66 30 -71 19 -127 -10 -49 -9 -75 5 -162 12 -70 14 -106 7
-113 -14 -14 -32 34 -72 193 -11 47 -24 90 -29 95 -4 6 -15 42 -25 80 -10 39
-23 79 -30 90 -7 11 -15 34 -18 50 -3 17 -10 50 -16 75 -5 26 -6 49 -1 54 5 5
6 37 3 72 -6 70 13 168 29 141 4 -9 19 -64 32 -124z m15936 47 c6 -12 8 -29 5
-40 -3 -10 -2 -21 3 -23 4 -3 6 -45 4 -94 -2 -48 -4 -123 -5 -166 -1 -104 -18
-95 -33 19 -7 49 -19 133 -28 188 -17 106 -11 136 24 136 11 0 24 -9 30 -20z
m570 -32 c16 -31 20 -50 15 -79 -5 -26 -2 -49 9 -70 10 -19 16 -58 16 -95 0
-35 5 -66 10 -69 6 -4 10 -28 9 -53 -2 -61 25 -228 40 -246 9 -10 7 -29 -5
-76 -29 -113 -61 -138 -55 -43 3 59 -8 164 -34 328 -68 424 -70 445 -40 445 7
0 23 -19 35 -42z m-3963 -126 c36 -11 58 -8 48 8 -3 4 2 13 10 20 18 15 21 -1
5 -31 -7 -13 -7 -19 0 -19 15 0 12 -43 -5 -66 -13 -17 -14 -17 -15 -1 0 9 -6
17 -14 17 -10 0 -16 -22 -21 -82 -5 -67 -31 -186 -61 -287 -10 -32 -14 6 -23
203 -9 204 -9 210 12 254 20 40 22 42 25 20 2 -19 12 -28 39 -36z m3269 -13
c-3 -18 -2 -37 4 -44 5 -6 12 -89 15 -184 3 -95 9 -180 14 -189 5 -9 6 -23 1
-33 -6 -9 -3 -32 6 -58 8 -23 16 -82 18 -132 2 -49 6 -92 9 -95 3 -4 2 -16 -3
-29 -5 -13 -6 -32 -3 -43 3 -14 -2 -24 -16 -31 -11 -6 -25 -29 -31 -52 -13
-48 -20 -46 -26 7 -8 77 -12 85 -34 72 -15 -10 -18 -21 -15 -58 2 -25 4 -51 5
-57 0 -7 11 -13 25 -13 29 0 29 5 10 -65 -14 -54 -50 -126 -67 -133 -4 -2 -8
-12 -8 -21 0 -24 -59 -141 -71 -141 -15 0 -11 14 25 87 43 87 55 181 33 251
-21 63 -38 182 -30 210 3 12 1 22 -3 22 -5 0 -9 44 -9 98 1 116 2 125 15 117
6 -3 10 -39 11 -78 2 -139 26 -155 37 -24 3 40 5 136 5 215 -1 121 1 140 13
125 12 -16 14 -15 15 17 1 19 1 42 0 50 -1 8 7 45 18 82 11 37 16 66 13 65
-17 -5 -9 56 11 81 16 20 20 14 13 -19z m-16306 -33 c0 -12 7 -30 15 -40 8
-11 15 -31 15 -44 0 -15 7 -26 20 -29 11 -3 31 -28 47 -60 25 -51 27 -65 28
-195 2 -158 -7 -165 -44 -33 -13 44 -27 87 -31 96 -5 9 -12 34 -16 55 -4 21
-13 45 -21 52 -7 7 -13 24 -13 37 0 13 -4 27 -10 30 -5 3 -10 23 -10 43 -1 20
-7 48 -15 62 -8 14 -14 35 -15 47 0 20 2 21 25 11 15 -7 25 -20 25 -32z
m13810 17 c1 -50 38 -382 44 -392 3 -5 -10 -56 -30 -113 -35 -100 -42 -122
-86 -258 -27 -82 -36 -96 -52 -74 -10 13 -12 4 -13 -47 0 -42 -10 -90 -27
-139 -15 -41 -38 -107 -50 -147 -13 -39 -31 -84 -38 -100 -8 -15 -24 -48 -35
-73 -11 -25 -27 -61 -36 -80 -9 -19 -19 -52 -23 -73 -6 -37 -19 -55 -27 -40
-2 5 0 53 5 108 6 74 14 107 29 128 22 31 18 67 -8 67 -9 0 -21 8 -28 17 -11
15 -13 13 -20 -16 -4 -20 -3 -37 4 -44 14 -14 14 -67 2 -101 -6 -13 -12 -93
-14 -178 -3 -111 -9 -163 -20 -191 -9 -21 -21 -36 -26 -32 -14 8 -19 51 -25
212 -3 77 -10 160 -17 183 -11 37 -10 49 11 111 23 65 40 88 40 53 0 -8 5 -12
10 -9 6 3 10 31 10 62 0 31 5 74 11 97 30 112 53 182 64 196 19 21 75 166 75
193 0 12 7 45 15 72 24 79 45 186 45 233 0 47 33 126 60 145 10 7 32 49 50 95
17 45 36 84 41 87 5 4 9 22 9 41 0 30 3 34 25 34 21 0 25 -5 25 -27z m-14564
-158 c4 -29 11 -45 20 -45 17 0 18 -22 3 -37 -6 -6 -13 -38 -16 -71 -4 -53 -2
-63 17 -82 20 -20 21 -26 11 -60 -13 -45 -14 -153 -2 -197 10 -34 0 -52 -17
-30 -5 6 -15 30 -22 52 -7 22 -18 54 -25 70 -7 17 -18 52 -24 79 -11 43 -10
51 6 68 13 14 17 34 16 66 -9 200 -6 251 16 237 6 -3 13 -26 17 -50z m-711
-101 c-14 -10 -15 -23 -6 -95 5 -46 10 -129 10 -184 l-1 -100 -50 105 c-27 58
-50 116 -51 130 -1 13 -10 32 -19 42 -24 24 -23 30 12 53 16 11 30 28 30 37 0
9 5 20 10 23 6 4 10 12 9 18 -1 7 -1 22 0 35 1 19 5 22 21 17 15 -5 20 -2 20
13 0 11 6 22 13 25 20 6 22 -104 2 -119z m14126 -45 c11 -67 21 -189 21 -250
0 -38 -70 -259 -86 -271 -5 -3 -11 -26 -13 -50 -2 -23 -11 -48 -19 -54 -10 -8
-14 -31 -14 -76 0 -41 -5 -71 -15 -84 -8 -10 -15 -29 -15 -41 0 -12 -14 -61
-31 -110 -40 -116 -86 -277 -109 -384 -10 -48 -23 -97 -30 -109 -15 -28 -44
-22 -48 10 -2 14 -9 31 -14 38 -15 18 -10 154 7 195 8 19 15 56 16 83 1 27 8
69 15 94 8 25 25 95 38 155 14 61 37 142 51 180 47 124 84 255 85 300 0 17 11
47 25 67 19 28 25 50 25 92 0 30 5 58 10 61 12 7 13 -3 10 -69 -3 -66 17 -52
25 19 4 30 11 55 16 55 5 0 9 14 9 30 0 20 -5 30 -15 30 -26 0 -27 26 -4 82
23 55 39 81 46 75 2 -3 8 -33 14 -68z m1541 20 c4 -19 8 -57 10 -86 2 -42 -2
-57 -19 -75 -14 -15 -23 -43 -28 -83 -7 -64 -26 -128 -50 -175 -8 -16 -15 -38
-15 -49 0 -28 -21 -71 -31 -65 -14 8 -10 61 4 76 8 7 17 31 21 52 4 21 11 46
16 55 16 28 50 157 50 189 0 18 5 52 12 76 9 33 9 54 1 80 -6 19 -8 37 -5 41
12 12 27 -3 34 -36z m-13500 -41 c9 -13 23 -66 32 -118 9 -52 22 -110 27 -128
6 -19 8 -49 4 -69 -3 -19 -8 -58 -10 -88 -4 -52 -4 -53 47 -99 42 -38 48 -48
38 -61 -6 -8 -10 -20 -7 -27 3 -8 6 -5 6 6 1 18 2 18 21 1 11 -10 20 -31 20
-46 0 -15 13 -65 29 -111 16 -46 31 -104 35 -130 3 -26 19 -76 36 -111 23 -49
30 -78 30 -123 0 -39 6 -68 17 -83 9 -14 12 -21 6 -18 -17 11 -23 -18 -23
-118 0 -110 8 -155 26 -155 8 0 14 5 14 10 0 6 5 10 11 10 6 0 9 -7 5 -15 -3
-8 -2 -15 3 -15 13 0 18 -136 6 -149 -12 -11 -45 44 -45 74 0 18 -7 35 -18 42
-17 10 -36 63 -78 223 -8 30 -24 82 -35 115 -11 33 -36 112 -55 175 -19 63
-41 139 -50 167 -9 29 -20 55 -25 59 -5 3 -9 18 -9 35 0 16 -4 29 -10 29 -5 0
-10 7 -10 17 0 15 2 15 19 -1 10 -10 22 -13 25 -8 5 8 9 127 6 175 -2 27 -20
20 -20 -8 0 -14 -4 -25 -9 -25 -5 0 -11 -18 -15 -40 -8 -52 -26 -51 -49 3 -18
41 -19 42 -28 17 -7 -17 -6 -33 1 -50 14 -29 15 -33 30 -160 13 -103 24 -140
40 -140 5 0 10 10 10 23 1 22 1 22 15 2 20 -26 50 -123 42 -132 -4 -3 -14 2
-23 13 -14 17 -15 14 -9 -41 4 -33 13 -75 21 -94 16 -37 21 -361 6 -361 -5 0
-20 30 -34 68 -23 62 -33 97 -61 207 -5 22 -15 51 -21 65 -7 14 -23 59 -36
100 -13 41 -34 105 -47 142 -12 37 -20 74 -17 82 3 8 1 23 -5 34 -7 13 -7 22
1 30 8 8 13 68 14 173 2 89 5 163 7 166 3 2 11 -15 18 -38 15 -44 38 -64 38
-32 0 10 3 137 5 283 3 146 5 266 6 268 1 10 20 -2 32 -20z m12218 -112 c14
-123 14 -126 -35 -267 -23 -65 -30 -76 -46 -72 -23 6 -24 21 -3 48 10 13 14
40 13 86 -1 37 1 71 4 76 9 14 18 59 30 156 6 48 14 87 17 87 4 0 13 -51 20
-114z m1070 107 c0 -5 -14 -35 -30 -68 -16 -33 -30 -70 -30 -82 0 -12 -4 -25
-10 -28 -5 -3 -10 -16 -10 -28 1 -20 2 -20 16 5 22 42 54 32 71 -23 7 -24 11
-57 8 -72 -3 -16 2 -63 11 -105 9 -42 13 -92 10 -112 -3 -19 -8 -49 -10 -66
-5 -41 -44 -156 -89 -265 -19 -46 -38 -95 -42 -109 -7 -25 -76 -183 -101 -232
-8 -14 -14 -35 -14 -45 0 -10 -6 -27 -14 -38 -7 -11 -25 -59 -40 -107 -25 -82
-41 -106 -51 -75 -11 33 -33 449 -25 474 5 16 11 53 15 83 5 48 12 61 51 102
51 53 61 98 29 122 -18 13 -17 17 15 90 21 48 44 84 62 97 23 17 28 18 28 5 0
-9 4 -16 9 -16 5 0 9 15 8 33 -1 17 2 49 6 70 6 30 5 37 -8 37 -19 0 -19 5 6
76 11 32 24 79 28 103 5 24 15 49 23 55 8 6 24 37 37 69 13 31 27 57 32 57 5
0 9 -3 9 -7z m-14286 -35 c67 -158 81 -236 41 -230 -20 2 -20 2 -1 -13 22 -17
29 -76 14 -118 -8 -19 -7 -31 1 -41 9 -11 9 -25 0 -60 -9 -38 -9 -56 4 -99 37
-121 40 -217 7 -217 -20 0 -50 40 -50 68 0 15 -11 49 -25 76 -14 27 -25 57
-25 66 0 10 -11 51 -25 93 -23 73 -24 80 -15 229 9 147 17 239 26 266 7 23 34
12 48 -20z m266 -30 c25 -110 29 -139 29 -205 1 -150 5 -225 21 -336 19 -135
3 -133 -61 10 -41 93 -43 103 -42 181 1 45 7 99 13 120 5 20 10 92 10 160 0
67 4 122 9 122 5 0 15 -24 21 -52z m281 -58 c22 -164 29 -245 33 -380 3 -80 7
-164 10 -188 3 -26 2 -41 -4 -37 -6 3 -10 15 -10 25 0 10 -5 22 -11 26 -6 3
-9 15 -6 25 7 25 -17 102 -44 146 -21 33 -21 42 -15 216 3 100 9 204 12 232 6
44 8 47 16 25 6 -14 14 -54 19 -90z m677 -17 c36 -127 46 -198 48 -338 3 -179
2 -175 14 -175 5 0 9 25 8 58 -2 65 10 96 31 83 14 -9 28 -68 36 -145 2 -21
11 -46 19 -55 27 -29 66 -156 66 -212 0 -17 5 -40 11 -51 11 -21 15 -79 20
-317 1 -96 -1 -136 -9 -139 -7 -2 -12 2 -13 10 -2 51 -12 100 -28 143 -43 114
-83 242 -87 278 -2 21 -13 56 -25 78 -12 24 -23 70 -26 112 -5 54 -11 75 -25
85 -10 8 -18 25 -18 42 0 17 -9 53 -20 82 -40 105 -50 167 -46 298 2 69 4 151
5 183 0 32 5 56 10 53 5 -3 18 -36 29 -73z m553 21 c26 -108 37 -202 38 -329
2 -192 -13 -210 -59 -70 -22 64 -23 85 -21 249 1 98 5 185 8 193 8 21 23 2 34
-43z m11871 -86 c1 -51 3 -163 3 -248 0 -155 0 -155 -33 -221 -17 -37 -32 -80
-32 -97 0 -16 -7 -47 -16 -67 -9 -21 -20 -64 -25 -95 -5 -31 -20 -83 -33 -116
-13 -32 -27 -79 -31 -104 -7 -52 -30 -126 -57 -187 -10 -24 -18 -50 -18 -59 0
-23 -20 -55 -31 -49 -5 4 -10 23 -10 43 -1 20 -5 -8 -9 -64 -7 -103 -46 -251
-75 -290 -14 -18 -14 -18 -15 5 0 13 -8 29 -17 36 -14 11 -17 26 -15 81 2 38
7 85 11 104 6 27 2 46 -17 84 -21 42 -23 54 -14 80 6 17 16 63 22 101 29 185
100 289 100 147 0 -31 3 -95 7 -142 l6 -85 13 55 c7 30 14 102 15 160 1 58 6
116 11 129 6 17 4 28 -7 41 -8 9 -15 24 -15 33 0 19 26 104 39 128 5 8 14 41
21 72 6 32 32 106 57 165 25 59 47 117 50 130 9 36 23 36 23 0 0 -32 23 -79
33 -68 7 7 -4 70 -12 66 -17 -11 9 251 30 298 24 53 37 31 41 -66z m-15097
-63 c2 -33 6 -85 10 -116 5 -36 3 -63 -4 -77 -9 -17 -7 -27 14 -58 14 -20 25
-47 25 -60 0 -17 4 -22 15 -18 21 8 29 -20 18 -64 -10 -42 3 -92 24 -92 8 0
14 14 14 38 1 20 5 -7 9 -60 4 -54 11 -114 15 -134 12 -64 -18 -34 -46 47 -14
41 -35 92 -46 114 -36 70 -74 187 -67 208 3 11 1 22 -5 26 -5 4 -17 23 -25 43
-14 32 -14 37 0 49 13 11 15 33 9 153 l-6 141 22 -40 c15 -27 23 -60 24 -100z
m16295 114 c0 -7 -19 -70 -42 -140 -39 -123 -57 -151 -72 -112 -9 23 4 173 15
173 5 0 9 -8 9 -17 0 -10 9 0 20 22 11 22 20 47 20 55 0 9 3 20 7 23 11 11 43
8 43 -4z m-15405 -59 c18 -35 21 -209 5 -275 -5 -22 -10 -60 -10 -84 0 -79
-14 -39 -39 112 -7 43 7 149 23 175 3 5 1 25 -5 46 -9 32 -6 56 6 56 3 0 11
-14 20 -30z m15150 -40 c3 -5 1 -18 -5 -29 -12 -22 -3 -54 14 -48 6 2 13 21
16 43 4 30 10 40 27 42 28 4 34 -18 31 -112 -2 -56 1 -79 10 -85 23 -14 9
-125 -27 -221 -18 -47 -35 -96 -38 -110 -3 -14 -23 -65 -43 -115 -21 -49 -45
-108 -54 -129 -11 -26 -20 -36 -26 -30 -12 12 15 127 30 132 13 5 13 52 0 52
-5 0 -13 -8 -19 -17 -16 -29 -21 -10 -7 30 7 20 20 43 30 50 10 7 18 28 19 47
2 29 -2 36 -20 38 -29 4 -29 18 -1 26 18 4 20 8 10 18 -14 14 -16 54 -2 63 5
3 18 1 28 -4 17 -9 19 -5 18 44 -1 29 -4 51 -7 49 -4 -2 -5 28 -2 66 4 59 2
70 -11 70 -10 0 -16 8 -16 21 0 18 2 19 15 9 9 -8 15 -9 15 -2 0 6 -4 14 -10
17 -11 7 -13 54 -4 79 7 18 20 21 29 6z m-15305 -45 c0 -18 4 -35 10 -37 6 -2
6 -18 0 -43 -6 -25 -5 -44 1 -51 6 -7 12 -23 13 -36 4 -27 14 -57 26 -78 21
-34 40 -77 48 -110 5 -22 14 -35 24 -34 15 1 19 -12 31 -106 1 -8 -2 -17 -8
-18 -5 -2 -21 27 -36 65 -14 37 -32 79 -41 93 -9 14 -28 55 -41 91 -14 36 -30
75 -36 85 -6 10 -17 43 -26 73 -13 48 -13 58 0 84 8 17 15 39 15 49 0 11 5 16
10 13 6 -3 10 -21 10 -40z m-2804 -169 c-7 -78 -6 -79 13 -62 18 17 19 15 36
-38 14 -43 15 -59 6 -70 -9 -11 -9 -15 0 -18 7 -2 13 -22 13 -45 1 -23 5 -45
9 -49 9 -9 -2 -172 -13 -194 -7 -11 -11 -8 -20 15 -34 86 -40 95 -60 95 -15 0
-27 12 -40 43 -21 45 -26 82 -11 72 16 -10 23 14 24 83 0 37 6 79 13 93 11 23
11 29 -1 39 -8 7 -15 27 -15 44 0 17 -5 51 -11 76 -6 25 -7 60 -4 79 l7 35 30
-60 c29 -56 30 -63 24 -138z m529 164 c3 -5 -3 -17 -14 -27 -11 -9 -17 -21
-14 -27 7 -11 14 -53 17 -106 1 -19 5 -41 10 -48 4 -7 8 -38 10 -70 1 -31 9
-73 18 -92 9 -19 20 -51 24 -70 6 -31 5 -33 -10 -21 -9 7 -21 32 -28 55 -7 22
-22 55 -35 72 -25 34 -63 156 -63 201 0 16 7 37 16 48 8 11 19 36 25 57 9 36
31 50 44 28z m2691 -116 c4 -14 4 -54 0 -87 -9 -80 -9 -75 4 -127 11 -46 35
-80 54 -80 7 0 12 -27 14 -67 3 -61 2 -66 -13 -53 -22 19 -45 64 -45 92 0 13
-7 32 -15 42 -8 11 -15 26 -15 33 0 12 -20 55 -65 142 -15 28 -16 38 -6 53 9
14 9 23 1 32 -13 16 4 32 40 39 14 2 28 5 32 6 4 0 11 -11 14 -25z m149 -27
c4 -23 23 -80 41 -126 19 -46 34 -90 34 -97 0 -13 9 -35 75 -179 18 -38 36
-88 40 -110 3 -22 15 -53 25 -70 29 -47 49 -127 39 -153 -6 -15 -5 -31 3 -45
7 -13 13 -74 14 -152 1 -72 5 -146 9 -164 l7 -34 19 24 c15 20 19 21 24 8 3
-9 5 -36 3 -60 -2 -37 -6 -44 -23 -42 -28 2 -36 -15 -29 -69 4 -27 3 -48 -2
-48 -28 1 -49 39 -64 122 -5 26 -21 64 -34 85 -31 46 -56 116 -56 153 0 16
-27 82 -60 147 -53 105 -97 211 -119 283 -4 14 -4 102 1 195 9 191 16 266 28
278 4 5 3 26 -1 48 -9 41 -5 64 11 54 4 -3 11 -24 15 -48z m-815 -55 c1 -15
13 -42 28 -59 28 -32 28 -34 18 -100 -5 -38 -16 -74 -23 -81 -17 -18 -16 -32
2 -52 9 -10 19 -34 22 -55 5 -33 4 -37 -13 -33 -11 2 -24 18 -31 38 -6 19 -27
63 -46 97 -62 109 -68 155 -23 173 15 5 26 23 35 59 13 53 31 60 31 13z
m15910 -84 c0 -10 7 -29 16 -42 10 -16 12 -26 5 -31 -6 -3 -11 -36 -12 -73 0
-102 -22 -218 -46 -244 -22 -25 -40 -69 -45 -107 -4 -31 -28 -39 -35 -12 -13
49 -20 15 -15 -70 5 -84 3 -93 -16 -108 -19 -15 -20 -20 -10 -64 10 -43 9 -50
-10 -77 -12 -16 -26 -47 -31 -70 -10 -44 -36 -90 -51 -90 -6 0 -10 26 -10 58
0 31 -5 93 -10 137 -35 281 -36 287 -55 301 -17 13 -17 16 -3 51 9 21 23 60
31 88 19 66 42 74 35 13 -6 -52 5 -78 32 -78 24 0 26 22 5 40 -20 16 -19 23 6
73 14 28 22 68 24 122 2 44 4 84 5 89 0 4 7 6 15 2 8 -3 19 2 25 12 25 44 28
46 44 33 23 -19 38 25 25 74 -7 26 -7 40 1 50 9 11 18 6 45 -22 19 -20 35 -45
35 -55z m-20845 43 c3 -10 15 -27 26 -37 19 -17 20 -17 25 3 7 26 33 38 40 19
11 -28 -29 -423 -45 -456 -5 -8 -6 -41 -5 -72 4 -67 -9 -82 -34 -37 -9 17 -34
52 -54 76 -21 24 -38 48 -38 52 0 4 -20 34 -45 66 -53 68 -51 85 3 32 21 -20
44 -37 51 -37 21 0 40 -32 41 -65 0 -30 15 -55 33 -55 4 0 7 8 6 18 -1 9 1 30
6 45 5 20 1 43 -14 79 -26 63 -26 72 -1 65 21 -5 28 7 10 18 -5 3 -10 18 -10
32 0 18 4 24 15 19 10 -3 15 1 15 14 0 10 5 22 10 25 17 10 11 58 -10 90 -25
36 -50 92 -50 111 0 21 18 17 25 -5z m5403 -27 c-2 -19 0 -34 4 -34 4 0 10
-11 14 -25 3 -14 11 -25 18 -25 19 0 43 -52 49 -109 4 -34 14 -62 27 -76 11
-12 20 -29 20 -38 0 -9 4 -18 9 -21 4 -3 6 -17 4 -30 -4 -21 -10 -24 -32 -20
-34 7 -60 -28 -39 -53 7 -9 11 -30 9 -47 -2 -29 -1 -30 14 -15 16 15 16 19 1
48 -16 31 -16 31 7 31 18 0 28 -10 42 -40 10 -22 24 -40 32 -40 8 0 11 -5 7
-12 -5 -7 -2 -9 9 -5 9 3 32 -6 54 -22 34 -25 43 -39 62 -105 15 -50 21 -87
16 -104 -12 -46 -23 -282 -19 -389 3 -59 1 -103 -4 -103 -13 0 -28 21 -37 50
-4 14 -15 43 -25 65 -10 22 -21 58 -26 79 -4 22 -13 51 -20 65 -8 14 -14 34
-14 43 0 9 -11 34 -25 54 -14 20 -25 43 -25 51 0 14 -55 166 -70 195 -13 24
-79 194 -98 250 -14 44 -14 51 3 88 11 25 15 50 11 70 -4 22 -1 36 9 47 17 16
21 93 5 93 -6 0 -9 27 -8 64 1 37 6 62 11 59 5 -3 7 -21 5 -39z m-6060 3 c13
-26 42 -38 42 -17 0 17 21 11 41 -12 20 -26 25 -68 7 -68 -6 0 -4 -7 5 -18 10
-10 17 -27 17 -36 0 -10 14 -38 30 -63 34 -51 36 -59 14 -67 -21 -8 -36 5 -60
51 -10 21 -25 44 -31 51 -7 7 -13 20 -13 27 0 16 -44 102 -64 125 -8 8 -17 26
-21 39 -10 33 16 23 33 -12z m7261 -41 c6 -4 11 -20 11 -36 0 -16 4 -31 9 -34
5 -3 12 -27 15 -53 8 -56 35 -125 47 -117 11 6 29 -29 29 -58 0 -22 -1 -22
-25 7 -24 29 -25 29 -37 11 -6 -11 -13 -36 -14 -55 -2 -20 -6 -49 -10 -64 -5
-27 -7 -27 -19 -10 -7 10 -22 45 -33 78 -17 50 -21 86 -21 218 -1 87 2 163 5
169 4 6 12 -3 19 -20 7 -16 18 -33 24 -36z m12319 -48 c2 -14 13 -34 25 -44
12 -10 19 -15 15 -10 -10 12 11 48 23 40 6 -3 7 -13 4 -23 -4 -9 -17 -63 -30
-121 -12 -58 -47 -181 -78 -275 -30 -93 -68 -210 -83 -260 -29 -95 -39 -116
-56 -112 -7 1 -10 -19 -9 -54 1 -33 -4 -72 -13 -94 -9 -21 -16 -47 -16 -59 0
-12 -9 -39 -20 -61 -11 -22 -20 -52 -20 -67 0 -33 -20 -49 -21 -16 -1 28 -27
315 -35 378 -4 32 1 63 16 105 12 33 27 92 33 131 11 65 28 104 46 104 4 0 13
-17 19 -37 9 -32 11 -33 8 -8 -7 51 19 271 32 288 8 9 20 13 28 10 8 -3 24 4
35 16 26 28 35 21 45 -32 4 -23 9 -34 11 -25 3 9 12 19 21 22 9 3 23 16 31 28
12 20 12 24 -8 36 -13 9 -21 25 -21 44 0 16 -7 40 -16 54 -14 20 -15 30 -5 50
14 31 35 27 39 -8z m-13874 -20 c10 -49 19 -156 17 -204 -1 -39 3 -54 19 -69
20 -18 20 -18 21 31 0 27 4 70 7 97 l7 47 35 -51 c23 -34 35 -64 36 -90 1 -22
7 -53 13 -67 13 -35 33 -210 25 -223 -8 -14 4 -59 16 -59 5 0 20 12 33 26 l25
26 22 -22 c19 -19 21 -29 16 -83 -3 -34 -5 -63 -6 -64 0 -1 -7 0 -16 4 -18 7
-18 10 2 -87 4 -16 10 -30 14 -30 12 0 21 -30 30 -100 5 -35 5 -71 0 -80 -5
-9 1 -45 17 -93 44 -141 -3 -140 -52 1 -15 43 -33 91 -41 107 -7 17 -33 91
-57 165 -25 74 -54 152 -65 172 -36 63 -81 178 -76 191 2 7 -4 22 -16 32 -11
10 -20 24 -20 32 0 8 -7 27 -15 43 -25 48 -32 196 -17 353 3 25 21 21 26 -5z
m15202 -132 c-29 -59 -35 -109 -12 -100 17 6 31 -52 46 -186 13 -122 21 -160
31 -160 5 0 9 5 9 12 0 6 3 9 6 5 12 -12 -8 -86 -24 -91 -13 -4 -17 -18 -17
-53 -1 -49 -41 -157 -55 -148 -4 2 -11 51 -14 107 -4 57 -11 135 -16 173 -5
42 -5 110 1 170 16 150 16 150 -1 150 -9 0 -14 8 -13 20 7 63 23 116 49 158
27 45 29 46 32 22 2 -15 -8 -50 -22 -79z m-16010 84 c23 -9 26 -14 21 -45 -4
-23 -1 -38 10 -47 8 -7 29 -36 45 -66 17 -29 35 -51 42 -49 21 7 17 45 -8 72
-29 31 -34 70 -11 79 16 6 31 -33 26 -66 -1 -11 8 -22 22 -29 22 -10 26 -20
33 -88 5 -42 8 -88 6 -103 -1 -16 2 -28 8 -28 5 0 10 6 10 13 0 7 7 3 15 -8
11 -14 13 -32 9 -66 -4 -30 -2 -49 5 -53 6 -4 11 -2 11 3 0 19 28 12 53 -12
12 -13 21 -29 19 -35 -2 -6 7 -22 21 -34 30 -28 52 -89 36 -98 -7 -5 -6 -12 4
-22 40 -40 49 -77 42 -178 -4 -54 -7 -177 -7 -274 -1 -141 -4 -176 -14 -176
-8 0 -14 9 -14 21 0 12 -11 34 -25 51 -22 25 -85 148 -146 283 -10 22 -54 116
-99 209 -143 299 -157 336 -124 336 11 0 14 8 12 32 -4 39 -28 51 -28 13 0
-38 -22 -27 -37 18 -17 50 -8 69 31 64 22 -2 35 -11 44 -30 18 -37 32 -34 32
6 0 21 -8 41 -20 52 -19 17 -20 17 -20 -1 0 -11 -3 -15 -8 -8 -4 6 -15 13 -24
17 -11 4 -17 16 -17 34 1 15 -2 68 -5 117 -6 113 -5 116 50 96z m18911 -86
c-7 -41 9 -67 24 -41 10 17 11 17 23 1 9 -12 11 -28 5 -53 -11 -47 -11 -128 0
-149 4 -9 5 -53 0 -96 -6 -62 -5 -86 7 -107 8 -17 14 -57 14 -101 0 -78 -15
-84 -23 -8 -11 101 -60 336 -72 346 -11 8 -12 28 -6 90 4 44 6 94 3 112 -2 17
-1 44 3 59 l7 28 10 -25 c5 -14 7 -39 5 -56z m-16767 -10 c0 -8 -4 -14 -10
-14 -5 0 -10 -4 -10 -10 0 -5 6 -10 14 -10 15 0 26 -21 26 -50 0 -10 9 -20 20
-23 11 -3 20 -10 20 -17 0 -7 -8 -9 -20 -5 -22 7 -28 -13 -10 -31 6 -6 17 -44
25 -85 21 -105 36 -149 51 -149 15 0 29 -43 20 -58 -3 -6 -14 -8 -25 -5 -27 7
-34 -43 -12 -87 10 -19 16 -40 14 -47 -2 -6 1 -14 6 -18 15 -9 14 -25 -2 -25
-17 0 -48 65 -41 85 4 8 -5 30 -19 48 -14 19 -32 64 -41 107 -10 41 -22 91
-28 111 -6 20 -8 41 -4 47 3 5 -3 17 -14 27 -11 10 -20 27 -20 37 0 10 -11 41
-25 68 -14 27 -25 53 -25 58 0 5 16 27 35 48 19 21 35 43 35 48 1 16 40 -34
40 -50z m11976 -26 c-10 -49 -14 -175 -8 -218 6 -35 11 -44 25 -42 9 2 17 1
17 0 0 -2 -17 -55 -38 -117 l-39 -114 -6 54 c-4 30 -7 80 -7 111 0 31 -4 60
-10 63 -19 11 -22 -45 -8 -142 19 -131 9 -260 -28 -380 -26 -88 -43 -115 -45
-75 0 9 -2 26 -4 37 -2 11 -6 41 -10 68 -3 26 -11 47 -17 47 -7 0 -8 -18 -4
-53 5 -36 2 -68 -7 -98 -23 -68 -29 -117 -18 -137 7 -13 7 -22 0 -29 -5 -5
-11 -25 -13 -44 -8 -80 -42 -212 -81 -319 -7 -19 -19 -54 -26 -78 -7 -23 -15
-40 -17 -37 -3 3 -9 56 -14 118 -9 132 4 253 53 462 5 22 13 66 18 97 5 32 19
71 31 88 12 16 23 51 26 77 2 25 13 62 24 82 11 20 28 90 40 156 25 149 41
197 71 212 20 10 25 24 35 93 6 44 17 93 24 110 15 36 43 42 36 8z m-13620
-48 c-3 -15 -1 -31 4 -36 5 -5 11 -51 14 -102 6 -103 9 -112 34 -112 13 0 14
-2 4 -8 -7 -5 -10 -16 -7 -24 5 -12 18 -15 56 -12 55 4 60 -1 75 -81 l8 -40 6
60 c4 36 2 76 -5 100 -7 22 -22 73 -34 113 -13 41 -21 75 -19 76 1 2 14 9 27
16 34 18 45 1 43 -74 0 -54 6 -80 44 -171 24 -58 53 -118 64 -132 11 -14 18
-29 15 -33 -2 -4 0 -22 5 -39 7 -24 6 -33 -4 -37 -20 -7 -29 -80 -14 -104 9
-14 10 -22 1 -31 -8 -8 -8 -20 -1 -43 5 -17 12 -113 15 -213 5 -158 4 -183 -9
-183 -25 0 -124 219 -134 297 -7 56 -36 183 -41 183 -2 0 -4 -15 -3 -32 3 -50
2 -52 -20 -33 -12 11 -20 31 -20 49 0 19 -9 39 -23 52 -22 22 -97 200 -97 232
0 10 -11 34 -25 54 -14 20 -25 39 -25 42 0 3 -13 35 -30 71 -34 74 -36 100
-15 152 14 32 18 35 45 29 28 -5 30 -3 30 23 0 35 9 44 27 29 9 -7 13 -22 9
-38z m16266 -157 c1 -50 5 -74 15 -77 7 -3 13 -19 13 -36 0 -36 24 -41 35 -7
7 21 8 20 12 -7 3 -16 -1 -41 -9 -54 -10 -20 -10 -26 0 -29 6 -3 12 -12 12
-20 0 -10 8 -5 22 13 12 16 26 32 31 35 5 4 10 26 11 50 0 25 8 51 17 60 8 8
28 43 44 77 16 34 32 62 37 62 11 0 10 -34 -2 -46 -9 -9 -18 -29 -112 -254
-73 -173 -102 -230 -113 -227 -10 4 -10 20 -1 107 l5 45 -12 -38 c-10 -29 -15
-35 -25 -25 -15 15 -16 88 -1 88 8 0 9 17 5 53 -3 28 -9 92 -11 142 -5 82 -13
104 -38 105 -4 0 -12 -11 -17 -25 -5 -14 -12 -25 -15 -25 -10 0 -5 29 8 42 11
11 31 59 54 128 9 30 34 -65 35 -137z m-21368 68 c14 -32 26 -61 26 -64 0 -9
62 -99 82 -119 10 -10 18 -23 18 -30 0 -6 31 -42 70 -80 38 -38 75 -79 81 -91
7 -12 18 -26 25 -30 8 -4 14 -15 14 -22 0 -8 3 -15 8 -15 4 0 28 -20 55 -45
36 -34 47 -52 47 -75 0 -38 -10 -38 -39 1 -14 19 -26 27 -30 21 -4 -7 -20 8
-39 36 -49 71 -82 114 -133 173 -96 113 -218 294 -228 339 -14 60 -14 70 3 64
8 -3 26 -31 40 -63z m555 40 c7 -5 11 -13 8 -18 -3 -5 -2 -15 4 -23 7 -12 9
-10 9 8 0 15 5 22 13 19 8 -3 11 -20 9 -51 -4 -44 -2 -47 17 -41 31 9 53 -41
50 -118 -1 -34 -6 -64 -10 -67 -5 -3 -2 -19 7 -35 12 -23 13 -39 5 -75 -12
-59 -12 -122 1 -138 6 -7 8 -15 5 -18 -3 -3 -13 7 -23 23 -10 15 -35 49 -56
74 -21 26 -38 52 -38 59 0 6 -11 31 -25 55 -21 35 -24 50 -19 85 4 23 12 44
19 46 13 5 9 51 -7 71 -10 12 0 153 11 153 3 0 12 -4 20 -9z m1861 -81 c23
-155 32 -196 58 -245 44 -85 65 -102 77 -64 5 13 13 19 24 16 13 -3 22 8 36
42 10 25 22 52 28 58 12 16 30 6 23 -12 -7 -18 20 -40 29 -25 4 6 4 14 1 17
-7 7 40 33 60 33 7 0 18 -9 24 -20 8 -15 6 -21 -9 -29 -10 -6 -21 -7 -25 -4
-3 3 -6 1 -6 -5 0 -16 20 -26 20 -10 1 24 40 -34 40 -58 0 -13 5 -33 12 -44
10 -15 10 -27 1 -52 -14 -38 -5 -90 27 -157 12 -24 18 -46 13 -50 -5 -3 -14
-18 -20 -33 -8 -18 -18 -26 -27 -22 -8 3 -17 0 -21 -6 -4 -6 -14 -8 -24 -5
-14 4 -19 -5 -30 -58 -7 -35 -9 -76 -6 -93 7 -28 7 -28 -8 -9 -21 26 -22 1 -2
-35 18 -32 18 -40 2 -40 -8 0 -29 27 -48 60 -19 33 -43 74 -54 92 -55 88 -66
107 -90 153 -14 28 -43 77 -65 110 -22 33 -45 71 -51 85 -6 14 -15 32 -20 40
-5 8 -19 34 -30 58 -11 23 -24 42 -29 42 -4 0 -22 23 -40 51 -28 46 -31 57
-28 122 2 58 6 72 19 72 9 0 23 6 31 13 9 7 23 10 32 6 9 -3 16 -1 16 5 0 6
-7 11 -15 11 -20 0 -20 2 17 43 18 20 36 33 40 29 4 -4 12 -41 18 -82z m-935
20 c3 -6 8 -36 11 -67 3 -31 11 -64 18 -73 8 -8 17 -35 21 -59 4 -25 16 -70
26 -100 11 -30 17 -62 14 -70 -5 -16 19 -58 103 -182 23 -35 42 -66 42 -70 0
-8 48 -18 55 -11 3 3 0 11 -6 18 -7 8 -7 14 1 19 5 3 13 -2 16 -12 3 -10 12
-31 20 -46 8 -16 17 -46 20 -68 5 -31 9 -37 20 -28 7 6 18 8 23 5 5 -4 13 -1
16 5 4 5 13 8 21 5 9 -3 14 1 14 12 0 10 5 23 10 28 24 24 -20 64 -69 64 -17
0 -18 -3 -5 -37 15 -44 17 -63 7 -63 -11 0 -47 90 -40 97 4 3 2 15 -4 25 -8
14 -8 23 0 31 6 6 8 28 4 52 -10 74 24 67 49 -11 9 -27 19 -40 35 -42 12 -2
27 -9 33 -17 6 -8 18 -11 26 -8 8 3 21 0 29 -7 30 -25 26 0 -9 58 -20 33 -36
70 -36 83 1 27 -8 34 76 -69 31 -38 47 -98 33 -124 -11 -20 -1 -115 12 -124 5
-3 9 -15 9 -27 0 -16 3 -18 12 -9 9 9 9 18 0 37 -7 14 -12 44 -12 67 0 36 2
40 21 35 29 -8 49 2 49 23 0 32 20 33 26 1 4 -16 12 -32 19 -35 10 -4 12 -19
8 -59 -5 -49 -4 -55 16 -60 18 -4 21 -13 21 -55 0 -59 7 -82 25 -82 17 0 22
-17 30 -111 6 -70 5 -79 -15 -97 -17 -16 -19 -24 -12 -39 11 -20 4 -112 -9
-129 -5 -5 -5 -23 0 -40 4 -17 4 -36 -3 -46 -7 -11 -6 -31 3 -65 26 -100 25
-96 8 -87 -18 10 -55 64 -76 109 -7 17 -17 37 -22 45 -32 55 -81 161 -76 166
2 3 16 -6 30 -20 31 -31 37 -32 30 -6 -4 14 0 20 11 20 18 0 20 9 6 44 -5 15
-15 23 -22 21 -9 -4 -21 18 -36 67 -20 65 -21 74 -7 84 19 14 19 43 -1 72 -12
17 -12 22 -2 22 21 0 16 49 -6 66 -26 19 -36 18 -36 -5 0 -14 -6 -17 -25 -13
-18 3 -25 11 -25 27 0 12 -7 29 -16 36 -15 12 -16 9 -8 -31 4 -25 7 -57 6 -72
-1 -16 3 -28 7 -28 5 0 11 -9 14 -20 7 -27 -5 -25 -33 5 -13 14 -29 25 -37 25
-7 0 -13 9 -13 20 0 31 -31 100 -45 100 -10 0 -12 -11 -8 -41 5 -36 4 -41 -13
-37 -11 2 -25 20 -34 45 -9 23 -31 63 -50 89 -59 80 -90 127 -117 179 -14 28
-45 80 -70 117 -24 37 -66 112 -94 166 l-51 99 7 112 c7 103 14 127 30 101z
m5599 -46 c3 -9 6 -28 6 -43 0 -14 7 -37 16 -49 18 -25 44 -248 43 -367 l0
-70 -29 85 c-16 47 -44 139 -63 205 -19 66 -42 142 -51 169 l-16 49 26 -27
c40 -40 63 -30 44 19 -10 27 -6 45 10 45 4 0 11 -7 14 -16z m-5356 -51 c6 -32
10 -69 10 -83 0 -14 2 -54 4 -90 3 -36 1 -75 -5 -88 -7 -16 -7 -29 2 -46 14
-25 12 -72 -4 -70 -5 0 -18 13 -30 28 -18 25 -18 29 -4 39 14 10 14 17 3 47
-7 19 -13 44 -13 55 -1 11 -14 27 -31 37 -30 17 -43 61 -17 56 13 -3 15 36 2
65 -5 12 -3 17 8 17 8 0 20 -12 26 -27 9 -25 10 -24 4 12 -3 22 -14 50 -25 61
-19 21 -10 43 11 29 5 -3 12 -1 16 5 16 26 33 7 43 -47z m18146 -100 c16 -335
16 -360 1 -403 -8 -22 -21 -48 -30 -56 -8 -9 -15 -32 -15 -53 0 -20 -7 -46
-16 -57 -15 -19 -15 -19 -10 1 3 11 1 27 -4 35 -6 10 -8 -10 -6 -58 4 -83 -20
-165 -49 -170 -16 -4 -17 12 -14 195 2 109 5 202 7 206 2 4 10 3 17 -3 27 -23
57 -7 73 37 14 37 14 43 -1 57 -11 12 -14 26 -10 46 6 35 -15 122 -28 114 -5
-3 -7 -9 -4 -14 3 -5 -1 -26 -10 -46 -8 -20 -15 -58 -15 -83 0 -39 -6 -55 -33
-87 -18 -21 -39 -52 -46 -69 -8 -18 -15 -25 -18 -17 -3 8 2 30 11 50 9 21 25
73 36 117 11 44 30 97 41 119 11 22 27 81 34 131 19 126 36 164 71 165 7 0 13
-54 18 -157z m-13218 70 c5 -34 3 -43 -8 -43 -15 0 -17 -67 -4 -164 4 -30 2
-53 -5 -62 -6 -7 -8 -18 -5 -23 4 -5 2 -12 -4 -16 -6 -3 -13 2 -16 12 -3 10
-10 26 -16 37 -11 21 -1 136 13 136 5 0 9 4 9 10 0 5 -10 9 -21 7 -12 -1 -24
4 -26 11 -3 6 2 12 11 12 18 0 22 16 5 22 -12 4 6 45 25 59 4 4 5 16 1 28 -3
11 -3 26 1 32 11 19 32 -12 40 -58z m14218 -87 c3 -73 13 -205 22 -292 16
-169 14 -191 -22 -269 -31 -68 -50 -116 -59 -142 -8 -27 -20 -29 -33 -7 -5 9
-13 15 -18 15 -5 -1 -11 15 -14 36 -3 23 -10 37 -18 35 -17 -3 -15 17 3 24 8
4 15 15 15 26 0 17 -3 18 -15 8 -13 -11 -15 -6 -15 37 0 27 -7 75 -15 107 -22
84 -13 154 34 266 21 52 49 113 60 134 11 22 23 56 27 75 7 46 21 81 32 81 5
0 12 -60 16 -134z m1876 84 c-7 -4 -10 -12 -7 -17 3 -5 9 -52 12 -104 4 -51
11 -102 16 -111 5 -9 9 -46 9 -82 0 -36 5 -109 10 -163 15 -144 -8 -244 -35
-148 -6 22 -19 57 -28 78 -11 23 -19 73 -22 130 -3 58 -9 96 -17 102 -19 15
-14 189 7 251 9 27 22 54 29 59 7 6 16 19 21 30 8 19 8 19 13 1 2 -10 -2 -22
-8 -26z m-14766 3 c5 -16 15 -69 46 -236 5 -28 18 -55 29 -65 20 -16 33 -64
61 -224 5 -27 16 -58 24 -70 9 -12 16 -41 16 -63 0 -22 9 -71 20 -109 11 -38
22 -101 25 -140 7 -82 -5 -202 -20 -199 -5 1 -18 30 -29 65 -10 35 -23 72 -27
83 -30 68 -89 273 -89 310 0 24 -6 48 -14 54 -8 6 -16 24 -19 39 -3 15 -16 65
-29 112 -21 78 -23 100 -20 273 4 170 11 218 26 170z m10476 -13 c7 -14 8 -66
1 -172 -5 -84 -9 -164 -9 -178 1 -26 -15 -76 -38 -122 -8 -14 -14 -32 -14 -39
0 -7 -7 -20 -16 -30 -8 -9 -19 -41 -24 -71 -20 -120 -68 -267 -83 -252 -6 7
-27 -62 -27 -90 0 -11 -5 -49 -11 -85 -16 -88 -27 -58 -28 72 -1 60 -5 97 -11
97 -7 0 -7 6 -2 18 5 9 12 43 16 75 3 32 12 71 20 85 7 15 20 59 30 97 35 143
49 185 63 185 19 0 32 40 22 68 -14 35 12 172 56 292 8 25 18 51 20 58 6 18
23 15 35 -8z m-18714 -84 c-4 -34 -7 -85 -8 -113 0 -43 -3 -53 -20 -59 -17 -5
-15 -10 24 -47 38 -36 44 -48 45 -84 1 -24 -2 -43 -7 -43 -13 0 -30 34 -30 59
0 12 -6 21 -13 21 -7 0 -19 16 -26 35 -18 50 -31 43 -31 -14 0 -44 4 -54 34
-83 41 -39 51 -73 22 -73 -13 0 -30 18 -50 52 -17 29 -41 60 -54 68 -28 20
-31 70 -4 63 15 -4 17 1 14 34 -4 38 -4 38 27 32 27 -6 32 -3 41 20 5 15 10
65 10 111 0 46 3 91 6 100 14 36 26 -15 20 -79z m20783 -68 c6 -73 14 -153 17
-178 18 -162 17 -194 -11 -294 -28 -105 -82 -236 -96 -236 -15 0 -10 70 7 96
22 33 32 173 11 155 -8 -6 -12 -21 -10 -34 4 -22 -20 -67 -31 -56 -3 3 -8 39
-11 80 -3 40 -7 83 -8 94 -1 15 5 21 26 23 33 4 36 27 7 57 -18 19 -20 28 -11
66 5 24 17 49 25 55 11 7 16 27 16 61 0 27 7 75 15 106 8 32 15 71 15 87 0 34
9 62 19 55 4 -2 13 -64 20 -137z m-330 -129 c7 -133 6 -170 -5 -203 -8 -23
-26 -85 -40 -138 -23 -94 -52 -167 -65 -168 -9 0 -18 89 -19 201 0 79 3 105
21 145 14 30 23 72 25 109 3 84 20 204 34 240 l12 30 14 -27 c9 -17 17 -85 23
-189z m-12373 121 c20 -61 22 -69 28 -153 2 -32 11 -69 20 -82 9 -13 16 -30
16 -37 0 -6 12 -25 27 -40 23 -24 27 -37 25 -74 -1 -27 6 -66 17 -93 11 -25
25 -70 31 -99 7 -30 19 -56 26 -59 9 -3 12 -13 9 -24 -4 -11 0 -26 9 -34 10
-11 16 -38 17 -88 1 -66 5 -148 8 -171 0 -6 7 -2 14 7 9 13 15 14 27 4 24 -19
50 -64 50 -87 0 -21 -14 -27 -25 -10 -4 6 -11 7 -17 4 -6 -4 -8 -39 -4 -95 3
-51 1 -89 -4 -89 -19 0 -23 29 -18 135 1 22 -2 58 -6 80 l-8 40 -14 -34 c-8
-18 -14 -43 -14 -55 -1 -54 -76 194 -88 289 -2 22 -8 45 -12 50 -4 6 -20 44
-34 86 -20 59 -26 96 -27 170 -1 52 -3 86 -6 77 -7 -28 -39 -22 -51 10 -34 94
-42 145 -42 259 0 125 7 190 20 176 4 -4 16 -33 26 -63z m-3392 15 c9 -13 16
-31 16 -40 0 -9 10 -26 23 -39 55 -55 67 -78 67 -127 0 -40 -3 -49 -17 -49
-22 0 -96 77 -87 91 3 6 -1 18 -9 27 -11 13 -13 28 -8 65 8 49 1 63 -24 53
-16 -6 -19 3 -9 28 9 23 29 20 48 -9z m19386 0 c0 -8 -9 -24 -20 -35 -11 -11
-20 -26 -20 -34 0 -7 -11 -30 -25 -50 -14 -20 -25 -44 -25 -52 0 -18 -31 -74
-41 -74 -4 0 -12 -14 -19 -30 -20 -48 -83 -70 -92 -32 -6 25 16 109 26 94 4
-6 4 -16 1 -22 -3 -5 -2 -17 3 -26 8 -15 13 -13 38 14 32 33 74 106 74 127 0
25 23 64 39 70 9 3 22 18 28 35 12 31 33 41 33 15z m-17671 -58 c6 -8 14 -29
17 -48 7 -40 39 -144 66 -211 12 -32 19 -78 21 -139 2 -79 0 -92 -17 -104 -17
-13 -17 -15 -2 -31 10 -9 16 -31 16 -53 0 -20 4 -63 10 -96 5 -33 7 -81 4
-107 -5 -39 -3 -48 9 -48 24 0 28 -15 17 -66 -8 -33 -8 -50 0 -58 15 -15 12
-56 -3 -56 -20 0 -50 37 -42 51 4 6 9 35 10 64 1 44 -1 52 -15 48 -20 -5 -54
59 -66 123 -3 21 -11 44 -16 51 -13 16 0 71 19 81 13 8 13 11 -2 26 -12 11
-21 14 -29 7 -9 -7 -17 -2 -29 17 -18 32 -24 207 -7 227 5 7 11 84 12 173 1
89 5 162 9 162 3 0 12 -6 18 -13z m1296 -57 c9 -36 17 -72 17 -80 0 -8 5 -20
10 -26 5 -7 3 -46 -6 -95 -8 -46 -12 -88 -9 -93 4 -5 7 -21 9 -35 1 -14 5 -46
8 -71 l7 -45 -25 40 c-14 22 -26 50 -26 62 0 12 -5 34 -11 50 -12 29 -14 336
-3 354 9 15 12 9 29 -61z m-456 -47 c7 -32 15 -76 17 -98 2 -22 7 -53 10 -70
14 -61 24 -245 16 -299 -6 -47 -11 -39 -52 84 -29 85 -31 103 -31 219 1 132 9
221 20 221 4 0 12 -26 20 -57z m-1484 -70 c0 -17 3 -35 8 -39 4 -4 7 -17 7
-28 0 -12 9 -27 19 -33 11 -7 25 -29 31 -50 7 -21 24 -58 37 -82 43 -78 56
-129 48 -195 -4 -34 -9 -94 -11 -134 -4 -70 -4 -73 22 -82 27 -10 29 -31 3
-36 -7 -2 -23 -6 -35 -9 -28 -9 -42 26 -37 94 3 43 1 57 -12 64 -10 5 -14 16
-10 28 4 10 1 52 -6 92 -9 56 -10 81 -1 107 9 24 9 43 1 74 -19 69 -28 83 -54
79 -19 -4 -23 0 -30 34 -4 21 -9 64 -11 96 -3 51 -1 58 14 55 12 -2 17 -13 17
-35z m2208 -28 c9 -27 16 -61 15 -75 -2 -28 10 -80 23 -96 24 -30 77 -212 89
-304 5 -36 13 -96 19 -135 5 -38 12 -115 15 -170 5 -99 5 -99 -10 -60 -45 115
-135 431 -139 490 -13 190 -24 287 -32 297 -18 23 -31 96 -20 107 14 14 19 7
40 -54z m11482 -147 c0 -135 4 -202 11 -205 25 -8 -26 -224 -63 -263 -11 -12
-13 -12 -13 3 0 9 -4 17 -10 17 -5 0 -10 7 -10 15 0 18 -17 20 -23 3 -8 -24
-15 -4 -26 71 -8 61 -7 79 5 103 11 21 12 33 4 42 -15 19 10 132 54 243 19 48
38 102 41 118 23 104 30 67 30 -147z m252 140 c-4 -35 -3 -89 2 -120 8 -64 -6
-168 -23 -168 -11 0 -15 21 -18 87 -1 25 -5 30 -14 22 -7 -5 -14 -6 -17 -2 -7
12 12 126 24 138 5 5 9 22 9 37 0 30 19 68 34 68 5 0 6 -28 3 -62z m-12227 21
c0 -13 4 -18 12 -13 7 4 8 3 4 -5 -4 -6 -3 -17 2 -24 5 -7 13 -23 16 -37 5
-16 4 -20 -2 -12 -7 10 -11 10 -22 -3 -7 -8 -8 -15 -3 -15 21 0 40 -119 27
-167 -8 -31 -22 -29 -34 5 -6 15 -15 35 -21 46 -10 17 -11 199 -1 238 6 23 22
13 22 -13z m-2505 -124 c15 -38 29 -76 32 -82 9 -22 -24 -14 -40 10 -13 18
-16 19 -16 5 -1 -9 4 -20 9 -23 6 -3 10 -19 10 -35 0 -16 4 -40 10 -55 9 -23
7 -27 -16 -35 -21 -8 -25 -16 -24 -43 3 -53 1 -62 -11 -50 -12 12 -20 192 -8
199 4 2 6 50 3 106 -5 120 5 120 51 3z m14236 22 c0 -34 0 -73 0 -87 1 -14 0
-36 -1 -50 -2 -14 0 -55 4 -93 6 -56 4 -78 -14 -132 -12 -36 -25 -67 -30 -70
-12 -8 -23 77 -16 120 11 65 16 110 10 98 -3 -7 -13 -13 -21 -13 -9 0 -13 -3
-10 -6 8 -9 -11 -44 -23 -44 -12 0 -13 44 -1 68 16 32 31 88 31 119 0 28 9 60
39 136 17 44 32 21 32 -46z m2134 24 c-3 -12 -11 -21 -16 -21 -5 0 -9 -9 -9
-20 0 -13 5 -18 15 -14 12 5 15 -1 14 -27 0 -19 2 -78 7 -131 5 -74 4 -98 -5
-98 -7 0 -17 14 -22 30 -13 35 -17 36 -35 13 -11 -16 -13 -16 -19 10 -5 18 -2
35 9 52 20 31 26 91 8 87 -17 -3 -7 55 20 117 13 31 22 41 29 34 6 -6 8 -20 4
-32z m-15977 -55 c-4 -31 0 -48 13 -64 l17 -22 7 30 c4 16 3 39 0 51 -5 15 -3
20 6 17 8 -2 20 -24 27 -49 7 -24 26 -71 43 -104 32 -65 34 -75 19 -75 -5 0
-10 7 -10 15 0 9 -11 20 -24 25 -13 5 -27 14 -31 19 -10 18 -44 12 -55 -8 -8
-16 -5 -23 15 -39 28 -22 33 -52 9 -52 -10 0 -14 -6 -11 -14 4 -10 -1 -12 -16
-9 -20 4 -21 3 -5 -10 10 -7 14 -18 9 -23 -13 -14 -22 -102 -11 -109 8 -5 12
-165 4 -165 -1 0 -14 21 -28 47 -25 45 -26 51 -18 132 9 99 8 158 -3 185 -5
11 -3 65 4 122 7 57 10 117 6 133 -9 42 3 58 22 31 10 -15 14 -36 11 -64z
m-5168 59 c0 -8 -3 -15 -7 -15 -13 0 -32 -50 -26 -66 3 -8 13 -13 22 -12 11 3
15 13 13 37 -3 45 21 36 28 -10 4 -29 9 -34 33 -35 15 -1 31 6 36 14 4 8 16
12 27 10 20 -4 31 -45 35 -133 1 -27 6 -58 10 -67 6 -10 5 -19 -1 -23 -8 -5
-8 -11 -1 -19 6 -7 14 -45 17 -84 7 -73 0 -88 -26 -57 -21 25 -27 17 -24 -30
l3 -45 -34 0 c-30 0 -37 4 -50 37 -8 20 -18 53 -21 75 -4 21 -20 59 -35 83
-16 25 -29 50 -29 55 0 7 -41 40 -57 44 -1 1 -5 15 -9 31 l-7 30 32 -29 c32
-31 38 -26 21 18 -5 14 -11 45 -13 69 -2 24 -7 49 -11 55 -4 7 -2 12 4 12 6 0
13 8 17 18 8 22 34 52 45 52 4 0 8 -7 8 -15z m5898 -33 c0 -20 2 -57 5 -81 4
-26 1 -51 -6 -62 -9 -15 -9 -23 1 -39 6 -11 12 -27 12 -35 0 -9 6 -15 13 -14
33 4 37 -2 37 -62 0 -50 3 -62 18 -66 24 -6 47 -80 31 -99 -6 -8 -18 -14 -25
-14 -18 0 -18 -11 1 -36 19 -24 21 -148 3 -142 -7 3 -22 31 -35 64 -12 32 -33
87 -48 121 -14 34 -27 82 -29 105 -2 24 -7 60 -11 81 -5 23 -3 42 4 51 9 11 9
52 -2 158 -1 7 2 37 6 66 9 59 27 62 25 4z m-5338 -56 c17 -35 57 -90 96 -131
60 -62 68 -68 75 -50 7 18 8 17 8 -7 1 -14 -5 -28 -11 -30 -10 -4 -9 -14 3
-44 19 -46 27 -248 10 -258 -7 -5 -7 -15 0 -33 13 -35 -5 -55 -26 -27 -18 24
-18 44 -1 67 9 12 11 28 6 50 -11 45 -21 67 -30 67 -5 0 -12 9 -15 20 -9 27
20 71 40 64 13 -5 13 -3 0 22 -8 16 -15 34 -15 41 0 6 -17 32 -37 57 -76 92
-103 128 -103 142 0 7 -8 19 -18 26 -21 15 -42 61 -42 90 0 33 26 5 60 -66z
m2470 24 c9 -36 20 -56 41 -71 l29 -20 0 -150 c0 -83 -4 -148 -8 -145 -5 3 -9
23 -10 44 -2 44 -18 80 -55 121 -18 21 -22 32 -15 39 8 8 8 15 -1 26 -13 15
-12 218 0 210 4 -2 12 -26 19 -54z m-2153 -18 c15 -36 29 -52 47 -52 5 0 2 8
-7 18 -14 15 -14 21 -4 34 14 19 67 33 67 18 0 -5 7 -10 15 -10 9 0 15 -9 15
-24 0 -14 4 -27 9 -30 5 -3 11 -17 13 -31 7 -35 -29 -57 -48 -29 -30 43 -54
58 -54 34 0 -5 5 -10 10 -10 6 0 10 -6 10 -13 0 -7 14 -40 30 -72 34 -67 36
-72 15 -55 -8 7 -15 17 -15 23 0 6 -15 27 -34 47 -19 19 -55 75 -81 123 -38
73 -42 86 -24 77 11 -7 28 -28 36 -48z m19198 -2 c3 -10 2 -28 -4 -38 -7 -12
-7 -22 0 -29 8 -8 20 -195 22 -338 0 -17 -14 -60 -31 -95 -24 -49 -30 -57 -26
-32 4 21 2 32 -6 32 -14 0 -11 182 3 192 10 6 16 35 19 83 1 31 -19 157 -30
186 -8 21 -7 30 6 43 22 22 39 20 47 -4z m625 -9 c0 -33 -28 -169 -40 -191 -9
-16 -8 -20 5 -20 10 0 15 10 15 29 0 37 16 49 24 18 10 -39 7 -119 -5 -111 -6
3 -8 18 -5 33 6 23 5 24 -7 9 -8 -10 -17 -50 -20 -89 -3 -39 -11 -77 -18 -85
-6 -7 -9 -26 -6 -41 3 -16 8 -43 12 -60 4 -24 2 -33 -7 -34 -7 -1 -19 -2 -27
-3 -18 -1 -25 -109 -10 -138 8 -15 5 -26 -15 -53 -15 -19 -29 -49 -33 -66 -6
-32 -6 -31 -24 25 -11 32 -16 62 -13 67 3 5 0 25 -6 45 -9 26 -9 38 -1 48 7 8
9 30 5 54 -5 32 -2 46 17 72 23 30 23 32 6 44 -22 17 -22 22 9 59 18 22 24 37
19 55 -3 13 1 43 9 66 8 22 22 76 31 119 12 54 22 80 35 87 11 6 22 26 26 45
7 37 24 48 24 16z m-996 -18 c-5 -10 -8 -45 -7 -78 2 -48 6 -63 25 -76 20 -16
22 -24 19 -105 -1 -49 -5 -93 -8 -99 -3 -5 0 -4 8 3 22 21 41 15 33 -10 -14
-46 -46 -108 -56 -108 -9 0 -7 22 8 73 3 9 1 17 -5 17 -16 0 -42 -58 -50 -109
-5 -37 -10 -47 -28 -49 -18 -3 -23 3 -28 31 -5 28 -1 46 24 90 27 48 29 58 19
85 -9 23 -9 43 1 85 17 69 9 95 -13 43 -11 -26 -20 -36 -26 -30 -7 7 0 40 20
94 16 47 30 99 30 116 0 34 6 44 28 44 10 0 12 -5 6 -17z m689 -27 c4 -6 5
-21 2 -33 -3 -12 2 -50 9 -85 8 -35 17 -123 20 -196 6 -132 6 -134 -24 -197
-22 -47 -36 -64 -52 -67 -33 -4 -59 -62 -54 -117 5 -53 -9 -100 -36 -122 -14
-11 -22 -33 -27 -75 -5 -51 -9 -59 -28 -62 -19 -3 -23 -10 -23 -37 0 -47 -17
-53 -24 -8 -19 133 -18 173 4 215 19 36 20 46 10 88 -13 56 -7 213 10 255 7
17 13 51 15 77 2 29 11 57 24 74 12 15 21 38 21 51 0 14 11 47 25 74 13 27 31
71 39 98 21 70 37 92 61 85 11 -4 23 -12 28 -18z m-20039 -40 c14 -24 44 -56
52 -56 4 0 13 8 20 18 12 16 13 16 19 0 4 -10 13 -18 21 -18 8 0 14 -7 14 -15
0 -8 -4 -15 -10 -15 -5 0 -10 -9 -10 -19 0 -11 5 -23 10 -26 16 -10 12 -25 -5
-19 -11 5 -15 -2 -15 -27 -1 -32 -1 -33 -15 -15 -8 11 -15 31 -15 45 0 15 -4
21 -9 16 -12 -15 -30 -224 -22 -270 6 -37 8 -38 19 -19 6 12 9 24 6 27 -6 6
-7 85 -1 134 4 38 13 51 27 37 13 -13 31 -76 20 -69 -11 7 -20 -19 -10 -35 4
-7 13 -9 19 -6 6 4 11 1 12 -6 0 -10 2 -10 6 0 2 6 9 10 13 7 5 -3 8 7 7 22
-2 23 2 28 21 28 12 0 27 7 32 15 9 13 12 13 23 -1 6 -8 20 -18 30 -22 9 -3
17 -12 17 -19 0 -9 -3 -9 -12 0 -25 25 -35 12 -36 -53 0 -45 -5 -70 -16 -81
-9 -8 -16 -20 -16 -25 0 -15 31 -23 39 -10 4 6 15 9 24 5 19 -7 23 16 6 33 -8
8 -6 23 4 53 8 24 16 39 19 34 3 -5 5 -52 4 -105 -2 -84 -6 -103 -32 -154 -24
-49 -29 -55 -32 -34 -5 40 -24 79 -39 79 -7 0 -16 7 -19 15 -4 8 -12 15 -19
15 -7 0 -23 20 -35 45 -12 25 -25 43 -29 41 -4 -3 -8 -35 -10 -73 -1 -37 -3
-75 -4 -83 0 -8 3 -25 7 -37 5 -17 3 -23 -8 -23 -21 0 -30 35 -28 110 2 36 -2
72 -8 80 -7 12 -10 7 -10 -20 0 -19 -6 -47 -14 -61 -11 -22 -11 -38 -1 -93 13
-69 19 -80 70 -132 16 -17 39 -44 49 -59 26 -37 31 -18 12 39 -20 57 -8 96 28
96 27 0 32 -15 35 -95 1 -27 7 -53 13 -56 6 -4 7 -12 3 -19 -5 -8 -4 -11 2 -7
6 4 18 -4 27 -18 24 -37 33 -31 41 25 4 31 12 50 20 50 18 0 38 -89 27 -120
-5 -14 -8 -40 -6 -57 1 -18 -2 -30 -7 -27 -5 3 -22 -3 -39 -12 -28 -17 -30
-17 -51 1 -31 29 -43 55 -30 68 16 16 14 42 -4 57 -13 10 -15 9 -15 -9 0 -11
-3 -21 -6 -21 -19 0 -47 27 -71 68 -15 26 -35 56 -45 67 -61 66 -81 98 -83
133 -1 20 -3 45 -4 55 -1 12 -10 17 -30 17 -23 0 -34 8 -50 34 -26 42 -26 58
-1 74 17 10 18 16 10 32 -6 12 -21 20 -35 20 -25 0 -33 -14 -15 -25 13 -8 1
-35 -14 -29 -30 12 -72 134 -46 134 6 0 10 9 10 20 0 23 17 25 44 5 11 -8 30
-12 46 -8 17 3 42 -1 59 -10 35 -18 36 -17 31 77 -1 29 2 46 8 43 5 -4 7 5 4
21 -4 19 -7 22 -10 10 -2 -10 -10 -18 -19 -18 -10 0 -13 6 -9 16 3 9 6 20 6
26 0 6 7 8 15 4 8 -3 15 -1 15 4 0 6 -5 10 -11 10 -8 0 -10 18 -7 55 3 39 1
59 -9 66 -20 17 -17 71 3 67 9 -2 22 -12 28 -22z m18402 -11 c7 -19 14 -50 14
-69 0 -19 5 -47 12 -61 10 -21 9 -32 -4 -58 -9 -18 -26 -70 -38 -117 -12 -47
-37 -125 -57 -175 -19 -49 -39 -112 -44 -139 -5 -28 -14 -55 -20 -61 -8 -7 -9
33 -5 145 7 153 13 206 36 285 6 22 15 63 20 90 18 108 48 195 67 195 2 0 11
-16 19 -35z m-11341 -80 c9 -44 18 -119 20 -166 2 -48 11 -103 19 -124 9 -20
18 -61 20 -91 3 -30 7 -58 10 -63 3 -5 -1 -14 -9 -21 -11 -9 -16 -4 -24 32 -6
24 -24 84 -41 133 -29 85 -30 98 -29 244 0 84 4 149 9 145 5 -5 16 -45 25 -89z
m-2100 -65 c18 -20 18 -21 -2 -26 -27 -7 -37 -78 -15 -111 16 -26 9 -75 -11
-72 -33 4 -39 -1 -32 -32 6 -26 4 -30 -12 -27 -12 2 -18 12 -18 28 0 14 -3 30
-6 35 -4 6 -8 51 -10 100 l-4 90 38 3 c24 2 37 8 37 18 0 20 14 18 35 -6z
m12329 -145 c-4 -16 -8 -59 -9 -95 -2 -77 -19 -118 -41 -99 -8 6 -16 10 -19 7
-7 -6 -25 -180 -20 -188 6 -10 -36 -144 -47 -148 -4 -2 -8 -10 -8 -18 0 -9 -4
-12 -10 -9 -21 13 -11 158 20 278 41 156 48 176 62 157 9 -13 9 -13 5 0 -9 30
11 141 29 161 18 20 19 20 32 2 9 -12 11 -28 6 -48z m-8780 17 c5 -23 25 -189
29 -244 1 -10 4 -18 8 -18 16 0 43 -148 48 -265 1 -16 6 -31 11 -33 6 -2 10
-13 10 -25 0 -12 -4 -17 -8 -11 -16 17 -64 178 -67 219 -1 22 -14 65 -30 95
-22 45 -29 73 -34 155 -8 126 15 213 33 127z m1855 -40 c7 -13 6 -25 -3 -38
-8 -12 -11 -38 -8 -69 2 -27 5 -77 5 -110 2 -60 2 -60 -29 -63 -20 -2 -36 4
-48 17 -18 20 -18 22 3 72 23 57 26 79 11 79 -11 0 -14 88 -4 114 9 23 61 21
73 -2z m8166 8 c4 -6 10 -8 14 -6 6 4 12 -45 13 -127 1 -30 -15 -92 -38 -145
-8 -18 -14 -46 -14 -62 0 -16 -5 -41 -10 -56 -21 -55 -30 -6 -32 174 -1 178 0
183 22 207 26 27 35 30 45 15z m2180 -64 c-4 -17 -9 -44 -11 -61 -3 -16 -6
-93 -7 -170 -2 -122 -5 -143 -22 -167 -22 -30 -38 -37 -28 -12 3 8 7 79 9 157
1 78 3 155 4 170 1 32 25 131 36 149 12 18 25 -31 19 -66z m-14907 37 c3 -18
-2 -23 -17 -23 -12 0 -21 -4 -21 -8 0 -5 10 -8 22 -8 20 1 23 -5 29 -50 4 -28
13 -62 22 -75 8 -13 17 -36 21 -51 4 -16 13 -28 21 -28 23 0 69 -76 59 -97
-13 -31 -15 -85 -3 -99 6 -8 22 -14 34 -14 26 0 45 -48 24 -61 -7 -4 -10 -18
-6 -36 7 -36 -4 -56 -26 -47 -27 10 -20 -21 8 -36 14 -7 25 -23 26 -34 0 -12
3 -45 5 -74 4 -48 3 -54 -16 -59 -25 -7 -25 -9 0 -35 12 -13 20 -36 20 -57 0
-20 3 -61 6 -91 4 -37 3 -52 -3 -45 -15 14 -44 106 -37 116 3 5 -6 23 -20 39
-35 42 -115 210 -184 386 -11 28 -18 63 -15 77 4 21 0 29 -21 38 -23 11 -25
17 -24 65 2 56 20 74 33 33 11 -34 30 -16 28 27 -1 21 -2 67 -2 101 0 53 -3
62 -21 68 -20 6 -24 19 -20 65 3 35 4 36 42 35 26 0 34 -4 36 -22z m-756 -292
c2 -135 0 -155 -15 -166 -21 -15 -22 -54 -3 -100 8 -18 12 -35 10 -38 -3 -3 4
-20 15 -38 12 -19 21 -41 21 -49 0 -29 -27 13 -64 99 -26 60 -35 92 -31 115 7
40 28 332 27 370 -1 16 4 38 10 50 11 19 13 15 20 -34 4 -30 9 -124 10 -209z
m17474 150 c-14 -20 -26 -43 -26 -51 0 -7 -11 -27 -24 -45 -14 -18 -54 -88
-89 -156 -36 -68 -81 -153 -101 -187 -20 -35 -36 -69 -36 -75 -1 -20 -27 -49
-35 -38 -8 13 50 139 99 215 33 52 72 122 137 250 15 28 34 58 43 65 9 7 16
19 16 25 0 19 33 61 38 47 2 -6 -8 -29 -22 -50z m-4288 -221 c4 -137 3 -155
-18 -210 -13 -35 -27 -57 -33 -53 -6 3 -7 1 -3 -6 4 -6 4 -21 0 -34 -13 -35
-21 58 -19 208 1 104 6 144 24 199 33 100 44 76 49 -104z m633 53 c0 -33 -6
-60 -13 -65 -10 -6 -10 -10 -1 -16 17 -11 21 -211 4 -222 -9 -5 -10 -10 -2
-14 14 -9 15 -103 1 -111 -5 -3 -14 -24 -20 -45 -8 -30 -16 -40 -31 -40 -22 0
-22 -4 -3 257 5 73 4 82 -10 77 -9 -3 -16 -4 -16 -1 0 13 64 193 71 202 5 5 9
18 9 29 0 10 3 16 6 13 4 -3 6 -32 5 -64z m-16735 -61 c5 2 19 -7 32 -20 14
-14 30 -21 39 -18 13 5 14 -2 8 -51 -4 -32 -8 -69 -9 -83 -1 -14 -9 -38 -17
-53 -14 -26 -16 -27 -29 -12 -48 58 -68 114 -65 180 5 95 4 92 19 72 8 -10 18
-16 22 -15z m5757 -74 c8 -35 29 -103 47 -152 18 -52 32 -115 34 -151 2 -34 5
-66 9 -71 7 -13 -4 -64 -14 -64 -5 0 -9 9 -9 19 0 11 -5 23 -11 27 -28 17 -49
90 -49 173 0 74 -3 88 -25 117 -25 33 -33 89 -19 142 10 37 21 25 37 -40z
m-11100 -15 c31 -32 57 -63 57 -70 0 -6 23 -38 50 -69 28 -31 50 -60 50 -64 0
-4 11 -12 24 -20 13 -7 26 -20 29 -29 3 -9 8 -24 12 -33 5 -13 2 -18 -10 -18
-28 0 -122 108 -135 155 -7 25 -21 48 -33 55 -12 6 -41 35 -64 64 -80 99 -67
117 20 29z m11295 -24 c34 -143 42 -188 41 -241 -1 -32 -3 -58 -4 -58 -17 0
-35 16 -35 30 0 11 -4 22 -10 25 -5 3 -10 40 -10 81 0 68 -12 99 -23 57 -2
-10 -2 -4 1 12 3 17 5 58 5 93 0 78 16 78 35 1z m2806 52 c4 -5 30 -12 59 -16
83 -11 127 -24 127 -40 0 -19 -40 -55 -61 -55 -10 0 -21 -4 -24 -10 -8 -14
-45 -12 -73 4 -21 11 -22 14 -8 25 34 28 10 50 -71 66 -18 4 -33 11 -33 17 0
6 10 8 24 4 14 -3 28 -2 31 4 8 12 22 13 29 1z m-12125 -23 c5 -13 32 -47 60
-76 28 -29 63 -72 77 -95 15 -23 47 -65 73 -93 96 -106 121 -135 121 -144 0
-6 18 -29 40 -51 22 -23 40 -43 40 -45 0 -14 -28 2 -60 35 -34 34 -61 68 -153
189 -15 20 -33 42 -40 47 -24 20 -117 137 -117 147 0 6 -16 30 -35 54 -37 45
-41 54 -25 54 6 0 14 -10 19 -22z m2593 -20 c7 -20 3 -145 -6 -220 -8 -61 -7
-69 15 -99 25 -34 47 -73 88 -156 13 -26 33 -58 44 -70 11 -13 18 -26 15 -29
-6 -5 -118 139 -118 152 0 6 -12 24 -83 128 -23 33 -27 49 -27 107 0 37 5 80
10 95 10 26 11 26 25 8 9 -12 15 -14 16 -6 1 6 2 18 3 25 1 6 -1 20 -6 29 -8
18 -1 48 12 48 4 0 10 -6 12 -12z m-2927 -139 c40 -54 87 -113 103 -131 16
-18 64 -72 106 -120 43 -49 81 -88 86 -88 4 0 11 -11 14 -25 4 -14 16 -35 27
-46 17 -17 19 -23 8 -30 -8 -5 -16 -9 -19 -9 -8 0 -80 98 -80 109 0 5 -23 33
-51 63 -56 59 -129 151 -129 162 0 7 -77 108 -145 191 -14 16 -25 33 -25 38 0
18 32 -17 105 -114z m10685 -131 c6 -29 20 -62 32 -75 18 -19 21 -36 23 -152
1 -71 -2 -136 -6 -143 -6 -8 -9 0 -9 24 0 20 -4 39 -9 42 -5 3 -14 36 -20 73
-7 38 -16 86 -21 108 -13 53 -19 175 -9 175 4 0 12 -24 19 -52z m6997 -14 c3
-9 1 -19 -6 -23 -6 -4 -16 -48 -21 -97 -14 -129 -21 -168 -31 -180 -10 -13 -2
-44 12 -44 5 0 9 -8 9 -17 0 -13 3 -14 12 -5 25 25 38 13 38 -34 0 -46 -13
-84 -30 -84 -5 0 -6 16 -3 35 3 19 2 42 -1 52 -7 16 -9 15 -21 -7 -8 -14 -19
-50 -26 -80 -11 -51 -12 -53 -26 -35 -17 23 -11 133 10 166 9 15 9 23 -1 39
-11 18 -10 25 8 47 15 19 20 39 19 77 -1 28 3 69 9 91 6 22 14 57 17 78 6 38
21 49 32 21z m1343 -319 c0 -70 -4 -115 -10 -115 -5 0 -10 6 -10 13 0 8 -3 7
-9 -3 -6 -7 -12 -48 -16 -90 -6 -78 -19 -151 -37 -209 l-11 -34 -13 24 c-20
35 -17 170 6 272 20 91 46 157 61 157 5 0 8 17 5 37 -5 45 1 63 20 63 11 0 14
-23 14 -115z m-21989 -65 c53 -55 101 -100 106 -100 4 0 36 -27 71 -60 60 -57
77 -90 48 -90 -16 0 -112 92 -135 131 -23 37 -110 106 -140 110 -24 4 -28 8
-55 68 -19 41 -19 41 -4 41 6 0 55 -45 109 -100z m13688 -205 c7 -41 17 -75
22 -75 6 0 8 -4 4 -10 -3 -5 -1 -17 4 -27 6 -10 15 -47 21 -83 7 -36 16 -87
20 -113 9 -48 5 -77 -10 -77 -10 0 -26 44 -39 110 -5 30 -19 98 -31 150 -11
52 -20 109 -20 126 0 16 -5 35 -11 41 -8 8 -8 15 2 26 8 8 17 13 20 11 3 -2
12 -37 18 -79z m-13130 -342 c47 -45 88 -83 93 -83 4 0 18 -16 31 -35 13 -19
63 -69 110 -112 49 -43 87 -85 87 -95 0 -28 -22 -21 -65 21 -223 217 -366 365
-380 392 l-18 33 29 -19 c16 -10 67 -56 113 -102z m1929 -64 c10 -18 28 -32
44 -36 29 -6 77 -54 119 -118 15 -22 61 -80 103 -128 76 -89 102 -125 93 -133
-10 -10 -227 228 -227 249 0 4 -16 21 -35 38 -19 17 -35 40 -35 50 0 11 -8 23
-17 26 -31 11 -83 55 -83 69 0 24 20 15 38 -17z m-1060 -757 c17 -13 32 -33
32 -43 0 -12 11 -24 27 -30 55 -21 366 -309 351 -325 -9 -8 -59 21 -90 53 -15
15 -37 37 -48 48 -12 11 -41 38 -63 61 -23 22 -76 70 -117 105 -98 84 -150
138 -150 156 0 16 8 12 58 -25z"/>
<path d="M29109 27652 c-30 -21 -94 -61 -144 -90 -49 -30 -132 -81 -182 -115
-51 -34 -149 -98 -218 -142 -68 -44 -157 -103 -197 -130 -40 -28 -108 -72
-150 -98 -42 -27 -82 -55 -89 -63 -7 -9 -29 -24 -48 -34 -20 -10 -54 -35 -76
-56 -21 -22 -48 -44 -60 -49 -11 -6 -26 -29 -33 -53 -11 -32 -22 -46 -49 -59
-20 -9 -38 -25 -40 -34 -3 -10 -14 -21 -24 -24 -10 -4 -31 -21 -46 -39 -16
-18 -43 -43 -60 -56 -18 -13 -33 -29 -33 -36 0 -6 -9 -23 -20 -37 -11 -14 -20
-36 -20 -50 0 -14 -7 -37 -15 -53 -8 -15 -13 -29 -12 -31 2 -1 20 4 41 11 40
14 60 40 71 89 4 19 11 27 28 27 29 0 39 8 64 50 12 20 47 50 80 70 94 56 122
81 170 155 57 87 67 95 115 95 26 0 41 5 45 15 3 9 19 23 36 32 27 14 186 147
212 178 6 6 18 14 28 18 9 3 17 15 17 24 0 17 32 53 46 53 3 0 21 15 40 33 46
44 54 50 89 67 39 20 178 112 187 125 4 6 12 10 18 10 6 0 14 5 18 11 4 6 27
24 52 39 25 16 51 36 58 46 7 10 44 39 83 65 38 26 72 51 75 56 14 22 -7 15
-57 -20z"/>
<path d="M32500 26993 c0 -11 69 -83 110 -115 57 -43 90 -71 123 -104 18 -17
42 -35 55 -38 24 -8 30 -41 10 -49 -9 -3 -7 -10 7 -25 11 -11 42 -43 68 -71
43 -44 51 -49 64 -36 23 24 42 18 97 -28 57 -49 95 -72 104 -63 8 9 -193 199
-278 263 -41 31 -99 78 -129 106 -30 27 -89 72 -130 100 -99 68 -101 69 -101
60z"/>
<path d="M34061 24778 c-5 -18 -13 -66 -17 -106 -5 -59 -4 -72 7 -70 11 2 15
-23 19 -121 4 -98 8 -121 17 -110 20 24 33 134 21 171 -5 18 -12 62 -14 98
-11 182 -14 195 -33 138z"/>
<path d="M34200 24395 c0 -94 -18 -210 -69 -455 -31 -146 -41 -253 -20 -200 6
14 16 57 24 95 7 39 18 83 24 99 7 16 16 65 21 110 5 45 19 115 30 156 18 62
21 91 16 169 -8 127 -26 145 -26 26z"/>
<path d="M26074 24173 c2 -159 6 -255 13 -268 10 -17 12 -13 18 26 7 48 20 77
30 68 11 -11 35 -115 51 -219 9 -58 26 -121 36 -140 l20 -35 -7 45 c-4 25 -10
81 -15 125 -4 44 -17 103 -28 131 -11 27 -28 99 -37 160 -24 154 -62 335 -73
346 -6 6 -9 -88 -8 -239z"/>
<path d="M34496 24383 c-3 -3 -6 -17 -6 -30 0 -13 -7 -26 -15 -29 -11 -5 -15
-23 -15 -73 0 -111 -11 -169 -35 -196 -20 -21 -23 -31 -18 -83 5 -56 0 -94
-39 -270 -6 -28 -8 -55 -5 -58 8 -9 28 41 34 87 3 19 14 46 24 60 l19 24 1
-70 c0 -38 4 -92 8 -120 l7 -50 8 40 c4 22 16 70 28 107 23 77 21 103 -7 103
-41 0 -41 147 -1 355 14 69 27 142 30 162 4 36 -4 55 -18 41z"/>
<path d="M25524 23706 c-7 -23 -6 -46 2 -78 6 -25 12 -73 12 -106 1 -74 9 -93
28 -67 8 10 16 17 18 14 3 -2 7 -36 10 -74 3 -39 9 -84 15 -102 5 -18 12 -63
16 -100 8 -86 21 -126 45 -148 20 -18 20 -17 20 69 0 47 -4 94 -9 104 -13 26
-41 147 -41 179 0 18 -9 38 -24 52 -19 18 -24 35 -29 104 -6 77 -30 171 -46
181 -4 3 -11 -10 -17 -28z"/>
<path d="M35097 22098 c-14 -29 -31 -80 -37 -113 -24 -121 -50 -241 -65 -295
-8 -30 -20 -84 -25 -120 -6 -36 -20 -91 -30 -123 -11 -31 -20 -72 -20 -90 -1
-17 -7 -63 -14 -102 -8 -38 -11 -74 -8 -79 9 -15 30 36 42 104 7 36 18 79 25
95 25 55 45 143 45 194 0 51 4 73 45 236 13 50 28 122 35 160 7 39 19 94 27
123 8 30 13 56 10 58 -2 3 -16 -19 -30 -48z"/>
<path d="M35126 21578 c-3 -13 -8 -48 -11 -78 -3 -30 -17 -75 -29 -100 -13
-25 -28 -77 -35 -115 -14 -80 -29 -125 -42 -125 -5 0 -9 -41 -9 -92 0 -53 -7
-114 -16 -147 -9 -31 -22 -78 -30 -105 -8 -26 -14 -59 -14 -72 0 -21 2 -23 19
-13 14 9 20 29 24 83 3 39 17 107 30 151 41 132 82 302 108 440 5 28 13 70 18
95 13 59 13 100 1 100 -5 0 -12 -10 -14 -22z"/>
<path d="M33936 20095 c-15 -60 -34 -146 -43 -190 -8 -44 -21 -93 -29 -109
-15 -32 -18 -84 -6 -104 12 -18 40 46 48 110 3 29 12 76 20 103 18 67 47 260
42 282 -2 10 -16 -31 -32 -92z"/>
</g>
</svg>
