<svg width="133" height="109" viewBox="0 0 133 109" fill="none" xmlns="http://www.w3.org/2000/svg">
<path fill-rule="evenodd" clip-rule="evenodd" d="M47.7432 96.2503C47.6343 64.5002 47.6636 32.7498 47.8311 1H60.5311C60.5311 59.8551 60.5311 95.3975 60.5311 107.627C41.54 107.628 21.6963 107.628 1 107.627C1 100.043 1 96.2503 1 96.2503C32.1621 96.2503 47.7432 96.2503 47.7432 96.2503Z" fill="#ECECEC" stroke="black" stroke-miterlimit="22.9256"/>
<path fill-rule="evenodd" clip-rule="evenodd" d="M85.7547 96.2503C85.8636 64.5002 85.8343 32.7498 85.6668 1H72.9668C72.9668 59.8551 72.9668 95.3975 72.9668 107.627C91.9579 107.628 111.802 107.628 132.498 107.627C132.498 100.043 132.498 96.2503 132.498 96.2503C101.336 96.2503 85.7547 96.2503 85.7547 96.2503Z" fill="#ECECEC" stroke="black" stroke-miterlimit="22.9256"/>
</svg>
